<svg xmlns="http://www.w3.org/2000/svg" width="200" height="200" viewBox="0 0 200 200" version="1.1"><path d="M 101.743 93.550 C 100.510 94.953, 98.295 98.329, 96.822 101.054 C 95.349 103.779, 92.874 107.034, 91.322 108.287 C 87.253 111.572, 80.330 115.924, 77.402 117.037 L 74.880 117.996 75.493 118.989 L 76.107 119.982 79.313 118.643 C 81.076 117.906, 84.765 115.901, 87.510 114.187 L 92.500 111.072 93.354 114.557 L 94.208 118.041 96.197 119.106 L 98.186 120.170 100.843 119.507 C 104.065 118.703, 107.165 116.076, 106.384 114.812 L 105.815 113.891 103.348 115.507 C 101.992 116.396, 99.896 116.983, 98.691 116.812 L 96.500 116.500 96.571 112 L 96.642 107.500 99.974 104 C 104.120 99.646, 106.991 95.045, 106.996 92.750 L 107 91 105.493 91 C 104.665 91, 102.977 92.148, 101.743 93.550" stroke="none" fill="#fffcfc" fill-rule="evenodd"/><path d="" stroke="none" fill="#fcfcfc" fill-rule="evenodd"/></svg>