<svg xmlns="http://www.w3.org/2000/svg" width="200" height="200" viewBox="0 0 200 200" version="1.1"><path d="M 74.518 102.329 L 70 106.657 70 110.629 C 70 112.814, 70.540 115.746, 71.201 117.146 L 72.402 119.691 75.701 119.815 L 79 119.939 79 118.504 C 79 117.715, 80.350 114.941, 82 112.339 L 85 107.608 85 104.004 C 85 96.778, 80.981 96.135, 74.518 102.329 M 76.348 104.220 C 72.095 108.717, 70.967 116, 74.523 116 C 75.243 116, 77.210 114.260, 78.894 112.134 L 81.956 108.268 82.228 104.923 L 82.500 101.578 80.975 101.259 C 80.137 101.084, 78.054 102.416, 76.348 104.220" stroke="none" fill="#fffcfc" fill-rule="evenodd"/><path d="" stroke="none" fill="#fcfcfc" fill-rule="evenodd"/></svg>