<svg xmlns="http://www.w3.org/2000/svg" width="200" height="200" viewBox="0 0 200 200" version="1.1"><path d="M 163.342 72.250 C 159.769 76.056, 155.079 83.219, 148.534 94.863 C 142.837 104.997, 136.198 114.380, 133.545 116.045 L 131.591 117.272 131.212 116.136 C 130.674 114.522, 128 114.723, 128 116.378 C 128 117.135, 128.649 118.294, 129.442 118.952 L 130.884 120.149 134.270 118.542 L 137.657 116.935 143.669 107.718 C 146.975 102.648, 152.340 93.831, 155.590 88.125 C 158.841 82.419, 163.188 76.006, 165.250 73.874 C 167.313 71.742, 169 69.773, 169 69.499 C 169 67.966, 165.989 69.430, 163.342 72.250" stroke="none" fill="#fffcfc" fill-rule="evenodd"/><path d="" stroke="none" fill="#fcfcfc" fill-rule="evenodd"/></svg>