<svg xmlns="http://www.w3.org/2000/svg" width="200" height="200" viewBox="0 0 200 200" version="1.1"><path d="M 123.798 93.419 C 122.312 94.047, 119.942 95.646, 118.530 96.972 L 115.963 99.383 116.184 102.656 C 116.305 104.456, 116.201 106.116, 115.952 106.344 C 115.703 106.573, 112.469 109.041, 108.764 111.829 L 102.028 116.899 103.058 117.536 C 104.308 118.309, 107.776 116.136, 114.769 110.198 L 120.038 105.725 122.099 107.589 L 124.159 109.454 123.566 112.477 C 122.795 116.407, 120.533 118, 115.726 118 L 111.833 118 112.244 119.250 L 112.655 120.500 116.596 120.796 L 120.537 121.092 123.469 118.033 L 126.400 114.973 126.400 111.358 L 126.400 107.742 124.109 105.887 L 121.817 104.031 125.409 99.836 C 129.380 95.196, 129.562 94.687, 127.750 93.261 L 126.500 92.278 123.798 93.419 M 121.189 98.039 C 119.985 99.160, 119 100.731, 119 101.530 L 119 102.982 122 99.843 C 123.650 98.116, 125 96.545, 125 96.352 C 125 95.395, 123.145 96.216, 121.189 98.039" stroke="none" fill="#fffcfc" fill-rule="evenodd"/><path d="" stroke="none" fill="#fcfcfc" fill-rule="evenodd"/></svg>