<svg xmlns="http://www.w3.org/2000/svg" width="200" height="200" viewBox="0 0 200 200" version="1.1"><path d="M 75.069 28.847 C 74.545 30.856, 73.752 35.650, 73.308 39.500 L 72.500 46.500 65 48.892 C 50.114 53.640, 48.439 54.416, 44.405 58.428 C 40.245 62.564, 36.323 70.464, 37.935 71.460 C 39.698 72.549, 41.788 70.797, 43.623 66.691 C 44.653 64.386, 46.354 61.500, 47.403 60.279 C 49.533 57.799, 56.510 55.188, 63.133 54.392 C 68.174 53.787, 74.931 51.014, 76.757 48.802 C 77.448 47.964, 78.443 43.894, 78.967 39.758 C 79.492 35.622, 79.992 31.847, 80.079 31.369 C 80.605 28.479, 79.761 26.171, 78.011 25.713 C 76.397 25.291, 75.843 25.882, 75.069 28.847" stroke="none" fill="#fffcfc" fill-rule="evenodd"/><path d="" stroke="none" fill="#fcfcfc" fill-rule="evenodd"/></svg>