<svg xmlns="http://www.w3.org/2000/svg" width="200" height="200" viewBox="0 0 200 200" version="1.1"><path d="M 96.750 90.600 L 92 92.061 92 93.385 L 92 94.710 98.949 95.293 C 102.771 95.613, 106.934 96.426, 108.199 97.100 C 110.466 98.307, 118.026 103.917, 119 105.115 C 119.922 106.250, 123.489 106.962, 124.573 106.227 C 125.163 105.827, 125.934 104.720, 126.285 103.766 L 126.925 102.032 125.213 99.022 C 124.271 97.367, 122.960 96.010, 122.300 96.006 C 121.640 96.003, 120.740 95.413, 120.300 94.696 C 119.004 92.583, 109.446 88.994, 105.315 89.070 C 103.217 89.108, 99.362 89.797, 96.750 90.600" stroke="none" fill="#fffcfc" fill-rule="evenodd"/><path d="" stroke="none" fill="#fcfcfc" fill-rule="evenodd"/></svg>