<svg xmlns="http://www.w3.org/2000/svg" width="200" height="200" viewBox="0 0 200 200" version="1.1"><path d="M 79.829 96.250 C 79.614 106.593, 79.559 107.279, 78.830 108.501 C 78.503 109.051, 77.930 110.924, 77.557 112.665 L 76.878 115.830 73.335 117.511 L 69.791 119.193 67.339 118.724 L 64.887 118.256 63.379 119.764 L 61.871 121.271 62.988 122.386 L 64.104 123.500 69.781 123.334 L 75.458 123.168 78.618 119.720 L 81.778 116.272 83.389 109.188 C 85.018 102.025, 85.507 92.484, 84.393 89.582 C 84.059 88.712, 82.934 88, 81.893 88 L 80 88 79.829 96.250" stroke="none" fill="#fffcfc" fill-rule="evenodd"/><path d="" stroke="none" fill="#fcfcfc" fill-rule="evenodd"/></svg>