<svg xmlns="http://www.w3.org/2000/svg" width="200" height="200" viewBox="0 0 200 200" version="1.1"><path d="M 93.314 109.829 L 91.822 111.321 93.455 112.235 C 94.353 112.737, 96.103 113.332, 97.345 113.558 C 101.952 114.393, 107.492 116.817, 107.250 117.891 C 107.112 118.501, 107.384 118.888, 107.853 118.750 C 108.322 118.613, 110.345 120.525, 112.350 123 C 114.354 125.475, 116.750 128.289, 117.675 129.253 L 119.357 131.007 121.337 129.693 C 122.425 128.970, 123.652 127.471, 124.062 126.362 L 124.808 124.345 119.007 118.172 C 115.816 114.778, 112.522 112, 111.686 112 C 110.850 112, 110.017 111.598, 109.833 111.106 C 109.650 110.614, 106.194 109.790, 102.153 109.275 L 94.806 108.337 93.314 109.829" stroke="none" fill="#fffcfc" fill-rule="evenodd"/><path d="" stroke="none" fill="#fcfcfc" fill-rule="evenodd"/></svg>