<svg xmlns="http://www.w3.org/2000/svg" width="200" height="200" viewBox="0 0 200 200" version="1.1"><path d="M 107.477 64.072 L 106.820 66.143 108.392 67.881 C 110.334 70.026, 114.333 77.011, 117.050 83 C 118.173 85.475, 119.556 88.338, 120.125 89.363 C 122.110 92.941, 123.259 99.750, 123.271 108 C 123.279 113.908, 123.055 115.887, 121.612 122.652 C 121.359 123.836, 120.351 126.311, 119.371 128.152 C 118.391 129.993, 117.678 131.828, 117.787 132.228 C 117.896 132.629, 113.639 137.354, 108.328 142.728 C 99.877 151.278, 96.589 156, 99.085 156 C 99.498 156, 100.480 156.247, 101.267 156.549 L 102.697 157.098 108.219 152.599 C 116.588 145.782, 122.284 139.768, 124.492 135.420 C 125.587 133.264, 126.975 130.825, 127.576 130 C 129.584 127.246, 131.470 116.589, 131.382 108.500 L 131.294 100.500 129.087 92.500 L 126.880 84.500 122.515 77.500 C 117.593 69.607, 113.533 64.829, 110.317 63.145 L 108.134 62.002 107.477 64.072" stroke="none" fill="#fffcfc" fill-rule="evenodd"/><path d="" stroke="none" fill="#fcfcfc" fill-rule="evenodd"/></svg>