<svg xmlns="http://www.w3.org/2000/svg" width="200" height="200" viewBox="0 0 200 200" version="1.1"><path d="M 46.571 93.778 C 43.819 102.447, 41.800 114.635, 41.800 122.577 C 41.800 127.566, 44.673 132.457, 51.989 139.919 L 58.730 146.795 66.115 150.220 C 79.162 156.270, 81.025 157, 83.427 157 L 85.786 157 86.454 155.259 L 87.122 153.518 84.950 151.759 C 83.756 150.791, 82.185 150, 81.461 150 C 80.736 150, 79.440 149.297, 78.581 148.439 C 77.723 147.580, 76.116 146.809, 75.010 146.726 C 73.905 146.643, 73 146.220, 73 145.787 C 73 145.354, 72.392 145, 71.649 145 C 69.266 145, 61.023 140.119, 57.301 136.504 C 55.317 134.577, 53.425 132.997, 53.097 132.993 C 52.768 132.989, 51.438 131.427, 50.140 129.521 L 47.780 126.056 47.890 118.772 C 47.950 114.767, 48.420 110.021, 48.935 108.226 C 49.450 106.431, 49.880 104.743, 49.892 104.473 C 49.903 104.204, 50.207 102.415, 50.566 100.498 C 51.386 96.131, 50.405 92, 48.548 92 C 47.771 92, 46.881 92.800, 46.571 93.778" stroke="none" fill="#fffcfc" fill-rule="evenodd"/><path d="" stroke="none" fill="#fcfcfc" fill-rule="evenodd"/></svg>