<svg xmlns="http://www.w3.org/2000/svg" width="200" height="200" viewBox="0 0 200 200" version="1.1"><path d="M 59.844 28.250 C 59.759 28.938, 59.609 35.800, 59.512 43.500 C 59.293 60.780, 58.106 64.530, 50.724 71.266 C 44.913 76.568, 44.661 76.770, 40.689 79.321 C 37.409 81.427, 37.352 84.861, 40.577 86.045 C 42.082 86.597, 43.873 85.991, 47.077 83.845 C 49.510 82.216, 51.650 80.460, 51.833 79.942 C 52.017 79.424, 52.640 79, 53.219 79 C 55.233 79, 58.938 73.944, 60.007 69.736 C 60.599 67.406, 61.488 64.600, 61.983 63.500 C 62.840 61.596, 63.323 59.438, 64.475 52.374 C 65.583 45.580, 65.399 31.464, 64.174 29.250 C 62.837 26.832, 60.100 26.200, 59.844 28.250" stroke="none" fill="#fffcfc" fill-rule="evenodd"/><path d="" stroke="none" fill="#fcfcfc" fill-rule="evenodd"/></svg>