<svg xmlns="http://www.w3.org/2000/svg" width="200" height="200" viewBox="0 0 200 200" version="1.1"><path d="M 99.795 70.250 L 94.500 75.500 92.068 82.500 L 89.636 89.500 89.579 101.500 C 89.526 112.651, 90.121 117.789, 91.774 120.430 C 92.142 121.018, 92.532 122.085, 92.641 122.800 C 92.969 124.970, 95.136 127, 97.122 127 L 99 127 99 124.235 C 99 122.715, 98.034 119.677, 96.854 117.485 L 94.709 113.500 94.617 106 C 94.496 96.192, 95.501 88.451, 97.538 83.500 C 99.170 79.533, 106.188 70.265, 108.768 68.669 L 110.111 67.839 108.933 66.419 C 106.980 64.066, 105.336 64.756, 99.795 70.250" stroke="none" fill="#fffcfc" fill-rule="evenodd"/><path d="" stroke="none" fill="#fcfcfc" fill-rule="evenodd"/></svg>