<svg xmlns="http://www.w3.org/2000/svg" width="200" height="200" viewBox="0 0 200 200" version="1.1"><path d="M 60 61.202 C 60 66.809, 63.179 71.754, 69.995 76.750 C 73.184 79.088, 76.205 81, 76.708 81 C 77.211 81, 78.516 81.832, 79.607 82.849 C 80.698 83.865, 82.246 84.929, 83.046 85.213 C 85.367 86.038, 88 84.131, 88 81.625 C 88 79.789, 87.135 79.049, 83.750 77.988 C 75.678 75.457, 66.627 67.154, 65.522 61.267 C 65.185 59.470, 64.592 57.966, 64.205 57.923 C 63.817 57.881, 62.712 57.696, 61.750 57.512 C 60.318 57.238, 60 57.908, 60 61.202" stroke="none" fill="#fffcfc" fill-rule="evenodd"/><path d="" stroke="none" fill="#fcfcfc" fill-rule="evenodd"/></svg>