<svg xmlns="http://www.w3.org/2000/svg" width="200" height="200" viewBox="0 0 200 200" version="1.1"><path d="M 118.261 34.836 L 114.367 42.673 114.550 46.086 C 114.651 47.964, 114.793 50.214, 114.867 51.088 C 115.023 52.947, 128.310 67, 129.911 67 C 130.510 67, 131 67.406, 131 67.902 C 131 68.398, 132.244 69.238, 133.764 69.768 L 136.527 70.731 137.764 69.408 C 139.791 67.237, 139.192 65.709, 134.661 61.500 C 132.293 59.300, 128.301 55.580, 125.791 53.234 C 123.281 50.888, 121.009 47.829, 120.743 46.436 L 120.259 43.903 123.629 36.870 C 125.483 33.002, 127 29.199, 127 28.419 L 127 27 124.577 27 L 122.155 27 118.261 34.836" stroke="none" fill="#fffcfc" fill-rule="evenodd"/><path d="" stroke="none" fill="#fcfcfc" fill-rule="evenodd"/></svg>