<svg xmlns="http://www.w3.org/2000/svg" width="200" height="200" viewBox="0 0 200 200" version="1.1"><path d="M 88.072 29.955 L 86.752 30.771 88.592 33.886 C 89.603 35.599, 90.725 37, 91.085 37 C 91.444 37, 92.009 38.670, 92.341 40.711 L 92.943 44.422 90.341 48.861 C 88.910 51.303, 85.323 55.929, 82.370 59.142 C 77.347 64.606, 76.173 66.840, 77.585 68.252 C 78.421 69.088, 84 66.994, 84 65.843 C 84 65.315, 84.450 65.160, 85 65.500 C 85.550 65.840, 86 65.669, 86 65.121 C 86 64.572, 87.386 62.633, 89.080 60.812 C 90.774 58.990, 93.576 55.475, 95.308 53 L 98.456 48.500 98.478 42.817 L 98.500 37.134 95.500 33.981 C 91.702 29.990, 89.739 28.925, 88.072 29.955" stroke="none" fill="#fffcfc" fill-rule="evenodd"/><path d="" stroke="none" fill="#fcfcfc" fill-rule="evenodd"/></svg>