<svg xmlns="http://www.w3.org/2000/svg" width="200" height="200" viewBox="0 0 200 200" version="1.1"><path d="M 61.190 82.865 C 60.469 83.320, 59.868 85.224, 59.854 87.096 C 59.840 88.968, 59.836 99.950, 59.846 111.500 C 59.855 123.050, 59.781 134.695, 59.682 137.377 L 59.500 142.255 60.744 142.732 C 61.429 142.995, 61.740 143.612, 61.435 144.105 C 60.444 145.708, 63.716 145.047, 65.116 143.361 L 66.476 141.721 66.262 121.111 C 66.144 109.775, 65.847 99.600, 65.600 98.500 C 65.354 97.400, 65.119 93.999, 65.077 90.941 C 65.034 87.884, 64.438 84.630, 63.750 83.710 L 62.500 82.037 61.190 82.865" stroke="none" fill="#fffcfc" fill-rule="evenodd"/><path d="" stroke="none" fill="#fcfcfc" fill-rule="evenodd"/></svg>