<svg xmlns="http://www.w3.org/2000/svg" width="2048" height="2048" viewBox="0 0 2048 2048" version="1.1"><path d="" stroke="none" fill="#f4f4ec" fill-rule="evenodd"/><path d="M 949.444 347.177 C 948.978 348.646, 948.555 348.898, 948.018 348.029 C 947.414 347.051, 946.758 347.059, 944.877 348.066 C 943.570 348.765, 942.275 349.267, 942 349.180 C 941.725 349.093, 941.457 349.580, 941.403 350.261 C 941.350 350.943, 941.052 352.175, 940.740 353 C 939.217 357.031, 939.088 361.231, 940.446 362.589 C 941.232 363.375, 941.910 365.701, 941.954 367.759 C 942.101 374.688, 943.478 380, 945.126 380 C 945.672 380, 945.767 380.563, 945.337 381.250 C 944.117 383.204, 944.080 384.931, 945.244 385.651 C 945.917 386.067, 946.011 385.827, 945.500 385 C 944.983 384.164, 945.083 383.933, 945.776 384.362 C 946.373 384.731, 946.655 386.175, 946.401 387.571 C 946.112 389.167, 946.690 391.061, 947.957 392.672 C 949.066 394.082, 949.684 395.702, 949.332 396.272 C 948.937 396.911, 949.185 397.003, 949.980 396.512 C 950.958 395.908, 951.157 396.474, 950.808 398.858 C 950.336 402.071, 950.865 402.735, 952.550 401.050 C 953.150 400.450, 953.568 401.371, 953.683 403.550 C 953.784 405.448, 953.950 407.563, 954.052 408.250 C 954.155 408.938, 953.917 410.400, 953.525 411.500 C 953.032 412.881, 953.103 413.093, 953.755 412.185 C 954.395 411.293, 954.650 412.318, 954.547 415.372 C 954.463 417.848, 954.723 419.671, 955.125 419.423 C 956.945 418.298, 957.776 426.441, 956.343 431.349 C 955.895 432.880, 956.185 433.076, 958.027 432.492 C 959.538 432.012, 960.031 432.141, 959.566 432.893 C 959.190 433.502, 958.121 434.014, 957.191 434.032 C 955.624 434.061, 955.627 434.160, 957.234 435.381 C 958.188 436.105, 958.676 436.991, 958.318 437.349 C 957.960 437.707, 958.207 438, 958.869 438 C 959.748 438, 959.792 438.520, 959.032 439.939 C 958.342 441.229, 958.330 442.086, 958.997 442.498 C 959.549 442.839, 959.993 443.654, 959.985 444.309 C 959.975 445.025, 959.582 444.901, 959 444 C 958.467 443.175, 958.031 442.950, 958.031 443.500 C 958.031 444.050, 958.441 445.149, 958.943 445.942 C 959.568 446.930, 959.327 447.802, 958.178 448.707 C 957.255 449.434, 956.950 449.969, 957.500 449.896 C 959.617 449.615, 961 450.039, 961 450.969 C 961 451.501, 960.264 451.655, 959.364 451.309 C 958.229 450.874, 957.884 451.114, 958.239 452.091 C 958.520 452.866, 959.240 453.393, 959.839 453.262 C 960.438 453.131, 960.672 453.691, 960.359 454.506 C 960.046 455.321, 959.393 455.743, 958.907 455.442 C 958.421 455.142, 958.305 455.632, 958.651 456.532 C 959.154 457.843, 959.449 457.903, 960.139 456.834 C 960.844 455.742, 961.179 455.772, 961.985 457 C 962.526 457.825, 963.028 458.050, 963.100 457.500 C 963.171 456.950, 963.586 458.300, 964.021 460.500 C 964.521 463.028, 964.424 464.868, 963.759 465.500 C 963.034 466.189, 962.957 466.034, 963.514 465 C 963.957 464.175, 963.935 463.851, 963.465 464.279 C 962.373 465.273, 961.951 468, 962.888 468 C 963.280 468, 964.223 467.438, 964.983 466.750 C 965.908 465.915, 965.832 466.365, 964.754 468.107 C 963.223 470.582, 963.255 470.811, 965.381 472.607 C 966.613 473.648, 967.021 474.099, 966.287 473.609 C 965.290 472.942, 965.123 473.156, 965.623 474.459 C 966.020 475.494, 965.724 476.561, 964.896 477.086 C 963.833 477.758, 964.010 477.973, 965.633 477.985 C 967.111 477.995, 967.914 478.771, 968.246 480.509 C 968.629 482.509, 968.457 482.794, 967.397 481.914 C 966.665 481.307, 965.525 480.992, 964.861 481.213 C 964.198 481.434, 965.083 482.206, 966.828 482.929 C 968.930 483.799, 970.026 484.961, 970.077 486.371 C 970.119 487.542, 970.308 489.315, 970.497 490.312 C 970.686 491.308, 970.202 492.369, 969.421 492.669 C 968.639 492.969, 968 493.642, 968 494.166 C 968 494.690, 968.563 494.780, 969.250 494.367 C 969.977 493.930, 969.873 494.402, 969 495.495 C 967.639 497.200, 967.662 497.314, 969.250 496.719 C 971.842 495.747, 971.376 496.913, 968.750 497.969 C 967.134 498.619, 966.974 498.891, 968.183 498.937 C 970.028 499.006, 971.730 502.873, 970.357 503.875 C 969.886 504.219, 969.360 505.509, 969.188 506.742 C 968.969 508.325, 969.288 508.827, 970.275 508.448 C 972.517 507.588, 971.679 511.719, 969.130 514.094 C 966.767 516.295, 966.666 519.715, 968.979 519.194 C 970.106 518.940, 970.114 519.158, 969.027 520.468 C 968.305 521.337, 967.988 522.322, 968.322 522.656 C 968.656 522.989, 968.301 524.159, 967.534 525.255 C 966.450 526.802, 966.397 527.662, 967.294 529.099 C 968.184 530.524, 968.155 531.243, 967.166 532.225 C 966.122 533.261, 966.022 533.131, 966.631 531.533 C 967.281 529.826, 967.184 529.749, 965.894 530.954 C 964.464 532.290, 963.438 537, 964.577 537 C 964.882 537, 966.114 536.477, 967.316 535.838 C 969.357 534.752, 969.341 534.842, 967.067 537.215 C 965.729 538.612, 964.474 541.047, 964.278 542.627 C 964.082 544.207, 963.216 547.020, 962.354 548.877 C 960.958 551.882, 960.319 553.945, 960.077 556.219 C 960.034 556.614, 959.388 556.702, 958.639 556.415 C 957.794 556.091, 956.658 557.200, 955.639 559.348 C 953.776 563.274, 953.591 564.371, 954.931 563.543 C 955.443 563.226, 956.151 563.436, 956.505 564.008 C 956.859 564.581, 956.553 564.926, 955.824 564.775 C 955.014 564.607, 954.627 565.235, 954.827 566.394 C 955.007 567.435, 954.557 568.666, 953.827 569.128 C 952.881 569.728, 953.146 569.974, 954.750 569.985 C 957.228 570.002, 957.806 571.754, 955.611 572.596 C 954.811 572.903, 954.435 573.946, 954.724 575.053 C 955.003 576.120, 955.734 576.694, 956.364 576.342 C 957.152 575.901, 957.141 576.095, 956.328 576.975 C 955.684 577.673, 955.422 578.936, 955.747 579.783 C 956.195 580.952, 955.834 581.190, 954.243 580.774 C 952.735 580.379, 952.298 580.614, 952.682 581.613 C 952.975 582.376, 952.730 583, 952.138 583 C 951.546 583, 951.350 583.748, 951.701 584.664 C 952.131 585.783, 951.957 586.091, 951.170 585.605 C 950.489 585.184, 950 585.469, 950 586.286 C 950 587.058, 949.089 588.514, 947.976 589.521 C 946.431 590.920, 946.253 591.544, 947.226 592.161 C 948.087 592.707, 947.748 592.974, 946.183 592.985 C 944.323 592.997, 943.991 593.395, 944.500 595 C 944.915 596.306, 944.678 597.005, 943.817 597.015 C 942.839 597.027, 942.886 597.304, 944 598.094 C 945.170 598.923, 944.887 599.058, 942.715 598.710 C 940.637 598.377, 939.648 598.790, 938.821 600.334 C 938.032 601.808, 938.025 602.508, 938.794 602.765 C 939.414 602.971, 939.016 603.984, 937.860 605.140 C 936.752 606.248, 935.182 606.900, 934.371 606.589 C 933.560 606.278, 933.147 606.429, 933.454 606.926 C 933.761 607.423, 933.447 608.057, 932.756 608.336 C 931.758 608.738, 931.757 608.858, 932.750 608.921 C 934.763 609.048, 934.185 611.807, 932 612.500 C 929.854 613.181, 929.829 613.228, 929.631 616.995 C 929.490 619.681, 927.019 622.964, 925.683 622.241 C 925.234 621.998, 925.009 622.632, 925.183 623.650 C 925.375 624.769, 924.907 625.500, 924 625.500 C 921.873 625.500, 919.946 628.230, 921.095 629.614 C 921.694 630.336, 921.486 631.181, 920.512 631.990 C 919.681 632.680, 919 632.968, 919 632.629 C 919 632.290, 917.875 632.991, 916.500 634.187 C 913.988 636.371, 912.998 638.737, 915.155 637.405 C 915.948 636.914, 916.031 637.130, 915.420 638.095 C 914.931 638.868, 914.467 639.837, 914.390 640.250 C 914.313 640.663, 914.187 641.337, 914.110 641.750 C 914.033 642.163, 913.533 641.825, 913 641 C 912.245 639.831, 912.027 640.107, 912.015 642.250 C 912.007 643.763, 911.550 645.056, 911 645.125 C 910.450 645.194, 909.587 645.306, 909.083 645.375 C 907.630 645.573, 906.540 647, 907.842 647 C 908.716 647, 908.695 647.556, 907.758 649.175 C 904.853 654.196, 899.282 660, 897.367 660 C 896.733 660, 895.937 660.722, 895.599 661.604 C 895.254 662.502, 894.340 662.961, 893.521 662.646 C 892.716 662.338, 891.423 662.719, 890.648 663.495 C 889.873 664.270, 889.067 664.814, 888.857 664.702 C 888.648 664.591, 889.147 665.075, 889.966 665.777 C 891.098 666.747, 891.195 667.468, 890.369 668.777 C 889.771 669.725, 888.881 670.539, 888.391 670.586 C 886.410 670.778, 884.042 672.260, 884.509 673.015 C 885.481 674.588, 883.753 677, 881.643 677.015 C 878.585 677.037, 876.835 678.405, 877.533 680.227 C 877.906 681.197, 876.959 682.996, 875.044 684.955 C 873.307 686.732, 872.253 688.638, 872.637 689.308 C 873.013 689.964, 872.952 690.166, 872.502 689.759 C 872.052 689.351, 870.968 689.576, 870.092 690.259 C 868.679 691.361, 868.656 691.301, 869.891 689.727 C 871.111 688.173, 871.080 688.032, 869.641 688.584 C 868.739 688.931, 868 689.865, 868 690.660 C 868 692.531, 862.847 699, 861.357 699 C 860.728 699, 859.928 699.744, 859.579 700.653 C 859.007 702.147, 858.794 702.122, 857.391 700.403 C 856.036 698.744, 855.907 698.724, 856.387 700.250 C 856.704 701.257, 856.420 702.006, 855.719 702.015 C 854.779 702.027, 854.774 702.205, 855.697 702.792 C 856.487 703.294, 856.577 704.055, 855.963 705.026 C 855.450 705.837, 855.024 706.062, 855.015 705.527 C 855.007 704.993, 854.313 705.536, 853.473 706.736 C 852.511 708.108, 851.349 708.688, 850.336 708.299 C 849.332 707.914, 848.877 708.132, 849.127 708.881 C 849.347 709.540, 847.407 712.338, 844.817 715.097 C 841.692 718.425, 840.314 720.655, 840.723 721.721 C 841.074 722.636, 840.923 723.070, 840.372 722.730 C 839.840 722.401, 838.751 722.545, 837.952 723.051 C 836.781 723.792, 836.765 723.972, 837.872 723.985 C 838.907 723.996, 838.971 724.330, 838.131 725.342 C 837.519 726.080, 837.313 726.980, 837.675 727.342 C 838.037 727.704, 837.808 728, 837.167 728 C 836.525 728, 836 728.576, 836 729.279 C 836 729.983, 835.117 731.195, 834.037 731.973 C 832.957 732.752, 831.792 734.673, 831.447 736.242 C 830.989 738.326, 830.494 738.825, 829.612 738.093 C 828.736 737.366, 828.098 737.903, 827.289 740.045 C 826.604 741.861, 826.549 743, 827.146 743 C 827.681 743, 827.821 743.481, 827.458 744.068 C 827.095 744.656, 826.243 744.924, 825.566 744.664 C 824.717 744.338, 824.314 745.483, 824.271 748.345 C 824.236 750.630, 823.961 754.262, 823.659 756.415 C 823.163 759.954, 823.458 760.650, 826.723 763.640 C 828.710 765.461, 831.273 766.954, 832.418 766.960 C 833.563 766.966, 835.175 767.011, 836 767.060 C 837.801 767.167, 843.032 766.098, 844.180 765.389 C 844.631 765.110, 845 764.265, 845 763.511 C 845 762.756, 846.013 761.985, 847.250 761.796 C 848.487 761.607, 849.388 760.901, 849.250 760.226 C 849.113 759.552, 849.450 759, 850 759 C 850.550 759, 851 758.298, 851 757.441 C 851 756.584, 851.370 756.110, 851.822 756.390 C 852.274 756.669, 853.394 756.021, 854.312 754.949 C 855.230 753.877, 855.647 752.986, 855.240 752.970 C 854.833 752.953, 855.288 752.481, 856.250 751.920 C 857.212 751.359, 858 750.193, 858 749.328 C 858 748.082, 858.295 748, 859.421 748.935 C 860.590 749.905, 860.744 749.739, 860.289 747.998 C 859.877 746.421, 860.279 745.740, 861.868 745.324 C 863.041 745.018, 864 744.343, 864 743.824 C 864 743.306, 864.450 743.160, 865 743.500 C 865.550 743.840, 866 743.416, 866 742.559 C 866 741.702, 866.702 741, 867.559 741 C 868.416 741, 868.848 740.563, 868.518 740.029 C 868.188 739.495, 869.062 738.772, 870.459 738.421 C 871.857 738.070, 873 737.350, 873 736.820 C 873 734.672, 880.063 730.303, 881.800 731.376 C 882.345 731.713, 883.048 731.316, 883.364 730.494 C 883.735 729.528, 883.330 728.995, 882.219 728.985 C 880.786 728.972, 880.742 728.816, 881.952 728.051 C 882.751 727.545, 883.732 727.335, 884.133 727.582 C 884.534 727.830, 885.149 727.568, 885.500 727 C 885.851 726.432, 886.568 726.233, 887.094 726.558 C 887.619 726.883, 887.926 726.590, 887.775 725.906 C 887.624 725.223, 888.510 724.137, 889.744 723.492 C 890.978 722.848, 891.653 721.926, 891.244 721.444 C 890.835 720.961, 891.307 721.185, 892.292 721.941 C 893.700 723.020, 894.344 723.054, 895.292 722.098 C 896.239 721.145, 896.086 721.039, 894.586 721.611 C 893.184 722.145, 892.881 722.001, 893.453 721.076 C 893.883 720.381, 895.311 720.017, 896.626 720.269 C 898.438 720.615, 898.769 720.427, 897.993 719.492 C 896.348 717.509, 898.188 714.407, 900.998 714.427 C 902.822 714.440, 903.496 713.913, 903.498 712.472 C 903.499 711.238, 904.062 710.625, 905 710.833 C 905.825 711.017, 906.168 710.835, 905.763 710.430 C 905.358 710.025, 905.915 708.256, 907 706.500 C 908.085 704.744, 908.642 702.941, 908.237 702.494 C 907.832 702.047, 908.298 701.968, 909.273 702.318 C 910.373 702.713, 911.795 702.205, 913.023 700.977 C 914.110 699.890, 915 699.243, 915 699.539 C 915 699.836, 915.630 699.499, 916.400 698.789 C 917.379 697.888, 917.492 697.124, 916.777 696.250 C 916.215 695.563, 916.148 694.931, 916.628 694.848 C 918.945 694.443, 919.622 694.253, 921.187 693.571 C 922.115 693.166, 922.629 692.197, 922.330 691.417 C 921.990 690.531, 922.434 690, 923.515 690 C 924.939 690, 925.025 689.735, 924 688.500 C 922.976 687.266, 923.059 687, 924.473 687 C 925.418 687, 927.437 686.113, 928.959 685.030 C 930.480 683.946, 931.900 683.225, 932.113 683.429 C 932.326 683.632, 933.160 683.083, 933.967 682.209 C 935.268 680.799, 935.240 680.694, 933.717 681.278 C 932.556 681.724, 932 681.443, 932 680.410 C 932 679.569, 932.450 679.160, 933 679.500 C 933.550 679.840, 934 679.615, 934 679 C 934 678.385, 934.367 678.109, 934.817 678.387 C 935.266 678.664, 936.432 677.539, 937.408 675.886 C 938.385 674.233, 940.311 672.452, 941.689 671.928 C 943.066 671.404, 944.427 670.081, 944.713 668.988 C 945.012 667.845, 946.140 666.951, 947.367 666.884 C 949.057 666.792, 949.136 666.673, 947.750 666.311 C 946.788 666.059, 946 665.450, 946 664.958 C 946 664.466, 946.753 664.352, 947.674 664.705 C 948.942 665.192, 949.192 664.942, 948.705 663.674 C 947.952 661.712, 948.800 659, 950.166 659 C 950.690 659, 950.780 659.563, 950.367 660.250 C 949.851 661.110, 950.141 661.074, 951.297 660.137 C 952.222 659.387, 952.731 658.374, 952.430 657.887 C 952.129 657.399, 952.385 657, 953 657 C 953.615 657, 953.850 656.566, 953.523 656.036 C 953.195 655.507, 953.878 654.122, 955.041 652.959 C 956.203 651.797, 956.900 650.182, 956.589 649.371 C 956.278 648.560, 956.427 648.146, 956.921 648.451 C 958.053 649.151, 961 648.066, 961 646.950 C 961 646.491, 960.069 646.294, 958.931 646.513 C 957.633 646.763, 957.014 646.462, 957.269 645.706 C 957.493 645.043, 958.639 644.487, 959.817 644.471 C 960.994 644.455, 962.507 643.893, 963.179 643.221 C 964.009 642.391, 964.044 642, 963.288 642 C 961.707 642, 962.241 639.871, 964.472 637.286 C 966.023 635.489, 966.676 635.297, 967.941 636.269 C 969.039 637.112, 968.983 636.856, 967.750 635.404 C 965.394 632.629, 965.511 632.266, 969.009 631.498 C 970.795 631.106, 971.747 630.400, 971.352 629.761 C 970.914 629.052, 971.507 628.892, 973.094 629.293 C 975.259 629.840, 975.325 629.769, 973.750 628.590 C 971.596 626.977, 971.510 626, 973.521 626 C 974.358 626, 975.521 624.950, 976.106 623.667 C 976.691 622.383, 977.806 621.258, 978.585 621.167 C 979.363 621.075, 980.690 620.925, 981.533 620.833 C 982.509 620.727, 982.719 620.319, 982.111 619.711 C 980.734 618.334, 982.999 613.786, 984.730 614.450 C 985.486 614.740, 985.829 614.532, 985.493 613.989 C 985.157 613.445, 985.306 613, 985.824 613 C 987.181 613, 987.962 608.007, 986.611 607.968 C 985.996 607.951, 986.169 607.393, 987 606.718 C 987.825 606.048, 989.127 604.284, 989.893 602.798 C 990.660 601.312, 991.729 600.187, 992.268 600.298 C 992.808 600.409, 993.477 599.875, 993.755 599.111 C 994.092 598.181, 993.803 597.958, 992.880 598.435 C 992.121 598.827, 992.374 598.440, 993.441 597.574 C 994.509 596.708, 994.985 596, 994.500 596 C 994.015 596, 994.447 595.393, 995.462 594.652 C 996.476 593.910, 997.004 592.816, 996.636 592.221 C 996.268 591.625, 996.432 590.851, 997 590.500 C 997.568 590.149, 997.774 589.443, 997.457 588.931 C 997.141 588.419, 997.528 588, 998.319 588 C 1000.097 588, 1002.538 585.204, 1001.588 584.255 C 1001.205 583.872, 1000.473 584.220, 999.961 585.029 C 999.300 586.074, 999.026 586.129, 999.015 585.219 C 999.007 584.514, 999.703 583.668, 1000.562 583.338 C 1001.561 582.955, 1002.021 581.760, 1001.838 580.021 C 1001.676 578.478, 1002.279 576.578, 1003.234 575.623 C 1004.159 574.699, 1004.683 573.338, 1004.400 572.600 C 1004.117 571.862, 1004.609 570.980, 1005.494 570.640 C 1006.430 570.282, 1006.848 570.437, 1006.493 571.011 C 1006.157 571.555, 1006.350 572, 1006.922 572 C 1008.207 572, 1009.428 567.501, 1008.535 566.057 C 1008.176 565.476, 1008.471 564.993, 1009.191 564.985 C 1010.142 564.974, 1010.090 564.704, 1009 564 C 1007.718 563.172, 1007.754 563.028, 1009.250 563.015 C 1010.212 563.007, 1011 562.325, 1011 561.500 C 1011 560.675, 1011.788 559.993, 1012.750 559.985 C 1014.108 559.973, 1014.197 559.778, 1013.148 559.113 C 1012.069 558.429, 1012.190 557.978, 1013.752 556.878 C 1014.960 556.027, 1015.575 554.640, 1015.360 553.250 C 1015.169 552.013, 1015.446 551, 1015.975 551 C 1016.504 551, 1016.678 550.325, 1016.362 549.500 C 1015.936 548.390, 1016.530 547.982, 1018.643 547.930 C 1021.141 547.868, 1021.249 547.752, 1019.500 547 C 1018.400 546.527, 1017.950 546.095, 1018.500 546.039 C 1019.050 545.983, 1020.379 544.714, 1021.453 543.219 C 1022.992 541.077, 1023.045 540.791, 1021.703 541.872 C 1020.501 542.841, 1020 542.897, 1020 542.063 C 1020 541.414, 1019.503 541.189, 1018.896 541.564 C 1018.289 541.939, 1018.566 541.066, 1019.511 539.623 C 1021.065 537.251, 1022.915 535.711, 1021.543 537.931 C 1021.226 538.443, 1021.425 539.144, 1021.984 539.490 C 1022.543 539.835, 1023 539.443, 1023 538.618 C 1023 537.793, 1022.624 536.886, 1022.164 536.601 C 1020.869 535.801, 1021.497 531.668, 1022.988 531.171 C 1023.877 530.874, 1024.110 531.271, 1023.691 532.364 C 1022.943 534.313, 1025.506 534.653, 1026.601 532.750 C 1026.997 532.063, 1026.955 531.831, 1026.509 532.234 C 1026.063 532.638, 1025.105 532.188, 1024.381 531.234 C 1022.639 528.941, 1022.674 528, 1024.500 528 C 1025.433 528, 1026 527.056, 1026 525.500 C 1026 524.125, 1025.590 523, 1025.088 523 C 1023.994 523, 1024.260 520.376, 1025.465 519.279 C 1025.936 518.850, 1025.954 519.132, 1025.506 519.905 C 1024.958 520.849, 1025.069 521.075, 1025.845 520.595 C 1026.480 520.203, 1027 519.207, 1027 518.382 C 1027 517.557, 1026.550 517.160, 1026 517.500 C 1025.450 517.840, 1025 517.465, 1025 516.666 C 1025 515.867, 1025.704 514.944, 1026.563 514.614 C 1027.423 514.284, 1027.866 513.592, 1027.547 513.076 C 1027.228 512.560, 1027.425 511.856, 1027.984 511.510 C 1029.805 510.385, 1029.053 508.848, 1027 509.500 C 1025.808 509.878, 1025 509.680, 1025 509.008 C 1025 508.389, 1025.520 508.203, 1026.156 508.596 C 1026.985 509.109, 1027.129 508.396, 1026.665 506.075 C 1026.217 503.836, 1026.477 502.380, 1027.509 501.348 C 1029.193 499.664, 1029.468 498, 1028.061 498 C 1026.363 498, 1027.457 491.539, 1029.468 489.694 C 1030.968 488.316, 1031.134 487.701, 1030.165 487.102 C 1029.466 486.670, 1029.031 485.683, 1029.197 484.908 C 1029.364 484.134, 1028.938 483.612, 1028.250 483.750 C 1027.563 483.887, 1027 483.550, 1027 483 C 1027 482.450, 1027.498 482, 1028.107 482 C 1028.716 482, 1028.964 481.348, 1028.658 480.551 C 1028.286 479.582, 1028.582 479.286, 1029.551 479.658 C 1030.348 479.964, 1031 479.716, 1031 479.107 C 1031 478.498, 1030.662 478.053, 1030.250 478.118 C 1028.167 478.447, 1027 477.845, 1027 476.441 C 1027 475.517, 1026.530 475.173, 1025.845 475.595 C 1025.131 476.037, 1024.962 475.870, 1025.403 475.156 C 1025.795 474.522, 1025.447 473.048, 1024.629 471.880 C 1023.039 469.610, 1023.936 465.297, 1026.313 463.786 C 1027.152 463.252, 1027.060 463.022, 1026 463 C 1024.667 462.973, 1024.667 462.862, 1026 462 C 1027.255 461.189, 1027.187 461.028, 1025.583 461.015 C 1024.529 461.007, 1023.951 460.716, 1024.298 460.369 C 1025.221 459.445, 1023.138 455.986, 1021.715 456.079 C 1020.799 456.138, 1020.808 456.282, 1021.750 456.662 C 1022.438 456.940, 1023 457.606, 1023 458.142 C 1023 458.679, 1022.581 458.859, 1022.069 458.543 C 1021.557 458.226, 1020.851 458.432, 1020.500 459 C 1019.772 460.178, 1018 459.386, 1018 457.882 C 1018 457.332, 1018.337 457.087, 1018.750 457.338 C 1019.163 457.589, 1019.566 456.071, 1019.646 453.964 C 1019.740 451.501, 1019.294 449.943, 1018.396 449.598 C 1017.628 449.304, 1017 449.461, 1017 449.948 C 1017 450.435, 1017.563 451.060, 1018.250 451.338 C 1019.190 451.717, 1019.167 451.862, 1018.156 451.921 C 1017.417 451.964, 1016.586 451.131, 1016.308 450.069 C 1015.979 448.811, 1015.258 448.348, 1014.237 448.739 C 1013.150 449.156, 1012.911 448.953, 1013.454 448.075 C 1013.917 447.325, 1013.368 445.637, 1012.106 443.929 C 1009.810 440.824, 1008.390 432, 1010.186 432 C 1010.805 432, 1010.674 431.312, 1009.872 430.346 C 1009.118 429.437, 1008.612 428.537, 1008.750 428.346 C 1009.583 427.192, 1008.764 425, 1007.500 425 C 1006.053 425, 1005.584 423.882, 1005.925 421.250 C 1006.015 420.563, 1005.528 420, 1004.844 420 C 1003.876 420, 1003.867 419.733, 1004.800 418.800 C 1006.463 417.137, 1006.300 416.205, 1004.280 415.815 C 1003.130 415.594, 1002.507 414.435, 1002.401 412.320 C 1002.274 409.799, 1002.573 409.269, 1003.871 409.711 C 1004.905 410.064, 1004.588 409.352, 1003 407.761 C 1001.050 405.806, 1000.184 405.501, 999.063 406.377 C 997.905 407.282, 997.753 407.159, 998.281 405.750 C 998.642 404.788, 998.501 404, 997.969 404 C 997.436 404, 997 403.473, 997 402.829 C 997 402.185, 996.246 400.824, 995.324 399.805 C 993.994 398.336, 993.903 397.699, 994.883 396.726 C 995.861 395.756, 995.990 395.838, 995.502 397.121 C 995.128 398.102, 995.500 398.978, 996.443 399.340 C 998.509 400.133, 998.402 399.171, 995.981 395.201 C 994.874 393.386, 993.557 392.156, 993.054 392.467 C 992.550 392.778, 991.813 392.506, 991.415 391.862 C 990.963 391.131, 991.124 390.959, 991.845 391.405 C 992.480 391.797, 993 391.672, 993 391.126 C 993 390.581, 992.146 389.864, 991.103 389.533 C 989.811 389.122, 989.369 388.304, 989.719 386.965 C 990.015 385.835, 989.734 385, 989.058 385 C 988.411 385, 988.126 384.605, 988.424 384.123 C 989.041 383.125, 976.365 369.393, 975.112 369.701 C 974.663 369.811, 974.516 368.686, 974.785 367.201 C 975.054 365.715, 974.916 364.834, 974.479 365.241 C 973.381 366.266, 971 364.116, 971 362.100 C 971 361.189, 970.100 359.674, 969 358.732 C 967.900 357.790, 967 356.314, 967 355.451 C 967 354.588, 966.601 354.129, 966.113 354.430 C 965.626 354.731, 964.701 354.344, 964.058 353.570 C 963.140 352.463, 963.276 351.929, 964.695 351.075 C 966.229 350.153, 966.087 350.055, 963.750 350.428 C 961.824 350.736, 961 350.438, 961 349.434 C 961 348.645, 960.298 348, 959.441 348 C 958.584 348, 958.157 347.555, 958.493 347.011 C 958.843 346.445, 958.442 346.277, 957.552 346.618 C 956.698 346.946, 955.999 346.828, 955.998 346.357 C 955.997 345.886, 954.671 345.407, 953.051 345.294 C 950.840 345.140, 949.942 345.609, 949.444 347.177" stroke="none" fill="#f4f4f4" fill-rule="evenodd"/></svg>