<svg xmlns="http://www.w3.org/2000/svg" width="2048" height="2048" viewBox="0 0 2048 2048" version="1.1"><path d="M 503.882 1026.671 C 503.816 1027.127, 503.828 1027.871, 503.907 1028.325 C 503.986 1028.779, 503.192 1028.878, 502.144 1028.546 C 500.913 1028.155, 500.022 1028.501, 499.630 1029.522 C 499.235 1030.552, 499.422 1030.857, 500.166 1030.397 C 500.948 1029.914, 501.028 1030.135, 500.420 1031.095 C 499.420 1032.674, 499.162 1038.018, 500.114 1037.429 C 500.452 1037.221, 500.563 1039.176, 500.361 1041.775 C 499.953 1047.023, 499.199 1053.500, 498.996 1053.500 C 498.589 1053.500, 496.850 1072.354, 496.805 1077.262 C 496.785 1079.331, 496.371 1081.270, 495.885 1081.571 C 495.398 1081.872, 495 1083.666, 495 1085.559 C 495 1087.628, 494.502 1089.013, 493.750 1089.032 C 492.911 1089.053, 493.014 1089.464, 494.062 1090.282 C 494.921 1090.952, 495.944 1092.352, 496.336 1093.393 C 496.727 1094.434, 497.322 1095.012, 497.657 1094.676 C 497.993 1094.340, 499.370 1094.932, 500.716 1095.991 C 502.478 1097.377, 504.026 1097.745, 506.238 1097.302 C 508.411 1096.868, 509.104 1097.023, 508.604 1097.832 C 508.145 1098.574, 508.443 1098.767, 509.448 1098.382 C 510.304 1098.053, 511 1098.309, 511 1098.952 C 511 1099.593, 511.500 1099.809, 512.112 1099.431 C 512.723 1099.053, 513.600 1099.352, 514.059 1100.096 C 514.725 1101.174, 515.367 1101.004, 517.224 1099.259 C 518.786 1097.792, 520.369 1097.230, 522.027 1097.556 C 524.174 1097.977, 524.236 1097.920, 522.500 1097.125 C 520.671 1096.287, 520.799 1096.074, 524 1094.643 C 525.925 1093.783, 527.093 1093.061, 526.595 1093.039 C 526.097 1093.018, 526.449 1092.162, 527.376 1091.137 C 528.303 1090.113, 529.328 1087.027, 529.653 1084.280 C 530.166 1079.948, 529.964 1079.088, 528.129 1077.803 C 526.965 1076.988, 526.310 1076.023, 526.673 1075.660 C 527.036 1075.297, 526.789 1075, 526.123 1075 C 525.457 1075, 525.017 1074.438, 525.145 1073.750 C 525.273 1073.063, 525.024 1071.002, 524.592 1069.172 C 524.160 1067.341, 523.679 1064.866, 523.524 1063.672 C 523.368 1062.477, 522.698 1060.150, 522.034 1058.500 C 521.371 1056.850, 520.821 1054.039, 520.814 1052.253 C 520.806 1050.330, 520.389 1049.259, 519.793 1049.628 C 519.171 1050.012, 519.036 1049.463, 519.438 1048.195 C 520.596 1044.546, 517.150 1033.913, 513.671 1030.403 C 510.669 1027.374, 504.137 1024.883, 503.882 1026.671" stroke="none" fill="#ecece4" fill-rule="evenodd"/><path d="M 499.722 1015.265 C 497.675 1016.327, 496 1017.854, 496 1018.657 C 496 1019.461, 495.601 1019.871, 495.113 1019.570 C 494.625 1019.268, 494.288 1019.804, 494.363 1020.761 C 494.443 1021.782, 493.914 1022.374, 493.081 1022.194 C 491.924 1021.944, 491.894 1022.167, 492.917 1023.400 C 493.607 1024.232, 493.824 1025.476, 493.399 1026.164 C 492.973 1026.852, 492.512 1028.481, 492.373 1029.783 C 492.234 1031.085, 491.630 1032.741, 491.030 1033.464 C 490.275 1034.374, 490.238 1036.106, 490.912 1039.106 C 491.585 1042.097, 491.550 1043.838, 490.800 1044.741 C 490.203 1045.460, 490.005 1046.338, 490.360 1046.693 C 490.714 1047.048, 490.294 1048.122, 489.427 1049.081 C 487.501 1051.209, 486.944 1054.105, 488.163 1055.644 C 488.729 1056.359, 488.567 1057.296, 487.729 1058.144 C 485.790 1060.105, 484.935 1062.842, 486.046 1063.529 C 486.651 1063.902, 486.621 1064.839, 485.968 1066.061 C 485.397 1067.127, 485.186 1068, 485.500 1068 C 485.814 1068, 485.589 1068.900, 485 1070 C 484.132 1071.623, 484.240 1072, 485.572 1072 C 486.744 1072, 487.008 1072.501, 486.494 1073.750 C 484.857 1077.725, 484.829 1079.154, 486.355 1080.839 C 487.718 1082.346, 487.758 1082.905, 486.622 1084.556 C 485.471 1086.229, 485.544 1086.769, 487.142 1088.425 C 488.780 1090.122, 489 1090.152, 489 1088.675 C 489 1087.754, 489.478 1087, 490.063 1087 C 490.647 1087, 490.996 1087.787, 490.838 1088.750 C 490.679 1089.713, 490.900 1091.057, 491.327 1091.739 C 491.861 1092.590, 491.615 1092.789, 490.541 1092.377 C 489.424 1091.949, 489.147 1092.220, 489.571 1093.326 C 489.898 1094.177, 490.707 1094.666, 491.368 1094.412 C 492.063 1094.146, 492.643 1094.907, 492.741 1096.213 C 492.875 1097.986, 492.708 1098.153, 491.971 1096.987 C 491.310 1095.942, 491.026 1095.881, 491.015 1096.781 C 491.007 1097.486, 491.644 1098.310, 492.430 1098.612 C 493.635 1099.074, 493.566 1099.847, 491.992 1103.518 C 490.633 1106.689, 490.448 1108.007, 491.312 1108.359 C 492.176 1108.710, 492.184 1108.864, 491.344 1108.921 C 490.662 1108.968, 490.418 1109.882, 490.749 1111.150 C 491.081 1112.418, 490.725 1113.750, 489.880 1114.400 C 488.250 1115.652, 487.995 1118.030, 489.500 1117.941 C 491.582 1117.818, 491.724 1122.466, 489.708 1124.713 C 487.539 1127.129, 486.314 1135.445, 487.847 1137.352 C 489.179 1139.010, 490.916 1148, 489.904 1148 C 489.434 1148, 488.152 1149.972, 487.054 1152.382 C 485.956 1154.792, 484.308 1157.051, 483.393 1157.403 C 481.859 1157.991, 481.869 1158.198, 483.519 1160.021 C 484.504 1161.109, 484.925 1162, 484.455 1162 C 483.985 1162, 484.119 1162.519, 484.753 1163.153 C 485.491 1163.891, 485.583 1164.910, 485.011 1165.980 C 484.372 1167.174, 484.654 1168.115, 485.995 1169.264 C 487.342 1170.417, 488.013 1170.537, 488.359 1169.687 C 488.625 1169.034, 488.878 1169.712, 488.921 1171.193 C 488.971 1172.905, 488.190 1174.454, 486.777 1175.443 C 485.275 1176.496, 485.032 1177.013, 486.027 1177.039 C 486.837 1177.061, 486.038 1177.714, 484.250 1178.491 C 480.780 1179.999, 480.101 1181.441, 482.438 1182.338 C 483.832 1182.873, 484.026 1187.308, 482.713 1188.621 C 482.373 1188.960, 482.778 1189.921, 483.612 1190.755 C 484.623 1191.766, 484.795 1192.605, 484.129 1193.271 C 483.462 1193.938, 483.593 1194.736, 484.522 1195.665 C 486.086 1197.229, 485.499 1199.873, 483.169 1201.750 C 482.272 1202.473, 482.107 1203, 482.777 1203 C 483.415 1203, 483.676 1203.681, 483.357 1204.513 C 483.037 1205.345, 483.251 1206.597, 483.831 1207.296 C 485.045 1208.759, 484.344 1210.148, 481.500 1211.911 C 480.295 1212.658, 480.146 1212.954, 481.124 1212.655 C 482.136 1212.346, 483.224 1213.051, 484.014 1214.525 C 485.068 1216.496, 485.006 1217.468, 483.640 1220.347 C 481.751 1224.326, 481.590 1225.371, 483 1224.500 C 483.550 1224.160, 484 1224.584, 484 1225.441 C 484 1226.298, 483.545 1227, 482.988 1227 C 482.368 1227, 482.224 1228.546, 482.615 1230.995 C 483.051 1233.721, 482.817 1235.527, 481.877 1236.682 C 480.654 1238.185, 480.723 1238.297, 482.500 1237.685 C 484.449 1237.013, 484.451 1237.033, 482.597 1238.470 C 480.934 1239.759, 480.893 1240.022, 482.274 1240.552 C 483.978 1241.205, 483.776 1245.241, 482.010 1245.830 C 481.454 1246.015, 481 1247.056, 481 1248.142 C 481 1249.229, 480.581 1249.859, 480.069 1249.543 C 478.640 1248.660, 478.004 1250.415, 479.160 1252.048 C 479.967 1253.187, 480.060 1253.069, 479.592 1251.500 C 479.004 1249.530, 479.018 1249.529, 480.497 1251.441 C 481.674 1252.961, 481.729 1253.554, 480.750 1254.176 C 479.858 1254.742, 480.001 1254.974, 481.250 1254.985 C 482.212 1254.993, 483 1255.477, 483 1256.059 C 483 1256.641, 482.550 1256.840, 482 1256.500 C 480.752 1255.729, 480.730 1257.024, 481.958 1258.966 C 482.548 1259.899, 482.491 1260.908, 481.801 1261.739 C 480.970 1262.741, 481.087 1262.904, 482.303 1262.437 C 483.461 1261.993, 483.846 1262.392, 483.731 1263.914 C 483.645 1265.061, 483.145 1266, 482.621 1266 C 482.096 1266, 481.951 1266.284, 482.298 1266.631 C 482.645 1266.979, 482.480 1268.104, 481.930 1269.131 C 481.127 1270.631, 481.282 1271.003, 482.715 1271.015 C 484.104 1271.027, 484.198 1271.222, 483.137 1271.894 C 481.986 1272.623, 481.986 1272.842, 483.137 1273.300 C 484.105 1273.685, 484.138 1273.865, 483.250 1273.921 C 482.563 1273.964, 482 1274.477, 482 1275.059 C 482 1275.641, 482.453 1275.838, 483.007 1275.496 C 483.561 1275.153, 484.283 1275.574, 484.612 1276.431 C 484.941 1277.288, 485.698 1277.686, 486.296 1277.317 C 486.893 1276.948, 486.310 1278.380, 485 1280.500 C 483.690 1282.620, 483.063 1284.079, 483.607 1283.743 C 485.292 1282.701, 487.498 1284.800, 487.547 1287.492 C 487.581 1289.384, 487.196 1289.905, 486.077 1289.476 C 485.243 1289.156, 484.869 1289.202, 485.245 1289.579 C 485.622 1289.955, 485.504 1291.059, 484.983 1292.032 C 484.287 1293.332, 484.448 1293.958, 485.590 1294.396 C 486.503 1294.747, 487.024 1295.922, 486.853 1297.246 C 486.693 1298.486, 486.906 1300.053, 487.327 1300.729 C 487.748 1301.405, 487.606 1302.868, 487.011 1303.979 C 486.219 1305.459, 486.236 1306, 487.073 1306 C 487.808 1306, 487.981 1306.938, 487.558 1308.626 C 487.029 1310.732, 487.204 1311.136, 488.439 1310.662 C 490.103 1310.023, 491.166 1312.751, 490.791 1316.699 C 490.639 1318.299, 490.252 1318.624, 489.370 1317.892 C 488.467 1317.142, 488.296 1317.415, 488.700 1318.959 C 488.998 1320.099, 489.750 1320.972, 490.371 1320.898 C 493.487 1320.526, 494.073 1320.995, 493 1323 C 492.274 1324.356, 492.263 1325, 492.965 1325 C 493.534 1325, 494 1325.675, 494 1326.500 C 494 1328.312, 496.628 1328.508, 497.338 1326.750 C 497.615 1326.063, 497.878 1326.539, 497.921 1327.809 C 497.975 1329.379, 498.400 1329.878, 499.250 1329.367 C 500.099 1328.857, 500.060 1329.158, 499.128 1330.308 C 498.233 1331.411, 498.146 1332, 498.878 1332 C 499.495 1332, 500.014 1333.463, 500.032 1335.250 C 500.070 1339.176, 502.324 1342.473, 504.420 1341.669 C 505.254 1341.349, 506.245 1341.587, 506.622 1342.198 C 507.076 1342.932, 506.832 1343.028, 505.905 1342.482 C 505.132 1342.027, 505.746 1342.927, 507.268 1344.482 C 509.266 1346.522, 509.852 1347.890, 509.374 1349.397 C 508.799 1351.207, 508.921 1351.311, 510.286 1350.178 C 511.615 1349.075, 512.027 1349.183, 512.930 1350.870 C 514.501 1353.805, 514.233 1354.673, 512.445 1352.441 C 510.944 1350.568, 510.927 1350.577, 511.950 1352.694 C 513.133 1355.142, 515 1356.644, 515 1355.149 C 515 1354.616, 516.350 1355.365, 518 1356.813 C 519.650 1358.261, 521 1360.422, 521 1361.616 C 521 1362.809, 521.675 1364.045, 522.500 1364.362 C 523.325 1364.678, 524 1365.626, 524 1366.469 C 524 1367.311, 524.675 1368, 525.500 1368 C 526.325 1368, 527 1368.623, 527 1369.383 C 527 1370.144, 527.945 1371.014, 529.101 1371.316 C 530.257 1371.619, 530.905 1372.345, 530.542 1372.933 C 530.179 1373.520, 530.553 1374, 531.373 1374 C 532.193 1374, 533.811 1375.330, 534.968 1376.955 C 536.370 1378.924, 537.644 1379.726, 538.786 1379.360 C 539.988 1378.975, 540.126 1379.081, 539.249 1379.716 C 537.292 1381.129, 541.338 1384.986, 544.036 1384.280 C 545.480 1383.903, 546.089 1384.167, 545.957 1385.114 C 545.561 1387.943, 546.041 1388.922, 547.541 1388.346 C 548.388 1388.021, 549.010 1388.147, 548.922 1388.627 C 548.428 1391.335, 549.330 1392.894, 552.038 1394.016 C 553.709 1394.708, 555.532 1396.125, 556.088 1397.165 C 556.645 1398.205, 557.487 1398.817, 557.960 1398.525 C 559.215 1397.749, 562.085 1399.054, 561.435 1400.105 C 561.131 1400.597, 561.359 1401, 561.941 1401 C 562.523 1401, 563 1401.927, 563 1403.059 C 563 1404.361, 562.575 1404.856, 561.845 1404.405 C 561.146 1403.972, 560.962 1404.129, 561.378 1404.802 C 561.755 1405.413, 562.798 1405.631, 563.696 1405.286 C 564.882 1404.831, 565.126 1405.048, 564.590 1406.080 C 564.184 1406.861, 564.560 1406.626, 565.426 1405.559 C 566.292 1404.491, 567.056 1403.929, 567.125 1404.309 C 567.194 1404.689, 567.362 1405.450, 567.500 1406 C 567.638 1406.550, 567.806 1407.588, 567.875 1408.307 C 567.944 1409.026, 569.237 1410.143, 570.750 1410.790 C 573.114 1411.801, 573.169 1411.908, 571.145 1411.549 C 568.856 1411.144, 568.842 1411.184, 570.645 1412.938 C 571.665 1413.932, 572.841 1414.548, 573.257 1414.309 C 574.252 1413.736, 580.010 1419.976, 582.318 1424.128 C 583.761 1426.725, 584.324 1427.100, 585.053 1425.949 C 585.807 1424.757, 585.972 1424.819, 585.985 1426.295 C 585.993 1427.283, 587.125 1429.216, 588.500 1430.591 C 589.875 1431.966, 591 1433.440, 591 1433.867 C 591 1434.294, 591.839 1436.368, 592.865 1438.477 C 594.091 1440.998, 594.924 1441.830, 595.297 1440.905 C 595.725 1439.845, 596.480 1440.173, 598.376 1442.240 C 599.757 1443.747, 601.507 1444.743, 602.265 1444.452 C 603.058 1444.147, 604.671 1445.290, 606.071 1447.149 C 607.407 1448.924, 609.288 1451.066, 610.250 1451.910 C 611.212 1452.754, 612.007 1454.357, 612.015 1455.472 C 612.026 1456.896, 612.272 1457.119, 612.842 1456.222 C 613.434 1455.288, 613.947 1455.589, 614.744 1457.337 C 615.470 1458.931, 617.329 1460.172, 620.312 1461.052 C 624.601 1462.319, 628.879 1466.788, 627.307 1468.360 C 626.703 1468.964, 628.523 1469.407, 630.324 1469.094 C 630.778 1469.015, 630.859 1469.419, 630.505 1469.992 C 630.151 1470.564, 629.443 1470.774, 628.931 1470.457 C 627.244 1469.415, 627.962 1471.726, 629.750 1473.095 C 630.712 1473.831, 631.190 1474.063, 630.810 1473.610 C 630.431 1473.158, 630.632 1472.239, 631.257 1471.570 C 632.519 1470.219, 637 1470.692, 637 1472.176 C 637 1472.694, 637.418 1472.860, 637.928 1472.544 C 638.438 1472.229, 639.163 1472.937, 639.537 1474.118 C 640.026 1475.658, 640.439 1475.907, 641 1475 C 641.576 1474.069, 641.948 1474.231, 642.416 1475.618 C 642.765 1476.653, 644.602 1478.225, 646.498 1479.110 C 648.440 1480.017, 649.705 1480.235, 649.396 1479.610 C 649.095 1479, 649.782 1479.562, 650.924 1480.861 C 652.066 1482.159, 653 1482.892, 653 1482.488 C 653 1482.085, 653.675 1482.315, 654.500 1483 C 655.325 1483.685, 656.045 1483.852, 656.100 1483.372 C 656.155 1482.893, 656.513 1483.625, 656.897 1485 C 657.281 1486.375, 658.249 1487.527, 659.048 1487.559 C 659.846 1487.592, 661.572 1487.978, 662.882 1488.419 C 664.727 1489.038, 664.952 1489.416, 663.882 1490.094 C 662.803 1490.777, 662.908 1490.973, 664.357 1490.985 C 665.552 1490.995, 666.019 1491.509, 665.666 1492.428 C 665.236 1493.549, 665.838 1493.738, 668.473 1493.311 C 670.758 1492.940, 672.573 1493.311, 674.164 1494.476 C 676.294 1496.035, 676.316 1496.132, 674.417 1495.578 C 672.955 1495.152, 672.333 1495.423, 672.333 1496.486 C 672.333 1497.395, 673.243 1498, 674.609 1498 C 676.324 1498, 676.793 1498.479, 676.511 1499.942 C 676.236 1501.372, 676.553 1501.725, 677.713 1501.280 C 678.580 1500.947, 679.787 1501.355, 680.395 1502.187 C 681.519 1503.725, 682.092 1504, 684.167 1504 C 684.808 1504, 685.040 1504.293, 684.682 1504.651 C 684.324 1505.009, 684.812 1505.873, 685.766 1506.571 C 686.719 1507.268, 687.500 1508.438, 687.500 1509.169 C 687.500 1509.901, 688.748 1510.643, 690.273 1510.819 C 692.157 1511.035, 692.958 1510.715, 692.773 1509.819 C 692.594 1508.955, 693.314 1508.614, 694.859 1508.831 C 696.228 1509.024, 696.962 1508.748, 696.608 1508.175 C 696.270 1507.628, 697.100 1507.703, 698.466 1508.344 C 699.824 1508.980, 700.499 1509.650, 699.967 1509.833 C 697.877 1510.554, 699.145 1512.205, 701.451 1511.765 C 702.798 1511.507, 703.870 1511.567, 703.832 1511.898 C 703.545 1514.405, 704.112 1515.010, 705.869 1514.070 C 708.089 1512.882, 709.406 1513.806, 707.966 1515.541 C 707.246 1516.408, 707.410 1516.943, 708.526 1517.372 C 709.536 1517.759, 709.855 1517.575, 709.413 1516.859 C 708.993 1516.179, 709.267 1515.939, 710.111 1516.245 C 710.875 1516.523, 711.383 1517.270, 711.240 1517.904 C 711.075 1518.640, 711.801 1518.522, 713.240 1517.580 C 715.323 1516.217, 715.688 1516.297, 717.902 1518.599 C 719.223 1519.973, 720.950 1520.849, 721.740 1520.546 C 722.529 1520.243, 723.929 1520.926, 724.850 1522.063 C 726.274 1523.822, 726.943 1523.972, 729.319 1523.069 C 731.294 1522.318, 731.921 1522.318, 731.457 1523.070 C 731.095 1523.655, 731.407 1524.050, 732.150 1523.948 C 735.477 1523.492, 738.057 1524.139, 739.711 1525.845 C 742.217 1528.430, 748 1531.142, 748 1529.732 C 748 1529.119, 748.605 1529.445, 749.344 1530.455 C 750.280 1531.735, 751.497 1532.138, 753.356 1531.783 C 754.991 1531.470, 755.974 1531.704, 755.894 1532.386 C 755.588 1534.989, 756.128 1535.718, 758.250 1535.564 C 761.815 1535.306, 765.987 1537.043, 766.137 1538.848 C 766.212 1539.757, 766.263 1541.380, 766.250 1542.455 C 766.227 1544.367, 766.257 1544.369, 767.613 1542.514 C 768.443 1541.380, 769 1541.139, 769 1541.916 C 769 1542.659, 769.641 1542.968, 770.500 1542.638 C 771.332 1542.319, 772 1542.610, 772 1543.291 C 772 1543.966, 772.882 1545.070, 773.960 1545.743 C 775.592 1546.762, 776.082 1546.677, 776.892 1545.233 C 777.814 1543.592, 777.901 1543.593, 778.540 1545.250 C 778.971 1546.369, 780.278 1547, 782.166 1547 C 783.879 1547, 784.859 1547.420, 784.500 1548 C 784.160 1548.550, 784.359 1549, 784.941 1549 C 785.523 1549, 786 1549.702, 786 1550.559 C 786 1551.495, 786.468 1551.829, 787.170 1551.395 C 787.949 1550.913, 788.133 1551.211, 787.721 1552.285 C 787.287 1553.416, 787.534 1553.732, 788.545 1553.344 C 789.339 1553.040, 789.759 1552.419, 789.478 1551.964 C 789.197 1551.510, 789.425 1550.856, 789.984 1550.510 C 790.546 1550.162, 791 1550.801, 791 1551.941 C 791 1553.105, 791.652 1554, 792.500 1554 C 793.325 1554, 794 1554.477, 794 1555.059 C 794 1555.641, 793.550 1555.840, 793 1555.500 C 792.450 1555.160, 792 1555.569, 792 1556.410 C 792 1558.182, 794.964 1557.440, 795.063 1555.643 C 795.098 1555.014, 795.513 1555.457, 795.985 1556.626 C 796.656 1558.287, 797.444 1558.638, 799.586 1558.228 C 801.811 1557.803, 802.211 1558.009, 801.707 1559.320 C 801.366 1560.209, 801.525 1561.206, 802.060 1561.537 C 802.595 1561.868, 802.788 1562.534, 802.490 1563.017 C 802.191 1563.500, 802.849 1563.722, 803.953 1563.509 C 805.091 1563.290, 805.860 1563.617, 805.730 1564.266 C 805.603 1564.895, 806.169 1565.430, 806.987 1565.455 C 807.804 1565.480, 809.086 1566.778, 809.835 1568.341 C 810.814 1570.383, 811.731 1571.042, 813.100 1570.684 C 814.146 1570.410, 814.824 1570.482, 814.604 1570.843 C 814.385 1571.204, 815.364 1572.368, 816.779 1573.429 C 819.320 1575.335, 819.343 1575.335, 818.614 1573.429 C 817.977 1571.762, 818.162 1571.805, 819.977 1573.750 C 821.133 1574.987, 822.510 1576, 823.039 1576 C 824.770 1576, 825.505 1575.516, 825.194 1574.581 C 825.025 1574.075, 825.609 1574.260, 826.491 1574.992 C 827.766 1576.051, 827.829 1576.492, 826.797 1577.146 C 824.961 1578.311, 829.257 1578.259, 832.203 1577.081 C 834.764 1576.057, 836.996 1575.346, 838.500 1575.074 C 839.050 1574.975, 840.077 1573.792, 840.782 1572.447 C 841.487 1571.101, 842.405 1570, 842.822 1570 C 843.240 1570, 843.629 1567.527, 843.689 1564.504 C 843.758 1560.986, 843.428 1559.235, 842.773 1559.640 C 842.123 1560.042, 841.898 1559.001, 842.156 1556.794 C 842.401 1554.687, 842.030 1552.817, 841.213 1552.054 C 840.472 1551.362, 840.104 1550.171, 840.396 1549.409 C 840.689 1548.647, 840.607 1548.072, 840.214 1548.130 C 838.104 1548.445, 837.833 1547.843, 839.526 1546.604 C 841.359 1545.265, 841.302 1545.085, 838.112 1542.104 C 836.284 1540.397, 835.286 1539, 835.894 1539 C 837.470 1539, 837.262 1536.922, 835.555 1535.610 C 834.760 1535, 833.973 1533.827, 833.805 1533.004 C 833.637 1532.181, 832.869 1531.012, 832.099 1530.406 C 830.959 1529.511, 830.941 1529.155, 832.003 1528.498 C 832.788 1528.013, 833.065 1528.085, 832.698 1528.679 C 832.363 1529.222, 832.743 1529.667, 833.544 1529.667 C 834.345 1529.667, 835 1529.582, 835 1529.479 C 835 1528.643, 829.415 1523.561, 828.731 1523.775 C 828.247 1523.926, 828.075 1523.688, 828.348 1523.246 C 828.621 1522.804, 827.305 1520.660, 825.422 1518.482 C 823.540 1516.304, 822 1514.179, 822 1513.761 C 822 1513.342, 821.342 1513, 820.538 1513 C 819.734 1513, 818.153 1511.088, 817.025 1508.750 C 815.897 1506.412, 815.216 1505.351, 815.510 1506.391 C 815.985 1508.068, 815.849 1508.125, 814.316 1506.891 C 813.365 1506.126, 811.763 1504.696, 810.757 1503.714 C 808.878 1501.879, 806.436 1502.279, 807.638 1504.224 C 808.042 1504.877, 807.843 1505.021, 807.138 1504.585 C 806.494 1504.187, 806.195 1503.494, 806.473 1503.044 C 806.751 1502.595, 806.308 1501.671, 805.489 1500.991 C 804.670 1500.311, 803.993 1500.148, 803.985 1500.628 C 803.976 1501.107, 803.559 1500.852, 803.059 1500.060 C 802.558 1499.269, 800.877 1498.457, 799.324 1498.256 C 797.771 1498.056, 795.600 1496.954, 794.500 1495.808 C 793.375 1494.636, 793.156 1494.068, 794 1494.509 C 795.245 1495.160, 795.279 1495.056, 794.200 1493.897 C 793.485 1493.129, 792.135 1492.461, 791.200 1492.414 C 790.265 1492.366, 788.712 1492.029, 787.750 1491.664 C 786.788 1491.299, 785.325 1490.789, 784.500 1490.531 C 783.675 1490.274, 783.007 1489.261, 783.015 1488.281 C 783.028 1486.765, 783.175 1486.724, 784 1488 C 784.533 1488.825, 784.969 1489.050, 784.969 1488.500 C 784.969 1487.950, 784.550 1486.838, 784.038 1486.028 C 783.241 1484.766, 783.013 1484.801, 782.449 1486.272 C 781.513 1488.710, 780.081 1487.449, 780.719 1484.749 C 781.243 1482.530, 781.229 1482.527, 779.657 1484.500 C 778.760 1485.626, 778.050 1485.954, 778.032 1485.250 C 778.014 1484.563, 777.073 1484, 775.941 1484 C 774.786 1484, 774.161 1483.549, 774.517 1482.972 C 774.867 1482.407, 774.106 1481.059, 772.826 1479.978 C 771.050 1478.476, 769.613 1478.149, 766.750 1478.594 C 763.858 1479.043, 763 1478.841, 763 1477.710 C 763 1476.904, 762.276 1475.644, 761.392 1474.910 C 760.038 1473.787, 759.603 1473.823, 758.642 1475.137 C 756.822 1477.625, 756.139 1477.644, 754.463 1475.250 C 753.596 1474.013, 752.038 1473, 751 1473 C 749.962 1473, 748.400 1471.987, 747.529 1470.750 C 746.183 1468.840, 745.799 1468.727, 744.987 1470 C 744.196 1471.241, 744.025 1471.154, 744 1469.500 C 743.975 1467.841, 743.804 1467.756, 743 1469 C 742.216 1470.213, 742.028 1470.069, 742.015 1468.250 C 742.007 1467.013, 741.663 1466.073, 741.250 1466.161 C 740.837 1466.250, 739.185 1465.782, 737.578 1465.121 C 735.970 1464.459, 734.070 1464.143, 733.354 1464.418 C 732.638 1464.692, 731.605 1464.148, 731.057 1463.208 C 730.415 1462.107, 730.050 1461.970, 730.030 1462.821 C 730.008 1463.815, 729.611 1463.753, 728.429 1462.571 C 727.564 1461.707, 726.214 1460.944, 725.429 1460.875 C 723.852 1460.737, 722.269 1460.384, 721.500 1460 C 721.225 1459.862, 720.550 1459.638, 720 1459.500 C 719.450 1459.362, 718.663 1459.140, 718.250 1459.007 C 717.837 1458.873, 717.163 1458.816, 716.750 1458.882 C 716.337 1458.947, 716 1458.298, 716 1457.441 C 716 1456.584, 715.625 1456.114, 715.167 1456.397 C 714.708 1456.680, 714.333 1456.257, 714.333 1455.456 C 714.333 1454.655, 714.708 1454, 715.167 1454 C 715.625 1454, 716 1453.576, 716 1453.057 C 716 1452.539, 714.987 1452.356, 713.750 1452.651 C 712.513 1452.946, 710.292 1453.140, 708.816 1453.083 C 707.339 1453.025, 705.828 1453.470, 705.456 1454.071 C 704.564 1455.515, 699 1450.214, 699 1447.920 C 699 1445.938, 696.986 1444.936, 694.346 1445.604 C 693.283 1445.873, 690.236 1444.572, 687.163 1442.536 C 684.227 1440.591, 681.190 1439, 680.413 1439 C 679.636 1439, 679 1438.594, 679 1438.098 C 679 1437.602, 677.620 1436.714, 675.932 1436.126 C 673.554 1435.297, 672.936 1434.550, 673.182 1432.803 C 673.402 1431.247, 672.921 1430.434, 671.632 1430.179 C 670.539 1429.962, 670.027 1430.234, 670.398 1430.835 C 670.747 1431.400, 670.506 1432.187, 669.862 1432.585 C 669.131 1433.037, 668.959 1432.876, 669.405 1432.155 C 669.871 1431.400, 669.256 1431, 667.632 1431 C 666.137 1431, 664.319 1429.949, 663.073 1428.365 C 661.933 1426.916, 660.993 1426.128, 660.985 1426.615 C 660.976 1427.102, 660.606 1426.927, 660.161 1426.227 C 659.717 1425.526, 658.372 1424.764, 657.173 1424.533 C 653.611 1423.847, 653.001 1423.069, 652.985 1419.191 C 652.973 1416.440, 652.723 1415.882, 652 1417 C 651.296 1418.090, 651.026 1418.142, 651.015 1417.191 C 651.007 1416.471, 650.588 1416.136, 650.085 1416.447 C 649.582 1416.758, 648.981 1416.447, 648.748 1415.756 C 648.417 1414.772, 647.965 1414.797, 646.663 1415.872 C 645.238 1417.049, 645 1417.024, 645 1415.702 C 645 1414.801, 643.754 1413.885, 642.006 1413.501 C 640.359 1413.140, 638.672 1412.316, 638.256 1411.672 C 637.840 1411.027, 636.938 1410.455, 636.250 1410.400 C 635.563 1410.345, 634.277 1410.233, 633.393 1410.150 C 632.500 1410.067, 632.012 1409.411, 632.295 1408.674 C 632.595 1407.891, 631.424 1406.606, 629.430 1405.532 C 627.575 1404.533, 626.339 1403.260, 626.683 1402.703 C 627.027 1402.147, 626.842 1401.980, 626.270 1402.333 C 625.699 1402.686, 623.077 1400.506, 620.445 1397.488 C 617.812 1394.469, 615.172 1391.997, 614.579 1391.994 C 612.858 1391.984, 610.045 1386.355, 611.190 1385.210 C 611.836 1384.564, 611.824 1384.009, 611.156 1383.597 C 610.596 1383.251, 609.868 1383.405, 609.537 1383.940 C 608.707 1385.283, 606 1384.100, 606 1382.393 C 606 1381.627, 606.450 1381, 607 1381 C 607.550 1381, 608 1380.523, 608 1379.941 C 608 1379.359, 607.530 1379.172, 606.956 1379.527 C 606.382 1379.882, 605.332 1379.691, 604.623 1379.102 C 603.672 1378.313, 603.333 1378.410, 603.333 1379.472 C 603.333 1380.264, 603.778 1380.637, 604.321 1380.302 C 604.902 1379.943, 604.989 1380.208, 604.533 1380.946 C 603.967 1381.862, 603.030 1381.431, 601.069 1379.351 C 599.025 1377.183, 598.635 1376.156, 599.440 1375.063 C 600.279 1373.925, 600.142 1373.760, 598.782 1374.269 C 597.837 1374.623, 596.779 1374.452, 596.431 1373.888 C 596.083 1373.325, 595.145 1373.114, 594.347 1373.420 C 593.549 1373.727, 593.139 1373.583, 593.437 1373.102 C 593.734 1372.621, 593.042 1371.983, 591.899 1371.684 C 590.326 1371.272, 589.981 1370.636, 590.479 1369.065 C 590.926 1367.657, 590.633 1366.797, 589.569 1366.388 C 588.706 1366.057, 588 1365.186, 588 1364.452 C 588 1363.718, 587.592 1362.866, 587.093 1362.558 C 586.595 1362.249, 586.408 1363.010, 586.678 1364.249 L 587.170 1366.500 585.335 1364.395 C 583.708 1362.529, 580.806 1360.836, 578.807 1360.586 C 577.940 1360.478, 574 1356.296, 574 1355.483 C 574 1355.152, 574.497 1355.189, 575.104 1355.564 C 575.711 1355.939, 575.484 1355.142, 574.600 1353.793 C 573.716 1352.444, 573.200 1351.133, 573.454 1350.880 C 573.707 1350.626, 572.983 1350.349, 571.844 1350.263 C 568.999 1350.049, 568.494 1349.314, 569.970 1347.536 C 570.996 1346.300, 570.931 1345.911, 569.618 1345.407 C 568.735 1345.068, 568.308 1344.311, 568.670 1343.725 C 569.083 1343.057, 568.708 1342.898, 567.664 1343.299 C 566.470 1343.757, 566 1343.398, 566 1342.028 C 566 1340.977, 565.550 1339.840, 565 1339.500 C 564.450 1339.160, 564 1338.057, 564 1337.048 C 564 1336.039, 563.395 1334.982, 562.655 1334.698 C 561.868 1334.396, 561.387 1332.901, 561.495 1331.091 C 561.596 1329.391, 561.253 1328, 560.732 1328 C 560.212 1328, 560.069 1327.261, 560.416 1326.359 C 560.920 1325.044, 560.767 1324.948, 559.648 1325.877 C 558.514 1326.819, 558.250 1326.563, 558.250 1324.522 C 558.250 1323.138, 557.651 1321.284, 556.919 1320.402 C 556.187 1319.520, 555.482 1318.078, 555.353 1317.198 C 555.224 1316.318, 554.133 1314.855, 552.930 1313.947 C 551.726 1313.039, 550.669 1311.217, 550.580 1309.898 C 550.491 1308.579, 549.883 1307.610, 549.227 1307.744 C 547.202 1308.159, 546.628 1303.216, 548.390 1300.528 C 549.275 1299.176, 549.993 1297.042, 549.985 1295.785 C 549.976 1294.466, 549.659 1293.970, 549.235 1294.611 C 548.784 1295.293, 547.860 1294.398, 546.844 1292.295 C 545.302 1289.103, 545.302 1288.819, 546.844 1288.183 C 549.108 1287.249, 549.467 1284.918, 547.238 1285.618 C 545.770 1286.078, 545.802 1285.917, 547.441 1284.582 C 549.670 1282.766, 548.815 1282.494, 545.856 1284.077 C 544.749 1284.669, 543.094 1284.866, 542.178 1284.515 C 540.744 1283.965, 540.859 1283.614, 543.007 1281.992 C 544.858 1280.593, 545.210 1279.817, 544.373 1278.977 C 543.637 1278.239, 543.523 1276.614, 544.045 1274.301 C 544.997 1270.081, 544.383 1268.026, 542.143 1267.930 C 540.753 1267.870, 540.731 1267.755, 542 1267.180 C 543.768 1266.379, 544.512 1263.886, 542.875 1264.250 C 542.256 1264.387, 541.544 1263.937, 541.291 1263.249 C 540.988 1262.421, 541.407 1262.219, 542.533 1262.651 C 544.001 1263.214, 544.076 1263.010, 543.081 1261.152 C 542.355 1259.795, 542.303 1259, 542.940 1259 C 543.605 1259, 543.625 1258.144, 543 1256.500 C 542.389 1254.893, 542.398 1254, 543.025 1254 C 543.561 1254, 544 1254.525, 544 1255.167 C 544 1257.237, 545.398 1255.007, 545.750 1252.375 C 545.966 1250.764, 545.701 1250.067, 545.030 1250.482 C 544.445 1250.843, 544.233 1251.670, 544.558 1252.319 C 544.883 1252.969, 544.508 1252.719, 543.725 1251.766 C 542.943 1250.812, 541.948 1250.362, 541.514 1250.766 C 541.081 1251.169, 540.951 1250.263, 541.225 1248.750 C 541.512 1247.165, 541.273 1246, 540.661 1246 C 539.990 1246, 540.041 1245.559, 540.800 1244.800 C 542.380 1243.220, 542.344 1241.675, 540.750 1242.633 C 539.753 1243.232, 539.751 1243.074, 540.741 1241.850 C 541.424 1241.006, 541.687 1240.020, 541.325 1239.658 C 540.296 1238.629, 542.920 1238.887, 545.043 1240.023 C 546.584 1240.848, 546.842 1240.752, 546.373 1239.529 C 546.052 1238.694, 545.311 1238.308, 544.725 1238.670 C 544.075 1239.072, 543.890 1238.729, 544.251 1237.788 C 544.642 1236.769, 544.290 1236.291, 543.209 1236.374 C 542.299 1236.444, 541.425 1235.615, 541.235 1234.500 C 540.953 1232.853, 541.076 1232.765, 541.931 1234 C 543.261 1235.922, 543.313 1234.452, 542.001 1232.001 C 541.210 1230.524, 541.396 1230.009, 542.892 1229.534 C 544.735 1228.949, 546.529 1223, 544.862 1223 C 544.427 1223, 543.580 1221.987, 542.980 1220.750 C 541.996 1218.719, 542.028 1218.671, 543.305 1220.250 C 545.328 1222.751, 546.107 1222.410, 545.003 1219.509 C 544.025 1216.935, 544.582 1214, 546.050 1214 C 546.509 1214, 546.708 1213.078, 546.491 1211.952 C 546.271 1210.813, 546.962 1209.038, 548.048 1207.952 C 549.122 1206.878, 549.720 1206, 549.378 1206 C 549.035 1206, 549.234 1205.422, 549.820 1204.716 C 550.491 1203.908, 550.545 1202.890, 549.966 1201.966 C 549.460 1201.160, 549.291 1199.710, 549.592 1198.745 C 549.921 1197.688, 549.514 1196.751, 548.569 1196.388 C 547.706 1196.057, 547 1195.358, 547 1194.834 C 547 1194.310, 547.375 1194.114, 547.833 1194.397 C 548.292 1194.680, 548.667 1194.277, 548.667 1193.500 C 548.667 1192.723, 548.297 1192.317, 547.845 1192.596 C 547.393 1192.875, 547.281 1192.431, 547.597 1191.609 C 547.912 1190.787, 548.891 1189.975, 549.772 1189.805 C 550.863 1189.595, 551.425 1188.303, 551.536 1185.751 C 551.659 1182.912, 551.404 1182.250, 550.482 1183.015 C 549.638 1183.715, 548.893 1183.576, 548.050 1182.560 C 546.555 1180.759, 547.015 1177.827, 548.889 1177.203 C 549.732 1176.922, 550.004 1177.185, 549.580 1177.870 C 549.193 1178.496, 549.482 1179, 550.227 1179 C 550.966 1179, 551.571 1178.089, 551.571 1176.975 C 551.571 1175.862, 551.068 1175.144, 550.452 1175.380 C 549.837 1175.616, 549.333 1175.158, 549.333 1174.362 C 549.333 1173.565, 549.933 1173.144, 550.667 1173.426 C 551.400 1173.707, 552 1173.501, 552 1172.969 C 552 1172.436, 551.325 1172, 550.500 1172 C 549.575 1172, 549 1171.061, 549 1169.550 C 549 1168.202, 548.297 1166.706, 547.437 1166.225 C 546.019 1165.431, 546.019 1165.229, 547.437 1164.052 C 548.489 1163.179, 549 1163.122, 549 1163.878 C 549 1164.495, 549.352 1165, 549.783 1165 C 550.794 1165, 550.615 1160.803, 549.528 1159.045 C 548.927 1158.073, 549.087 1157.897, 550.095 1158.420 C 550.868 1158.820, 550.627 1158.440, 549.559 1157.574 C 548.049 1156.350, 547.444 1156.278, 546.836 1157.250 C 546.357 1158.017, 546.055 1157.340, 546.056 1155.500 C 546.056 1153.850, 545.777 1150.640, 545.435 1148.367 C 545.009 1145.537, 545.211 1143.988, 546.076 1143.453 C 546.989 1142.889, 547.147 1143.173, 546.647 1144.477 C 546.043 1146.052, 546.163 1146.109, 547.587 1144.928 C 548.520 1144.153, 548.768 1143.423, 548.166 1143.222 C 547.586 1143.029, 547.362 1142.219, 547.668 1141.423 C 547.974 1140.626, 547.774 1139.418, 547.224 1138.737 C 546.674 1138.057, 546.340 1135.925, 546.482 1134 C 546.624 1132.075, 546.545 1131.035, 546.307 1131.689 C 546.016 1132.489, 545.105 1132.209, 543.518 1130.829 C 541.654 1129.208, 541.272 1128.097, 541.691 1125.517 C 541.996 1123.639, 541.749 1121.963, 541.110 1121.568 C 540.460 1121.167, 540 1121.598, 540 1122.608 C 540 1124.886, 539.435 1124.140, 538.636 1120.806 C 538.064 1118.419, 538.247 1118.159, 540.245 1118.518 C 542.311 1118.890, 542.353 1118.813, 540.750 1117.602 C 539.788 1116.875, 539.007 1115.654, 539.015 1114.890 C 539.028 1113.777, 539.224 1113.799, 540 1115 C 540.609 1115.942, 540.975 1116.048, 540.985 1115.285 C 540.993 1114.617, 540.087 1113.582, 538.972 1112.985 C 537.857 1112.388, 537.189 1111.503, 537.488 1111.019 C 537.788 1110.535, 537.568 1109.851, 537 1109.500 C 536.432 1109.149, 536.226 1108.443, 536.543 1107.931 C 536.859 1107.419, 536.586 1107, 535.937 1107 C 535.072 1107, 535.049 1106.646, 535.849 1105.682 C 536.656 1104.709, 536.535 1103.781, 535.385 1102.139 C 534.074 1100.268, 534.039 1099.652, 535.163 1098.265 C 536.281 1096.886, 536.279 1096.749, 535.150 1097.429 C 534.069 1098.080, 534.016 1097.839, 534.882 1096.221 C 535.731 1094.635, 535.638 1094.075, 534.449 1093.619 C 532.866 1093.011, 532.640 1086, 534.204 1086 C 534.642 1086, 535 1085.508, 535 1084.908 C 535 1084.307, 535.900 1082.671, 537 1081.273 C 539.365 1078.266, 539.546 1076.424, 537.551 1075.658 C 536.630 1075.304, 536.286 1075.583, 536.608 1076.422 C 536.887 1077.148, 536.437 1078.002, 535.608 1078.320 C 534.022 1078.929, 534.365 1076.726, 536.234 1074.303 C 536.742 1073.644, 537.285 1071.503, 537.440 1069.545 C 537.683 1066.485, 537.513 1066.160, 536.228 1067.225 C 534.926 1068.307, 534.811 1067.836, 535.336 1063.555 C 535.849 1059.364, 535.642 1058.437, 533.921 1057.232 C 532.515 1056.247, 532.205 1055.458, 532.896 1054.626 C 533.441 1053.969, 533.721 1052.547, 533.520 1051.466 C 533.318 1050.385, 533.119 1049.188, 533.077 1048.807 C 533.034 1048.426, 532.156 1048.277, 531.124 1048.476 C 528.962 1048.892, 526.152 1044.142, 527.915 1043.052 C 528.576 1042.644, 528.434 1041.463, 527.508 1039.679 C 526.725 1038.169, 526.515 1037.201, 527.042 1037.526 C 527.569 1037.852, 528 1037.465, 528 1036.666 C 528 1035.867, 527.308 1034.948, 526.462 1034.624 C 525.616 1034.299, 523.882 1031.785, 522.608 1029.037 C 521.335 1026.288, 520.089 1024.245, 519.839 1024.495 C 519.588 1024.745, 518.826 1023.408, 518.145 1021.524 C 517.361 1019.356, 516.415 1018.287, 515.566 1018.613 C 514.813 1018.902, 513.242 1017.745, 511.979 1015.971 C 510.267 1013.566, 509.526 1013.135, 508.866 1014.158 C 508.260 1015.098, 507.775 1015.171, 507.250 1014.401 C 506.166 1012.814, 503.956 1013.067, 499.722 1015.265 M 503.882 1026.671 C 503.816 1027.127, 503.828 1027.871, 503.907 1028.325 C 503.986 1028.779, 503.192 1028.878, 502.144 1028.546 C 500.913 1028.155, 500.022 1028.501, 499.630 1029.522 C 499.235 1030.552, 499.422 1030.857, 500.166 1030.397 C 500.948 1029.914, 501.028 1030.135, 500.420 1031.095 C 499.420 1032.674, 499.162 1038.018, 500.114 1037.429 C 500.452 1037.221, 500.563 1039.176, 500.361 1041.775 C 499.953 1047.023, 499.199 1053.500, 498.996 1053.500 C 498.589 1053.500, 496.850 1072.354, 496.805 1077.262 C 496.785 1079.331, 496.371 1081.270, 495.885 1081.571 C 495.398 1081.872, 495 1083.666, 495 1085.559 C 495 1087.628, 494.502 1089.013, 493.750 1089.032 C 492.911 1089.053, 493.014 1089.464, 494.062 1090.282 C 494.921 1090.952, 495.944 1092.352, 496.336 1093.393 C 496.727 1094.434, 497.322 1095.012, 497.657 1094.676 C 497.993 1094.340, 499.370 1094.932, 500.716 1095.991 C 502.478 1097.377, 504.026 1097.745, 506.238 1097.302 C 508.411 1096.868, 509.104 1097.023, 508.604 1097.832 C 508.145 1098.574, 508.443 1098.767, 509.448 1098.382 C 510.304 1098.053, 511 1098.309, 511 1098.952 C 511 1099.593, 511.500 1099.809, 512.112 1099.431 C 512.723 1099.053, 513.600 1099.352, 514.059 1100.096 C 514.725 1101.174, 515.367 1101.004, 517.224 1099.259 C 518.786 1097.792, 520.369 1097.230, 522.027 1097.556 C 524.174 1097.977, 524.236 1097.920, 522.500 1097.125 C 520.671 1096.287, 520.799 1096.074, 524 1094.643 C 525.925 1093.783, 527.093 1093.061, 526.595 1093.039 C 526.097 1093.018, 526.449 1092.162, 527.376 1091.137 C 528.303 1090.113, 529.328 1087.027, 529.653 1084.280 C 530.166 1079.948, 529.964 1079.088, 528.129 1077.803 C 526.965 1076.988, 526.310 1076.023, 526.673 1075.660 C 527.036 1075.297, 526.789 1075, 526.123 1075 C 525.457 1075, 525.017 1074.438, 525.145 1073.750 C 525.273 1073.063, 525.024 1071.002, 524.592 1069.172 C 524.160 1067.341, 523.679 1064.866, 523.524 1063.672 C 523.368 1062.477, 522.698 1060.150, 522.034 1058.500 C 521.371 1056.850, 520.821 1054.039, 520.814 1052.253 C 520.806 1050.330, 520.389 1049.259, 519.793 1049.628 C 519.171 1050.012, 519.036 1049.463, 519.438 1048.195 C 520.596 1044.546, 517.150 1033.913, 513.671 1030.403 C 510.669 1027.374, 504.137 1024.883, 503.882 1026.671" stroke="none" fill="#f4f3f3" fill-rule="evenodd"/></svg>