<svg xmlns="http://www.w3.org/2000/svg" width="2048" height="2048" viewBox="0 0 2048 2048" version="1.1"><path d="" stroke="none" fill="#fcf4f4" fill-rule="evenodd"/><path d="M 1048.279 949.828 C 1047.644 950.220, 1046.674 951.728, 1046.122 953.178 C 1045.189 955.633, 1044.855 955.757, 1041.310 954.957 C 1038.696 954.367, 1036.872 954.479, 1035.500 955.314 C 1033.442 956.566, 1027.617 956.428, 1028.410 955.146 C 1028.654 954.752, 1027.986 954.429, 1026.927 954.429 C 1025.867 954.429, 1025 954.809, 1025 955.273 C 1025 955.738, 1024.438 955.794, 1023.750 955.399 C 1023.063 955.003, 1022.834 955.048, 1023.241 955.498 C 1024.041 956.381, 1022.297 959, 1020.909 959 C 1020.444 959, 1020.324 958.320, 1020.643 957.489 C 1021.057 956.409, 1020.764 956.153, 1019.617 956.593 C 1018.734 956.932, 1018.248 957.593, 1018.538 958.061 C 1018.827 958.530, 1017.700 958.740, 1016.032 958.529 C 1014.364 958.318, 1013 958.573, 1013 959.096 C 1013 959.619, 1011.952 959.359, 1010.670 958.520 C 1008.142 956.863, 1006.815 957.354, 1007.686 959.623 C 1008.126 960.769, 1008.556 960.810, 1009.867 959.830 C 1011.165 958.860, 1011.142 959, 1009.757 960.512 C 1008.396 961.998, 1007.750 962.150, 1006.807 961.207 C 1006.143 960.543, 1004.742 960, 1003.693 960 C 1002.380 960, 1001.972 959.516, 1002.382 958.448 C 1002.723 957.558, 1002.555 957.157, 1001.989 957.507 C 1001.445 957.843, 1001 958.766, 1001 959.559 C 1001 960.800, 999.199 961.479, 996.811 961.139 C 996.432 961.085, 995.846 961.909, 995.510 962.969 C 995.141 964.132, 994.323 964.677, 993.449 964.342 C 992.652 964.036, 992 964.284, 992 964.893 C 992 965.502, 990.913 966, 989.583 966 C 988.254 966, 986.940 966.563, 986.662 967.250 C 986.259 968.250, 986.142 968.250, 986.079 967.250 C 985.946 965.138, 981.206 965.775, 980.500 968 C 980.151 969.100, 979.419 970, 978.874 970 C 978.328 970, 978.160 969.550, 978.500 969 C 978.840 968.450, 978.641 968, 978.059 968 C 977.477 968, 977 968.702, 977 969.559 C 977 970.416, 976.541 970.834, 975.980 970.487 C 975.418 970.140, 973.650 970.958, 972.051 972.304 C 970.452 973.649, 967.523 975.054, 965.544 975.426 C 963.564 975.797, 962.188 976.496, 962.487 976.979 C 962.982 977.781, 959.909 979.298, 957.500 979.441 C 956.401 979.506, 950.749 981.611, 947.317 983.234 C 946.117 983.801, 944.430 983.995, 943.567 983.664 C 942.674 983.321, 941.997 983.587, 941.994 984.281 C 941.990 984.952, 940.594 986.293, 938.891 987.262 C 936.887 988.403, 935.997 989.549, 936.366 990.512 C 936.680 991.330, 936.501 992, 935.969 992 C 935.436 992, 935 992.752, 935 993.671 C 935 994.590, 934.230 996.193, 933.290 997.232 C 931.814 998.863, 931.780 999.249, 933.040 1000.046 C 934.036 1000.676, 934.103 1000.974, 933.250 1000.985 C 932.563 1000.993, 932 1001.450, 932 1002 C 932 1002.550, 932.723 1003, 933.607 1003 C 934.653 1003, 935.005 1003.545, 934.614 1004.563 C 933.852 1006.549, 939.336 1011.695, 943.095 1012.521 C 944.601 1012.852, 946.081 1013.770, 946.385 1014.561 C 946.689 1015.352, 947.428 1016, 948.028 1016 C 948.627 1016, 948.869 1015.597, 948.565 1015.105 C 948.260 1014.612, 948.721 1013.937, 949.588 1013.605 C 951.711 1012.790, 952.215 1012.843, 951.612 1013.819 C 951.333 1014.270, 952.379 1014.451, 953.934 1014.223 C 955.490 1013.995, 957.016 1014.217, 957.326 1014.718 C 957.663 1015.264, 960.686 1015.250, 964.879 1014.682 C 968.724 1014.162, 972.687 1014.092, 973.685 1014.527 C 974.683 1014.962, 975.837 1015.246, 976.250 1015.159 C 976.663 1015.071, 977 1015.450, 977 1016 C 977 1017.296, 979.730 1017.306, 980.167 1016.011 C 980.646 1014.591, 989.859 1013.854, 992.105 1015.056 C 993.635 1015.875, 994.003 1015.726, 994.015 1014.285 C 994.028 1012.750, 994.179 1012.710, 995.091 1014 C 995.890 1015.129, 996.278 1015.191, 996.659 1014.250 C 996.938 1013.563, 997.804 1013, 998.583 1013 C 999.362 1013, 1000.032 1013.563, 1000.070 1014.250 C 1000.109 1014.938, 1000.527 1014.600, 1001 1013.500 C 1001.579 1012.153, 1001.887 1011.990, 1001.945 1013 C 1002.004 1014.025, 1002.263 1014.136, 1002.765 1013.350 C 1003.169 1012.718, 1005.075 1012.066, 1007 1011.902 C 1008.925 1011.738, 1011.063 1011.188, 1011.750 1010.680 C 1012.607 1010.046, 1013 1010.232, 1013 1011.271 C 1013 1012.104, 1013.675 1013.045, 1014.500 1013.362 C 1015.325 1013.678, 1016 1013.453, 1016 1012.862 C 1016 1012.270, 1016.620 1012.024, 1017.378 1012.315 C 1018.136 1012.606, 1019.327 1012.316, 1020.025 1011.672 C 1021.002 1010.769, 1021.131 1010.787, 1020.588 1011.750 C 1020.200 1012.438, 1020.322 1013, 1020.859 1013 C 1021.397 1013, 1022.553 1013.275, 1023.430 1013.611 C 1024.628 1014.071, 1024.858 1013.794, 1024.360 1012.495 C 1023.789 1011.009, 1023.989 1010.924, 1025.788 1011.886 C 1027.265 1012.677, 1028.073 1012.691, 1028.540 1011.935 C 1028.904 1011.346, 1029.777 1011.084, 1030.479 1011.354 C 1031.182 1011.623, 1032.327 1011.316, 1033.025 1010.672 C 1033.723 1010.027, 1034.050 1009.950, 1033.752 1010.500 C 1033.454 1011.050, 1033.838 1012.080, 1034.605 1012.789 C 1035.758 1013.856, 1036.012 1013.769, 1036.070 1012.289 C 1036.136 1010.616, 1036.188 1010.620, 1036.867 1012.347 C 1037.546 1014.071, 1037.687 1014.082, 1038.994 1012.507 C 1040.289 1010.947, 1040.486 1010.944, 1041.592 1012.457 C 1043.663 1015.290, 1047.718 1015.360, 1049.530 1012.594 C 1050.750 1010.732, 1051.813 1010.249, 1054.062 1010.533 C 1055.678 1010.738, 1057 1010.446, 1057 1009.885 C 1057 1008.483, 1061.218 1009.915, 1062.581 1011.780 C 1063.724 1013.343, 1070.374 1014.413, 1069.427 1012.883 C 1069.127 1012.397, 1069.359 1012, 1069.941 1012 C 1070.975 1012, 1071.441 1013.491, 1071.035 1015.500 C 1070.924 1016.050, 1071.208 1016.125, 1071.667 1015.667 C 1072.125 1015.208, 1072.556 1014.421, 1072.625 1013.917 C 1072.694 1013.413, 1072.806 1012.550, 1072.875 1012 C 1072.944 1011.450, 1073.499 1011, 1074.108 1011 C 1074.779 1011, 1074.979 1011.947, 1074.616 1013.396 C 1073.920 1016.166, 1075.503 1017.163, 1078.500 1015.841 C 1080.335 1015.032, 1080.315 1014.994, 1078.250 1015.386 C 1076.543 1015.710, 1076 1015.344, 1076 1013.871 C 1076 1012.262, 1076.331 1012.107, 1077.934 1012.965 C 1078.998 1013.534, 1081.042 1014, 1082.476 1014 C 1083.910 1014, 1086.050 1014.900, 1087.230 1016 C 1088.411 1017.100, 1090.222 1018, 1091.254 1018 C 1094.303 1018, 1097 1019.922, 1097 1022.094 C 1097 1023.207, 1097.419 1023.859, 1097.931 1023.543 C 1098.443 1023.226, 1099.158 1023.446, 1099.519 1024.032 C 1099.881 1024.617, 1100.925 1025.022, 1101.839 1024.933 C 1105.487 1024.575, 1106.141 1025.020, 1105.822 1027.647 C 1105.557 1029.821, 1105.946 1030.355, 1108 1030.634 C 1110.126 1030.923, 1110.238 1030.819, 1108.750 1029.937 C 1106.069 1028.349, 1106.649 1027.432, 1110.500 1027.173 C 1113.079 1026.999, 1114 1027.340, 1114 1028.469 C 1114 1029.311, 1114.398 1030, 1114.883 1030 C 1115.369 1030, 1115.982 1031.125, 1116.245 1032.500 C 1116.508 1033.875, 1116.335 1035, 1115.861 1035 C 1115.388 1035, 1115 1035.439, 1115 1035.975 C 1115 1036.604, 1115.928 1036.598, 1117.613 1035.957 C 1120.108 1035.009, 1120.197 1035.089, 1119.583 1037.732 C 1119.121 1039.716, 1119.216 1040.082, 1119.918 1039.024 C 1120.724 1037.810, 1121.063 1037.987, 1121.831 1040.024 C 1122.345 1041.386, 1122.566 1042.838, 1122.324 1043.250 C 1122.081 1043.662, 1122.584 1044, 1123.441 1044 C 1124.298 1044, 1125 1043.239, 1125 1042.309 C 1125 1040.827, 1125.194 1040.857, 1126.574 1042.559 C 1127.440 1043.626, 1127.883 1043.969, 1127.558 1043.319 C 1126.958 1042.119, 1128.481 1040.711, 1130.750 1040.367 C 1131.438 1040.262, 1132 1040.614, 1132 1041.148 C 1132 1041.681, 1132.453 1041.838, 1133.007 1041.496 C 1133.561 1041.153, 1134.289 1041.590, 1134.625 1042.466 C 1135.017 1043.486, 1135.912 1043.845, 1137.112 1043.464 C 1138.437 1043.044, 1138.833 1043.272, 1138.460 1044.243 C 1137.992 1045.462, 1138.825 1046.822, 1143.120 1051.856 C 1143.961 1052.842, 1143.974 1053.398, 1143.166 1053.897 C 1142.523 1054.295, 1143.411 1055.078, 1145.278 1055.761 C 1148.195 1056.828, 1148.316 1056.801, 1146.559 1055.470 C 1145.491 1054.661, 1145.093 1054, 1145.674 1054 C 1146.255 1054, 1147.803 1054.833, 1149.115 1055.851 C 1150.427 1056.869, 1152.078 1057.501, 1152.784 1057.256 C 1154.588 1056.630, 1157 1058.876, 1157 1061.181 C 1157 1062.247, 1157.419 1062.859, 1157.931 1062.543 C 1158.443 1062.226, 1159.149 1062.432, 1159.500 1063 C 1159.851 1063.568, 1160.557 1063.774, 1161.069 1063.457 C 1161.581 1063.141, 1162 1063.263, 1162 1063.728 C 1162 1064.194, 1162.972 1064.648, 1164.160 1064.737 C 1166.231 1064.893, 1167.952 1066.529, 1167.985 1068.372 C 1167.993 1068.852, 1167.325 1068.685, 1166.500 1068 C 1165.271 1066.980, 1165 1067.049, 1165 1068.378 C 1165 1069.270, 1165.338 1070.034, 1165.750 1070.077 C 1166.162 1070.119, 1167.315 1070.308, 1168.312 1070.497 C 1169.440 1070.711, 1170.453 1070.022, 1170.998 1068.671 C 1171.479 1067.477, 1171.902 1067.111, 1171.937 1067.857 C 1171.973 1068.643, 1172.632 1068.972, 1173.500 1068.638 C 1174.325 1068.322, 1175 1068.499, 1175 1069.031 C 1175 1069.564, 1174.438 1070.014, 1173.750 1070.030 C 1173.060 1070.047, 1173.287 1070.519, 1174.258 1071.085 C 1175.225 1071.648, 1176.532 1071.789, 1177.162 1071.400 C 1177.893 1070.948, 1178.035 1071.135, 1177.553 1071.914 C 1177.138 1072.586, 1176.145 1072.886, 1175.347 1072.580 C 1174.506 1072.257, 1174.163 1072.455, 1174.532 1073.052 C 1174.882 1073.618, 1175.977 1073.825, 1176.966 1073.511 C 1179.026 1072.857, 1180.751 1075.918, 1178.949 1077.031 C 1178.259 1077.458, 1178.629 1077.931, 1179.917 1078.268 C 1181.064 1078.568, 1181.770 1078.437, 1181.485 1077.976 C 1181.200 1077.515, 1181.378 1076.884, 1181.880 1076.574 C 1182.930 1075.925, 1187.971 1078.335, 1188.981 1079.970 C 1189.356 1080.575, 1191.425 1081.350, 1193.581 1081.690 C 1195.736 1082.031, 1197.802 1082.771, 1198.170 1083.334 C 1198.955 1084.536, 1202.248 1085.210, 1201.511 1084.018 C 1201.237 1083.575, 1202.819 1082.489, 1205.027 1081.606 C 1209.990 1079.620, 1212.020 1079.534, 1209.443 1081.418 C 1208.376 1082.198, 1207.840 1083.173, 1208.252 1083.585 C 1208.663 1083.997, 1209 1083.808, 1209 1083.167 C 1209 1082.525, 1209.513 1082, 1210.140 1082 C 1210.767 1082, 1211.925 1081.213, 1212.714 1080.250 C 1213.503 1079.287, 1213.863 1079.063, 1213.515 1079.750 C 1213.167 1080.438, 1213.359 1081, 1213.941 1081 C 1214.523 1081, 1215.007 1080.438, 1215.015 1079.750 C 1215.026 1078.900, 1215.376 1078.980, 1216.110 1080 C 1217.007 1081.248, 1217.089 1081.192, 1216.594 1079.668 C 1216.267 1078.661, 1216 1077.648, 1216 1077.418 C 1216 1077.188, 1215.213 1076.982, 1214.250 1076.960 C 1213.023 1076.932, 1213.346 1076.462, 1215.329 1075.387 C 1217.011 1074.475, 1217.944 1073.296, 1217.630 1072.478 C 1217.262 1071.519, 1217.617 1071.295, 1218.801 1071.738 C 1220.278 1072.291, 1220.322 1072.156, 1219.141 1070.704 C 1217.950 1069.238, 1218.111 1068.908, 1220.456 1068.017 C 1221.927 1067.457, 1223.551 1067, 1224.065 1067 C 1225.244 1067, 1225.289 1065.296, 1224.129 1064.580 C 1223.650 1064.283, 1223.474 1062.165, 1223.739 1059.871 C 1224.150 1056.316, 1223.980 1055.794, 1222.587 1056.328 C 1221.264 1056.836, 1221.138 1056.610, 1221.926 1055.139 C 1222.460 1054.140, 1222.643 1052.351, 1222.332 1051.162 C 1222.021 1049.973, 1222.173 1049, 1222.669 1049 C 1223.165 1049, 1223.571 1048.070, 1223.571 1046.933 C 1223.571 1045.157, 1223.413 1045.082, 1222.447 1046.404 C 1221.548 1047.632, 1221.287 1047.009, 1221.147 1043.306 C 1220.969 1038.617, 1219.502 1035.572, 1217.898 1036.563 C 1217.417 1036.860, 1217.290 1036.408, 1217.616 1035.558 C 1217.943 1034.707, 1218.682 1034.303, 1219.259 1034.660 C 1219.893 1035.052, 1220.010 1034.825, 1219.553 1034.086 C 1219.138 1033.414, 1218.238 1033.078, 1217.555 1033.341 C 1216.709 1033.665, 1216.459 1033.049, 1216.773 1031.409 C 1217.026 1030.084, 1216.762 1029, 1216.186 1029 C 1215.610 1029, 1214.995 1027.987, 1214.820 1026.750 C 1214.644 1025.513, 1214.050 1024.497, 1213.500 1024.493 C 1211.234 1024.476, 1207.970 1021.243, 1208.589 1019.629 C 1209.084 1018.339, 1208.815 1018.130, 1207.361 1018.676 C 1205.836 1019.248, 1205.710 1019.115, 1206.666 1017.936 C 1207.594 1016.791, 1207.259 1015.925, 1205.016 1013.683 C 1202.949 1011.616, 1201.993 1011.202, 1201.423 1012.124 C 1200.981 1012.840, 1201.156 1013.552, 1201.829 1013.776 C 1202.480 1013.993, 1202.758 1014.582, 1202.447 1015.085 C 1201.512 1016.598, 1200.138 1016.126, 1198.935 1013.879 C 1198.016 1012.161, 1198.057 1011.913, 1199.150 1012.571 C 1200.247 1013.231, 1200.267 1013.096, 1199.259 1011.850 C 1198.576 1011.006, 1198.351 1009.948, 1198.759 1009.499 C 1199.166 1009.049, 1198.713 1008.964, 1197.750 1009.309 C 1196.787 1009.655, 1196 1009.501, 1196 1008.969 C 1196 1008.436, 1195.325 1008, 1194.500 1008 C 1193.675 1008, 1193 1007.523, 1193 1006.941 C 1193 1006.359, 1192.474 1006.207, 1191.830 1006.605 C 1191.032 1007.098, 1190.873 1006.773, 1191.330 1005.582 C 1191.699 1004.622, 1192 1003.593, 1192 1003.296 C 1192 1002.998, 1192.675 1003.315, 1193.500 1004 C 1194.325 1004.685, 1195 1004.812, 1195 1004.283 C 1195 1002.586, 1190.388 1001.012, 1189.123 1002.277 C 1188.292 1003.108, 1188 1003.060, 1188 1002.093 C 1188 1001.323, 1187.363 1001.031, 1186.448 1001.382 C 1185.558 1001.723, 1185.157 1001.555, 1185.507 1000.989 C 1185.843 1000.445, 1185.416 1000, 1184.559 1000 C 1183.702 1000, 1183.089 999.663, 1183.198 999.250 C 1183.607 997.701, 1181.819 993.994, 1180.928 994.544 C 1180.418 994.860, 1180 994.551, 1180 993.859 C 1180 992.880, 1179.733 992.867, 1178.800 993.800 C 1178.140 994.460, 1177.127 994.993, 1176.550 994.985 C 1175.972 994.976, 1176.175 994.533, 1177 994 C 1178.169 993.245, 1177.893 993.027, 1175.750 993.015 C 1173.487 993.003, 1173 992.557, 1173 990.500 C 1173 989.125, 1172.550 988, 1172 988 C 1171.450 988, 1171 987.298, 1171 986.441 C 1171 985.584, 1170.601 985.129, 1170.113 985.430 C 1169.626 985.731, 1168.671 985.308, 1167.991 984.489 C 1166.618 982.835, 1164.526 982.424, 1165.500 984 C 1165.840 984.550, 1165.641 985, 1165.059 985 C 1164.477 985, 1164 984.499, 1164 983.887 C 1164 983.238, 1162.841 982.943, 1161.225 983.180 C 1158.604 983.565, 1158.462 983.391, 1158.678 980.044 C 1158.804 978.095, 1158.665 977.311, 1158.370 978.303 C 1157.917 979.824, 1157.581 979.902, 1156.224 978.803 C 1155.026 977.832, 1154.808 977.819, 1155.367 978.750 C 1155.798 979.467, 1155.617 980, 1154.942 980 C 1154.228 980, 1153.954 979.020, 1154.245 977.500 C 1154.508 976.125, 1154.272 975, 1153.722 975 C 1153.171 975, 1152.221 974.333, 1151.610 973.519 C 1150.888 972.555, 1150.014 972.344, 1149.111 972.914 C 1148.029 973.596, 1148.322 974.105, 1150.434 975.212 C 1152.860 976.483, 1152.978 976.773, 1151.551 977.958 C 1150.171 979.103, 1150.049 979.036, 1150.651 977.468 C 1151.200 976.036, 1150.983 975.793, 1149.622 976.315 C 1148.673 976.679, 1148.141 976.582, 1148.439 976.098 C 1148.738 975.615, 1147.509 974.943, 1145.709 974.605 C 1143.219 974.138, 1142.122 973.214, 1141.129 970.745 C 1140.411 968.960, 1139.617 968.014, 1139.365 968.642 C 1138.844 969.937, 1130.511 965.975, 1130.485 964.419 C 1130.458 962.825, 1128.929 960.997, 1127.691 961.079 C 1126.832 961.136, 1126.849 961.299, 1127.750 961.662 C 1128.438 961.940, 1129 962.595, 1129 963.119 C 1129 963.663, 1128.089 963.583, 1126.873 962.932 C 1125.325 962.104, 1124.560 962.095, 1124.062 962.899 C 1123.636 963.589, 1122.560 962.896, 1121.199 961.055 C 1119.915 959.318, 1119.426 957.855, 1120.009 957.494 C 1120.554 957.157, 1120.964 956.346, 1120.921 955.691 C 1120.864 954.824, 1120.706 954.838, 1120.340 955.742 C 1119.984 956.623, 1119.305 956.698, 1118 956 C 1116.692 955.300, 1116.041 955.375, 1115.746 956.258 C 1115.481 957.049, 1113.307 957.500, 1109.761 957.500 C 1106.697 957.500, 1104.418 957.133, 1104.696 956.683 C 1104.973 956.234, 1104.371 955.260, 1103.356 954.519 C 1102.123 953.617, 1101.299 953.517, 1100.866 954.217 C 1100.112 955.436, 1093 954.375, 1093 953.043 C 1093 952.567, 1092.213 952.309, 1091.250 952.471 C 1090.287 952.633, 1089.607 953.252, 1089.738 953.847 C 1089.869 954.441, 1089.306 954.671, 1088.488 954.357 C 1087.670 954.043, 1087 954.311, 1087 954.952 C 1087 955.610, 1086.473 955.792, 1085.789 955.370 C 1085.123 954.958, 1082.901 954.618, 1080.851 954.615 C 1078.801 954.611, 1077.374 954.203, 1077.680 953.708 C 1077.986 953.213, 1077.396 952.990, 1076.368 953.213 C 1075.341 953.436, 1074.607 954.138, 1074.738 954.773 C 1074.871 955.421, 1074.322 955.677, 1073.488 955.357 C 1072.218 954.870, 1071.585 953.182, 1071.824 950.921 C 1071.858 950.603, 1070.899 950.429, 1069.693 950.534 C 1068.487 950.640, 1066.600 950.264, 1065.500 949.699 C 1063.653 948.751, 1063.615 948.813, 1065 950.500 C 1066.405 952.212, 1066.357 952.251, 1064.229 951.117 C 1062.980 950.452, 1061.556 950.156, 1061.065 950.460 C 1060.573 950.764, 1059.943 950.447, 1059.664 949.756 C 1059.327 948.919, 1059.132 948.886, 1059.079 949.656 C 1059.034 950.310, 1058.130 950.585, 1057 950.290 C 1055.900 950.002, 1055 950.229, 1055 950.795 C 1055 952.083, 1052.650 951.784, 1050.817 950.263 C 1050.056 949.631, 1048.914 949.435, 1048.279 949.828" stroke="none" fill="#f4f4f4" fill-rule="evenodd"/></svg>