<svg xmlns="http://www.w3.org/2000/svg" width="2048" height="2048" viewBox="0 0 2048 2048" version="1.1"><path d="" stroke="none" fill="#f4f4ec" fill-rule="evenodd"/><path d="M 669.538 672.939 C 669.219 673.455, 668.047 673.702, 666.934 673.487 C 664.205 672.962, 662 673.909, 662 675.607 C 662 676.373, 661.277 677, 660.393 677 L 658.786 677 659.324 678.401 L 659.862 679.803 657.830 680.334 C 656.713 680.626, 656.028 681.236, 656.307 681.688 C 656.587 682.141, 655.997 684.195, 654.997 686.252 L 653.178 689.992 654.154 690.595 C 654.732 690.952, 654.482 691.915, 653.541 692.955 C 652.667 693.921, 652.213 695.393, 652.533 696.226 C 652.863 697.086, 652.457 697.994, 651.593 698.326 L 650.072 698.910 651.502 701.667 L 652.932 704.424 651.716 705.197 L 650.500 705.969 651.865 705.985 L 653.230 706 651.615 708.465 C 649.749 711.312, 649.503 714, 651.107 714 C 651.716 714, 651.946 713.302, 651.618 712.448 C 651.264 711.525, 651.440 711.154, 652.052 711.532 C 653.277 712.289, 652.305 715.838, 650.334 717.809 L 648.931 719.212 650.168 720.703 L 651.406 722.194 652.133 720.347 L 652.859 718.500 652.930 720.191 C 652.968 721.121, 652.502 722.190, 651.893 722.566 L 650.786 723.250 652.143 724.110 C 652.889 724.583, 653.050 724.977, 652.500 724.987 C 651.221 725.009, 650.784 730.749, 652.005 731.503 L 652.924 732.071 651.940 734.657 C 651.399 736.079, 651.318 737.751, 651.759 738.372 C 652.200 738.992, 652.548 741.075, 652.531 743 C 652.514 744.925, 653.119 746.986, 653.877 747.579 L 655.253 748.658 654.124 750.768 L 652.995 752.879 654.104 753.564 L 655.214 754.250 653.857 755.110 L 652.500 755.969 653.750 755.985 C 655.239 756.003, 659.377 759.963, 659.618 761.601 C 659.711 762.234, 660.100 763.741, 660.484 764.949 L 661.181 767.145 662.631 766.588 C 663.464 766.269, 663.974 766.557, 663.830 767.266 C 663.482 768.984, 665.820 773.143, 668.367 775.337 C 669.540 776.347, 669.965 776.900, 669.311 776.565 L 668.121 775.957 668.273 777.978 L 668.426 780 670.272 780 L 672.118 780 671.403 781.158 L 670.687 782.315 672.798 781.763 L 674.908 781.211 676.535 783.694 L 678.162 786.176 680.665 785.548 L 683.168 784.920 682.525 785.960 C 682.171 786.532, 682.385 787, 683 787 C 683.615 787, 683.835 787.457, 683.490 788.016 C 683.144 788.575, 682.518 788.820, 682.098 788.560 C 681.677 788.301, 681.333 788.723, 681.333 789.500 C 681.333 790.277, 681.670 790.704, 682.081 790.450 C 682.493 790.196, 683.019 790.328, 683.251 790.744 C 683.483 791.160, 683.570 791.030, 683.446 790.455 C 683.322 789.880, 684.183 789.363, 685.360 789.306 C 686.537 789.250, 686.938 789.420, 686.250 789.685 C 684.177 790.484, 684.844 791.738, 687.250 791.564 C 691.695 791.244, 694.639 793.382, 694.047 796.500 C 693.940 797.065, 694.352 797.014, 694.997 796.382 L 696.137 795.263 699.504 798.439 C 701.356 800.186, 703.013 802.264, 703.186 803.058 C 703.550 804.728, 707.110 807.611, 708.324 807.217 C 708.778 807.071, 708.864 807.412, 708.515 807.975 C 708.167 808.539, 708.414 809, 709.063 809 L 710.245 809 708.872 810.687 L 707.500 812.374 709.391 811.664 L 711.283 810.954 710.019 812.477 C 708.865 813.867, 709.286 814.428, 711.250 814.118 C 711.663 814.053, 712 814.686, 712 815.525 C 712 817.017, 716.517 819.407, 717.834 818.612 C 718.200 818.391, 719.080 818.838, 719.789 819.605 C 720.546 820.424, 720.646 821, 720.031 821 L 718.983 821 720.192 822.935 C 720.856 824, 721.763 824.646, 722.207 824.372 C 722.651 824.098, 723.273 824.548, 723.590 825.373 C 723.906 826.199, 724.781 826.638, 725.532 826.349 L 726.899 825.825 726.447 828.319 L 725.995 830.814 728.247 830.282 L 730.500 829.750 728.500 831.449 C 727.400 832.384, 727.012 832.895, 727.637 832.585 C 729.054 831.883, 731.251 834.375, 730.241 835.539 C 729.834 836.010, 730.793 835.584, 732.373 834.594 C 733.953 833.603, 734.941 833.286, 734.569 833.888 C 734.197 834.491, 734.352 835.775, 734.915 836.742 C 735.479 837.709, 735.953 838.163, 735.970 837.750 C 735.986 837.337, 736.916 837.916, 738.036 839.036 C 739.157 840.157, 739.808 841.501, 739.485 842.025 C 739.147 842.571, 739.629 842.696, 740.612 842.319 L 742.328 841.660 741.605 842.830 C 741.207 843.474, 741.252 844, 741.704 844 C 742.156 844, 742.986 845.013, 743.549 846.250 C 744.113 847.487, 745.119 848.387, 745.787 848.250 C 746.454 848.112, 747 848.398, 747 848.883 C 747 849.369, 747.900 850.002, 749 850.290 C 750.100 850.577, 751 850.330, 751 849.740 C 751 849.150, 751.289 848.956, 751.643 849.309 C 751.996 849.663, 751.658 850.724, 750.893 851.668 C 750.127 852.612, 750.012 853.077, 750.637 852.703 C 752.988 851.294, 754.957 856.425, 752.703 858.088 C 752.264 858.412, 752.602 859.254, 753.453 859.961 L 755 861.245 755 859.967 L 755 858.690 757 860.500 C 758.100 861.495, 759 861.955, 759 861.521 C 759 861.088, 757.763 859.668, 756.250 858.368 C 754.737 857.067, 754.007 856.002, 754.628 856.001 C 755.248 856.001, 756.315 856.675, 757 857.500 C 757.685 858.325, 758.865 859, 759.622 859 C 760.416 859, 761 860.034, 761 861.441 C 761 862.784, 761.450 864.160, 762 864.500 C 762.550 864.840, 763 864.581, 763 863.924 C 763 863.268, 763.954 863.943, 765.120 865.426 L 767.241 868.122 768.762 867.538 L 770.283 866.954 769.198 868.261 L 768.113 869.568 771.557 869.454 L 775 869.340 775 870.729 C 775 871.493, 775.371 871.889, 775.824 871.609 C 776.277 871.329, 776.615 872.045, 776.574 873.201 L 776.500 875.302 778.824 875.489 L 781.149 875.677 780.689 873.918 L 780.229 872.159 782.118 872.523 C 785.102 873.097, 785.960 873.941, 785.302 875.656 L 784.691 877.249 787.345 875.509 L 790 873.770 790 875.866 L 790 877.962 792.607 878.616 C 794.041 878.976, 795.504 878.872, 795.857 878.385 C 796.539 877.446, 802 876.772, 802 877.627 C 802 877.905, 801.476 879.114, 800.836 880.316 L 799.673 882.500 801.178 881.259 C 802.006 880.576, 802.980 880.313, 803.342 880.675 C 803.704 881.037, 804 880.730, 804 879.992 L 804 878.651 806.500 881 C 807.875 882.292, 809.029 882.933, 809.063 882.424 C 809.098 881.916, 809.534 882.513, 810.031 883.750 C 810.565 885.078, 811.793 886, 813.027 886 C 814.189 886, 814.839 886.452, 814.490 887.016 C 814.144 887.575, 813.443 887.774, 812.931 887.457 C 812.419 887.141, 812 887.359, 812 887.941 C 812 889.138, 813.099 889.283, 815.418 888.393 C 816.288 888.059, 817.007 887.047, 817.015 886.143 C 817.024 885.201, 817.344 884.926, 817.765 885.500 C 818.459 886.444, 819.644 886.670, 826.250 887.118 C 827.763 887.220, 829 887.716, 829 888.219 C 829 889.665, 834.295 888.654, 834.803 887.111 L 835.259 885.722 833.880 886.508 L 832.500 887.293 833.875 885.897 L 835.250 884.500 835.690 885.694 C 835.931 886.350, 836.775 886.640, 837.565 886.337 C 838.354 886.034, 839 886.311, 839 886.952 C 839 887.593, 839.461 887.833, 840.024 887.485 C 841.631 886.492, 847.111 888.011, 846.352 889.239 L 845.687 890.315 847.809 889.760 L 849.930 889.205 850.516 891.052 C 850.839 892.067, 851.986 893.178, 853.066 893.521 C 854.146 893.864, 854.790 894.531, 854.498 895.003 C 854.206 895.475, 854.428 896.146, 854.991 896.494 C 855.554 896.842, 856.274 896.449, 856.592 895.620 L 857.170 894.114 859.835 895.146 C 863.050 896.390, 865.288 896.936, 870.304 897.699 L 874.107 898.278 873.617 899.556 C 873.347 900.259, 873.823 901.102, 874.674 901.429 L 876.223 902.023 875.643 900.511 L 875.063 899 877.281 899.006 C 878.502 899.010, 880.717 899.647, 882.204 900.423 C 883.692 901.199, 886.021 901.712, 887.381 901.563 C 888.741 901.413, 890.434 901.650, 891.143 902.088 C 891.852 902.527, 893.011 902.406, 893.716 901.820 L 895 900.755 895 901.878 C 895 902.495, 895.873 903, 896.941 903 C 898.009 903, 899.134 903.408, 899.442 903.906 C 900.180 905.100, 904 904.076, 904 902.683 L 904 901.600 905.153 902.753 L 906.306 903.906 907.980 903.011 C 908.901 902.518, 910.744 901.933, 912.077 901.711 C 913.410 901.489, 915.288 900.965, 916.250 900.547 C 917.212 900.128, 918.675 900.045, 919.500 900.362 C 920.325 900.678, 921 900.574, 921 900.130 C 921 899.685, 923.138 899.378, 925.750 899.446 C 928.362 899.515, 931.175 899.250, 932 898.858 C 934.437 897.701, 937.456 896.675, 938.090 896.788 C 938.415 896.846, 938.640 894.780, 938.590 892.197 C 938.487 886.803, 936.494 883.532, 933.250 883.429 C 926.735 883.222, 924.933 882.917, 925.434 882.107 C 925.753 881.591, 924.499 881.549, 922.465 882.008 L 918.945 882.802 917.591 881.449 C 916.847 880.704, 915.970 880.363, 915.643 880.690 C 915.316 881.017, 914.382 880.732, 913.568 880.056 C 912.754 879.381, 911.598 879.130, 911 879.500 C 910.402 879.870, 909.257 879.628, 908.456 878.964 C 907.655 878.299, 907 878.101, 907 878.524 C 907 878.946, 905.798 877.995, 904.329 876.410 L 901.658 873.527 901.259 874.722 L 900.861 875.917 896.179 872.626 C 893.603 870.816, 890.976 869.508, 890.340 869.720 C 889.704 869.932, 888.890 869.631, 888.531 869.050 L 887.879 867.995 885.913 869.047 L 883.947 870.099 881.069 868.049 C 879.486 866.922, 876.968 866, 875.473 866 L 872.755 866 873.822 864.714 L 874.889 863.429 873.018 863.429 C 871.989 863.429, 871.365 863.782, 871.632 864.214 C 872.334 865.349, 870.489 865.180, 867.547 863.839 C 866.146 863.201, 865 862.253, 865 861.732 C 865 861.212, 864.301 861.054, 863.448 861.382 C 862.594 861.709, 860.699 861.195, 859.236 860.239 L 856.577 858.500 857.450 860 C 857.930 860.825, 857.208 860.487, 855.847 859.250 C 854.485 858.013, 852.811 857, 852.127 857 C 851.442 857, 851.160 856.550, 851.500 856 C 851.840 855.450, 851.394 855, 850.509 855 C 849.625 855, 847.461 854.237, 845.700 853.305 C 843.940 852.372, 841.980 851.518, 841.344 851.407 C 839.441 851.074, 836.400 849.063, 837.750 849.030 C 838.438 849.014, 839 848.612, 839 848.138 C 839 847.663, 837.929 847.393, 836.620 847.536 L 834.240 847.798 834.631 845.649 C 834.846 844.467, 834.763 844.037, 834.446 844.694 C 834.130 845.350, 833.112 845.604, 832.185 845.257 L 830.500 844.626 831.872 846.313 C 834.167 849.133, 832.498 848.206, 828.509 844.443 C 826.435 842.487, 824.145 841.114, 823.420 841.392 C 822.694 841.671, 821.825 841.023, 821.484 839.949 L 820.865 838 818.500 838 L 816.135 838 815.471 835.909 L 814.807 833.817 812.842 834.331 C 811.722 834.624, 810.658 834.273, 810.367 833.514 C 810.086 832.782, 808.508 831.625, 806.861 830.942 L 803.865 829.701 805.183 828.866 L 806.500 828.031 805.133 828.015 L 803.767 828 804.290 825.999 L 804.813 823.997 803.657 824.719 C 802.066 825.712, 797.964 825.867, 798.554 824.913 C 798.817 824.487, 798.568 823.851, 798 823.500 C 797.432 823.149, 797.254 822.398, 797.604 821.831 L 798.241 820.800 796.143 821.923 L 794.045 823.046 794.629 821.523 L 795.214 820 793.607 820 L 792 820 792 817.893 L 792 815.786 790.745 816.268 C 790.054 816.533, 788.912 816.131, 788.205 815.375 L 786.921 814 788.211 813.968 C 788.920 813.951, 788.263 812.848, 786.750 811.516 C 785.237 810.185, 784 808.624, 784 808.048 C 784 807.472, 783.325 807, 782.500 807 C 781.675 807, 781 806.315, 781 805.479 C 781 804.642, 779.875 803.445, 778.500 802.818 C 776.320 801.825, 775.509 800.287, 775.861 797.811 C 775.915 797.433, 775.094 797.289, 774.037 797.493 L 772.115 797.863 772.635 796.508 L 773.155 795.154 769.539 795.441 L 765.923 795.728 763.212 793.629 C 761.720 792.476, 759.627 790.736, 758.560 789.764 L 756.620 787.997 755.825 789.249 L 755.031 790.500 755.015 789.359 C 755.007 788.731, 753.208 787.500, 751.018 786.624 C 748.828 785.748, 746.470 784.124, 745.777 783.015 C 745.085 781.907, 743.952 781, 743.259 781 C 742.567 781, 742 779.875, 742 778.500 C 742 777.125, 741.508 776, 740.908 776 C 739.545 776, 734.446 772.055, 734.651 771.159 C 734.973 769.759, 732.859 767, 731.465 767 C 730.659 767, 729.944 766.325, 729.875 765.500 C 729.680 763.165, 729.516 762.656, 728.173 760.237 L 726.916 757.975 724.958 759.022 L 723 760.070 723 759.035 C 723 758.466, 722.090 757.090, 720.977 755.977 L 718.954 753.954 720 752 L 721.046 750.045 719.273 750.682 C 718.298 751.032, 717.822 750.962, 718.216 750.527 C 718.920 749.748, 714.933 746, 713.401 746 C 712.970 746, 713.491 746.653, 714.559 747.450 L 716.500 748.901 714 748.288 C 711.020 747.558, 710.054 746.318, 710.532 743.835 C 710.726 742.826, 710.461 742, 709.943 742 C 709.424 742, 709 741.073, 709 739.941 L 709 737.882 710.250 738.633 L 711.500 739.384 710.137 737.703 C 709.387 736.778, 708.374 736.269, 707.887 736.570 C 707.399 736.871, 707 736.672, 707 736.126 C 707 735.581, 707.900 734.849, 709 734.500 C 710.853 733.912, 711.934 731.853, 710.250 732.118 C 709.837 732.184, 708.664 732.184, 707.643 732.118 L 705.786 732 706.357 730.512 C 706.687 729.652, 706.416 729.124, 705.714 729.262 C 705.046 729.393, 704.613 728.938, 704.750 728.250 C 704.888 727.563, 704.475 727, 703.833 727 C 703.192 727, 702.940 726.727, 703.273 726.394 C 703.607 726.060, 702.987 724.829, 701.896 723.658 L 699.913 721.529 701.020 721.160 C 701.629 720.957, 702.705 721.581, 703.411 722.547 L 704.695 724.303 705.502 722.997 L 706.309 721.691 705.088 722.446 L 703.866 723.201 704.183 721.350 L 704.500 719.500 703.185 719.772 C 700.429 720.341, 696.171 715.892, 693.413 709.560 L 690.595 703.091 689.110 704.296 L 687.626 705.500 688.296 703.712 L 688.967 701.923 687.213 701.212 C 686.248 700.820, 685.412 699.712, 685.355 698.750 C 685.147 695.279, 684.984 694.892, 683.993 695.504 C 683.439 695.847, 682.753 695.519, 682.467 694.776 C 681.923 693.357, 681 686.751, 680.924 683.728 C 680.899 682.754, 680.469 682.210, 679.969 682.519 C 679.468 682.829, 678.772 681.942, 678.423 680.548 C 678.073 679.154, 677.385 678.262, 676.893 678.566 C 676.402 678.870, 676 678.620, 676 678.011 C 676 677.071, 671.287 672, 670.413 672 C 670.251 672, 669.857 672.422, 669.538 672.939" stroke="none" fill="#f4f4f4" fill-rule="evenodd"/></svg>