<svg xmlns="http://www.w3.org/2000/svg" width="2048" height="2048" viewBox="0 0 2048 2048" version="1.1"><path d="" stroke="none" fill="#fcf4f4" fill-rule="evenodd"/><path d="M 845.015 928.550 C 845.007 929.128, 845.563 930.201, 846.250 930.936 C 847.271 932.028, 847.134 932.178, 845.500 931.758 C 844.400 931.475, 843.050 931.136, 842.500 931.003 C 840.364 930.490, 835.906 931.039, 836.352 931.761 C 836.915 932.671, 835.346 934.770, 832.062 937.500 C 830.576 938.735, 829.979 938.927, 830.500 938 C 831.034 937.050, 830.547 937.199, 829.172 938.405 C 826.900 940.398, 826.146 942.646, 828.170 941.395 C 828.994 940.885, 829.109 941.237, 828.556 942.586 C 828.126 943.639, 827.534 945.400, 827.242 946.500 C 826.950 947.600, 826.214 949.149, 825.606 949.942 C 824.731 951.083, 824.813 951.224, 826 950.618 C 827.173 950.019, 827.155 950.140, 825.918 951.176 C 824.945 951.990, 824.434 953.751, 824.590 955.750 C 824.730 957.538, 824.429 959, 823.922 959 C 823.415 959, 823 959.527, 823 960.171 C 823 960.815, 822.212 962.243, 821.250 963.343 C 820.288 964.444, 820.063 965.015, 820.750 964.613 C 822.344 963.681, 822.379 965.221, 820.800 966.800 C 819.867 967.733, 819.867 968, 820.800 968 C 821.460 968, 822 968.498, 822 969.107 C 822 969.716, 821.348 969.964, 820.551 969.658 C 819.582 969.286, 819.286 969.582, 819.658 970.551 C 819.964 971.348, 820.616 972, 821.107 972 C 821.598 972, 822 973.623, 822 975.607 C 822 978.138, 821.616 979.067, 820.713 978.720 C 819.783 978.363, 819.364 979.629, 819.206 983.269 C 818.972 988.631, 817.516 991.412, 815.372 990.589 C 814.653 990.313, 813.798 990.518, 813.473 991.044 C 813.148 991.570, 813.359 992, 813.941 992 C 814.523 992, 815 992.477, 815 993.059 C 815 993.641, 814.438 993.800, 813.750 993.412 C 812.775 992.862, 812.764 992.991, 813.696 993.999 C 814.374 994.732, 814.644 996.528, 814.321 998.146 C 813.950 999.999, 814.165 1001, 814.934 1001 C 815.585 1001, 815.840 1001.450, 815.500 1002 C 815.160 1002.550, 815.575 1003, 816.421 1003 C 817.540 1003, 817.866 1003.813, 817.614 1005.976 C 817.424 1007.613, 817.658 1008.712, 818.134 1008.417 C 818.895 1007.947, 819.454 1010.123, 819.118 1012.250 C 819.053 1012.663, 819.466 1013, 820.035 1013 C 820.734 1013, 820.718 1013.658, 819.989 1015.021 C 819.394 1016.132, 819.157 1017.446, 819.463 1017.940 C 819.768 1018.434, 819.351 1019.506, 818.535 1020.322 C 817.252 1021.606, 817.246 1021.880, 818.493 1022.359 C 819.741 1022.838, 819.731 1023.400, 818.416 1026.547 C 817.581 1028.546, 817.339 1029.908, 817.880 1029.574 C 818.420 1029.241, 819.144 1029.425, 819.490 1029.984 C 819.835 1030.543, 819.529 1031.007, 818.809 1031.015 C 817.766 1031.028, 817.776 1031.205, 818.857 1031.890 C 819.719 1032.437, 819.839 1032.981, 819.187 1033.384 C 818.623 1033.733, 817.450 1033.307, 816.581 1032.438 C 814.430 1030.288, 814.569 1031.850, 816.750 1034.343 C 817.712 1035.444, 817.938 1036.015, 817.250 1035.613 C 816.563 1035.211, 816 1035.321, 816 1035.858 C 816 1036.394, 816.424 1036.983, 816.941 1037.167 C 818.775 1037.816, 818.956 1042.923, 817.182 1043.958 C 815.616 1044.871, 815.619 1044.941, 817.219 1044.970 C 818.330 1044.989, 818.734 1045.530, 818.362 1046.500 C 818.031 1047.362, 818.342 1048, 819.093 1048 C 820.059 1048, 820.107 1048.293, 819.278 1049.122 C 818.661 1049.739, 818.396 1050.870, 818.690 1051.635 C 818.984 1052.400, 818.668 1053.695, 817.989 1054.513 C 817.086 1055.602, 817.049 1056.355, 817.854 1057.324 C 818.656 1058.290, 818.637 1058.963, 817.784 1059.816 C 816.710 1060.890, 816.050 1063.970, 815.654 1069.750 C 815.569 1070.987, 814.986 1072, 814.357 1072 C 812.833 1072, 811.825 1074.774, 813.070 1075.543 C 814.370 1076.347, 813.829 1081.152, 812.250 1082.821 C 810.444 1084.730, 810.715 1086.998, 812.750 1087.015 C 814.242 1087.028, 814.279 1087.171, 813 1087.979 C 812.175 1088.500, 811.485 1090.054, 811.467 1091.432 C 811.448 1092.811, 810.170 1095.257, 808.626 1096.869 C 806.001 1099.609, 805.938 1099.866, 807.652 1100.825 C 809.359 1101.780, 809.293 1102.015, 806.703 1104.241 C 804.848 1105.835, 804.136 1107.190, 804.565 1108.310 C 804.920 1109.233, 805.607 1109.743, 806.093 1109.442 C 806.579 1109.142, 806.709 1109.594, 806.382 1110.448 C 806.054 1111.302, 805.417 1112, 804.966 1112 C 803.419 1112, 801.303 1117.702, 801.741 1120.689 C 802.023 1122.613, 801.592 1124.266, 800.529 1125.329 C 799.621 1126.237, 798.621 1128.559, 798.308 1130.490 C 797.931 1132.814, 797.191 1134.005, 796.119 1134.015 C 794.986 1134.026, 794.862 1134.261, 795.704 1134.796 C 797.222 1135.761, 796.992 1139.934, 795.453 1139.344 C 794.152 1138.844, 794.174 1143.854, 795.483 1145.972 C 796.085 1146.946, 795.928 1147.079, 794.905 1146.463 C 793.708 1145.742, 793.704 1145.867, 794.872 1147.308 C 795.627 1148.239, 795.784 1149, 795.220 1149 C 794.657 1149, 793.713 1150.384, 793.124 1152.075 C 792.534 1153.766, 791.595 1154.868, 791.037 1154.523 C 790.421 1154.142, 790.281 1154.569, 790.681 1155.612 C 791.128 1156.776, 790.964 1157.096, 790.170 1156.605 C 789.434 1156.150, 789 1156.584, 789 1157.774 C 789 1158.815, 788.687 1159.980, 788.304 1160.362 C 786.950 1161.717, 787.219 1163.870, 788.821 1164.485 C 790.226 1165.024, 790.246 1165.235, 788.972 1166.054 C 787.764 1166.830, 787.739 1167.154, 788.834 1167.861 C 789.909 1168.555, 789.861 1168.839, 788.584 1169.329 C 787.713 1169.664, 787 1170.837, 787 1171.937 C 787 1173.304, 786.525 1173.755, 785.500 1173.362 C 784.537 1172.992, 784 1173.382, 784 1174.452 C 784 1175.368, 784.450 1175.840, 785 1175.500 C 785.550 1175.160, 786 1175.359, 786 1175.941 C 786 1176.523, 785.438 1177.007, 784.750 1177.015 C 783.938 1177.025, 783.865 1177.288, 784.542 1177.765 C 785.144 1178.190, 785.299 1179.767, 784.910 1181.500 C 784.540 1183.150, 784.183 1184.130, 784.118 1183.679 C 783.905 1182.199, 781.344 1185.469, 780.327 1188.518 C 779.781 1190.158, 778.696 1191.495, 777.917 1191.489 C 777.137 1191.482, 775.241 1192.824, 773.703 1194.471 C 771.486 1196.845, 770.727 1197.176, 770.044 1196.071 C 769.318 1194.897, 768.929 1194.928, 767.591 1196.266 C 766.716 1197.141, 765.993 1198.902, 765.985 1200.179 C 765.974 1201.832, 765.726 1202.116, 765.123 1201.165 C 764.490 1200.167, 764.127 1200.407, 763.678 1202.122 C 763.349 1203.382, 762.767 1204.101, 762.386 1203.719 C 762.004 1203.338, 760.411 1204.366, 758.846 1206.004 C 757.281 1207.642, 756 1208.706, 756 1208.368 C 756 1208.031, 755.438 1208.175, 754.750 1208.689 C 753.649 1209.512, 752.750 1209.601, 750.378 1209.125 C 750.035 1209.056, 750.373 1208.213, 751.128 1207.250 C 752.371 1205.664, 752.336 1205.629, 750.750 1206.872 C 749.788 1207.627, 748.986 1207.852, 748.968 1207.372 C 748.951 1206.893, 748.335 1207.292, 747.600 1208.261 C 746.416 1209.820, 746.120 1209.849, 745.009 1208.511 C 743.435 1206.614, 742 1206.564, 742 1208.406 C 742 1209.320, 741.300 1209.630, 740 1209.290 C 738.882 1208.997, 738 1209.259, 738 1209.883 C 738 1210.498, 737.325 1211, 736.500 1211 C 735.675 1211, 735 1210.602, 735 1210.117 C 735 1208.926, 731.134 1207.975, 730.495 1209.008 C 730.216 1209.460, 730.553 1210.037, 731.244 1210.291 C 731.935 1210.545, 731.192 1211.100, 729.594 1211.524 C 727.490 1212.082, 726.387 1211.885, 725.594 1210.810 C 724.395 1209.182, 721.599 1209.541, 722.619 1211.193 C 723.022 1211.845, 722.437 1211.956, 721 1211.500 C 719.467 1211.013, 718.968 1211.139, 719.434 1211.893 C 720.254 1213.219, 719.045 1213.314, 717.091 1212.077 C 715.203 1210.882, 712.753 1211.915, 713.411 1213.629 C 714.107 1215.443, 712.489 1215.366, 709.557 1213.446 C 708.057 1212.462, 706.956 1212.263, 706.561 1212.902 C 706.217 1213.458, 705.275 1213.659, 704.468 1213.349 C 703.661 1213.040, 703 1213.186, 703 1213.675 C 703 1214.164, 701.827 1214.661, 700.394 1214.779 C 698.580 1214.930, 697.943 1214.591, 698.299 1213.664 C 698.579 1212.932, 698.177 1212.333, 697.405 1212.333 C 696.632 1212.333, 696 1212.639, 696 1213.014 C 696 1214.674, 692.324 1217.676, 690.606 1217.419 C 689.564 1217.262, 687.891 1218.117, 686.889 1219.317 C 685.808 1220.612, 685.053 1220.967, 685.033 1220.191 C 685.015 1219.471, 684.565 1219.151, 684.033 1219.479 C 682.856 1220.207, 678.394 1229.105, 678.507 1230.500 C 678.657 1232.358, 681.259 1242.492, 681.845 1243.499 C 682.164 1244.048, 682.442 1245.390, 682.463 1246.481 C 682.484 1247.602, 683.312 1248.622, 684.368 1248.828 C 685.433 1249.036, 685.970 1248.761, 685.617 1248.189 C 685.245 1247.587, 685.820 1247.402, 687.055 1247.725 C 688.276 1248.044, 688.900 1248.819, 688.588 1249.631 C 688.253 1250.504, 689.345 1251.535, 691.603 1252.479 C 693.859 1253.421, 694.880 1254.385, 694.417 1255.134 C 693.940 1255.906, 694.125 1256.041, 694.957 1255.526 C 695.658 1255.093, 696.534 1255.247, 696.919 1255.869 C 697.301 1256.488, 699.040 1257.160, 700.783 1257.363 C 702.526 1257.566, 703.768 1257.433, 703.542 1257.068 C 703.317 1256.703, 703.545 1255.751, 704.051 1254.952 C 704.700 1253.926, 704.974 1253.872, 704.985 1254.770 C 704.995 1255.600, 705.930 1255.870, 707.687 1255.552 C 709.164 1255.284, 710.964 1255.555, 711.687 1256.155 C 712.566 1256.885, 713 1256.901, 713 1256.203 C 713 1255.490, 714.133 1255.474, 716.591 1256.153 C 718.566 1256.698, 720.764 1256.921, 721.476 1256.648 C 722.188 1256.374, 723.610 1256.703, 724.635 1257.378 C 725.661 1258.053, 727.063 1258.526, 727.750 1258.428 C 728.438 1258.330, 729.750 1258.194, 730.667 1258.125 C 731.583 1258.056, 732.060 1257.727, 731.727 1257.394 C 730.420 1256.087, 735.016 1252.808, 738.880 1252.289 C 741.123 1251.988, 742.757 1251.415, 742.510 1251.016 C 742.263 1250.616, 743.171 1250.501, 744.528 1250.761 C 745.912 1251.025, 748.142 1250.482, 749.605 1249.523 C 751.421 1248.333, 752.532 1248.132, 753.260 1248.860 C 753.988 1249.588, 754.943 1249.555, 756.403 1248.751 C 759.216 1247.201, 760.875 1246.989, 761.557 1248.092 C 761.897 1248.642, 762.810 1248.637, 763.852 1248.079 C 764.804 1247.570, 766.464 1247.231, 767.542 1247.326 C 768.765 1247.435, 769.385 1246.967, 769.194 1246.081 C 768.929 1244.855, 769.122 1244.855, 770.606 1246.081 C 771.935 1247.177, 772.421 1247.216, 772.746 1246.250 C 772.977 1245.563, 774.077 1245, 775.190 1245 C 776.485 1245, 777.026 1244.510, 776.692 1243.641 C 776.342 1242.727, 776.881 1242.338, 778.335 1242.454 C 781.054 1242.670, 784.232 1241.184, 783.518 1240.030 C 783.223 1239.552, 784.223 1238.234, 785.740 1237.102 C 789.914 1233.989, 791.989 1231.792, 791.502 1231.003 C 790.961 1230.129, 795.945 1227.527, 798.929 1227.125 C 799.439 1227.056, 800.573 1226.284, 801.449 1225.409 C 802.324 1224.533, 803.818 1223.703, 804.770 1223.563 C 805.721 1223.424, 806.520 1222.677, 806.545 1221.905 C 806.570 1221.132, 807.188 1220.631, 807.918 1220.791 C 808.733 1220.969, 809.025 1220.507, 808.674 1219.592 C 808.316 1218.659, 808.857 1217.863, 810.123 1217.461 C 811.371 1217.065, 811.930 1216.259, 811.583 1215.356 C 811.274 1214.551, 811.901 1212.949, 812.976 1211.795 C 814.051 1210.641, 814.695 1209.315, 814.406 1208.849 C 814.118 1208.382, 814.385 1208, 815 1208 C 815.615 1208, 815.840 1207.550, 815.500 1207 C 815.160 1206.450, 815.324 1206, 815.863 1206 C 816.403 1206, 817.361 1204.435, 817.992 1202.523 C 818.623 1200.611, 819.671 1199.149, 820.320 1199.273 C 820.969 1199.398, 821.447 1198.498, 821.382 1197.273 C 821.317 1196.048, 821.655 1195.287, 822.132 1195.582 C 823.009 1196.124, 823.112 1195.816, 823.420 1191.750 C 823.514 1190.513, 824.133 1189.613, 824.795 1189.750 C 825.458 1189.888, 825.947 1189.663, 825.882 1189.250 C 825.816 1188.838, 825.816 1186.995, 825.882 1185.156 C 825.970 1182.667, 826.531 1181.674, 828.081 1181.269 C 829.515 1180.894, 830.010 1180.146, 829.674 1178.861 C 829.406 1177.836, 829.595 1177.249, 830.093 1177.558 C 830.961 1178.094, 831.468 1175.110, 831.029 1172.052 C 830.915 1171.255, 831.461 1170.130, 832.242 1169.552 C 833.979 1168.266, 835.384 1162, 833.936 1162 C 833.378 1162, 833.501 1161.372, 834.211 1160.605 C 834.920 1159.838, 835.907 1159.457, 836.405 1159.759 C 836.902 1160.062, 837.007 1159.821, 836.638 1159.224 C 836.269 1158.627, 836.392 1157.876, 836.910 1157.556 C 837.479 1157.204, 837.507 1155.768, 836.981 1153.934 C 836.317 1151.618, 836.452 1150.764, 837.549 1150.343 C 838.341 1150.039, 838.692 1149.311, 838.330 1148.725 C 837.913 1148.051, 838.301 1147.902, 839.388 1148.319 C 840.332 1148.681, 840.853 1148.571, 840.546 1148.074 C 840.239 1147.577, 840.553 1146.936, 841.244 1146.648 C 842.140 1146.276, 841.943 1145.677, 840.559 1144.563 C 838.920 1143.244, 838.872 1143, 840.250 1143 C 841.148 1143, 842.167 1142.539, 842.515 1141.975 C 842.864 1141.412, 842.778 1141.015, 842.324 1141.094 C 840.186 1141.465, 839.820 1140.852, 841.223 1139.250 C 842.836 1137.410, 844.229 1130.740, 842.819 1131.612 C 842.369 1131.890, 842 1131.443, 842 1130.618 C 842 1129.793, 842.450 1128.840, 843 1128.500 C 843.550 1128.160, 844 1127.009, 844 1125.941 C 844 1124.873, 844.477 1124, 845.059 1124 C 845.641 1124, 845.881 1123.616, 845.591 1123.147 C 845.301 1122.678, 845.675 1121.460, 846.421 1120.439 C 847.167 1119.419, 847.548 1117.986, 847.267 1117.255 C 846.987 1116.524, 847.408 1115.155, 848.204 1114.213 C 849 1113.271, 849.744 1110.945, 849.857 1109.044 C 849.970 1107.143, 850.779 1104.797, 851.653 1103.831 C 852.527 1102.865, 852.977 1101.383, 852.653 1100.537 C 852.328 1099.692, 852.468 1099, 852.964 1099 C 853.460 1099, 854.206 1097.987, 854.622 1096.750 C 855.800 1093.245, 855.894 1092, 854.981 1092 C 854.518 1092, 854.527 1090.650, 855 1089 C 855.473 1087.350, 855.597 1086, 855.275 1086 C 854.953 1086, 855.366 1085.213, 856.193 1084.250 C 858.527 1081.533, 859.518 1079.562, 858.114 1080.429 C 857.244 1080.967, 857.101 1080.400, 857.589 1078.334 C 857.957 1076.775, 858.650 1075.072, 859.129 1074.550 C 859.608 1074.027, 860 1072.310, 860 1070.733 C 860 1068.238, 860.293 1067.948, 862.250 1068.498 C 864.011 1068.994, 864.174 1068.903, 863 1068.081 C 861.715 1067.181, 861.759 1067.028, 863.309 1067.015 C 864.304 1067.007, 864.852 1066.570, 864.527 1066.044 C 864.202 1065.518, 863.197 1065.371, 862.294 1065.717 C 861.038 1066.199, 860.811 1065.935, 861.326 1064.592 C 861.697 1063.626, 862 1062.005, 862 1060.990 C 862 1059.974, 862.788 1058.359, 863.750 1057.400 C 865.939 1055.221, 868.328 1047.632, 866.971 1047.167 C 866.437 1046.983, 866 1046.169, 866 1045.358 C 866 1044.539, 866.490 1044.185, 867.100 1044.562 C 867.817 1045.005, 867.776 1044.451, 866.983 1042.969 C 865.934 1041.009, 865.988 1040.781, 867.372 1041.312 C 868.254 1041.651, 868.928 1041.607, 868.870 1041.214 C 868.419 1038.192, 869.154 1034.977, 870.155 1035.595 C 870.945 1036.084, 871.033 1035.866, 870.433 1034.905 C 869.110 1032.781, 868.908 1030.175, 870.014 1029.491 C 870.556 1029.156, 871 1029.359, 871 1029.941 C 871 1030.523, 871.505 1031, 872.122 1031 C 872.913 1031, 872.887 1030.569, 872.036 1029.544 C 871.372 1028.743, 871.099 1027.649, 871.430 1027.113 C 871.762 1026.577, 871.553 1025.842, 870.968 1025.480 C 870.239 1025.030, 870.313 1024.315, 871.201 1023.219 C 871.991 1022.244, 872.044 1021.889, 871.338 1022.313 C 870.602 1022.754, 870.284 1022.366, 870.471 1021.255 C 870.633 1020.290, 871.268 1019.612, 871.883 1019.750 C 872.497 1019.887, 873 1019.523, 873 1018.941 C 873 1018.359, 873.520 1018.203, 874.155 1018.595 C 874.876 1019.041, 875.037 1018.869, 874.585 1018.138 C 874.187 1017.494, 873.443 1017.226, 872.931 1017.543 C 872.419 1017.859, 872 1017.341, 872 1016.392 C 872 1015.443, 872.293 1014.960, 872.652 1015.318 C 873.719 1016.385, 876.030 1010.970, 875.799 1007.943 C 875.681 1006.400, 875.228 1005.359, 874.793 1005.628 C 874.357 1005.898, 874 1005.454, 874 1004.642 C 874 1003.831, 873.438 1002.908, 872.750 1002.593 C 872.063 1002.277, 872.407 1002.236, 873.514 1002.502 C 875.246 1002.917, 875.527 1002.490, 875.514 999.456 C 875.507 997.515, 874.966 995.597, 874.313 995.193 C 873.659 994.790, 872.671 993.266, 872.117 991.807 C 871.343 989.772, 871.446 988.875, 872.560 987.950 C 874.378 986.441, 874.147 981.006, 872.296 981.717 C 871.583 981.990, 871 981.716, 871 981.107 C 871 980.095, 872.358 979.583, 874.250 979.882 C 874.663 979.947, 875 979.573, 875 979.052 C 875 978.530, 873.505 978.249, 871.677 978.426 L 868.354 978.748 868.624 974.348 C 868.772 971.928, 868.498 970.192, 868.016 970.490 C 866.609 971.360, 865.723 969.039, 866.914 967.604 C 868.340 965.885, 867.797 959.500, 866.224 959.500 C 865.551 959.500, 865.104 959.275, 865.232 959 C 865.359 958.725, 864.684 957.387, 863.732 956.027 C 861.404 952.704, 861.552 951.654, 864.250 952.334 C 866.423 952.881, 866.434 952.851, 864.559 951.450 C 863.491 950.653, 862.254 950, 861.809 950 C 861.364 950, 861 949.460, 861 948.800 C 861 947.867, 861.267 947.867, 862.200 948.800 C 862.860 949.460, 863.767 950, 864.216 950 C 864.664 950, 863.663 948.763, 861.990 947.250 C 860.317 945.737, 858.749 943.426, 858.505 942.113 C 858.261 940.800, 857.373 938.965, 856.531 938.034 C 855.689 937.104, 855 935.825, 855 935.192 C 855 934.559, 853.087 933.071, 850.750 931.886 C 848.413 930.701, 846.169 929.229, 845.765 928.616 C 845.292 927.898, 845.025 927.874, 845.015 928.550" stroke="none" fill="#f4f4f4" fill-rule="evenodd"/></svg>