<svg xmlns="http://www.w3.org/2000/svg" width="2048" height="2048" viewBox="0 0 2048 2048" version="1.1"><path d="" stroke="none" fill="#f4f4ec" fill-rule="evenodd"/><path d="M 674.800 312.473 C 672.215 313.185, 669.912 313.579, 669.682 313.349 C 669.452 313.119, 669.451 313.959, 669.680 315.215 C 670.086 317.452, 666.050 323, 664.017 323 C 663.521 323, 663.292 323.920, 663.508 325.044 L 663.902 327.088 661.451 328.204 C 660.103 328.818, 659 329.994, 659 330.816 L 659 332.310 661.211 330.405 L 663.422 328.500 661.688 331.250 C 660.734 332.762, 660.244 334, 660.599 334 C 660.954 334, 660.668 334.695, 659.962 335.546 C 659.257 336.396, 658.053 336.851, 657.288 336.557 C 656.522 336.263, 656.171 336.468, 656.507 337.011 C 656.843 337.555, 656.641 338, 656.059 338 C 655.477 338, 655 338.436, 655 338.969 C 655 339.501, 655.630 339.695, 656.400 339.400 C 658.630 338.544, 657.802 342.183, 655.209 344.637 L 652.917 346.806 654.209 347.324 L 655.500 347.842 654.250 347.921 C 653.545 347.966, 653 349.309, 653 351 C 653 352.725, 653.531 354.007, 654.250 354.015 L 655.500 354.031 654.426 354.765 C 653.836 355.169, 653.431 356.773, 653.526 358.329 C 653.621 359.885, 653.060 361.797, 652.278 362.579 C 651.497 363.360, 651.169 364, 651.551 364 C 651.933 364, 651.724 364.628, 651.087 365.395 C 650.451 366.162, 650.058 367.399, 650.215 368.145 C 650.372 368.890, 649.904 369.376, 649.176 369.225 C 648.447 369.074, 648.124 369.392, 648.458 369.932 C 648.791 370.471, 649.679 370.677, 650.431 370.388 C 651.183 370.100, 652.102 370.355, 652.473 370.957 C 652.846 371.559, 652.575 371.926, 651.870 371.775 C 651.166 371.624, 650.570 372.025, 650.545 372.667 C 650.520 373.308, 650.090 374.208, 649.590 374.667 C 649.070 375.143, 648.958 375.013, 649.329 374.363 C 649.686 373.738, 649.308 372.671, 648.489 371.991 C 646.536 370.370, 646.584 371.961, 648.574 374.802 L 650.148 377.049 649.513 380.275 L 648.879 383.500 649.983 382 L 651.087 380.500 650.793 383 L 650.499 385.500 648.750 385.361 C 647.787 385.285, 647 385.622, 647 386.111 C 647 386.600, 647.900 387, 649 387 C 650.100 387, 650.947 387.337, 650.882 387.750 C 650.816 388.163, 650.851 388.725, 650.958 389 C 651.701 390.905, 651.669 392.913, 650.903 392.440 C 650.397 392.127, 649.165 392.130, 648.166 392.447 L 646.350 393.024 646.801 396.262 C 647.048 398.043, 647.704 400.068, 648.258 400.762 L 649.265 402.025 650.883 400.762 L 652.500 399.500 651.137 401.239 C 650.387 402.195, 649.374 402.731, 648.887 402.430 C 648.399 402.129, 648 402.584, 648 403.441 C 648 404.298, 648.563 405.007, 649.250 405.015 L 650.500 405.031 649 406 L 647.500 406.969 648.809 406.985 C 649.529 406.993, 649.809 407.500, 649.431 408.112 C 649.053 408.723, 649.364 409.616, 650.122 410.096 L 651.500 410.969 650.191 410.985 C 649.471 410.993, 649.157 411.445, 649.493 411.989 C 649.831 412.536, 649.469 412.734, 648.681 412.431 C 647.898 412.131, 646.980 412.609, 646.640 413.494 C 646.282 414.430, 646.437 414.848, 647.011 414.493 C 647.555 414.157, 648.030 414.246, 648.067 414.691 C 648.105 415.136, 648.396 417.075, 648.715 419 C 649.667 424.738, 649.568 429.511, 648.500 429.338 C 647.948 429.249, 647.447 431.604, 647.381 434.588 L 647.263 440 648.631 440 C 649.384 440, 649.993 440.788, 649.985 441.750 L 649.969 443.500 648.890 442 L 647.811 440.500 648.510 442.500 C 648.894 443.600, 649.578 445.731, 650.030 447.236 L 650.852 449.971 648.460 451.853 C 647.144 452.888, 646.290 453.957, 646.562 454.229 C 646.834 454.500, 646.641 455.814, 646.134 457.147 L 645.212 459.571 647.106 459.571 C 648.148 459.571, 649 459.218, 649 458.786 C 649 458.354, 649.477 458, 650.059 458 C 650.641 458, 650.821 458.480, 650.458 459.067 C 650.094 459.657, 650.757 460.385, 651.940 460.695 C 654.549 461.377, 654.080 463.608, 651.407 463.231 C 650.358 463.083, 648.959 463.830, 648.297 464.892 L 647.094 466.822 648.496 467.360 C 649.418 467.714, 649.708 467.401, 649.342 466.449 C 648.663 464.680, 649.627 464.573, 651.391 466.220 C 652.110 466.892, 652.488 468.242, 652.232 469.220 C 651.971 470.219, 652.310 471, 653.006 471 L 654.245 471 652.872 472.692 L 651.500 474.384 652.757 473.629 C 653.509 473.177, 654.254 473.499, 654.612 474.431 C 654.941 475.288, 655.725 475.671, 656.355 475.283 C 656.985 474.895, 656.666 475.853, 655.646 477.412 C 654.627 478.971, 654.239 479.970, 654.784 479.633 C 656.545 478.545, 658.368 490.714, 656.749 492.750 L 655.755 494 656.937 494 C 657.586 494, 657.797 494.520, 657.405 495.155 C 656.972 495.854, 657.129 496.038, 657.802 495.622 C 658.413 495.245, 658.677 494.321, 658.388 493.569 C 658.100 492.817, 658.414 491.862, 659.086 491.447 C 659.868 490.963, 660.052 491.107, 659.595 491.845 C 659.203 492.480, 659.262 493, 659.727 493 C 660.191 493, 660.571 493.867, 660.571 494.927 C 660.571 495.986, 660.218 496.635, 659.786 496.368 C 659.354 496.100, 659 496.286, 659 496.780 C 659 497.275, 660.150 498.203, 661.556 498.844 C 662.962 499.484, 663.844 500.443, 663.516 500.975 C 663.187 501.506, 663.621 503.300, 664.479 504.960 C 665.338 506.621, 665.919 508.140, 665.770 508.336 C 665.622 508.532, 666.175 509.523, 667 510.538 C 667.861 511.598, 667.968 512.064, 667.250 511.633 C 666.450 511.152, 666 511.481, 666 512.548 C 666 513.525, 666.551 514.003, 667.333 513.702 C 668.774 513.149, 669.264 516.126, 667.883 517.038 C 667.434 517.334, 667.725 518.843, 668.528 520.392 C 669.332 521.941, 669.740 523.611, 669.436 524.104 C 669.131 524.597, 669.471 525.007, 670.191 525.015 C 670.990 525.025, 671.111 525.317, 670.500 525.765 C 669.950 526.169, 669.452 528.300, 669.394 530.500 C 669.336 532.700, 669.022 535.525, 668.697 536.777 C 668.371 538.029, 668.484 538.819, 668.947 538.532 C 670.211 537.752, 670.773 539.998, 670.505 544.750 C 670.359 547.327, 670.705 549.028, 671.382 549.070 C 671.997 549.109, 671.600 549.527, 670.500 550 C 669.400 550.473, 668.981 550.891, 669.568 550.930 C 670.762 551.008, 671.070 557, 669.880 557 C 669.465 557, 669.118 557.788, 669.111 558.750 C 669.074 563.535, 668.115 567.443, 666.728 568.457 L 665.187 569.583 666.135 571.276 L 667.082 572.969 665.530 572.373 L 663.977 571.777 664.600 573.400 L 665.223 575.023 663.600 574.400 L 661.977 573.777 662.596 575.389 C 662.936 576.275, 663.953 577.014, 664.857 577.030 L 666.500 577.061 664.839 578.031 C 663.925 578.564, 663.300 579.788, 663.450 580.750 C 663.601 581.713, 663.326 583.567, 662.840 584.872 L 661.957 587.243 663.229 588.814 L 664.500 590.384 663.250 589.633 C 662.468 589.163, 662 589.454, 662 590.411 C 662 591.251, 661.075 593.585, 659.945 595.598 L 657.890 599.256 659.445 598.659 C 661.405 597.908, 661.522 600.322, 659.603 601.914 C 658.835 602.552, 658.437 603.957, 658.720 605.037 C 659.181 606.801, 658.270 607.471, 655.845 607.150 C 655.485 607.102, 654.920 607.766, 654.591 608.624 L 653.992 610.185 656.144 610.748 L 658.296 611.311 656.519 612.610 C 655.405 613.424, 654.942 614.671, 655.278 615.954 L 655.813 618 654.156 618.015 L 652.500 618.031 654 619 L 655.500 619.969 654 620 L 652.500 620.031 653.704 620.796 C 654.367 621.217, 654.836 622.529, 654.747 623.712 C 654.658 624.894, 654.228 625.641, 653.792 625.372 C 653.357 625.102, 653 627.173, 653 629.972 L 653 635.063 651.416 635.671 L 649.832 636.278 651.102 637.063 L 652.371 637.848 651.194 639.266 C 650.547 640.046, 650.313 640.980, 650.675 641.342 C 651.037 641.704, 650.471 642.007, 649.417 642.015 L 647.500 642.031 649 643 L 650.500 643.969 649.143 643.985 C 648.350 643.994, 648.025 644.623, 648.362 645.500 C 648.678 646.325, 648.475 647, 647.910 647 C 647.344 647, 647.165 647.457, 647.510 648.016 C 647.856 648.575, 648.670 648.764, 649.319 648.436 C 649.969 648.107, 649.150 649.085, 647.500 650.608 C 645.695 652.274, 645.223 653.105, 646.315 652.695 L 648.131 652.013 647.431 654.256 C 647.046 655.490, 646.454 656.725, 646.115 657 C 644.952 657.945, 645.292 661.993, 646.470 661.229 C 647.088 660.828, 646.888 661.175, 646.025 662 C 643.713 664.210, 639.410 670.482, 640.792 669.629 L 641.977 668.896 641.382 670.448 C 641.054 671.302, 640.332 672, 639.776 672 C 639.221 672, 638.979 673.111, 639.239 674.470 C 639.499 675.828, 639.326 676.702, 638.856 676.411 C 638.385 676.120, 638 676.321, 638 676.858 C 638 677.394, 638.479 677.993, 639.065 678.188 C 639.676 678.392, 639.258 679.550, 638.086 680.901 C 636.962 682.197, 636.284 683.650, 636.580 684.129 C 636.876 684.608, 636.685 685, 636.157 685 C 635.628 685, 634.725 686.350, 634.150 688 C 633.575 689.650, 632.454 691, 631.659 691 C 630.076 691, 628.617 693.679, 629.924 694.185 C 631.218 694.687, 632.270 699, 631.099 699 C 630.529 699, 630.300 699.617, 630.589 700.371 C 630.878 701.125, 630.414 702.011, 629.557 702.340 C 628.701 702.668, 628 703.596, 628 704.401 C 628 705.205, 626.631 706.838, 624.959 708.030 L 621.917 710.195 623.118 711.642 L 624.318 713.089 622.112 714.634 L 619.905 716.180 621.138 717.666 L 622.371 719.152 621.100 719.938 C 620.401 720.370, 619.755 721.123, 619.665 721.612 C 619.574 722.100, 619.208 722.403, 618.850 722.283 C 618.304 722.101, 617.611 723.951, 616.804 727.746 C 616.552 728.927, 614.726 730.430, 612 731.700 C 610.625 732.341, 610.063 732.895, 610.750 732.932 C 611.438 732.970, 611.993 733.788, 611.985 734.750 L 611.969 736.500 611 735 C 609.748 733.063, 609.737 734.178, 610.975 737.435 L 611.950 740 610.082 740 C 607.620 740, 606.527 742.881, 608.677 743.706 L 610.321 744.337 608.096 745.160 C 606.873 745.613, 606.152 746.437, 606.495 746.992 C 606.838 747.546, 606.641 748, 606.059 748 C 605.477 748, 605 748.513, 605 749.140 C 605 749.767, 604.212 750.925, 603.250 751.714 C 602.197 752.577, 602.098 752.855, 603 752.413 C 603.825 752.008, 603.381 752.905, 602.013 754.406 C 600.645 755.906, 599.520 757.892, 599.513 758.817 C 599.506 759.743, 598.954 760.393, 598.286 760.262 C 597.615 760.130, 597.312 760.649, 597.608 761.422 C 597.929 762.257, 597.305 763.086, 596.058 763.482 C 594.910 763.846, 594.231 764.565, 594.549 765.079 C 594.867 765.593, 594.311 766.313, 593.313 766.678 C 591.014 767.520, 586 772.618, 586 774.113 L 586 775.245 587.489 774.009 C 588.308 773.329, 588.751 772.405, 588.473 771.956 C 587.593 770.532, 590.122 769.718, 591.337 771.034 L 592.500 772.293 591.250 771.588 C 590.563 771.200, 590 771.359, 590 771.941 C 590 772.523, 588.996 774.004, 587.768 775.232 C 586.541 776.459, 585.529 778.146, 585.518 778.982 C 585.508 779.817, 584.965 780.397, 584.311 780.270 C 583.657 780.144, 582.835 780.943, 582.485 782.047 C 582.135 783.150, 580.785 784.750, 579.485 785.602 C 578.124 786.493, 577.353 787.756, 577.667 788.575 L 578.214 790 576.166 790 C 575.040 790, 573.835 790.457, 573.490 791.016 C 573.144 791.575, 572.474 791.793, 572 791.500 C 571.526 791.207, 570.856 791.425, 570.510 791.984 C 570.165 792.543, 570.385 793, 571 793 C 571.615 793, 571.852 793.430, 571.527 793.956 C 571.202 794.482, 570.330 794.680, 569.588 794.396 C 568.847 794.111, 567.395 794.954, 566.360 796.269 C 565.326 797.584, 563.942 798.481, 563.284 798.261 C 562.556 798.019, 562.235 798.626, 562.465 799.817 L 562.841 801.771 560.671 801.238 C 559.477 800.945, 558.800 801.034, 559.167 801.436 C 559.942 802.286, 556.504 806, 554.941 806 C 554.359 806, 554.138 806.415, 554.451 806.922 C 554.765 807.428, 553.560 808.572, 551.774 809.463 L 548.527 811.082 548.157 809.971 C 547.952 809.355, 547.140 809.784, 546.335 810.932 C 545.537 812.071, 545.130 813.402, 545.431 813.889 C 545.732 814.376, 545.196 814.712, 544.239 814.637 C 543.204 814.555, 542.496 815.205, 542.489 816.241 C 542.484 817.199, 542.074 817.946, 541.579 817.902 C 540.657 817.819, 538.573 820.842, 538.526 822.331 C 538.512 822.788, 537.600 823.688, 536.500 824.331 C 535.379 824.986, 534.496 826.564, 534.491 827.920 C 534.486 829.251, 533.860 830.547, 533.101 830.800 C 532.322 831.059, 532.002 830.805, 532.367 830.215 C 532.722 829.641, 532.447 828.943, 531.756 828.664 C 531.020 828.368, 531.249 828.125, 532.309 828.079 C 533.304 828.036, 533.827 827.528, 533.470 826.951 L 532.822 825.903 531.514 826.988 C 530.795 827.585, 530.415 828.871, 530.670 829.846 L 531.133 831.618 528.520 832.809 C 525.254 834.297, 524.694 834.304, 525.595 832.845 C 526.048 832.114, 525.869 831.963, 525.106 832.435 L 523.903 833.178 525.074 834.589 C 525.718 835.365, 525.852 836.069, 525.372 836.152 C 523.045 836.559, 522.367 836.751, 520.666 837.486 L 518.832 838.278 520.166 839.226 L 521.500 840.173 519.250 839.680 C 518.013 839.409, 517 839.595, 517 840.094 C 517 840.592, 516.550 841, 516 841 C 515.450 841, 515.113 840.494, 515.250 839.875 C 515.388 839.256, 514.875 838.523, 514.111 838.245 C 513.265 837.938, 512.993 838.179, 513.415 838.862 C 513.796 839.479, 513.696 840.721, 513.193 841.620 L 512.277 843.257 511.579 842.128 C 510.286 840.037, 507.903 840.979, 506.851 843.999 C 506.276 845.648, 505.379 846.734, 504.859 846.413 C 504.338 846.091, 503.171 846.429, 502.264 847.164 L 500.616 848.500 501.367 847.250 C 501.798 846.533, 501.617 846, 500.942 846 C 500.272 846, 499.984 846.832, 500.273 847.935 C 500.565 849.054, 500.193 850.096, 499.389 850.404 C 498.625 850.697, 498 850.426, 498 849.802 C 498 848.331, 496.915 849.410, 496.636 851.158 C 496.218 853.781, 494.246 856.270, 493.132 855.581 C 492.509 855.197, 492 854.432, 492 853.882 C 492 853.332, 492.520 853.203, 493.155 853.595 C 493.899 854.055, 494.036 853.868, 493.542 853.067 C 493.114 852.376, 492.394 852.206, 491.916 852.684 C 491.189 853.411, 490.860 854.530, 490.059 859 C 490.010 859.275, 489.575 858.878, 489.094 858.118 L 488.219 856.736 487.537 858.882 C 487.163 860.063, 486.506 860.813, 486.079 860.549 C 485.651 860.284, 484.708 861.178, 483.982 862.534 C 483.256 863.890, 481.812 865, 480.772 865 C 479.732 865, 479.157 865.445, 479.493 865.989 C 479.829 866.532, 479.483 866.739, 478.723 866.447 C 477.928 866.142, 476.931 866.839, 476.373 868.089 L 475.404 870.261 473.570 868.427 L 471.736 866.593 472.475 868.922 C 472.952 870.426, 472.851 871.026, 472.188 870.616 C 471.623 870.267, 470.523 870.620, 469.743 871.400 C 468.963 872.180, 467.239 872.982, 465.912 873.183 C 464.586 873.383, 463.599 874.057, 463.719 874.681 C 463.950 875.877, 462.252 875.914, 460.397 874.754 C 459.791 874.374, 458.441 874.758, 457.397 875.606 C 456.354 876.454, 455.955 876.930, 456.511 876.663 C 457.067 876.396, 458.374 876.800, 459.415 877.561 L 461.307 878.945 459.403 879.627 C 458.357 880.002, 457.093 880.534, 456.595 880.809 C 456.098 881.084, 455.986 880.831, 456.347 880.248 C 456.759 879.581, 456.259 879.381, 455.001 879.710 C 453.901 879.998, 453 880.771, 453 881.428 C 453 882.085, 452.100 883.589, 451 884.770 C 449.900 885.950, 449 887.385, 449 887.958 C 449 888.531, 448.550 889, 448 889 C 447.450 889, 446.993 889.788, 446.985 890.750 L 446.969 892.500 446 891 C 445.467 890.175, 444.967 889.837, 444.890 890.250 C 444.813 890.663, 444.637 891.450, 444.500 892 C 444.363 892.550, 444.194 893.450, 444.125 894 C 444.056 894.550, 443.508 894.887, 442.907 894.750 C 442.306 894.612, 441.293 895.300, 440.657 896.278 L 439.500 898.057 440.857 898.904 C 441.709 899.435, 441.963 900.540, 441.540 901.875 C 441.111 903.225, 441.297 904, 442.049 904 C 442.741 904, 443.016 904.832, 442.710 906 L 442.187 908 443.653 908 C 444.459 908, 444.881 908.384, 444.590 908.854 C 443.979 909.843, 448.269 912, 450.847 912 C 451.811 912, 453.081 912.481, 453.669 913.069 C 454.257 913.657, 455.585 914.298, 456.619 914.493 C 457.654 914.688, 458.668 914.881, 458.872 914.923 C 459.077 914.966, 458.685 915.675, 458 916.500 C 457.315 917.325, 457.152 918, 457.637 918 C 458.122 918, 459.099 917.071, 459.809 915.935 L 461.098 913.870 463.799 914.181 C 465.285 914.353, 466.803 914.915, 467.174 915.432 C 467.574 915.990, 468.487 915.841, 469.424 915.063 L 471 913.755 472.403 914.919 L 473.806 916.083 474.324 914.792 C 474.647 913.985, 474.872 914.172, 474.921 915.289 L 475 917.079 476.395 915.789 C 477.162 915.080, 477.557 914.116, 477.272 913.646 C 476.987 913.177, 477.961 913.584, 479.437 914.551 L 482.120 916.309 483.810 914.537 L 485.500 912.766 483.331 913.875 L 481.161 914.984 482.735 911.742 C 484.742 907.605, 485.446 906.858, 484.530 909.836 L 483.811 912.172 485.905 911.051 C 487.057 910.434, 488 909.694, 488 909.406 C 488 909.118, 487.473 909.208, 486.829 909.606 C 486.185 910.004, 486.523 909.174, 487.579 907.763 C 488.636 906.351, 489.675 905.364, 489.889 905.570 C 490.103 905.776, 491.603 904.829, 493.223 903.465 C 494.844 902.102, 496.581 901.241, 497.085 901.552 C 497.588 901.863, 498 901.748, 498 901.296 C 498 900.844, 498.841 900.030, 499.870 899.487 C 500.898 898.944, 503.559 897.498, 505.783 896.274 L 509.825 894.048 509.265 891.774 C 508.957 890.523, 509.034 889.800, 509.436 890.167 C 509.838 890.533, 511.046 889.954, 512.120 888.880 C 514.329 886.671, 516.197 887.193, 515.352 889.782 C 515.043 890.727, 515.678 890.150, 516.762 888.500 L 518.733 885.500 517.697 884.194 C 517.127 883.475, 517.075 882.966, 517.581 883.062 C 519.763 883.477, 521.066 882.916, 520.405 881.845 C 519.984 881.165, 520.128 880.961, 520.755 881.349 C 521.341 881.710, 522.547 881.727, 523.435 881.386 L 525.051 880.766 523.877 879.352 L 522.703 877.937 524.591 876.557 C 525.629 875.798, 526.769 875.357, 527.126 875.578 C 527.482 875.798, 528.387 875.222, 529.137 874.297 L 530.500 872.616 529.250 873.367 C 528.563 873.780, 528 873.641, 528 873.059 C 528 872.088, 529.383 871.587, 531.250 871.882 C 531.663 871.947, 532 871.564, 532 871.031 C 532 870.499, 532.702 870.332, 533.560 870.661 L 535.119 871.260 535.679 869.119 C 535.996 867.909, 537.353 866.698, 538.803 866.335 C 540.213 865.981, 542.522 865.088, 543.933 864.352 C 545.345 863.615, 547.400 863.003, 548.500 862.991 C 550.915 862.965, 552.400 861.974, 552.791 860.127 L 553.082 858.755 551.321 859.430 C 549.270 860.217, 550.128 859.191, 552.850 857.601 C 553.887 856.995, 555.807 855.739, 557.118 854.810 C 558.428 853.880, 560.625 852.969, 562 852.785 C 565.170 852.360, 567.009 851.215, 566.968 849.691 C 566.951 849.036, 566.240 849.400, 565.390 850.500 L 563.843 852.500 564.171 850 L 564.500 847.500 566.750 847.579 C 568.789 847.651, 569.452 846.860, 569.118 844.750 C 569.053 844.337, 569.702 844, 570.559 844 C 571.416 844, 571.869 843.597, 571.565 843.105 C 571.260 842.612, 571.684 841.952, 572.506 841.636 C 573.328 841.321, 574 840.428, 574 839.653 C 574 838.877, 575.360 837.679, 577.021 836.991 C 580.333 835.620, 582.197 833.669, 579.302 834.606 L 577.500 835.189 578.909 834.187 C 579.684 833.636, 580.876 833.399, 581.558 833.661 C 582.791 834.134, 584.414 832.408, 584.530 830.500 C 584.564 829.950, 585.133 829.612, 585.795 829.750 C 586.458 829.887, 587 829.619, 587 829.154 C 587 828.689, 588.237 828.378, 589.750 828.462 C 591.263 828.547, 593.099 828.023, 593.831 827.299 C 594.562 826.574, 595.644 826.280, 596.235 826.645 C 596.872 827.039, 597.018 826.839, 596.595 826.155 C 596.203 825.520, 596.321 825, 596.858 825 C 597.394 825, 598.092 825.562, 598.407 826.250 C 598.723 826.938, 598.730 826.485, 598.422 825.245 L 597.862 822.990 599.425 822.390 C 600.285 822.060, 600.699 821.322, 600.345 820.749 C 599.926 820.072, 600.618 819.938, 602.324 820.367 L 604.947 821.025 604.366 819.512 C 603.994 818.542, 604.373 818, 605.424 818 C 607.603 818, 608.660 815.040, 606.896 813.880 L 605.500 812.962 607.317 811.572 C 608.316 810.808, 609.066 809.879, 608.983 809.508 C 608.901 809.137, 609.168 808.533, 609.577 808.167 C 609.986 807.800, 610.029 808.011, 609.672 808.636 C 609.298 809.291, 609.953 810.016, 611.218 810.347 C 613.977 811.068, 614.457 810.620, 612.798 808.869 C 611.509 807.510, 610.829 803.064, 611.927 803.177 C 613.822 803.374, 615.043 802.878, 614.565 802.105 C 613.796 800.862, 616.629 799.924, 618.750 800.719 L 620.500 801.374 619.086 799.637 L 617.671 797.899 619.802 797.341 C 620.975 797.035, 622.206 795.926, 622.539 794.878 C 622.872 793.829, 623.514 793.200, 623.967 793.480 C 624.420 793.760, 625.059 793.288, 625.388 792.431 C 625.717 791.574, 626.416 791.139, 626.941 791.463 C 627.466 791.788, 627.722 791.151, 627.509 790.049 L 627.123 788.044 631.062 786.983 C 633.228 786.400, 635 785.344, 635 784.636 C 635 783.066, 639.181 779, 640.795 779 C 641.437 779, 642.237 777.905, 642.573 776.567 C 642.937 775.113, 643.710 774.335, 644.491 774.635 C 645.209 774.911, 646.099 774.648, 646.468 774.052 C 646.837 773.455, 647.552 773.223, 648.058 773.536 C 648.563 773.848, 648.704 773.392, 648.370 772.523 L 647.763 770.941 646.414 772.721 L 645.064 774.500 645.032 772.719 C 645.014 771.739, 645.688 770.673, 646.530 770.350 C 647.495 769.980, 647.839 769.069, 647.462 767.882 L 646.865 766 650.683 765.985 L 654.500 765.969 653 765 L 651.500 764.031 653.289 764.015 L 655.079 764 653.789 762.605 C 653.080 761.838, 652.104 761.450, 651.620 761.744 C 651.136 762.038, 650.968 761.653, 651.245 760.889 C 651.523 760.125, 652.256 759.612, 652.875 759.750 C 653.494 759.887, 654.067 758.875, 654.150 757.500 C 654.232 756.125, 654.345 754.438, 654.400 753.750 C 654.455 753.063, 655.264 751.652, 656.199 750.616 C 657.938 748.688, 660.311 743, 659.377 743 C 658.495 743, 661.448 740.356, 663.018 739.740 L 664.500 739.158 662.500 739.049 L 660.500 738.939 662.250 737.920 C 663.212 737.359, 663.993 736.360, 663.985 735.700 L 663.969 734.500 663.123 735.835 L 662.277 737.169 661.733 735.086 C 661.433 733.940, 661.603 732.745, 662.110 732.432 C 662.618 732.118, 662.774 731.443, 662.457 730.931 C 662.141 730.419, 662.329 730, 662.875 730 C 663.420 730, 664.010 728.763, 664.184 727.250 L 664.500 724.500 666.500 724.721 C 667.600 724.842, 667.938 724.692, 667.250 724.388 C 665.495 723.610, 665.695 721.970, 667.750 720.286 C 668.712 719.497, 668.891 719.165, 668.146 719.549 L 666.793 720.246 668.451 717.716 C 669.449 716.191, 669.720 714.945, 669.130 714.580 C 668.592 714.248, 667.918 714.769, 667.633 715.738 L 667.115 717.500 667.346 715.500 C 667.490 714.246, 668.255 713.558, 669.395 713.657 L 671.213 713.813 670.214 712.814 L 669.215 711.815 670.566 709.210 L 671.917 706.605 670.894 705.372 L 669.871 704.139 672.185 702.860 C 673.458 702.156, 675.063 701.695, 675.750 701.834 C 676.438 701.974, 677 701.591, 677 700.985 C 677 700.378, 676.550 700.160, 676 700.500 C 675.450 700.840, 675 700.641, 675 700.059 C 675 699.477, 675.354 699, 675.786 699 C 676.218 699, 676.571 698.151, 676.571 697.114 C 676.571 695.979, 676.055 695.426, 675.274 695.725 L 673.977 696.223 674.596 694.611 C 674.936 693.725, 675.520 693, 675.894 693 C 676.268 693, 676.643 692.090, 676.727 690.978 C 676.822 689.716, 676.432 689.181, 675.689 689.555 C 675.035 689.883, 675.562 689.218, 676.861 688.076 C 678.159 686.934, 678.935 686, 678.585 686 C 677.408 686, 680.910 680.249, 682.446 679.659 C 683.320 679.324, 683.715 678.422, 683.376 677.538 L 682.786 676 684.680 676 C 685.839 676, 686.631 675.246, 686.721 674.057 L 686.867 672.114 685.434 672.664 C 683.523 673.397, 683.566 670.605, 685.489 669.009 C 686.308 668.329, 686.773 667.442, 686.522 667.036 C 685.972 666.145, 690.488 659.821, 691.180 660.513 C 691.448 660.781, 691.667 660.325, 691.667 659.500 C 691.667 658.675, 691.306 658, 690.865 658 C 690.424 658, 690.332 657.299, 690.660 656.443 C 690.989 655.586, 691.885 655.126, 692.652 655.420 L 694.046 655.955 692.920 653.850 L 691.794 651.746 693.147 650.888 L 694.500 650.031 693.182 650.015 L 691.864 650 693.888 647.157 L 695.913 644.313 694.757 643.157 L 693.600 642 695.455 642 L 697.310 642 695.563 640.070 L 693.816 638.139 696.158 638.638 L 698.500 639.138 696.750 638.019 C 695.788 637.404, 695 636.446, 695 635.891 C 695 635.336, 695.419 635.141, 695.931 635.457 C 696.443 635.774, 697.144 635.575, 697.490 635.016 C 697.835 634.457, 697.641 634, 697.059 634 C 696.477 634, 696 633.255, 696 632.345 L 696 630.690 698.146 632.595 L 700.291 634.500 699.072 632.179 L 697.854 629.858 698.887 626.895 C 699.502 625.131, 699.534 624.170, 698.967 624.521 C 698.442 624.845, 698.106 623.985, 698.220 622.610 L 698.427 620.110 699.736 621.196 L 701.046 622.283 700.353 620.477 L 699.660 618.672 700.985 619.490 L 702.309 620.309 701.595 619.155 C 701.203 618.520, 701.414 618, 702.063 618 L 703.245 618 702 616.500 C 701.315 615.675, 701.148 614.993, 701.628 614.985 C 702.107 614.976, 701.844 614.554, 701.041 614.047 C 700.104 613.454, 699.662 611.762, 699.804 609.312 C 699.939 606.977, 699.700 605.995, 699.186 606.778 C 698.657 607.585, 698.376 606.757, 698.424 604.531 C 698.466 602.592, 698.886 601.005, 699.357 601.003 C 699.828 601.001, 699.960 600.339, 699.651 599.532 C 699.341 598.725, 699.525 597.794, 700.060 597.463 C 700.595 597.132, 700.761 596.423, 700.430 595.887 C 700.099 595.351, 700.610 593.717, 701.567 592.257 L 703.307 589.602 702.162 589.221 L 701.018 588.839 702.507 587.350 L 703.996 585.861 703.033 584.062 C 702.504 583.073, 702.379 581.954, 702.756 581.577 C 703.133 581.200, 702.899 580.556, 702.235 580.145 C 701.518 579.702, 700.921 576.478, 700.764 572.202 C 700.619 568.243, 700.225 565.003, 699.889 565.002 C 699.552 565.001, 699.492 563.875, 699.755 562.500 C 700.048 560.968, 699.773 560, 699.045 560 L 697.857 560 699.196 558.661 C 699.933 557.924, 701.203 557.060, 702.018 556.740 L 703.500 556.158 701.809 556.079 C 700.879 556.036, 699.797 555.480, 699.405 554.845 C 698.962 554.130, 699.130 553.962, 699.845 554.405 C 700.918 555.067, 701.550 551.885, 701.071 548.234 C 700.980 547.538, 701.489 547.088, 702.203 547.234 C 702.951 547.388, 703.376 546.760, 703.206 545.750 C 703.020 544.643, 703.571 543.974, 704.706 543.930 L 706.500 543.859 704.500 543 C 703.400 542.527, 703.063 542.109, 703.750 542.070 C 704.438 542.032, 705 541.564, 705 541.031 C 705 540.499, 704.325 540.322, 703.500 540.638 C 701.562 541.382, 701.590 540.552, 703.571 538.571 C 704.436 537.707, 704.661 537, 704.071 537 C 703.482 537, 703 536.520, 703 535.933 C 703 535.282, 703.875 535.143, 705.242 535.577 L 707.484 536.288 706.130 534.657 C 705.386 533.760, 705.037 532.345, 705.357 531.513 C 705.712 530.587, 705.369 530, 704.475 530 L 703.013 530 703.432 527.750 C 703.663 526.513, 703.930 525.275, 704.027 525 C 704.124 524.725, 704.126 523.083, 704.033 521.351 C 703.940 519.619, 704.414 517.862, 705.087 517.446 C 705.868 516.963, 706.052 517.107, 705.595 517.845 C 705.203 518.480, 705.321 519, 705.858 519 C 707.479 519, 707.771 516.570, 706.282 515.472 L 704.888 514.445 706.432 511.472 C 707.281 509.838, 707.550 508.357, 707.031 508.181 C 706.512 508.006, 707.641 506.498, 709.540 504.830 C 711.440 503.163, 712.739 501.387, 712.428 500.883 C 712.116 500.379, 711.443 500.226, 710.931 500.543 C 708.642 501.957, 710.355 499.433, 714.037 495.965 C 716.602 493.550, 717.664 491.910, 716.950 491.469 C 716.332 491.087, 716.048 489.926, 716.319 488.888 C 716.590 487.851, 716.406 486.751, 715.910 486.444 C 715.411 486.136, 715.659 484.626, 716.464 483.070 C 717.265 481.521, 717.668 480.001, 717.360 479.693 C 717.052 479.385, 717.110 478.631, 717.489 478.018 L 718.178 476.903 719.776 478.201 L 721.374 479.500 720.719 477.750 C 720.358 476.788, 720.485 476, 721 476 C 721.515 476, 721.672 475.308, 721.347 474.463 C 721.023 473.617, 721.600 471.966, 722.629 470.793 L 724.500 468.661 722.782 469.287 C 721.837 469.631, 720.791 469.471, 720.458 468.932 C 720.124 468.392, 720.222 468.015, 720.676 468.094 C 722.652 468.437, 723.667 467.896, 723.667 466.500 C 723.667 465.675, 723.265 465, 722.774 465 C 722.284 465, 722.148 464.570, 722.473 464.044 C 722.798 463.518, 723.837 463.324, 724.782 463.613 C 725.727 463.902, 725.375 463.448, 724 462.605 C 722.394 461.620, 722.049 461.058, 723.036 461.035 C 723.883 461.016, 724.571 460.120, 724.571 459.039 L 724.571 457.078 722.909 458.582 L 721.247 460.086 720.635 458.491 C 720.280 457.567, 720.439 457.153, 721.011 457.507 C 721.555 457.843, 722 457.240, 722 456.166 C 722 455.092, 721.245 453.924, 720.322 453.570 L 718.645 452.927 720.245 451.326 L 721.846 449.726 720.682 447.863 L 719.519 446 720.817 443.922 L 722.115 441.843 720.807 440.172 C 720.088 439.252, 719.050 438.128, 718.500 437.674 C 717.849 437.136, 717.916 436.677, 718.694 436.359 C 719.350 436.091, 719.631 435.203, 719.318 434.387 C 719.005 433.571, 719.544 432.323, 720.516 431.612 L 722.283 430.320 721.591 426.632 L 720.899 422.944 719.699 423.694 C 717.894 424.823, 715.913 424.950, 716.564 423.896 C 716.880 423.385, 717.487 423.183, 717.913 423.446 C 718.339 423.709, 719.166 422.367, 719.750 420.463 C 720.334 418.560, 720.436 416.769, 719.975 416.485 C 718.863 415.797, 717.717 417.733, 718.493 418.989 C 718.842 419.553, 718.446 419.725, 717.570 419.389 L 716.037 418.800 717.088 416.836 L 718.139 414.872 717.048 413.558 L 715.958 412.244 718.080 411.689 C 719.250 411.383, 719.906 410.656, 719.542 410.067 C 719.174 409.473, 719.626 409, 720.563 409 L 722.245 409 721 407.500 C 720.315 406.675, 720.105 406, 720.533 406 C 720.961 406, 720.183 404.988, 718.804 403.750 C 716.189 401.403, 714.463 398, 715.888 398 C 716.342 398, 716.665 396.694, 716.606 395.098 C 716.548 393.502, 716.194 392.385, 715.819 392.615 C 714.516 393.414, 714.063 391.266, 714.912 388.308 C 715.410 386.572, 715.377 384.638, 714.833 383.666 L 713.901 382 715.337 382 C 716.922 382, 718.331 375.720, 716.870 375.165 C 716.385 374.980, 716.293 374.305, 716.666 373.665 C 717.039 373.024, 716.442 373.288, 715.341 374.252 C 714.239 375.216, 713.037 375.703, 712.669 375.336 C 711.512 374.179, 711.942 373.040, 713.333 373.574 C 714.089 373.865, 714.667 373.418, 714.667 372.543 C 714.667 371.694, 714.292 371, 713.833 371 C 713.375 371, 713 370.298, 713 369.441 C 713 368.517, 712.530 368.173, 711.845 368.595 C 711.156 369.021, 710.961 368.871, 711.362 368.224 C 711.731 367.627, 711.574 366.855, 711.014 366.508 C 710.377 366.115, 710.334 365.244, 710.897 364.189 C 711.394 363.260, 711.676 361.045, 711.524 359.268 C 711.372 357.490, 711.642 356.279, 712.124 356.577 C 712.606 356.874, 713 356.641, 713 356.059 C 713 355.477, 712.550 355, 712 355 C 711.450 355, 711 354.347, 711 353.550 C 711 352.752, 710.212 351.641, 709.250 351.080 C 708.288 350.519, 707.950 350.040, 708.500 350.015 C 709.050 349.990, 708.846 349.556, 708.046 349.050 L 706.592 348.130 707.706 345.815 C 709.693 341.681, 709.861 340.333, 708.390 340.333 C 707.494 340.333, 707.176 340.978, 707.526 342.083 C 707.832 343.045, 707.618 344.118, 707.052 344.468 C 706.419 344.859, 706.276 344.444, 706.681 343.388 L 707.340 341.672 706.181 342.388 L 705.023 343.104 705.681 341.388 C 706.078 340.355, 705.941 339.919, 705.337 340.292 C 704.785 340.633, 704.283 340.369, 704.220 339.706 C 703.784 335.050, 703.065 332.655, 701.875 331.902 C 701.119 331.423, 700.916 331.024, 701.424 331.015 C 701.933 331.007, 701.456 329.988, 700.365 328.750 C 697.862 325.911, 695.797 321.138, 696.546 319.925 C 697.074 319.071, 695.791 318.666, 694.409 319.250 C 694.084 319.387, 693.169 318.262, 692.377 316.750 C 691.585 315.238, 690.500 314, 689.968 314 C 689.436 314, 689 313.270, 689 312.378 L 689 310.755 687.597 311.919 L 686.194 313.083 685.673 311.792 L 685.152 310.500 684.300 311.697 C 683.739 312.485, 682.943 312.576, 681.974 311.963 C 680.247 310.871, 680.747 310.835, 674.800 312.473" stroke="none" fill="#f4f4f4" fill-rule="evenodd"/></svg>