<svg xmlns="http://www.w3.org/2000/svg" width="2048" height="2048" viewBox="0 0 2048 2048" version="1.1"><path d="" stroke="none" fill="#f4f4ec" fill-rule="evenodd"/><path d="M 1065.803 717.197 C 1064.811 718.189, 1064 718.743, 1064 718.429 C 1064 716.955, 1061.024 721.054, 1060.459 723.307 C 1060.107 724.708, 1059.085 726.137, 1058.188 726.481 C 1056.777 727.023, 1056.756 727.234, 1058.028 728.038 C 1058.838 728.550, 1058.999 728.976, 1058.387 728.985 C 1057.774 728.993, 1057.379 730.013, 1057.509 731.250 C 1057.639 732.487, 1057.836 733.500, 1057.947 733.500 C 1058.058 733.500, 1058.337 734.513, 1058.568 735.750 C 1058.799 736.987, 1058.533 738, 1057.978 738 C 1057.423 738, 1058.438 739.388, 1060.234 741.085 C 1062.030 742.782, 1062.867 743.837, 1062.092 743.429 C 1060.999 742.853, 1060.829 743.224, 1061.329 745.094 C 1061.683 746.417, 1061.979 747.864, 1061.986 748.309 C 1061.994 748.754, 1062.398 748.872, 1062.884 748.572 C 1063.995 747.885, 1066.410 753.528, 1065.580 754.871 C 1065.243 755.416, 1065.426 756.145, 1065.987 756.492 C 1066.548 756.839, 1066.743 758.176, 1066.420 759.464 C 1066.015 761.076, 1066.248 761.758, 1067.166 761.653 C 1067.900 761.569, 1068.713 761.950, 1068.974 762.500 C 1069.234 763.050, 1070.103 764.266, 1070.905 765.202 C 1071.707 766.138, 1072.507 767.852, 1072.684 769.011 C 1072.861 770.170, 1074.335 772.332, 1075.961 773.817 C 1077.957 775.640, 1078.645 776.956, 1078.081 777.869 C 1076.761 780.005, 1077.974 782.777, 1080.506 783.412 C 1082.971 784.031, 1083.290 786.585, 1081.073 787.955 C 1080.203 788.492, 1080.048 789.521, 1080.594 791.125 C 1081.038 792.431, 1081.480 794.288, 1081.576 795.250 C 1081.672 796.212, 1081.806 797.477, 1081.875 798.059 C 1081.944 798.641, 1082.450 798.840, 1083 798.500 C 1083.550 798.160, 1084 798.385, 1084 799 C 1084 799.615, 1084.373 799.887, 1084.829 799.605 C 1085.286 799.323, 1085.569 800.084, 1085.458 801.296 C 1085.348 802.508, 1084.750 803.388, 1084.129 803.250 C 1082.576 802.906, 1082.702 803.351, 1084.867 805.847 C 1085.895 807.032, 1087.909 808.098, 1089.343 808.216 C 1090.778 808.335, 1092.183 809.033, 1092.464 809.768 C 1092.794 810.627, 1092.535 810.838, 1091.739 810.360 C 1090.823 809.810, 1090.837 810.032, 1091.792 811.211 C 1092.847 812.514, 1092.847 812.900, 1091.792 813.324 C 1090.803 813.720, 1090.793 813.861, 1091.750 813.921 C 1092.438 813.964, 1093 814.638, 1093 815.417 C 1093 816.196, 1092.438 817.034, 1091.750 817.280 C 1091.063 817.525, 1090.827 818.077, 1091.226 818.506 C 1091.625 818.934, 1092.750 818.658, 1093.726 817.893 C 1095.298 816.659, 1095.360 816.680, 1094.268 818.081 C 1093.264 819.368, 1093.384 820.036, 1094.915 821.679 C 1095.949 822.788, 1096.961 824.552, 1097.164 825.598 C 1097.367 826.644, 1098.351 827.503, 1099.352 827.507 C 1100.353 827.511, 1101.696 828.231, 1102.336 829.106 C 1102.976 829.982, 1103.950 830.787, 1104.500 830.895 C 1105.050 831.003, 1105.359 831.970, 1105.187 833.045 C 1105.015 834.120, 1105.379 835, 1105.996 835 C 1106.613 835, 1106.871 835.399, 1106.570 835.887 C 1106.269 836.374, 1106.692 837.329, 1107.511 838.009 C 1108.330 838.689, 1109 838.895, 1109 838.467 C 1109 837.046, 1113.215 841.462, 1114.122 843.834 C 1114.613 845.118, 1114.680 846.693, 1114.272 847.334 C 1113.266 848.915, 1113.207 854.990, 1114.204 854.374 C 1114.642 854.103, 1115 854.584, 1115 855.441 C 1115 856.298, 1115.702 857, 1116.559 857 C 1117.483 857, 1117.827 856.530, 1117.405 855.845 C 1116.972 855.146, 1117.129 854.962, 1117.802 855.378 C 1118.413 855.755, 1118.677 856.679, 1118.388 857.431 C 1118.100 858.183, 1118.344 859.095, 1118.932 859.458 C 1119.519 859.821, 1120 861.441, 1120 863.059 C 1120 864.677, 1120.450 866, 1121 866 C 1121.550 866, 1121.919 866.337, 1121.820 866.750 C 1121.556 867.848, 1125.360 873.986, 1126.309 873.994 C 1126.754 873.997, 1126.859 874.419, 1126.543 874.931 C 1125.549 876.538, 1128.009 877.236, 1129.736 875.836 C 1131.145 874.694, 1131.250 874.718, 1130.459 876 C 1129.342 877.813, 1128.987 883.126, 1130.026 882.484 C 1130.432 882.233, 1131.482 883.484, 1132.359 885.264 C 1133.237 887.044, 1133.978 887.825, 1134.008 887 C 1134.049 885.819, 1134.279 885.874, 1135.085 887.258 C 1135.648 888.225, 1135.832 889.462, 1135.495 890.008 C 1135.158 890.554, 1135.359 891, 1135.941 891 C 1136.523 891, 1137 891.675, 1137 892.500 C 1137 893.325, 1137.787 894.029, 1138.750 894.063 C 1140.091 894.112, 1139.974 894.338, 1138.250 895.031 C 1135.139 896.282, 1135.437 896.803, 1139.024 896.386 C 1141.547 896.092, 1141.837 896.261, 1140.774 897.406 C 1139.841 898.411, 1139.276 898.474, 1138.663 897.639 C 1138.177 896.978, 1138.067 897.548, 1138.400 899 C 1138.715 900.375, 1138.979 901.837, 1138.986 902.250 C 1138.994 902.663, 1139.810 903, 1140.800 903 C 1143.243 903, 1144.974 904.905, 1144.248 906.795 C 1143.805 907.949, 1144.095 908.177, 1145.378 907.685 C 1146.405 907.291, 1146.856 907.423, 1146.493 908.011 C 1145.937 908.911, 1147.291 909.439, 1149.293 909.104 C 1149.729 909.031, 1149.637 909.809, 1149.090 910.833 C 1148.395 912.131, 1148.455 913.055, 1149.288 913.888 C 1150.215 914.815, 1150.154 915.287, 1149.018 915.989 C 1148.073 916.573, 1147.250 916.469, 1146.700 915.697 C 1146.104 914.859, 1145.978 914.950, 1146.283 916 C 1146.549 916.915, 1147.749 917.427, 1149.359 917.312 C 1152.593 917.081, 1152.745 917.747, 1149.750 919.023 C 1147.535 919.967, 1147.533 919.978, 1149.665 919.741 C 1150.858 919.608, 1153.017 920.612, 1154.471 921.976 C 1156.366 923.754, 1156.923 923.962, 1156.444 922.715 C 1155.947 921.421, 1156.172 921.129, 1157.326 921.571 C 1158.177 921.898, 1158.629 922.804, 1158.329 923.585 C 1157.483 925.789, 1158.889 930.186, 1160.184 929.386 C 1160.889 928.950, 1161.030 929.143, 1160.560 929.903 C 1159.141 932.199, 1159.280 935.988, 1160.830 937.242 C 1161.912 938.118, 1162.167 938.139, 1161.670 937.311 C 1161.207 936.539, 1161.649 936.173, 1162.927 936.269 C 1164.490 936.387, 1164.660 936.705, 1163.746 937.806 C 1162.848 938.888, 1163.002 939.422, 1164.446 940.230 C 1166.220 941.223, 1166.209 941.335, 1164.171 942.883 C 1161.425 944.970, 1162.176 947.990, 1165.984 950.176 C 1168.144 951.416, 1168.721 952.349, 1168.307 953.934 C 1167.840 955.719, 1167.506 955.847, 1166.128 954.771 C 1164.692 953.650, 1164.656 953.699, 1165.823 955.191 C 1166.584 956.163, 1167.826 956.620, 1168.747 956.267 C 1169.942 955.808, 1170.183 956.080, 1169.700 957.339 C 1169.169 958.724, 1169.494 958.914, 1171.527 958.404 C 1173.551 957.896, 1174 958.153, 1174 959.820 C 1174 960.941, 1173.358 962.499, 1172.573 963.284 C 1171.337 964.520, 1171.402 965.132, 1173.058 967.856 C 1174.110 969.585, 1175.229 971, 1175.544 971 C 1175.860 971, 1175.840 970.550, 1175.500 970 C 1175.160 969.450, 1175.306 969, 1175.824 969 C 1177.236 969, 1177.965 972.840, 1176.644 973.315 C 1176.015 973.541, 1175.827 974.077, 1176.226 974.506 C 1176.625 974.934, 1177.679 974.682, 1178.567 973.944 C 1180.009 972.748, 1180.128 972.947, 1179.679 975.802 C 1179.260 978.460, 1179.497 979, 1181.087 979 C 1183.035 979, 1183.296 980.930, 1181.520 982.201 C 1180.982 982.586, 1180.471 984.297, 1180.385 986.002 C 1180.231 989.052, 1180.263 989.073, 1182.286 987.301 C 1183.418 986.311, 1184.015 986.063, 1183.613 986.750 C 1183.189 987.475, 1183.411 988, 1184.141 988 C 1185.071 988, 1185.107 988.293, 1184.278 989.122 C 1183.014 990.386, 1183.726 993.287, 1185.093 992.442 C 1185.579 992.142, 1185.709 992.594, 1185.382 993.448 C 1185.054 994.302, 1184.424 995, 1183.981 995 C 1182.971 995, 1183.319 997.678, 1184.465 998.721 C 1184.935 999.149, 1185.071 999.050, 1184.765 998.500 C 1183.917 996.972, 1186.487 995.065, 1188.073 996.045 C 1188.826 996.510, 1189.117 997.217, 1188.719 997.614 C 1188.321 998.012, 1188.707 999.124, 1189.578 1000.086 C 1190.859 1001.502, 1190.935 1002.252, 1189.980 1004.037 C 1189.197 1005.501, 1189.167 1006.015, 1189.892 1005.567 C 1190.493 1005.195, 1191.775 1005.400, 1192.742 1006.021 C 1194.343 1007.050, 1194.346 1007.103, 1192.782 1006.619 C 1191.837 1006.327, 1190.798 1006.518, 1190.473 1007.044 C 1190.148 1007.570, 1190.359 1008, 1190.941 1008 C 1191.523 1008, 1192 1008.675, 1192 1009.500 C 1192 1010.325, 1192.450 1011, 1193 1011 C 1193.550 1011, 1194.007 1010.438, 1194.015 1009.750 C 1194.023 1009.063, 1194.615 1009.625, 1195.330 1011 C 1196.057 1012.396, 1196.346 1014.604, 1195.986 1016 C 1195.549 1017.695, 1195.850 1018.892, 1196.921 1019.718 C 1197.848 1020.434, 1198.016 1020.950, 1197.327 1020.968 C 1196.507 1020.990, 1196.621 1021.937, 1197.705 1024.111 C 1198.954 1026.614, 1199.005 1027.379, 1197.967 1028.021 C 1196.947 1028.651, 1197.025 1029.168, 1198.338 1030.481 C 1199.252 1031.395, 1200 1032.547, 1200 1033.040 C 1200 1033.533, 1200.675 1033.678, 1201.500 1033.362 C 1202.555 1032.957, 1203 1033.443, 1203 1035 C 1203 1036.630, 1202.573 1037.050, 1201.379 1036.592 C 1200.076 1036.092, 1199.895 1036.414, 1200.452 1038.235 C 1200.833 1039.481, 1201.187 1041.063, 1201.239 1041.750 C 1201.291 1042.438, 1201.756 1043, 1202.274 1043 C 1202.791 1043, 1202.955 1042.325, 1202.638 1041.500 C 1202.322 1040.675, 1202.454 1040, 1202.931 1040 C 1203.409 1040, 1203.733 1041.740, 1203.650 1043.867 C 1203.560 1046.192, 1203.066 1047.569, 1202.410 1047.321 C 1201.811 1047.094, 1200.686 1047.691, 1199.910 1048.646 C 1199.016 1049.749, 1198.954 1050.111, 1199.742 1049.638 C 1200.425 1049.227, 1201.775 1049.400, 1202.742 1050.021 C 1204.404 1051.090, 1204.405 1051.121, 1202.750 1050.607 C 1201.492 1050.216, 1201 1050.616, 1201 1052.031 C 1201 1053.148, 1201.675 1054, 1202.559 1054 C 1203.416 1054, 1203.821 1054.480, 1203.458 1055.067 C 1203.096 1055.654, 1203.702 1056.371, 1204.807 1056.660 C 1207.160 1057.275, 1208.470 1061.082, 1206.712 1062.199 C 1205.865 1062.738, 1205.844 1062.974, 1206.643 1062.985 C 1207.272 1062.993, 1208.064 1063.725, 1208.404 1064.611 C 1208.847 1065.764, 1208.593 1066.058, 1207.511 1065.643 C 1205.035 1064.692, 1205.795 1065.821, 1208.750 1067.482 C 1210.641 1068.546, 1210.908 1068.946, 1209.604 1068.764 C 1208.561 1068.619, 1207.490 1069.125, 1207.224 1069.889 C 1206.949 1070.680, 1207.190 1071.001, 1207.785 1070.633 C 1209.211 1069.752, 1209.882 1072.040, 1208.944 1074.583 C 1208.522 1075.729, 1208.564 1077.294, 1209.037 1078.061 C 1209.569 1078.920, 1209.402 1080.038, 1208.601 1080.977 C 1206.227 1083.764, 1205.977 1085.917, 1207.906 1086.950 C 1208.913 1087.489, 1210.086 1087.608, 1210.512 1087.215 C 1210.939 1086.822, 1210.567 1087.629, 1209.686 1089.010 C 1208.598 1090.715, 1208.387 1091.997, 1209.027 1093.010 C 1209.545 1093.829, 1209.976 1095.513, 1209.985 1096.750 C 1209.993 1097.987, 1210.419 1099, 1210.930 1099 C 1211.488 1099, 1211.516 1100.200, 1211 1102 C 1210.369 1104.199, 1210.475 1105, 1211.397 1105 C 1212.237 1105, 1212.501 1106.041, 1212.192 1108.142 C 1211.883 1110.252, 1212.090 1111.062, 1212.823 1110.609 C 1213.429 1110.235, 1213.289 1111.142, 1212.509 1112.645 C 1211.325 1114.927, 1211.318 1115.524, 1212.464 1116.427 C 1213.213 1117.017, 1213.698 1118.400, 1213.543 1119.500 C 1213.032 1123.125, 1211.786 1125.986, 1210.946 1125.466 C 1210.491 1125.185, 1210.387 1126.610, 1210.715 1128.633 C 1211.182 1131.512, 1211.027 1132.135, 1210.002 1131.501 C 1209.127 1130.961, 1208.932 1131.081, 1209.415 1131.862 C 1210.329 1133.342, 1211.862 1132.420, 1213.097 1129.648 C 1213.855 1127.946, 1213.939 1128.227, 1213.504 1131 C 1213.202 1132.925, 1212.515 1134.650, 1211.977 1134.833 C 1211.440 1135.017, 1211 1136.254, 1211 1137.583 C 1211 1139.418, 1211.542 1140.004, 1213.250 1140.015 C 1215.069 1140.028, 1215.213 1140.216, 1214 1141 C 1212.910 1141.704, 1212.858 1141.974, 1213.809 1141.985 C 1214.529 1141.993, 1214.852 1142.430, 1214.527 1142.956 C 1214.202 1143.482, 1213.321 1143.677, 1212.569 1143.388 C 1210.564 1142.619, 1209.777 1144.570, 1211.511 1146.009 C 1212.699 1146.995, 1213 1146.984, 1213 1145.956 C 1213 1144.683, 1214.486 1145.543, 1214.515 1146.833 C 1214.524 1147.200, 1214.941 1148.148, 1215.442 1148.941 C 1216.038 1149.882, 1215.944 1150.519, 1215.171 1150.776 C 1214.435 1151.022, 1214.840 1151.922, 1216.244 1153.161 C 1217.485 1154.256, 1217.889 1154.837, 1217.143 1154.451 C 1216.110 1153.917, 1215.956 1154.287, 1216.500 1156 C 1217.043 1157.712, 1216.890 1158.083, 1215.857 1157.551 C 1215.111 1157.166, 1215.398 1157.578, 1216.495 1158.465 C 1218.065 1159.735, 1218.207 1160.254, 1217.161 1160.900 C 1216.084 1161.566, 1216.115 1161.830, 1217.326 1162.295 C 1218.459 1162.730, 1218.639 1163.668, 1218.073 1166.184 C 1217.663 1168.008, 1217.490 1170.850, 1217.687 1172.500 C 1217.925 1174.484, 1217.747 1175.048, 1217.163 1174.166 C 1216.459 1173.105, 1216.141 1173.191, 1215.606 1174.583 C 1215.237 1175.546, 1215.399 1176.799, 1215.967 1177.367 C 1216.535 1177.935, 1217 1179.265, 1217 1180.322 C 1217 1182.002, 1216.787 1182.072, 1215.308 1180.872 C 1213.897 1179.728, 1213.752 1179.726, 1214.436 1180.862 C 1214.938 1181.695, 1214.722 1182.605, 1213.878 1183.206 C 1212.770 1183.996, 1212.810 1184.091, 1214.084 1183.690 C 1215.902 1183.116, 1217.905 1187.688, 1218.513 1193.800 C 1218.720 1195.878, 1219.335 1198.752, 1219.881 1200.186 C 1220.426 1201.621, 1220.564 1203.103, 1220.186 1203.481 C 1219.809 1203.858, 1219.461 1204.917, 1219.414 1205.833 C 1219.366 1206.750, 1218.963 1208.333, 1218.518 1209.351 C 1217.982 1210.576, 1218.180 1211.500, 1219.104 1212.086 C 1220.102 1212.717, 1220.143 1212.974, 1219.250 1212.985 C 1218.563 1212.993, 1217.993 1213.787, 1217.985 1214.750 C 1217.972 1216.246, 1217.828 1216.282, 1217 1215 C 1216.467 1214.175, 1216.024 1213.915, 1216.015 1214.421 C 1216.007 1214.928, 1216.666 1216.078, 1217.480 1216.978 C 1218.787 1218.422, 1218.779 1218.870, 1217.411 1220.823 C 1216.560 1222.039, 1215.519 1222.821, 1215.098 1222.561 C 1214.678 1222.301, 1214.333 1222.723, 1214.333 1223.500 C 1214.333 1224.277, 1214.728 1224.668, 1215.210 1224.370 C 1215.693 1224.072, 1216.764 1224.389, 1217.591 1225.076 C 1218.798 1226.077, 1218.839 1226.489, 1217.797 1227.162 C 1216.758 1227.833, 1216.798 1228.207, 1218 1229.042 C 1219.326 1229.962, 1219.322 1230.049, 1217.970 1229.792 C 1217.129 1229.631, 1216.361 1229.950, 1216.264 1230.500 C 1215.943 1232.319, 1217.201 1236, 1218.144 1236 C 1218.674 1236, 1218.627 1235.171, 1218.032 1234.061 C 1217.275 1232.645, 1217.333 1231.927, 1218.247 1231.400 C 1218.936 1231.004, 1219.180 1231.034, 1218.790 1231.466 C 1218.399 1231.899, 1218.773 1233.593, 1219.619 1235.231 C 1220.937 1237.779, 1220.972 1238.842, 1219.861 1242.604 C 1219.147 1245.022, 1218.212 1247, 1217.782 1247 C 1216.516 1247, 1216.888 1248.815, 1218.250 1249.283 C 1218.938 1249.520, 1218.713 1249.595, 1217.751 1249.450 C 1215.468 1249.108, 1214.428 1250.855, 1216.034 1252.337 C 1216.999 1253.228, 1217.129 1253.208, 1216.588 1252.250 C 1216.200 1251.563, 1216.373 1251, 1216.972 1251 C 1218.530 1251, 1219.395 1253.799, 1218.289 1255.263 C 1217.775 1255.943, 1217.294 1257.618, 1217.221 1258.985 C 1217.148 1260.352, 1216.619 1261.627, 1216.044 1261.819 C 1215.470 1262.010, 1215 1262.606, 1215 1263.142 C 1215 1263.679, 1215.450 1263.840, 1216 1263.500 C 1216.550 1263.160, 1217.007 1263.471, 1217.015 1264.191 C 1217.027 1265.153, 1217.312 1265.102, 1218.091 1264 C 1219.034 1262.667, 1219.104 1262.667, 1218.722 1264 C 1218.486 1264.825, 1217.439 1265.375, 1216.396 1265.223 C 1214.592 1264.959, 1214.587 1265.014, 1216.279 1266.354 C 1217.767 1267.532, 1217.819 1267.856, 1216.594 1268.326 C 1215.788 1268.635, 1214.870 1268.350, 1214.554 1267.694 C 1214.237 1267.037, 1214.166 1267.513, 1214.395 1268.750 C 1214.625 1269.987, 1214.517 1271, 1214.156 1271.001 C 1213.795 1271.001, 1213.433 1272.157, 1213.352 1273.569 C 1213.246 1275.392, 1213.608 1275.981, 1214.602 1275.599 C 1215.567 1275.229, 1216 1275.828, 1216 1277.531 C 1216 1279.101, 1215.432 1280, 1214.441 1280 C 1213.584 1280, 1213.172 1280.470, 1213.527 1281.044 C 1213.882 1281.618, 1213.620 1282.753, 1212.945 1283.567 C 1211.933 1284.786, 1212.005 1284.935, 1213.359 1284.416 C 1215.422 1283.624, 1215.469 1284.824, 1213.462 1287.042 C 1212.227 1288.407, 1212.149 1289.233, 1213.065 1291.244 C 1213.796 1292.848, 1213.877 1294.421, 1213.290 1295.624 C 1212.786 1296.656, 1212.451 1298.474, 1212.546 1299.665 C 1212.672 1301.248, 1212.300 1301.669, 1211.160 1301.231 C 1210.134 1300.837, 1210.011 1300.496, 1210.801 1300.233 C 1211.460 1300.013, 1212 1299.394, 1212 1298.858 C 1212 1298.321, 1211.588 1298.136, 1211.085 1298.447 C 1210.582 1298.758, 1209.981 1298.672, 1209.749 1298.256 C 1209.517 1297.840, 1209.444 1298.008, 1209.586 1298.628 C 1209.728 1299.249, 1209.316 1300.327, 1208.672 1301.025 C 1207.858 1301.906, 1207.847 1302.099, 1208.637 1301.658 C 1210.170 1300.800, 1212.368 1303.599, 1211.643 1305.487 C 1211.324 1306.319, 1211.525 1307, 1212.090 1307 C 1212.656 1307, 1212.835 1307.457, 1212.490 1308.016 C 1212.144 1308.575, 1211.443 1308.774, 1210.931 1308.457 C 1210.419 1308.141, 1210 1308.632, 1210 1309.548 C 1210 1310.611, 1210.538 1311.008, 1211.485 1310.644 C 1212.740 1310.162, 1212.779 1310.418, 1211.735 1312.287 C 1211.056 1313.504, 1210.275 1314.725, 1210 1315 C 1209.725 1315.275, 1209.343 1317.300, 1209.151 1319.500 C 1208.737 1324.246, 1208.797 1324.163, 1205.661 1324.352 C 1204.303 1324.433, 1203.419 1324.868, 1203.697 1325.318 C 1203.975 1325.768, 1204.735 1325.932, 1205.387 1325.682 C 1206.045 1325.429, 1206.571 1326.077, 1206.571 1327.138 C 1206.571 1328.323, 1206.063 1328.854, 1205.234 1328.536 C 1204.498 1328.254, 1204.147 1328.429, 1204.454 1328.926 C 1204.761 1329.423, 1204.447 1330.057, 1203.756 1330.336 C 1202.998 1330.641, 1203.194 1330.873, 1204.250 1330.921 C 1206.452 1331.020, 1206.585 1334.561, 1204.418 1335.393 C 1201.917 1336.353, 1201.658 1336.124, 1203.128 1334.250 C 1204.371 1332.664, 1204.336 1332.629, 1202.750 1333.872 C 1200.152 1335.910, 1200.476 1338.365, 1203.250 1337.666 C 1205.423 1337.119, 1205.434 1337.149, 1203.559 1338.550 C 1202.491 1339.347, 1202.041 1340.007, 1202.559 1340.015 C 1203.076 1340.024, 1202.825 1340.467, 1202 1341 C 1201.175 1341.533, 1201.010 1341.976, 1201.633 1341.985 C 1202.257 1341.993, 1203.002 1342.901, 1203.290 1344.001 C 1203.578 1345.102, 1203.513 1345.817, 1203.146 1345.590 C 1201.939 1344.844, 1199.041 1347.650, 1198.698 1349.896 C 1198.231 1352.956, 1195.347 1356.070, 1193.601 1355.400 C 1192.504 1354.979, 1192.291 1355.395, 1192.734 1357.090 C 1193.193 1358.847, 1192.979 1359.206, 1191.750 1358.734 C 1190.459 1358.239, 1190.233 1358.822, 1190.488 1361.997 C 1190.717 1364.847, 1190.370 1366.028, 1189.168 1366.489 C 1188.272 1366.833, 1187.377 1366.630, 1187.179 1366.037 C 1186.981 1365.444, 1185.864 1366.174, 1184.697 1367.659 C 1183.240 1369.510, 1182.954 1370.485, 1183.787 1370.762 C 1185.277 1371.259, 1185.408 1374, 1183.941 1374 C 1183.359 1374, 1183.203 1373.480, 1183.595 1372.845 C 1184.041 1372.124, 1183.869 1371.963, 1183.138 1372.415 C 1182.494 1372.813, 1182.226 1373.557, 1182.543 1374.069 C 1182.859 1374.581, 1182.615 1375, 1182 1375 C 1181.385 1375, 1181.162 1375.453, 1181.505 1376.008 C 1182.200 1377.133, 1179.735 1380, 1178.071 1380 C 1177.482 1380, 1177 1380.948, 1177 1382.107 C 1177 1383.600, 1176.548 1384.041, 1175.448 1383.618 C 1174.594 1383.291, 1174.152 1383.437, 1174.464 1383.942 C 1174.777 1384.448, 1174.539 1385.167, 1173.935 1385.540 C 1173.332 1385.913, 1173.108 1387.294, 1173.438 1388.609 C 1173.768 1389.924, 1173.628 1391, 1173.126 1391 C 1172.624 1391, 1171.946 1391.698, 1171.618 1392.552 C 1171.277 1393.442, 1171.445 1393.843, 1172.011 1393.493 C 1172.555 1393.157, 1173 1393.249, 1173 1393.697 C 1173 1394.145, 1171.647 1395.110, 1169.994 1395.842 C 1168.341 1396.574, 1167.211 1397.533, 1167.483 1397.973 C 1167.755 1398.413, 1167.037 1399.018, 1165.888 1399.319 C 1164.677 1399.636, 1164.089 1400.334, 1164.488 1400.981 C 1164.969 1401.759, 1165.558 1401.782, 1166.431 1401.057 C 1167.120 1400.485, 1167.980 1400.313, 1168.342 1400.675 C 1169.527 1401.860, 1169.036 1402.757, 1166.899 1403.316 C 1165.547 1403.670, 1165.071 1404.306, 1165.563 1405.103 C 1166.109 1405.985, 1165.810 1406.141, 1164.523 1405.647 C 1162.926 1405.034, 1162.878 1405.153, 1164.109 1406.669 C 1164.874 1407.612, 1165.005 1408.087, 1164.399 1407.725 C 1161.941 1406.254, 1154 1414.509, 1154 1418.535 C 1154 1419.253, 1152.681 1420.131, 1151.070 1420.485 C 1148.873 1420.967, 1148.232 1421.608, 1148.508 1423.043 C 1148.711 1424.096, 1148.455 1425.219, 1147.939 1425.538 C 1147.422 1425.857, 1147 1425.641, 1147 1425.059 C 1147 1424.477, 1146.270 1424, 1145.378 1424 C 1144.049 1424, 1143.980 1424.271, 1145 1425.500 C 1146.045 1426.759, 1145.864 1427.019, 1143.872 1427.118 C 1142.568 1427.184, 1141.209 1427.199, 1140.853 1427.153 C 1140.496 1427.106, 1140.436 1427.953, 1140.719 1429.034 C 1141.004 1430.122, 1140.734 1431, 1140.117 1431 C 1139.502 1431, 1139 1431.927, 1139 1433.059 C 1139 1434.217, 1138.549 1434.839, 1137.970 1434.482 C 1137.063 1433.921, 1130.015 1439.173, 1129.941 1440.465 C 1129.855 1441.985, 1126.863 1447.975, 1126.238 1447.878 C 1125.832 1447.815, 1125.275 1447.851, 1125 1447.958 C 1123.744 1448.448, 1120.338 1449.178, 1118.750 1449.297 C 1117.786 1449.369, 1117 1450.230, 1117 1451.214 C 1117 1452.196, 1116.341 1453, 1115.535 1453 C 1114.730 1453, 1113.542 1454.013, 1112.897 1455.250 C 1112.251 1456.487, 1110.998 1458.214, 1110.112 1459.086 C 1108.691 1460.484, 1108.370 1460.496, 1107.402 1459.183 C 1106.227 1457.591, 1103.990 1458.335, 1104.015 1460.309 C 1104.026 1461.121, 1104.299 1461.076, 1104.876 1460.166 C 1105.557 1459.092, 1105.840 1459.141, 1106.329 1460.416 C 1107.016 1462.205, 1105.067 1462.565, 1103.208 1460.992 C 1102.553 1460.437, 1102.231 1460.280, 1102.493 1460.643 C 1102.755 1461.005, 1102.188 1461.943, 1101.234 1462.725 C 1100.281 1463.508, 1100.015 1463.893, 1100.644 1463.581 C 1101.356 1463.227, 1101.733 1463.908, 1101.644 1465.387 C 1101.521 1467.406, 1101.170 1467.634, 1099.285 1466.918 C 1096.965 1466.036, 1095.396 1467.214, 1096.504 1469.007 C 1096.847 1469.561, 1096.387 1470.298, 1095.483 1470.645 C 1094.478 1471.031, 1094.028 1472, 1094.326 1473.139 C 1094.597 1474.174, 1094.389 1474.740, 1093.859 1474.413 C 1093.334 1474.088, 1091.747 1474.981, 1090.331 1476.396 C 1088.916 1477.811, 1087.368 1478.727, 1086.891 1478.432 C 1086.413 1478.137, 1086.291 1478.594, 1086.618 1479.448 C 1086.997 1480.434, 1086.628 1481.046, 1085.607 1481.125 C 1082.055 1481.401, 1081.511 1481.641, 1081.758 1482.819 C 1081.900 1483.494, 1080.669 1484.316, 1079.024 1484.645 C 1077.379 1484.974, 1076.281 1485.646, 1076.585 1486.138 C 1076.889 1486.630, 1077.627 1486.731, 1078.224 1486.362 C 1078.889 1485.950, 1079.020 1486.159, 1078.561 1486.901 C 1078.150 1487.566, 1077.068 1487.947, 1076.157 1487.747 C 1075.246 1487.548, 1073.037 1488.850, 1071.250 1490.642 C 1069.463 1492.435, 1067.993 1493.361, 1067.985 1492.700 C 1067.974 1491.898, 1067.680 1491.957, 1067.096 1492.878 C 1066.616 1493.636, 1065.754 1493.966, 1065.181 1493.612 C 1064.071 1492.926, 1062.701 1494.543, 1062.334 1496.973 C 1062.044 1498.890, 1059.119 1501, 1056.750 1501 C 1055.723 1501, 1055.118 1501.382, 1055.407 1501.849 C 1055.696 1502.316, 1054.832 1503.287, 1053.489 1504.006 C 1051.282 1505.187, 1051.206 1505.430, 1052.703 1506.525 C 1054.219 1507.633, 1054.186 1507.830, 1052.312 1508.833 C 1051.185 1509.436, 1050.043 1509.710, 1049.774 1509.441 C 1049.505 1509.172, 1048.658 1509.724, 1047.893 1510.668 C 1046.971 1511.803, 1046.923 1512.130, 1047.750 1511.633 C 1048.498 1511.184, 1049 1511.412, 1049 1512.201 C 1049 1514.068, 1044.217 1519, 1042.408 1519 C 1041.576 1519, 1040.435 1520.323, 1039.871 1521.939 C 1039.308 1523.556, 1038.319 1524.680, 1037.673 1524.438 C 1037.028 1524.195, 1035.787 1525.254, 1034.916 1526.790 C 1033.871 1528.633, 1031.904 1530.012, 1029.137 1530.841 C 1026.733 1531.561, 1025.214 1532.538, 1025.580 1533.129 C 1025.930 1533.696, 1025.268 1534.824, 1024.108 1535.637 C 1022.949 1536.449, 1022 1537.789, 1022 1538.616 C 1022 1539.442, 1021.604 1539.873, 1021.119 1539.574 C 1020.634 1539.274, 1019.172 1540.590, 1017.869 1542.497 C 1016.566 1544.405, 1015.050 1545.920, 1014.500 1545.864 C 1011.868 1545.598, 1011.374 1546.190, 1011.802 1549.103 C 1012.156 1551.519, 1011.675 1552.746, 1009.629 1554.644 C 1008.183 1555.984, 1007 1557.539, 1007 1558.099 C 1007 1558.660, 1006.480 1558.797, 1005.845 1558.405 C 1005.127 1557.960, 1004.963 1558.130, 1005.410 1558.854 C 1006.121 1560.004, 1005.196 1564.530, 1004.412 1563.745 C 1004.188 1563.522, 1002.238 1564.944, 1000.078 1566.907 C 997.344 1569.390, 996.507 1570.729, 997.325 1571.313 C 998.207 1571.943, 998.172 1572.284, 997.185 1572.681 C 994.669 1573.693, 993.988 1577.665, 995.727 1581.191 C 998.489 1586.791, 1002.254 1588.677, 1006.871 1586.776 C 1008.317 1586.180, 1010.102 1585.571, 1010.838 1585.422 C 1011.573 1585.273, 1012.923 1584.477, 1013.838 1583.654 C 1014.752 1582.830, 1016.708 1581.854, 1018.183 1581.486 C 1019.938 1581.048, 1020.680 1580.329, 1020.326 1579.408 C 1020.011 1578.587, 1020.405 1578, 1021.271 1578 C 1022.087 1578, 1023.293 1577.352, 1023.951 1576.559 C 1024.608 1575.767, 1025.788 1575.365, 1026.573 1575.666 C 1027.358 1575.968, 1028 1575.716, 1028 1575.107 C 1028 1574.498, 1028.765 1574, 1029.700 1574 C 1030.986 1574, 1031.119 1573.719, 1030.244 1572.844 C 1029.369 1571.969, 1030.232 1570.866, 1033.794 1568.309 C 1036.382 1566.451, 1038.397 1564.524, 1038.270 1564.027 C 1038.144 1563.529, 1038.858 1563.280, 1039.856 1563.472 C 1042.071 1563.899, 1044.736 1562.403, 1043.667 1561.333 C 1043.240 1560.907, 1042.522 1561.155, 1042.071 1561.886 C 1041.541 1562.742, 1041.023 1562.846, 1040.610 1562.179 C 1039.974 1561.150, 1042.682 1559.909, 1046.500 1559.480 C 1049.829 1559.106, 1050 1559.035, 1050 1558.031 C 1050 1557.499, 1049.251 1557.350, 1048.336 1557.701 C 1047.191 1558.141, 1046.905 1557.962, 1047.420 1557.129 C 1047.832 1556.463, 1049.005 1556.184, 1050.029 1556.509 C 1051.317 1556.918, 1052.396 1556.325, 1053.540 1554.580 C 1054.447 1553.194, 1056.699 1551.515, 1058.542 1550.849 C 1060.385 1550.182, 1061.689 1549.305, 1061.438 1548.900 C 1061.188 1548.494, 1062.305 1547.872, 1063.922 1547.517 C 1065.539 1547.162, 1067.394 1546.230, 1068.044 1545.447 C 1068.695 1544.663, 1069.620 1544.265, 1070.102 1544.563 C 1070.583 1544.860, 1070.756 1544.518, 1070.485 1543.802 C 1070.188 1543.017, 1071.485 1541.814, 1073.746 1540.775 C 1075.811 1539.827, 1076.487 1539.295, 1075.250 1539.593 C 1073.983 1539.898, 1073 1539.668, 1073 1539.067 C 1073 1538.480, 1073.462 1538, 1074.027 1538 C 1075.127 1538, 1080.616 1533.395, 1085.352 1528.500 C 1086.948 1526.850, 1089.885 1524.947, 1091.877 1524.272 C 1095.058 1523.194, 1095.134 1523.099, 1092.500 1523.495 C 1089.676 1523.920, 1089.634 1523.880, 1091.783 1522.806 C 1093.375 1522.010, 1094.382 1521.982, 1095.114 1522.714 C 1095.845 1523.445, 1097.360 1522.588, 1100.121 1519.881 C 1103.726 1516.348, 1105.127 1515.556, 1107.220 1515.872 C 1107.616 1515.931, 1108.475 1514.981, 1109.128 1513.761 C 1110.635 1510.945, 1112.042 1509.561, 1114.250 1508.725 C 1115.213 1508.361, 1116 1507.599, 1116 1507.031 C 1116 1506.464, 1116.863 1506, 1117.918 1506 C 1121.205 1506, 1123 1504.865, 1123 1502.786 C 1123 1501.484, 1123.488 1500.973, 1124.398 1501.322 C 1125.874 1501.889, 1131.275 1496.609, 1130.259 1495.592 C 1129.933 1495.266, 1130.593 1495, 1131.725 1495 C 1133.024 1495, 1133.993 1494.170, 1134.352 1492.750 C 1134.952 1490.380, 1140.240 1487.413, 1141.965 1488.478 C 1142.579 1488.858, 1142.718 1488.429, 1142.320 1487.391 C 1141.808 1486.056, 1142.092 1485.791, 1143.611 1486.188 C 1145.468 1486.674, 1148.418 1484.751, 1147.391 1483.725 C 1147.123 1483.456, 1148.261 1483.352, 1149.920 1483.493 C 1152.577 1483.719, 1152.818 1483.529, 1151.945 1481.897 C 1151.167 1480.444, 1151.265 1480.165, 1152.400 1480.600 C 1153.242 1480.923, 1154.311 1480.287, 1154.958 1479.078 C 1155.570 1477.935, 1156.617 1477.007, 1157.285 1477.015 C 1158.048 1477.025, 1157.942 1477.391, 1157 1478 C 1156.175 1478.533, 1155.950 1478.964, 1156.500 1478.958 C 1157.050 1478.951, 1159.075 1477.567, 1161 1475.882 C 1163.285 1473.882, 1163.806 1473.046, 1162.502 1473.473 C 1160.890 1474.001, 1161.083 1473.494, 1163.502 1470.850 C 1168.407 1465.488, 1169.270 1464.988, 1170.565 1466.758 C 1171.942 1468.641, 1173.797 1467.663, 1175.037 1464.403 C 1175.539 1463.081, 1176.438 1462, 1177.034 1462 C 1177.630 1462, 1177.797 1462.520, 1177.405 1463.155 C 1176.972 1463.854, 1177.129 1464.038, 1177.802 1463.622 C 1178.413 1463.245, 1178.631 1462.202, 1178.286 1461.304 C 1177.868 1460.213, 1178.048 1459.912, 1178.830 1460.395 C 1179.474 1460.793, 1180 1460.637, 1180 1460.050 C 1180 1458.611, 1185.433 1453, 1186.827 1453 C 1187.438 1453, 1187.704 1452.392, 1187.418 1451.648 C 1187.125 1450.884, 1188.118 1449.506, 1189.700 1448.480 C 1192.762 1446.496, 1196.997 1441.976, 1196.999 1440.691 C 1196.999 1440.246, 1197.450 1440.160, 1198 1440.500 C 1198.550 1440.840, 1199.533 1440.789, 1200.184 1440.387 C 1200.997 1439.884, 1200.763 1439.418, 1199.434 1438.898 C 1197.619 1438.187, 1197.633 1438.136, 1199.652 1438.070 C 1201.115 1438.023, 1202.141 1437.035, 1202.855 1434.987 C 1204.125 1431.342, 1206.860 1429.998, 1208.185 1432.367 C 1208.701 1433.288, 1209.572 1433.764, 1210.121 1433.425 C 1210.710 1433.061, 1210.434 1432.307, 1209.449 1431.586 C 1207.899 1430.453, 1207.912 1430.231, 1209.639 1428.504 C 1210.663 1427.480, 1211.388 1426.498, 1211.250 1426.321 C 1210.415 1425.248, 1211.238 1424.154, 1212.511 1424.643 C 1213.637 1425.075, 1213.848 1424.767, 1213.338 1423.438 C 1212.788 1422.006, 1213.018 1421.793, 1214.496 1422.360 C 1215.604 1422.785, 1216.665 1422.555, 1217.155 1421.784 C 1218.551 1419.583, 1218.106 1418.029, 1216.250 1418.624 C 1214.872 1419.067, 1214.952 1418.795, 1216.630 1417.343 C 1217.801 1416.329, 1219.003 1414.825, 1219.301 1414 C 1219.739 1412.785, 1219.857 1412.821, 1219.921 1414.191 C 1219.964 1415.121, 1219.570 1416.148, 1219.044 1416.473 C 1217.876 1417.195, 1218.819 1420, 1220.229 1420 C 1220.904 1420, 1220.896 1419.579, 1220.205 1418.747 C 1219.471 1417.863, 1219.582 1416.924, 1220.583 1415.556 C 1221.362 1414.490, 1222 1412.959, 1222 1412.153 C 1222 1411.348, 1223.101 1409.245, 1224.448 1407.480 C 1226.511 1404.775, 1227.430 1402.197, 1227.918 1397.750 C 1227.963 1397.338, 1229.125 1397, 1230.500 1397 C 1232.098 1397, 1233 1396.437, 1233 1395.441 C 1233 1394.562, 1233.480 1394.178, 1234.100 1394.562 C 1234.881 1395.045, 1234.907 1394.696, 1234.191 1393.356 C 1233.462 1391.994, 1233.573 1390.938, 1234.591 1389.545 C 1235.366 1388.485, 1236.007 1388.041, 1236.015 1388.559 C 1236.024 1389.076, 1236.467 1388.825, 1237 1388 C 1237.533 1387.175, 1237.969 1386.050, 1237.969 1385.500 C 1237.969 1384.950, 1237.533 1385.175, 1237 1386 C 1236.467 1386.825, 1236.032 1387.050, 1236.033 1386.500 C 1236.034 1385.950, 1237.166 1384.427, 1238.549 1383.115 C 1239.932 1381.803, 1240.851 1380.518, 1240.592 1380.258 C 1240.332 1379.999, 1240.978 1378.867, 1242.026 1377.742 C 1243.073 1376.617, 1243.712 1375.343, 1243.444 1374.910 C 1243.177 1374.477, 1243.734 1373.689, 1244.682 1373.158 C 1246.205 1372.306, 1246.237 1371.986, 1244.953 1370.405 C 1244.154 1369.421, 1244.031 1368.935, 1244.681 1369.324 C 1245.345 1369.722, 1247.097 1368.859, 1248.681 1367.353 C 1250.231 1365.879, 1250.825 1365.024, 1250 1365.454 C 1249.175 1365.883, 1249.760 1365.098, 1251.301 1363.708 C 1252.841 1362.318, 1253.671 1360.914, 1253.144 1360.589 C 1251.554 1359.607, 1253.122 1355.901, 1255.607 1354.769 C 1256.889 1354.185, 1257.719 1353.354, 1257.452 1352.923 C 1257.186 1352.491, 1257.405 1351.868, 1257.940 1351.537 C 1258.475 1351.206, 1258.659 1350.275, 1258.349 1349.468 C 1258.040 1348.661, 1258.304 1348, 1258.937 1348 C 1259.570 1348, 1260.015 1347.438, 1259.925 1346.750 C 1259.442 1343.027, 1260.192 1340.858, 1262.250 1340.031 C 1263.487 1339.534, 1263.938 1339.098, 1263.250 1339.063 C 1262.563 1339.029, 1262 1338.190, 1262 1337.200 C 1262 1336.210, 1261.438 1334.769, 1260.750 1333.998 C 1259.703 1332.824, 1259.759 1332.790, 1261.093 1333.790 C 1262.452 1334.809, 1262.879 1334.397, 1264.007 1330.978 C 1264.735 1328.774, 1265.930 1326.473, 1266.665 1325.863 C 1268.457 1324.376, 1268.353 1322.350, 1266.448 1321.618 C 1265.558 1321.277, 1265.157 1321.445, 1265.507 1322.011 C 1265.843 1322.555, 1265.611 1323, 1264.992 1323 C 1264.288 1323, 1264.121 1322.156, 1264.548 1320.750 C 1264.923 1319.513, 1265.291 1318.052, 1265.365 1317.504 C 1265.439 1316.956, 1266.068 1316.056, 1266.762 1315.504 C 1267.484 1314.929, 1267.860 1313.100, 1267.640 1311.228 C 1267.375 1308.965, 1267.757 1307.663, 1268.879 1307.008 C 1270.312 1306.171, 1270.283 1306.057, 1268.628 1306.030 C 1267.218 1306.008, 1267.018 1305.683, 1267.820 1304.716 C 1268.496 1303.903, 1268.546 1302.896, 1267.958 1301.966 C 1266.642 1299.885, 1266.783 1298.752, 1268.250 1299.633 C 1269.182 1300.193, 1269.169 1299.975, 1268.197 1298.776 C 1267.090 1297.410, 1267.203 1297.070, 1268.947 1296.517 C 1270.076 1296.158, 1271 1295.257, 1271 1294.514 C 1271 1293.771, 1271.273 1292.452, 1271.607 1291.582 C 1272.022 1290.501, 1271.626 1289.975, 1270.357 1289.921 C 1269.304 1289.876, 1269.041 1289.624, 1269.750 1289.338 C 1270.438 1289.060, 1271 1287.944, 1271 1286.858 C 1271 1285.771, 1270.550 1285.160, 1270 1285.500 C 1268.418 1286.478, 1268.837 1284.306, 1270.564 1282.579 C 1271.424 1281.719, 1271.840 1280.551, 1271.489 1279.983 C 1271.138 1279.415, 1271.391 1279.074, 1272.051 1279.225 C 1273.811 1279.628, 1274.294 1277.448, 1272.795 1275.866 C 1270.555 1273.503, 1270.674 1270.238, 1273.027 1269.492 C 1275.018 1268.860, 1274.943 1267.500, 1272.917 1267.500 C 1272.412 1267.500, 1272 1267.162, 1272 1266.750 C 1272 1266.338, 1272 1265.325, 1272 1264.500 C 1272 1263.675, 1272.675 1263, 1273.500 1263 C 1274.325 1263, 1275 1262.564, 1275 1262.031 C 1275 1261.499, 1274.213 1261.310, 1273.250 1261.613 C 1271.589 1262.135, 1271.588 1262.090, 1273.239 1260.729 C 1274.732 1259.498, 1278 1253.172, 1278 1251.513 C 1278 1251.209, 1276.839 1251.171, 1275.421 1251.429 C 1273.259 1251.821, 1273.036 1251.662, 1274.043 1250.448 C 1274.704 1249.652, 1274.852 1248.986, 1274.372 1248.968 C 1273.893 1248.951, 1274.187 1248.388, 1275.026 1247.718 C 1276.409 1246.614, 1276.687 1245.347, 1276.007 1243.250 C 1275.873 1242.838, 1275.832 1242.115, 1275.917 1241.645 C 1276.001 1241.174, 1275.492 1240.075, 1274.785 1239.203 C 1273.945 1238.166, 1273.909 1237.862, 1274.681 1238.324 C 1275.330 1238.714, 1276.187 1238.506, 1276.585 1237.862 C 1277.026 1237.150, 1276.876 1236.958, 1276.205 1237.373 C 1275.594 1237.751, 1274.558 1237.038, 1273.886 1235.778 C 1272.749 1233.643, 1272.787 1233.594, 1274.500 1235 C 1276.194 1236.391, 1276.248 1236.350, 1275.233 1234.446 C 1274.550 1233.163, 1274.483 1231.849, 1275.054 1230.946 C 1275.685 1229.949, 1275.974 1229.888, 1275.985 1230.750 C 1276.014 1233.150, 1277.566 1231.978, 1277.779 1229.394 C 1277.942 1227.426, 1277.623 1226.931, 1276.474 1227.371 C 1275.234 1227.847, 1275.149 1227.590, 1276.012 1225.977 C 1276.811 1224.485, 1276.755 1223.996, 1275.785 1223.985 C 1274.830 1223.973, 1274.863 1223.740, 1275.912 1223.075 C 1277.096 1222.326, 1277.031 1221.888, 1275.515 1220.373 C 1273.770 1218.627, 1273.802 1218.525, 1276.408 1217.459 L 1279.110 1216.355 1276.805 1215.146 C 1275.537 1214.482, 1275.250 1214.149, 1276.167 1214.406 C 1277.929 1214.900, 1279.528 1212.444, 1278.042 1211.526 C 1277.563 1211.230, 1276.969 1211.553, 1276.722 1212.244 C 1276.038 1214.159, 1274.934 1212.588, 1274.705 1209.372 C 1274.583 1207.661, 1274.964 1206.587, 1275.648 1206.716 C 1276.370 1206.852, 1276.741 1205.509, 1276.648 1203.099 C 1276.535 1200.174, 1276.145 1199.385, 1275 1199.768 C 1274.090 1200.072, 1274.248 1199.686, 1275.403 1198.786 C 1276.477 1197.949, 1276.988 1196.790, 1276.576 1196.124 C 1274.746 1193.162, 1274.312 1182.284, 1275.959 1180.650 C 1276.836 1179.780, 1276.936 1179.979, 1276.369 1181.467 C 1275.700 1183.221, 1275.790 1183.276, 1277.199 1181.967 C 1278.182 1181.054, 1278.394 1180.259, 1277.761 1179.862 C 1277.202 1179.511, 1277.027 1178.765, 1277.373 1178.205 C 1277.753 1177.590, 1277.110 1177.352, 1275.751 1177.604 C 1274.513 1177.834, 1274.065 1177.754, 1274.756 1177.426 C 1275.447 1177.098, 1275.731 1176.374, 1275.388 1175.819 C 1274.480 1174.350, 1273.970 1167.864, 1274.803 1168.378 C 1275.191 1168.618, 1275.506 1167.393, 1275.504 1165.657 C 1275.502 1163.921, 1275.950 1162.575, 1276.500 1162.667 C 1277.050 1162.758, 1277.500 1161.521, 1277.500 1159.917 C 1277.500 1158.312, 1277.178 1157, 1276.785 1157 C 1275.523 1157, 1273.882 1153, 1274.641 1151.772 C 1275.945 1149.661, 1275.977 1145.900, 1274.684 1146.654 C 1274.033 1147.033, 1274.357 1146.366, 1275.405 1145.172 C 1277.188 1143.138, 1277.197 1143, 1275.533 1143 C 1274.066 1143, 1273.973 1142.738, 1275 1141.500 C 1275.860 1140.464, 1275.898 1140, 1275.122 1140 C 1274.505 1140, 1274 1139.339, 1274 1138.531 C 1274 1137.547, 1274.577 1137.281, 1275.750 1137.725 C 1277.400 1138.350, 1277.403 1138.290, 1275.792 1136.665 C 1273.974 1134.830, 1274.430 1131.575, 1276.355 1132.652 C 1276.986 1133.006, 1276.921 1132.671, 1276.208 1131.905 C 1275.108 1130.723, 1274.777 1130.738, 1273.974 1132.008 C 1273.249 1133.155, 1273.027 1132.863, 1273.015 1130.750 C 1273.007 1129.237, 1272.475 1128, 1271.833 1128 C 1271.192 1128, 1270.963 1127.704, 1271.325 1127.342 C 1271.687 1126.980, 1271.424 1125.994, 1270.741 1125.150 C 1269.751 1123.926, 1269.753 1123.768, 1270.750 1124.367 C 1271.468 1124.799, 1272 1124.616, 1272 1123.937 C 1272 1123.072, 1272.354 1123.049, 1273.318 1123.849 C 1274.359 1124.713, 1274.636 1124.311, 1274.636 1121.934 C 1274.636 1119.638, 1274.272 1119.065, 1273.099 1119.516 C 1272.253 1119.840, 1271.881 1119.786, 1272.272 1119.395 C 1272.663 1119.004, 1272.527 1118.135, 1271.970 1117.464 C 1271.285 1116.638, 1271.296 1115.352, 1272.004 1113.490 C 1273.323 1110.021, 1272.581 1107.615, 1269.728 1106.112 C 1268.198 1105.306, 1268.092 1105.112, 1269.391 1105.492 C 1271.006 1105.965, 1271.094 1105.818, 1269.993 1104.492 C 1268.918 1103.196, 1269.019 1102.696, 1270.602 1101.485 C 1272.443 1100.076, 1272.433 1100.014, 1270.261 1099.403 C 1269.030 1099.056, 1268.257 1098.393, 1268.543 1097.930 C 1268.830 1097.467, 1269.837 1097.377, 1270.782 1097.731 C 1272.255 1098.283, 1272.313 1098.144, 1271.189 1096.761 C 1270.468 1095.874, 1269.959 1094.552, 1270.058 1093.824 C 1270.156 1093.096, 1270.177 1091.825, 1270.103 1091 C 1269.984 1089.667, 1269.862 1089.667, 1269 1091 C 1268.224 1092.201, 1268.028 1092.223, 1268.015 1091.110 C 1268.007 1090.346, 1268.787 1089.142, 1269.750 1088.434 C 1271.398 1087.223, 1271.390 1087.158, 1269.622 1087.324 C 1268.377 1087.441, 1267.620 1086.741, 1267.378 1085.250 C 1267.130 1083.726, 1267.513 1083, 1268.565 1083 C 1269.419 1083, 1269.859 1083.419, 1269.543 1083.931 C 1269.226 1084.443, 1269.350 1085.098, 1269.817 1085.387 C 1271.389 1086.358, 1270.717 1082.522, 1268.905 1080.186 C 1267.919 1078.914, 1267.388 1077.152, 1267.726 1076.272 C 1268.073 1075.368, 1267.921 1074.931, 1267.378 1075.267 C 1266.848 1075.594, 1266.349 1074.983, 1266.268 1073.909 C 1266.187 1072.835, 1266.469 1072.172, 1266.894 1072.434 C 1267.319 1072.697, 1267.667 1072.257, 1267.667 1071.456 C 1267.667 1070.655, 1267.244 1070, 1266.726 1070 C 1266.209 1070, 1266.024 1069.380, 1266.315 1068.622 C 1266.606 1067.864, 1266.343 1066.743, 1265.732 1066.132 C 1264.015 1064.415, 1264.003 1062, 1265.711 1062 C 1266.961 1062, 1267.015 1061.722, 1266 1060.500 C 1265.315 1059.675, 1265.090 1059, 1265.500 1059 C 1265.910 1059, 1265.689 1058.331, 1265.011 1057.513 C 1264.332 1056.695, 1264.059 1055.288, 1264.405 1054.386 C 1264.751 1053.484, 1264.513 1052.118, 1263.876 1051.350 C 1262.956 1050.242, 1263.035 1050.076, 1264.257 1050.545 C 1266.558 1051.428, 1267.354 1049.260, 1265.159 1048.085 C 1264.116 1047.527, 1263.020 1047.313, 1262.723 1047.611 C 1261.436 1048.897, 1261.020 1043.876, 1262.241 1041.796 C 1263.708 1039.296, 1263.809 1035.599, 1262.493 1032.582 C 1261.942 1031.316, 1262.206 1029.706, 1263.271 1027.851 C 1264.159 1026.304, 1264.573 1025.078, 1264.192 1025.127 C 1262.729 1025.315, 1259 1023.726, 1259 1022.915 C 1259 1022.446, 1258.213 1022.316, 1257.250 1022.626 C 1256.176 1022.971, 1255.930 1022.863, 1256.613 1022.344 C 1257.798 1021.445, 1257.840 1017.507, 1256.678 1016.345 C 1256.295 1015.962, 1256.998 1014.530, 1258.241 1013.163 C 1259.483 1011.796, 1260.032 1010.943, 1259.460 1011.268 C 1258.265 1011.946, 1252.776 1003.771, 1253.106 1001.806 C 1253.466 999.668, 1251.848 994.643, 1250.116 992.517 C 1248.602 990.660, 1248.611 990.620, 1250.250 991.890 C 1251.498 992.856, 1252 992.906, 1252 992.063 C 1252 991.414, 1252.526 991.207, 1253.170 991.605 C 1253.968 992.098, 1254.127 991.773, 1253.670 990.582 C 1253.301 989.622, 1253 988.423, 1253 987.918 C 1253 987.413, 1252.564 987, 1252.031 987 C 1251.499 987, 1251.324 987.680, 1251.643 988.511 C 1252.060 989.599, 1251.765 989.847, 1250.588 989.395 C 1249.346 988.919, 1249.063 987.850, 1249.412 984.953 C 1249.742 982.218, 1249.411 980.765, 1248.244 979.819 C 1246.862 978.699, 1246.743 978.726, 1247.455 980 C 1248.168 981.275, 1248.084 981.294, 1246.897 980.125 C 1245.816 979.061, 1245.783 978.646, 1246.750 978.292 C 1248.840 977.525, 1248.260 972.881, 1246 972.290 C 1244.900 972.002, 1244 971.343, 1244 970.824 C 1244 970.306, 1243.474 970.207, 1242.830 970.605 C 1242.043 971.091, 1241.869 970.783, 1242.299 969.664 C 1242.650 968.749, 1242.475 968, 1241.910 968 C 1241.344 968, 1241.179 967.520, 1241.542 966.933 C 1241.909 966.339, 1241.213 965.607, 1239.974 965.283 L 1237.746 964.700 1240.123 962.757 C 1241.751 961.426, 1241.949 960.991, 1240.750 961.376 C 1239.787 961.684, 1239 961.475, 1239 960.910 C 1239 960.344, 1238.505 960.188, 1237.900 960.562 C 1237.127 961.039, 1237.138 960.611, 1237.935 959.121 C 1238.560 957.954, 1239.595 957, 1240.235 957 C 1241.102 957, 1241.093 956.693, 1240.200 955.800 C 1238.621 954.221, 1238.656 952.681, 1240.250 953.613 C 1240.938 954.015, 1240.600 953.315, 1239.500 952.057 C 1238.400 950.799, 1236.487 949.383, 1235.250 948.910 C 1233.916 948.400, 1232.938 947.124, 1232.848 945.775 C 1232.699 943.559, 1232.482 942.283, 1231.990 940.750 C 1231.858 940.337, 1231.677 939.663, 1231.587 939.250 C 1230.660 934.990, 1229.738 933.348, 1227.792 932.493 C 1226.036 931.721, 1225.572 930.814, 1225.808 928.613 C 1226.036 926.494, 1225.752 925.881, 1224.725 926.275 C 1223.943 926.575, 1223.333 926.194, 1223.333 925.405 C 1223.333 924.632, 1223.907 924, 1224.608 924 C 1226.417 924, 1227.254 922.275, 1225.862 921.415 C 1225.131 920.963, 1224.959 921.124, 1225.405 921.845 C 1225.797 922.480, 1225.641 923, 1225.059 923 C 1224.078 923, 1223.580 921.595, 1223.895 919.709 C 1223.968 919.275, 1223.552 918.031, 1222.971 916.945 C 1222.390 915.860, 1222.271 915.031, 1222.707 915.104 C 1224.763 915.448, 1224.935 914.775, 1223.500 912 C 1222.647 910.350, 1221.285 909, 1220.474 909 C 1218.815 909, 1218.870 909.196, 1218.727 902.785 C 1218.642 898.993, 1218.362 898.284, 1217.299 899.167 C 1216.427 899.891, 1216.303 900.660, 1216.937 901.424 C 1217.609 902.233, 1217.280 902.629, 1215.847 902.737 C 1214.273 902.855, 1213.914 902.435, 1214.307 900.935 C 1214.927 898.564, 1213.092 893.172, 1210.906 890.939 C 1210.029 890.044, 1209.398 888.229, 1209.504 886.906 C 1209.610 885.583, 1209.232 884.197, 1208.663 883.826 C 1207.971 883.375, 1208.037 882.660, 1208.863 881.665 C 1209.821 880.511, 1209.828 880.012, 1208.894 879.435 C 1208.088 878.936, 1207.953 879.115, 1208.485 879.975 C 1209.016 880.834, 1208.819 881.098, 1207.889 880.772 C 1207.125 880.504, 1206.560 879.563, 1206.632 878.682 C 1206.705 877.800, 1206.255 877.173, 1205.632 877.289 C 1205.010 877.405, 1204.553 876.498, 1204.618 875.273 C 1204.683 874.048, 1204.396 873.255, 1203.981 873.512 C 1203.566 873.768, 1202.662 873.298, 1201.972 872.466 C 1200.919 871.198, 1200.997 871.062, 1202.458 871.622 C 1204.001 872.214, 1204.050 872.052, 1202.887 870.190 C 1202.166 869.036, 1201.378 868.288, 1201.137 868.530 C 1200.895 868.771, 1200.099 868.188, 1199.368 867.234 C 1198.389 865.958, 1197.828 865.816, 1197.243 866.697 C 1196.132 868.369, 1193.558 866.593, 1194.298 864.666 C 1194.622 863.821, 1194.350 862.950, 1193.694 862.731 C 1192.978 862.493, 1192.469 860.164, 1192.423 856.917 C 1192.350 851.735, 1191.605 849.972, 1190.167 851.577 C 1189.800 851.986, 1190.132 851.954, 1190.905 851.506 C 1191.844 850.961, 1192.075 851.069, 1191.602 851.834 C 1191.091 852.661, 1190.244 852.551, 1188.540 851.435 C 1186.973 850.408, 1185.967 850.244, 1185.534 850.946 C 1184.918 851.941, 1185.566 852.384, 1187.250 852.118 C 1188.172 851.973, 1188.237 853.429, 1187.349 854.318 C 1186.207 855.459, 1184.068 851.623, 1185.131 850.342 C 1185.758 849.586, 1185.729 848.951, 1185.049 848.530 C 1182.947 847.231, 1183.987 845.924, 1186.250 847.020 C 1188.269 847.998, 1188.322 847.966, 1186.766 846.706 C 1185.812 845.934, 1185.362 844.938, 1185.766 844.492 C 1186.169 844.046, 1185.713 843.964, 1184.750 844.309 C 1183.573 844.732, 1183 844.437, 1183 843.410 C 1183 842.569, 1182.550 842.160, 1182 842.500 C 1181.450 842.840, 1181 842.191, 1181 841.059 C 1181 839.861, 1180.348 839, 1179.441 839 C 1178.552 839, 1178.177 838.522, 1178.569 837.888 C 1178.947 837.277, 1178.636 836.384, 1177.878 835.904 C 1176.776 835.205, 1176.836 835.028, 1178.180 835.015 C 1179.577 835.003, 1179.713 834.485, 1178.984 831.943 C 1178.501 830.261, 1178.384 828.162, 1178.723 827.279 C 1179.169 826.116, 1178.970 825.901, 1178 826.500 C 1177.051 827.087, 1176.828 826.892, 1177.235 825.831 C 1177.572 824.953, 1177.246 824.333, 1176.449 824.333 C 1175.700 824.333, 1175.317 824.703, 1175.596 825.155 C 1175.875 825.607, 1175.470 825.734, 1174.695 825.437 C 1173.880 825.124, 1173.403 823.832, 1173.564 822.372 C 1173.765 820.536, 1173.453 819.996, 1172.420 820.392 C 1171.575 820.717, 1171 820.319, 1171 819.410 C 1171 818.569, 1171.450 818.160, 1172 818.500 C 1173.532 819.447, 1173.188 817.615, 1171.426 815.441 C 1170.560 814.374, 1170.137 814.063, 1170.485 814.750 C 1170.855 815.481, 1170.484 816, 1169.590 816 C 1168.573 816, 1168.277 815.441, 1168.705 814.326 C 1169.192 813.058, 1168.942 812.808, 1167.674 813.295 C 1166.753 813.648, 1166 813.501, 1166 812.969 C 1166 810.909, 1165.806 810.443, 1164.219 808.689 C 1162.799 807.120, 1162.775 806.754, 1164.040 805.954 C 1165.411 805.087, 1164.636 804.547, 1162.581 804.938 C 1162.075 805.034, 1162.197 804.467, 1162.852 803.679 C 1163.813 802.520, 1163.634 802.138, 1161.920 801.689 C 1160.750 801.383, 1160.094 800.656, 1160.458 800.067 C 1160.821 799.480, 1160.641 799, 1160.059 799 C 1159.477 799, 1159 799.675, 1159 800.500 C 1159 801.325, 1158.612 802, 1158.139 802 C 1157.665 802, 1157.506 800.801, 1157.787 799.336 C 1158.197 797.187, 1157.984 796.792, 1156.680 797.293 C 1155.791 797.634, 1154.822 797.521, 1154.526 797.042 C 1154.230 796.563, 1154.553 795.961, 1155.244 795.705 C 1156.169 795.363, 1156.038 794.756, 1154.750 793.406 C 1153.718 792.324, 1153 792.069, 1153 792.786 C 1153 793.454, 1152.325 794, 1151.500 794 C 1150.675 794, 1150 793.525, 1150 792.944 C 1150 792.363, 1148.577 790.587, 1146.837 788.998 C 1145.097 787.409, 1143.597 785.072, 1143.504 783.805 C 1143.411 782.537, 1142.922 781.493, 1142.417 781.485 C 1140.374 781.451, 1138.855 779.662, 1139.329 777.849 C 1139.816 775.986, 1135.975 771, 1134.053 771 C 1133.583 771, 1132.252 769.398, 1131.097 767.440 C 1129.942 765.482, 1129.560 764.218, 1130.248 764.632 C 1131.247 765.232, 1131.249 765.074, 1130.259 763.850 C 1129.576 763.006, 1129.351 761.948, 1129.759 761.498 C 1130.166 761.048, 1129.989 760.971, 1129.364 761.328 C 1128.716 761.699, 1127.993 761.080, 1127.681 759.888 C 1127.380 758.739, 1126.701 758.066, 1126.172 758.394 C 1125.643 758.721, 1124.941 758.288, 1124.612 757.431 C 1124.283 756.574, 1123.550 756.160, 1122.982 756.511 C 1122.415 756.862, 1122.015 756.778, 1122.094 756.324 C 1122.432 754.379, 1121.920 753, 1120.860 753 C 1119.018 753, 1117.035 749.663, 1118.108 748.370 C 1118.733 747.616, 1118.519 747.030, 1117.474 746.628 C 1116.402 746.217, 1116.128 746.420, 1116.620 747.261 C 1117.018 747.943, 1116.392 747.666, 1115.228 746.646 C 1114.064 745.626, 1112.963 743.826, 1112.782 742.646 C 1112.601 741.466, 1111.901 740.613, 1111.226 740.750 C 1110.552 740.888, 1110 740.523, 1110 739.941 C 1110 739.359, 1109.550 739.160, 1109 739.500 C 1107.238 740.589, 1105.778 738.973, 1107.093 737.388 C 1108.059 736.224, 1107.974 736.073, 1106.641 736.584 C 1105.159 737.153, 1104.518 736.142, 1104.870 733.786 C 1104.928 733.393, 1104.280 733.339, 1103.428 733.666 C 1102.400 734.060, 1101.694 733.545, 1101.324 732.130 C 1101.017 730.958, 1100.192 730, 1099.490 730 C 1098.788 730, 1097.955 729.325, 1097.638 728.500 C 1097.322 727.675, 1096.255 727, 1095.269 727 C 1094.282 727, 1092.604 725.841, 1091.540 724.424 C 1090.476 723.007, 1088.329 721.187, 1086.770 720.381 C 1085.110 719.523, 1084.223 718.447, 1084.631 717.787 C 1085.085 717.053, 1084.759 716.879, 1083.696 717.286 C 1082.798 717.631, 1081.779 717.452, 1081.431 716.888 C 1081.083 716.325, 1080.183 716.100, 1079.431 716.388 C 1078.679 716.677, 1077.786 716.464, 1077.447 715.915 C 1076.420 714.252, 1067.798 715.202, 1065.803 717.197" stroke="none" fill="#f4f4f4" fill-rule="evenodd"/></svg>