<svg xmlns="http://www.w3.org/2000/svg" width="2048" height="2048" viewBox="0 0 2048 2048" version="1.1"><path d="" stroke="none" fill="#fcf4f4" fill-rule="evenodd"/><path d="M 1082.213 303.718 C 1081.505 304.698, 1081.205 304.919, 1081.547 304.210 C 1081.996 303.275, 1081.524 303.081, 1079.834 303.504 C 1078.550 303.826, 1076.375 304.149, 1075 304.221 C 1073.625 304.294, 1071.851 304.837, 1071.058 305.427 C 1069.946 306.254, 1069.802 306.191, 1070.429 305.150 C 1071.087 304.057, 1070.839 304.016, 1069.121 304.935 C 1067.954 305.560, 1067 306.306, 1067 306.594 C 1067 306.882, 1067.450 306.840, 1068 306.500 C 1068.550 306.160, 1069 306.332, 1069 306.882 C 1069 307.432, 1068.562 308.153, 1068.027 308.483 C 1067.491 308.814, 1066.315 310.641, 1065.413 312.542 C 1064.510 314.444, 1063.318 316, 1062.764 316 C 1062.209 316, 1062.344 316.709, 1063.063 317.576 C 1063.837 318.509, 1063.989 319.428, 1063.435 319.826 C 1062.921 320.197, 1062.391 322.271, 1062.259 324.435 C 1062.127 326.599, 1061.625 328.624, 1061.143 328.935 C 1060.660 329.246, 1060.390 331.830, 1060.541 334.678 C 1060.735 338.334, 1060.414 340.011, 1059.449 340.381 C 1058.429 340.772, 1058.234 342.180, 1058.679 345.935 C 1059.006 348.701, 1058.842 351.535, 1058.314 352.232 C 1057.786 352.930, 1057.405 356.956, 1057.467 361.180 C 1057.528 365.404, 1057.336 368.838, 1057.039 368.811 C 1054.487 368.583, 1054.192 369.142, 1055.518 371.697 C 1056.619 373.819, 1056.660 374.705, 1055.709 375.851 C 1055.044 376.652, 1054.567 377.576, 1054.650 377.904 C 1054.732 378.232, 1054.362 378.376, 1053.826 378.225 C 1053.290 378.074, 1053.124 378.392, 1053.458 378.932 C 1053.791 379.471, 1054.837 379.623, 1055.782 379.269 C 1057.265 378.714, 1057.318 378.850, 1056.167 380.265 C 1055.402 381.206, 1055.116 382.791, 1055.496 383.987 C 1056.879 388.346, 1056.835 393.126, 1055.407 393.674 C 1053.967 394.227, 1053.395 397.998, 1054.750 398.002 C 1055.162 398.004, 1055.547 399.340, 1055.605 400.972 C 1055.663 402.604, 1055.356 403.720, 1054.924 403.453 C 1053.812 402.766, 1052.557 405.088, 1053.622 405.862 C 1054.105 406.213, 1054.555 406.950, 1054.622 407.500 C 1054.689 408.050, 1055.044 409.775, 1055.412 411.334 C 1055.806 413.004, 1055.697 413.931, 1055.146 413.590 C 1054.633 413.273, 1054.209 414.023, 1054.205 415.257 C 1054.200 416.490, 1053.962 418.400, 1053.675 419.500 C 1053.388 420.600, 1053.119 421.837, 1053.077 422.250 C 1053.034 422.663, 1052.325 423, 1051.500 423 C 1050.567 423, 1050 423.944, 1050 425.500 C 1050 427.056, 1050.567 428, 1051.500 428 C 1052.325 428, 1053 428.477, 1053 429.059 C 1053 429.641, 1052.615 429.880, 1052.144 429.589 C 1051.674 429.298, 1051.509 430.213, 1051.779 431.622 C 1052.112 433.367, 1052.518 433.780, 1053.051 432.918 C 1054.424 430.697, 1054.622 437.272, 1053.285 440.673 C 1052.487 442.703, 1052.399 443.966, 1053.042 444.181 C 1053.625 444.375, 1053.773 445.884, 1053.395 447.774 C 1052.835 450.576, 1052.517 450.862, 1051.122 449.814 C 1049.759 448.791, 1049.700 448.821, 1050.750 449.998 C 1051.438 450.769, 1052 452.258, 1052 453.307 C 1052 454.591, 1052.490 455.026, 1053.500 454.638 C 1055.344 453.931, 1055.377 453.505, 1053.083 460.019 C 1052.029 463.012, 1051.393 465.827, 1051.670 466.274 C 1051.946 466.722, 1051.712 467.642, 1051.150 468.320 C 1050.443 469.171, 1050.540 470.473, 1051.460 472.526 C 1052.849 475.625, 1054.114 479.140, 1054.150 480 C 1054.161 480.275, 1054.601 481.019, 1055.128 481.654 C 1056.335 483.108, 1055.138 488.203, 1053.786 487.368 C 1053.163 486.982, 1053.049 487.578, 1053.484 488.948 C 1053.974 490.492, 1053.633 491.576, 1052.341 492.588 C 1051.328 493.380, 1050.950 493.969, 1051.500 493.896 C 1053.806 493.590, 1055.077 494.066, 1054.490 495.016 C 1054.144 495.575, 1053.330 495.734, 1052.681 495.370 C 1051.777 494.862, 1051.775 495.005, 1052.672 495.975 C 1053.316 496.673, 1053.577 497.938, 1053.252 498.786 C 1052.818 499.917, 1053.038 500.100, 1054.080 499.472 C 1055.292 498.741, 1055.299 498.864, 1054.128 500.308 C 1052.862 501.868, 1053.255 502.453, 1055.324 502.094 C 1055.778 502.015, 1055.851 502.431, 1055.488 503.019 C 1055.125 503.607, 1055.351 504.718, 1055.990 505.488 C 1056.903 506.588, 1056.736 507.148, 1055.211 508.101 C 1054.002 508.855, 1053.456 510.026, 1053.763 511.202 C 1054.058 512.328, 1053.498 513.671, 1052.379 514.527 C 1050.827 515.712, 1050.743 516.122, 1051.896 516.880 C 1052.663 517.385, 1053.035 518.468, 1052.721 519.286 C 1052.297 520.390, 1052.711 520.658, 1054.325 520.324 C 1056.300 519.916, 1056.270 520.015, 1054 521.402 C 1052.625 522.242, 1052.089 522.945, 1052.809 522.965 C 1053.529 522.984, 1053.859 523.419, 1053.543 523.931 C 1053.226 524.443, 1053.494 525.187, 1054.138 525.585 C 1054.869 526.037, 1055.041 525.876, 1054.595 525.155 C 1054.203 524.520, 1054.326 524, 1054.868 524 C 1056.707 524, 1056.545 527.490, 1054.602 529.734 C 1053.279 531.261, 1052.297 531.662, 1051.500 531 C 1050.700 530.336, 1050.333 530.498, 1050.333 531.516 C 1050.333 532.332, 1050.537 532.796, 1050.786 532.548 C 1051.035 532.299, 1051.896 532.753, 1052.700 533.557 C 1053.504 534.361, 1054.494 534.813, 1054.900 534.562 C 1056.454 533.601, 1054.679 540.113, 1053.070 541.275 C 1051.925 542.102, 1051.564 543.283, 1051.960 544.906 C 1052.515 547.186, 1052.636 547.221, 1054.276 545.581 C 1055.884 543.973, 1056.051 543.969, 1056.649 545.527 C 1057.002 546.448, 1056.888 547.494, 1056.396 547.851 C 1055.526 548.481, 1055.095 551.049, 1054.736 557.750 C 1054.640 559.538, 1054.213 561, 1053.787 561 C 1053.361 561, 1053.201 562.013, 1053.432 563.250 C 1053.663 564.487, 1053.919 565.500, 1054.002 565.500 C 1054.085 565.500, 1054.302 566.274, 1054.483 567.219 C 1054.665 568.164, 1054.518 568.899, 1054.157 568.851 C 1052.271 568.600, 1051.883 569.154, 1053 570.500 C 1053.685 571.325, 1053.910 572, 1053.500 572 C 1053.090 572, 1053.315 572.675, 1054 573.500 C 1054.956 574.652, 1054.972 575.328, 1054.072 576.413 C 1052.295 578.554, 1051.614 583.340, 1053.216 582.433 C 1054.246 581.850, 1054.253 581.973, 1053.250 583.053 C 1051.538 584.898, 1051.677 586.338, 1053.500 585.638 C 1054.325 585.322, 1055 585.461, 1055 585.948 C 1055 586.435, 1054.438 587.060, 1053.750 587.338 C 1052.790 587.725, 1052.785 587.860, 1053.725 587.921 C 1054.571 587.976, 1054.693 588.697, 1054.119 590.250 C 1053.204 592.726, 1053.703 595.076, 1055.400 596.280 C 1056.005 596.710, 1055.296 596.782, 1053.825 596.441 C 1051.603 595.926, 1051.210 596.132, 1051.499 597.661 C 1051.690 598.672, 1051.938 599.612, 1052.048 599.750 C 1052.159 599.888, 1052.306 600.885, 1052.375 601.968 C 1052.444 603.050, 1053.180 604.737, 1054.012 605.718 C 1054.844 606.698, 1055.567 609.489, 1055.620 611.920 C 1055.697 615.499, 1055.218 616.779, 1053.108 618.639 C 1051.673 619.903, 1051.020 620.951, 1051.656 620.968 C 1052.345 620.987, 1052.585 621.873, 1052.249 623.156 C 1051.911 624.450, 1052.081 625.068, 1052.676 624.700 C 1053.221 624.364, 1053.667 624.743, 1053.667 625.544 C 1053.667 626.345, 1053.049 627, 1052.294 627 C 1051.348 627, 1051.575 627.698, 1053.026 629.250 C 1054.507 630.834, 1054.950 632.240, 1054.524 634 C 1054.192 635.375, 1053.863 637.063, 1053.793 637.750 C 1053.724 638.438, 1053.067 639, 1052.333 639 C 1050.324 639, 1050.733 640.787, 1053.023 642.012 C 1054.490 642.797, 1054.802 643.531, 1054.159 644.681 C 1053.670 645.554, 1053.620 647.813, 1054.046 649.703 C 1054.472 651.593, 1054.455 654.412, 1054.009 655.968 C 1053.520 657.674, 1053.600 659.200, 1054.212 659.812 C 1054.787 660.387, 1054.865 661.404, 1054.391 662.163 C 1053.175 664.111, 1052.994 666.283, 1053.949 667.466 C 1054.408 668.035, 1054.831 670.300, 1054.889 672.500 C 1054.947 674.700, 1055.159 677.748, 1055.362 679.274 C 1055.565 680.800, 1055.375 682.269, 1054.940 682.537 C 1053.861 683.204, 1054.665 688.891, 1056.079 690.595 C 1056.966 691.664, 1056.860 692.116, 1055.613 692.595 C 1053.429 693.433, 1053.583 695.583, 1056 698 C 1057.100 699.100, 1057.685 700, 1057.300 700 C 1056.915 700, 1057.140 700.540, 1057.800 701.200 C 1059.470 702.870, 1059.299 704.052, 1057.489 703.357 C 1056.409 702.943, 1056.153 703.236, 1056.593 704.383 C 1056.932 705.266, 1057.612 705.740, 1058.105 705.435 C 1058.824 704.991, 1059.429 707.270, 1058.853 708.250 C 1058.772 708.388, 1059.723 709.641, 1060.965 711.036 C 1063.039 713.364, 1063.688 716.311, 1064.318 726.250 C 1064.419 727.857, 1065.311 728.425, 1067.250 728.118 C 1067.662 728.053, 1068 728.477, 1068 729.059 C 1068 729.641, 1068.419 729.859, 1068.931 729.543 C 1069.443 729.226, 1070.127 729.396, 1070.451 729.921 C 1070.775 730.445, 1072.797 730.850, 1074.944 730.820 C 1077.843 730.780, 1078.711 730.410, 1078.317 729.383 C 1078.012 728.588, 1078.418 728, 1079.271 728 C 1080.896 728, 1082.648 726.262, 1083.168 724.133 C 1083.576 722.464, 1086.336 718.893, 1091.132 713.833 C 1093.130 711.725, 1094.480 709.971, 1094.132 709.937 C 1093.785 709.902, 1094.541 709.456, 1095.814 708.945 C 1097.087 708.435, 1097.861 707.584, 1097.534 707.054 C 1096.533 705.435, 1098.089 701.137, 1099.845 700.671 C 1101.240 700.301, 1101.213 700.214, 1099.667 700.116 C 1097.646 699.988, 1097.851 697.883, 1099.952 697.183 C 1100.743 696.919, 1100.996 697.197, 1100.580 697.870 C 1100.196 698.492, 1100.310 699, 1100.834 699 C 1101.358 699, 1102.127 698.212, 1102.544 697.250 C 1103.749 694.469, 1103.901 692.943, 1102.912 693.554 C 1101.243 694.586, 1101.971 691.744, 1103.750 690.286 C 1104.789 689.434, 1104.891 689.155, 1104 689.598 C 1102.887 690.151, 1102.952 689.827, 1104.250 688.343 C 1106.125 686.200, 1106.656 683.476, 1105 684.500 C 1103.872 685.197, 1103.702 683.939, 1104.607 681.582 C 1104.941 680.712, 1105.841 680, 1106.607 680 C 1107.373 680, 1107.947 679.663, 1107.882 679.250 C 1107.525 676.993, 1108.238 675.992, 1110.250 675.921 C 1111.487 675.878, 1112.050 675.653, 1111.500 675.421 C 1110.378 674.949, 1110.309 665.928, 1111.413 664.141 C 1111.805 663.507, 1111.548 661.391, 1110.842 659.440 C 1109.937 656.937, 1109.877 655.686, 1110.638 655.195 C 1111.610 654.569, 1111.682 653.608, 1110.987 650.500 C 1110.500 648.322, 1111.059 646.918, 1112.146 647.590 C 1112.948 648.086, 1113.099 647.529, 1112.648 645.732 C 1112.278 644.261, 1112.450 643.017, 1113.049 642.817 C 1113.624 642.625, 1114.186 640.676, 1114.297 638.484 C 1114.454 635.397, 1114.162 634.575, 1113 634.832 C 1112.053 635.042, 1112.421 634.183, 1114 632.502 C 1116.328 630.022, 1116.381 629.752, 1114.766 628.571 C 1113.812 627.873, 1113.362 626.902, 1113.766 626.412 C 1114.169 625.922, 1113.424 626.417, 1112.109 627.511 L 1109.717 629.500 1110.451 625.502 C 1110.854 623.304, 1111.532 621.279, 1111.957 621.002 C 1113.708 619.865, 1114.052 616.234, 1112.466 615.625 C 1111.590 615.289, 1111.134 614.592, 1111.453 614.076 C 1111.772 613.560, 1111.575 612.856, 1111.016 612.510 C 1109.491 611.568, 1109.793 610, 1111.500 610 C 1113.077 610, 1113.116 609.863, 1113.352 603.500 C 1113.474 600.215, 1113.190 599.552, 1111.766 599.790 C 1110.589 599.987, 1110.214 599.606, 1110.599 598.603 C 1110.917 597.774, 1111.897 597.354, 1112.833 597.645 C 1114.180 598.064, 1114.135 597.865, 1112.603 596.614 C 1111.559 595.761, 1110.252 595.344, 1109.698 595.687 C 1109.122 596.043, 1109 595.808, 1109.415 595.138 C 1109.813 594.494, 1110.510 594.197, 1110.964 594.478 C 1111.419 594.759, 1112.063 594.279, 1112.395 593.412 C 1113.322 590.996, 1113.130 590.647, 1111.579 591.935 C 1110.413 592.902, 1110.254 592.746, 1110.692 591.068 C 1110.987 589.943, 1111.588 589.245, 1112.028 589.517 C 1113.468 590.407, 1113.696 587.553, 1112.296 586.154 C 1111.506 585.364, 1111.202 583.939, 1111.573 582.769 C 1111.962 581.545, 1111.823 580.991, 1111.221 581.363 C 1110.675 581.701, 1110.033 580.952, 1109.794 579.701 C 1109.210 576.648, 1109.908 574.830, 1111.335 575.686 C 1112.061 576.121, 1112.015 575.785, 1111.212 574.794 C 1110.128 573.455, 1110.290 572.912, 1112.241 571.352 C 1113.607 570.260, 1114.402 568.722, 1114.178 567.605 C 1113.873 566.089, 1113.621 565.989, 1112.914 567.105 C 1112.230 568.184, 1112.024 568.048, 1112 566.500 C 1111.975 564.841, 1111.804 564.756, 1111 566 C 1109.982 567.575, 1109.803 566.948, 1109.661 561.313 C 1109.631 560.110, 1109.227 559.360, 1108.763 559.646 C 1107.512 560.420, 1109.124 554.626, 1110.404 553.750 C 1111.156 553.235, 1111.030 552.691, 1110 552.015 C 1108.667 551.140, 1108.667 551.027, 1110 551 C 1110.883 550.982, 1111.089 550.667, 1110.500 550.235 C 1109.266 549.328, 1108.726 547.001, 1109.750 546.999 C 1111.129 546.996, 1111.153 539.003, 1109.774 538.968 C 1108.896 538.946, 1108.988 538.558, 1110.071 537.718 C 1111.050 536.960, 1111.573 535.179, 1111.458 533 C 1111.186 527.856, 1111.134 527.735, 1109.500 528.362 C 1108.675 528.678, 1108 528.501, 1108 527.969 C 1108 527.436, 1108.352 527, 1108.782 527 C 1109.212 527, 1109.657 525.875, 1109.771 524.500 C 1109.884 523.125, 1109.510 522, 1108.939 522 C 1108.257 522, 1108.226 521.419, 1108.848 520.308 C 1109.496 519.149, 1109.347 517.933, 1108.375 516.449 C 1107.138 514.562, 1107.152 514.119, 1108.477 513.019 C 1110.148 511.632, 1110.640 505.486, 1109 506.500 C 1108.107 507.052, 1107.508 504.922, 1107.917 502.645 C 1108.001 502.174, 1107.599 501.222, 1107.023 500.527 C 1106.272 499.623, 1106.404 498.910, 1107.488 498.010 C 1109.348 496.466, 1109.538 492.579, 1107.720 493.277 C 1106.174 493.870, 1105.978 488.902, 1107.500 487.731 C 1108.133 487.244, 1107.939 486.510, 1106.971 485.731 C 1105.414 484.478, 1105.169 479.924, 1106.487 476.750 C 1106.887 475.788, 1106.888 474.212, 1106.491 473.250 C 1106 472.062, 1105.617 471.902, 1105.300 472.750 C 1105.043 473.438, 1104.463 474, 1104.011 474 C 1103.558 474, 1103.708 472.879, 1104.344 471.508 C 1104.980 470.137, 1106.287 469.012, 1107.250 469.008 C 1108.253 469.003, 1108.993 468.253, 1108.985 467.250 C 1108.972 465.849, 1108.793 465.779, 1108.086 466.896 C 1106.916 468.742, 1104.417 467.701, 1103.732 465.083 C 1103.389 463.770, 1103.576 463.238, 1104.238 463.647 C 1105.285 464.294, 1105.048 462.388, 1103.423 457.094 C 1102.856 455.245, 1102.989 454.875, 1103.997 455.498 C 1104.836 456.017, 1105.067 455.918, 1104.638 455.224 C 1104.269 454.627, 1104.405 453.868, 1104.940 453.537 C 1105.475 453.206, 1105.645 452.238, 1105.317 451.384 C 1104.834 450.124, 1104.552 450.083, 1103.819 451.166 C 1103.230 452.037, 1103.079 451.345, 1103.384 449.172 C 1103.711 446.833, 1103.490 445.982, 1102.639 446.308 C 1101.966 446.567, 1101.429 445.968, 1101.429 444.960 C 1101.429 443.963, 1101.782 443.365, 1102.214 443.632 C 1102.646 443.900, 1103 443.416, 1103 442.559 C 1103 441.702, 1102.646 441, 1102.213 441 C 1101.165 441, 1100.759 435.196, 1101.701 433.688 C 1102.701 432.088, 1102.993 429.886, 1102.135 430.416 C 1101.756 430.651, 1100.680 429.507, 1099.743 427.874 C 1098.754 426.151, 1098.555 425.216, 1099.270 425.645 C 1100.069 426.125, 1100.019 425.791, 1099.128 424.692 C 1098.233 423.589, 1098.146 423, 1098.878 423 C 1099.495 423, 1100 422.325, 1100 421.500 C 1100 420.675, 1099.564 420, 1099.031 420 C 1098.499 420, 1098.322 419.325, 1098.638 418.500 C 1098.955 417.675, 1098.716 417, 1098.107 417 C 1096.539 417, 1096.733 414.323, 1098.412 412.789 C 1099.618 411.688, 1099.520 411.173, 1097.738 409.250 C 1096.590 408.012, 1096.180 407, 1096.826 407 C 1097.472 407, 1098 406.100, 1098 405 C 1098 403.900, 1097.438 402.993, 1096.750 402.985 C 1095.917 402.974, 1096 402.646, 1097 402 C 1098 401.354, 1098.083 401.026, 1097.250 401.015 C 1096.563 401.007, 1096 400.550, 1096 400 C 1096 399.450, 1096.702 399, 1097.559 399 C 1098.416 399, 1098.835 398.543, 1098.490 397.984 C 1098.144 397.425, 1097.443 397.226, 1096.931 397.543 C 1095.605 398.362, 1095.839 396.906, 1097.500 394 C 1099.111 391.183, 1099.403 389.633, 1098.182 390.388 C 1095.855 391.826, 1094.376 379.667, 1096.694 378.155 C 1098.452 377.008, 1097.787 374, 1095.774 374 C 1094.599 374, 1094.152 374.437, 1094.595 375.155 C 1095.051 375.892, 1094.868 376.037, 1094.089 375.555 C 1093.152 374.976, 1093.204 374.419, 1094.313 373.151 C 1095.107 372.243, 1095.589 370.488, 1095.384 369.250 C 1095.119 367.643, 1095.511 366.991, 1096.756 366.968 C 1098.340 366.939, 1098.325 366.804, 1096.588 365.489 C 1095.262 364.486, 1094.649 362.733, 1094.588 359.771 C 1094.540 357.422, 1094.187 355.263, 1093.804 354.974 C 1092.589 354.057, 1092.896 334.817, 1094.113 335.570 C 1094.601 335.871, 1095 335.641, 1095 335.059 C 1095 334.477, 1094.614 334, 1094.143 334 C 1093.671 334, 1093.357 332.538, 1093.445 330.750 C 1093.533 328.962, 1093.356 327.275, 1093.052 326.999 C 1091.188 325.309, 1089.310 320.090, 1090.233 319.167 C 1091.855 317.545, 1089.028 309.353, 1086.353 307.921 C 1085.117 307.260, 1083.969 305.642, 1083.803 304.327 C 1083.522 302.107, 1083.407 302.064, 1082.213 303.718" stroke="none" fill="#f4f4f4" fill-rule="evenodd"/></svg>