<svg xmlns="http://www.w3.org/2000/svg" width="2048" height="2048" viewBox="0 0 2048 2048" version="1.1"><path d="" stroke="none" fill="#f4f4ec" fill-rule="evenodd"/><path d="M 1243.532 343.611 C 1242.868 344.275, 1241.761 344.471, 1241.073 344.045 C 1239.253 342.920, 1235.116 345.138, 1235.784 346.880 C 1236.195 347.951, 1235.780 348.176, 1234.169 347.754 C 1232.976 347.442, 1232 347.643, 1232 348.201 C 1232 348.758, 1231.348 348.964, 1230.551 348.658 C 1229.566 348.280, 1229.286 348.582, 1229.677 349.602 C 1230.563 351.911, 1226.125 356.062, 1223.315 355.552 C 1222.005 355.315, 1221.217 355.541, 1221.539 356.063 C 1221.857 356.578, 1221.641 357, 1221.059 357 C 1220.477 357, 1220 357.436, 1220 357.969 C 1220 358.501, 1220.787 358.641, 1221.750 358.278 C 1222.715 357.915, 1221.929 359.237, 1220 361.225 C 1217.944 363.343, 1216.122 364.467, 1215.585 363.950 C 1215.050 363.436, 1214.083 363.783, 1213.261 364.785 C 1212.486 365.728, 1212.180 365.868, 1212.580 365.095 C 1213.064 364.164, 1212.915 363.935, 1212.138 364.415 C 1211.494 364.813, 1211.226 365.557, 1211.543 366.069 C 1211.859 366.581, 1211.761 367.563, 1211.324 368.250 C 1210.888 368.938, 1210.524 369.913, 1210.515 370.417 C 1210.507 370.921, 1209.825 371.518, 1209 371.743 C 1207.667 372.107, 1207.667 372.034, 1209 371.091 C 1209.963 370.410, 1210.065 370.025, 1209.284 370.015 C 1207.939 369.998, 1202 375.470, 1202 376.726 C 1202 377.162, 1201.100 378.081, 1200 378.768 C 1198.900 379.455, 1198 380.861, 1198 381.892 C 1198 382.964, 1197.088 384.005, 1195.870 384.324 C 1194.414 384.705, 1193.936 385.390, 1194.359 386.492 C 1194.718 387.429, 1194.563 387.848, 1193.989 387.493 C 1193.445 387.157, 1193 387.306, 1193 387.824 C 1193 388.343, 1192.055 389.014, 1190.899 389.316 C 1189.744 389.618, 1189.083 390.326, 1189.431 390.889 C 1189.779 391.452, 1188.924 392.659, 1187.532 393.571 C 1184.810 395.354, 1184.228 397.522, 1186.250 398.338 C 1186.997 398.639, 1186.795 398.874, 1185.750 398.921 C 1184.787 398.964, 1184 399.477, 1184 400.059 C 1184 400.641, 1183.550 400.840, 1183 400.500 C 1182.130 399.962, 1181.525 401.990, 1181.882 404.250 C 1181.947 404.663, 1181.523 405, 1180.941 405 C 1180.359 405, 1180.129 405.399, 1180.430 405.887 C 1180.731 406.374, 1180.313 407.325, 1179.500 408 C 1178.687 408.675, 1178.287 409.656, 1178.611 410.180 C 1178.936 410.705, 1178.593 411.033, 1177.850 410.909 C 1175.730 410.556, 1173 412.075, 1173 413.607 C 1173 414.373, 1173.759 415, 1174.687 415 C 1176.088 415, 1175.961 415.466, 1173.937 417.750 C 1171.120 420.928, 1169 424.496, 1169 426.058 C 1169 427.657, 1166.360 430.018, 1165.484 429.202 C 1165.069 428.816, 1165.285 429.567, 1165.964 430.871 C 1166.953 432.768, 1166.948 433.086, 1165.942 432.464 C 1165.030 431.901, 1164.840 432.280, 1165.249 433.845 C 1165.560 435.032, 1165.464 435.786, 1165.036 435.522 C 1164.608 435.258, 1163.278 435.892, 1162.079 436.931 C 1160.666 438.157, 1160.286 439.059, 1160.999 439.499 C 1161.789 439.988, 1161.771 440.571, 1160.935 441.578 C 1160.296 442.348, 1159.470 442.790, 1159.098 442.561 C 1158.727 442.331, 1158.476 443.574, 1158.539 445.322 C 1158.671 448.955, 1158.087 451.167, 1157.145 450.599 C 1156.790 450.385, 1155.915 450.843, 1155.199 451.617 C 1154.126 452.778, 1154.169 453.128, 1155.444 453.617 C 1156.293 453.943, 1156.735 454.620, 1156.425 455.121 C 1156.115 455.622, 1155.534 455.830, 1155.133 455.582 C 1153.634 454.655, 1152.015 456.713, 1151.654 460.004 C 1151.449 461.875, 1150.656 463.574, 1149.891 463.779 C 1148.843 464.060, 1148.870 463.891, 1150 463.091 C 1151.333 462.148, 1151.333 462.030, 1150 462.023 C 1148.117 462.014, 1145.906 466.506, 1147.170 467.770 C 1147.723 468.323, 1147.474 469.191, 1146.542 469.965 C 1145.694 470.669, 1145 471.680, 1145 472.212 C 1145 472.744, 1143.987 474.024, 1142.750 475.056 L 1140.500 476.933 1142.644 476.967 C 1144.295 476.992, 1144.755 477.575, 1144.644 479.499 C 1144.565 480.874, 1144.110 481.999, 1143.633 481.999 C 1143.157 482, 1143.003 482.903, 1143.292 484.007 C 1143.637 485.329, 1143.079 486.561, 1141.658 487.611 C 1140.197 488.692, 1139.904 489.362, 1140.750 489.687 C 1141.438 489.951, 1142 490.606, 1142 491.142 C 1142 491.679, 1141.581 491.859, 1141.069 491.543 C 1140.557 491.226, 1139.826 491.473, 1139.444 492.090 C 1138.951 492.888, 1138.473 492.820, 1137.794 491.857 C 1137.153 490.947, 1137.077 491.489, 1137.562 493.500 C 1137.960 495.150, 1138.311 497.483, 1138.343 498.685 C 1138.374 499.887, 1138.760 500.648, 1139.200 500.376 C 1139.640 500.104, 1140 500.359, 1140 500.941 C 1140 501.523, 1139.651 502, 1139.224 502 C 1137.922 502, 1138.983 513.324, 1140.502 515.643 C 1141.735 517.526, 1141.732 517.889, 1140.479 518.370 C 1138.816 519.008, 1139.567 521.893, 1141.841 523.598 C 1142.646 524.202, 1143.004 525.184, 1142.636 525.779 C 1142.268 526.375, 1142.446 527.158, 1143.032 527.519 C 1143.617 527.881, 1144.022 528.925, 1143.933 529.839 C 1143.634 532.885, 1143.990 534.124, 1144.989 533.507 C 1145.555 533.157, 1145.723 533.558, 1145.382 534.448 C 1145.007 535.424, 1145.341 536, 1146.282 536 C 1147.105 536, 1148.637 536.788, 1149.686 537.750 C 1150.736 538.712, 1151 539.098, 1150.273 538.607 C 1149.546 538.117, 1148.638 538.029, 1148.255 538.412 C 1147.872 538.795, 1148.173 539.489, 1148.925 539.953 C 1149.676 540.418, 1150.015 541.519, 1149.677 542.399 C 1149.339 543.280, 1149.485 544, 1150 544 C 1150.515 544, 1150.800 544.563, 1150.633 545.250 C 1150.465 545.938, 1150.517 546.163, 1150.747 545.750 C 1151.938 543.621, 1154.291 545.601, 1156.497 550.590 C 1158.032 554.059, 1159.729 556.378, 1160.973 556.703 C 1162.076 556.992, 1162.817 557.514, 1162.620 557.864 C 1162.424 558.214, 1162.845 560.075, 1163.556 562 C 1164.266 563.925, 1164.882 564.911, 1164.924 564.191 C 1165.063 561.805, 1167 564.070, 1167 566.618 C 1167 568.030, 1167.435 568.849, 1168 568.500 C 1168.550 568.160, 1169 568.794, 1169 569.910 C 1169 571.301, 1169.471 571.757, 1170.500 571.362 C 1171.432 571.004, 1172 571.367, 1172 572.322 C 1172 573.166, 1172.719 574.576, 1173.597 575.454 C 1174.476 576.333, 1174.948 577.692, 1174.648 578.475 C 1174.286 579.418, 1174.591 579.710, 1175.551 579.342 C 1176.597 578.941, 1177 579.541, 1177 581.500 C 1177 583.440, 1177.407 584.058, 1178.427 583.666 C 1180.201 582.986, 1182.209 585.274, 1181.958 587.690 C 1181.854 588.686, 1181.828 590.400, 1181.900 591.500 C 1182.009 593.167, 1182.192 593.250, 1183 592 C 1183.808 590.749, 1183.992 590.832, 1184.103 592.500 C 1184.177 593.600, 1184.184 594.838, 1184.118 595.250 C 1184.053 595.663, 1184.337 595.904, 1184.750 595.788 C 1186.408 595.318, 1190.130 598.220, 1189.609 599.577 C 1189.309 600.360, 1189.499 601, 1190.031 601 C 1190.564 601, 1191 601.948, 1191 603.107 C 1191 604.536, 1191.466 605.035, 1192.449 604.658 C 1193.887 604.106, 1195.583 607.193, 1194.692 608.741 C 1194.452 609.158, 1195.098 610.366, 1196.128 611.425 C 1197.199 612.526, 1198 612.832, 1198 612.140 C 1198 611.268, 1198.522 611.209, 1199.869 611.930 C 1200.896 612.480, 1202.093 612.608, 1202.529 612.215 C 1202.964 611.822, 1202.997 612.063, 1202.601 612.750 C 1202.166 613.506, 1202.455 614, 1203.334 614 C 1204.133 614, 1205.045 614.675, 1205.362 615.500 C 1205.678 616.325, 1206.674 617, 1207.576 617 C 1208.615 617, 1209.005 617.544, 1208.643 618.488 C 1208.329 619.306, 1208.393 619.928, 1208.786 619.870 C 1210.767 619.574, 1212.051 620.109, 1211.500 621 C 1211.160 621.550, 1211.696 622.007, 1212.691 622.015 C 1214.225 622.028, 1214.272 622.178, 1213 623 C 1211.935 623.688, 1211.875 623.974, 1212.792 623.985 C 1213.502 623.993, 1215.077 624.966, 1216.292 626.147 C 1217.506 627.328, 1217.943 627.980, 1217.261 627.595 C 1216.430 627.126, 1216.219 627.407, 1216.618 628.448 C 1216.946 629.302, 1217.616 630, 1218.107 630 C 1218.598 630, 1218.947 630.337, 1218.882 630.750 C 1218.523 633.019, 1219.159 634.153, 1220.500 633.638 C 1221.325 633.322, 1222 633.525, 1222 634.090 C 1222 634.656, 1222.408 634.866, 1222.907 634.558 C 1223.405 634.249, 1223.578 634.898, 1223.290 635.999 C 1222.816 637.812, 1223.733 638.488, 1226.189 638.139 C 1226.762 638.057, 1228.234 641.199, 1228.466 643 C 1228.502 643.275, 1228.888 644.063, 1229.324 644.750 C 1229.761 645.438, 1229.866 646.408, 1229.558 646.907 C 1229.249 647.405, 1229.836 647.594, 1230.861 647.326 C 1231.979 647.034, 1232.967 647.471, 1233.331 648.419 C 1233.664 649.289, 1233.501 650, 1232.969 650 C 1232.436 650, 1232 650.459, 1232 651.020 C 1232 651.580, 1233.157 651.829, 1234.571 651.573 C 1236.723 651.183, 1237.316 651.607, 1238.212 654.177 C 1239.136 656.828, 1239.413 657.013, 1240.245 655.526 C 1241.079 654.036, 1241.526 654.322, 1243.573 657.653 C 1244.874 659.769, 1245.959 661.050, 1245.984 660.500 C 1246.010 659.950, 1246.398 660.079, 1246.846 660.786 C 1247.295 661.493, 1248.976 662.307, 1250.581 662.595 C 1252.186 662.884, 1253.950 663.609, 1254.500 664.207 C 1255.199 664.966, 1255.048 665.076, 1254 664.573 C 1253.175 664.176, 1253.374 664.560, 1254.441 665.426 C 1255.509 666.292, 1255.846 667, 1255.191 667 C 1253.006 667, 1253.966 668.775, 1256.494 669.409 C 1257.866 669.753, 1258.878 670.569, 1258.744 671.222 C 1258.610 671.875, 1258.950 672.441, 1259.500 672.481 C 1260.774 672.572, 1264.766 674.929, 1263.716 674.970 C 1263.284 674.986, 1264.329 676.366, 1266.037 678.036 C 1267.745 679.706, 1268.980 681.561, 1268.780 682.159 C 1268.581 682.757, 1270.341 685.104, 1272.692 687.373 C 1275.043 689.643, 1276.974 692.261, 1276.983 693.191 C 1276.993 694.121, 1277.526 695.207, 1278.170 695.605 C 1278.957 696.091, 1279.131 695.783, 1278.701 694.664 C 1278.350 693.749, 1278.386 693.007, 1278.781 693.015 C 1279.820 693.037, 1282.658 694.966, 1281.679 694.985 C 1281.227 694.993, 1281.590 695.733, 1282.486 696.629 C 1283.382 697.525, 1283.863 698.987, 1283.555 699.879 C 1283.091 701.221, 1283.229 701.199, 1284.358 699.750 C 1285.842 697.844, 1289 697.364, 1289 699.044 C 1289 699.618, 1289.777 699.955, 1290.728 699.794 C 1291.719 699.625, 1292.466 700.139, 1292.482 701 C 1292.497 701.870, 1293.448 702.512, 1294.746 702.528 C 1295.977 702.544, 1296.949 702.944, 1296.906 703.417 C 1296.797 704.630, 1299.224 705.979, 1300.309 705.309 C 1300.806 705.002, 1300.603 704.363, 1299.857 703.890 C 1298.776 703.205, 1298.766 703.028, 1299.809 703.015 C 1300.529 703.007, 1300.832 702.438, 1300.483 701.750 C 1300.133 701.063, 1300.742 701.513, 1301.834 702.750 C 1303.871 705.057, 1307.419 705.749, 1308.473 704.044 C 1308.798 703.518, 1309.679 703.323, 1310.431 703.612 C 1311.183 703.900, 1312.092 703.661, 1312.451 703.079 C 1312.885 702.378, 1313.933 702.565, 1315.569 703.637 C 1317.841 705.126, 1317.985 705.125, 1317.410 703.626 C 1316.834 702.125, 1318.462 701.409, 1321.324 701.906 C 1321.778 701.985, 1321.864 701.588, 1321.515 701.025 C 1321.160 700.449, 1321.804 700, 1322.985 700 C 1324.418 700, 1324.994 699.454, 1324.794 698.286 C 1324.613 697.229, 1325.266 696.426, 1326.500 696.189 C 1329.272 695.658, 1330.415 694.375, 1328.933 693.458 C 1328.080 692.931, 1327.944 693.101, 1328.500 694 C 1329.039 694.873, 1328.919 695.068, 1328.138 694.585 C 1327.494 694.187, 1327.180 693.518, 1327.440 693.097 C 1328.804 690.890, 1328.836 685.914, 1327.502 683.356 C 1326.683 681.785, 1326.010 680.906, 1326.006 681.403 C 1326.003 681.900, 1325.160 681.337, 1324.133 680.153 C 1323.106 678.969, 1321.756 678, 1321.133 678 C 1319.318 678, 1319.828 675.199, 1321.750 674.612 C 1322.713 674.318, 1321.805 674.307, 1319.734 674.587 C 1317.663 674.867, 1316.028 674.737, 1316.102 674.298 C 1316.566 671.545, 1315.797 669, 1314.500 669 C 1313.675 669, 1312.100 668.100, 1311 667 C 1309.900 665.900, 1307.875 665, 1306.500 665 C 1304.269 665, 1303.516 664.065, 1303.882 661.750 C 1303.947 661.337, 1303.411 661, 1302.691 661 C 1301.971 661, 1300.509 660.324, 1299.441 659.498 C 1298.142 658.492, 1298.024 658.175, 1299.083 658.541 C 1300.063 658.878, 1300.667 658.519, 1300.667 657.599 C 1300.667 656.780, 1300.404 656.175, 1300.083 656.254 C 1299.763 656.332, 1298.560 656.075, 1297.412 655.682 C 1295.867 655.154, 1295.369 654.206, 1295.498 652.039 C 1295.594 650.428, 1295.408 649.138, 1295.086 649.173 C 1293.259 649.372, 1290.677 648.770, 1291.649 648.372 C 1293.360 647.670, 1290.261 641.996, 1288.177 642.015 C 1286.717 642.029, 1286.694 642.170, 1288 643.110 C 1289.282 644.032, 1289.255 644.110, 1287.815 643.651 C 1286.888 643.355, 1285.879 643.650, 1285.574 644.306 C 1285.268 644.963, 1285.288 644.431, 1285.616 643.125 C 1286.019 641.527, 1285.852 640.973, 1285.107 641.434 C 1284.498 641.810, 1284 641.641, 1284 641.059 C 1284 640.477, 1283.454 640.112, 1282.787 640.250 C 1282.119 640.387, 1281.137 639.544, 1280.604 638.376 C 1279.370 635.672, 1276.018 633.409, 1275.961 635.242 C 1275.939 635.934, 1275.263 634.983, 1274.458 633.130 C 1273.311 630.486, 1272.706 629.999, 1271.655 630.872 C 1270.615 631.734, 1270.059 631.424, 1269.178 629.492 C 1268.513 628.032, 1267.206 627, 1266.021 627 C 1264.891 627, 1264 626.339, 1264 625.500 C 1264 624.675, 1263.602 624, 1263.117 624 C 1262.631 624, 1261.956 622.987, 1261.617 621.750 C 1261.181 620.162, 1260.763 619.866, 1260.195 620.744 C 1259.650 621.585, 1258.279 620.073, 1255.962 616.079 C 1254.078 612.828, 1252.190 610.383, 1251.768 610.644 C 1251.345 610.905, 1251 610.191, 1251 609.059 C 1251 607.927, 1250.550 607, 1250 607 C 1249.450 607, 1249 606.325, 1249 605.500 C 1249 604.675, 1248.335 604, 1247.523 604 C 1246.711 604, 1245.254 602.763, 1244.287 601.250 C 1243.319 599.737, 1241.846 597.952, 1241.014 597.282 C 1239.812 596.314, 1239.783 596.057, 1240.872 596.032 C 1243.017 595.982, 1240.177 593, 1237.985 593 C 1237.011 593, 1235.964 592.348, 1235.658 591.551 C 1235.300 590.619, 1235.582 590.286, 1236.450 590.619 C 1237.191 590.904, 1238.095 590.656, 1238.458 590.068 C 1238.821 589.481, 1238.438 589, 1237.606 589 C 1235.235 589, 1231.006 586.799, 1231.583 585.865 C 1231.870 585.402, 1231.412 585.288, 1230.566 585.613 C 1229.544 586.005, 1228.716 585.383, 1228.098 583.758 C 1227.587 582.413, 1225.786 580.740, 1224.097 580.040 C 1222.408 579.340, 1221.283 578.350, 1221.599 577.840 C 1221.914 577.330, 1221.619 576.246, 1220.944 575.432 C 1220.268 574.618, 1219.977 573.690, 1220.297 573.369 C 1221.290 572.376, 1218.592 570.219, 1217.082 570.799 C 1216.038 571.200, 1215.840 570.858, 1216.349 569.532 C 1216.884 568.138, 1216.751 567.962, 1215.773 568.774 C 1214.813 569.570, 1214.461 569.297, 1214.341 567.665 C 1214.014 563.223, 1212.291 558.509, 1211.091 558.775 C 1210.409 558.926, 1210.086 558.670, 1210.372 558.207 C 1210.659 557.743, 1209.819 556.206, 1208.506 554.790 C 1207.193 553.374, 1206.392 551.942, 1206.726 551.607 C 1207.060 551.273, 1206.575 551, 1205.648 551 C 1204.324 551, 1204.105 550.432, 1204.627 548.351 C 1205.122 546.377, 1204.974 545.898, 1204.046 546.472 C 1203.074 547.072, 1203.047 546.780, 1203.923 545.143 C 1204.847 543.417, 1204.785 543.145, 1203.571 543.611 C 1201.247 544.503, 1199.677 543.094, 1201.093 541.388 C 1202.059 540.224, 1201.974 540.073, 1200.641 540.584 C 1199.739 540.931, 1199 541.716, 1199 542.329 C 1199 542.943, 1198.285 542.424, 1197.411 541.176 C 1196.537 539.928, 1196.064 538.276, 1196.360 537.505 C 1196.719 536.570, 1196.401 536.293, 1195.408 536.674 C 1193.853 537.270, 1193.785 535.025, 1195.324 533.895 C 1195.777 533.563, 1195.552 532.663, 1194.824 531.895 C 1194.096 531.128, 1193.455 529.938, 1193.400 529.250 C 1193.166 526.322, 1192.943 525.917, 1191.919 526.550 C 1191.273 526.949, 1190.916 526.469, 1191.034 525.359 C 1191.409 521.808, 1191.026 521.180, 1188.831 521.754 C 1187.125 522.201, 1186.796 521.974, 1187.288 520.693 C 1187.631 519.797, 1187.482 518.798, 1186.956 518.473 C 1186.430 518.148, 1186 516.757, 1186 515.382 C 1186 514.007, 1185.625 513.114, 1185.167 513.397 C 1184.708 513.680, 1184.333 513.264, 1184.333 512.472 C 1184.333 511.437, 1184.683 511.322, 1185.578 512.064 C 1186.381 512.731, 1187.037 512.750, 1187.427 512.118 C 1187.760 511.579, 1187.568 510.851, 1187 510.500 C 1186.432 510.149, 1186.207 509.474, 1186.500 509 C 1186.793 508.526, 1186.506 507.813, 1185.862 507.415 C 1185.068 506.924, 1184.953 507.143, 1185.506 508.095 C 1185.987 508.926, 1185.949 509.160, 1185.412 508.668 C 1184.912 508.210, 1184.483 506.283, 1184.460 504.385 C 1184.426 501.648, 1184.871 500.820, 1186.608 500.384 C 1188.855 499.820, 1189.277 496.926, 1187.213 496.238 C 1186.457 495.986, 1186.397 495.087, 1187.025 493.433 C 1187.534 492.095, 1187.682 491, 1187.353 491 C 1187.024 491, 1187.311 490.330, 1187.991 489.511 C 1188.671 488.692, 1189.659 488.289, 1190.187 488.616 C 1190.715 488.942, 1190.554 488.259, 1189.829 487.097 C 1188.661 485.228, 1188.796 484.728, 1191.005 482.743 C 1193.749 480.276, 1198.035 473.242, 1196.044 474.473 C 1195.069 475.075, 1195.049 474.777, 1195.950 473.093 C 1196.583 471.911, 1197.523 471.205, 1198.039 471.524 C 1198.569 471.852, 1198.691 471.357, 1198.319 470.388 C 1197.891 469.273, 1198.046 468.910, 1198.761 469.352 C 1199.366 469.726, 1200.144 469.575, 1200.490 469.016 C 1200.835 468.457, 1200.673 468, 1200.129 468 C 1199.504 468, 1199.458 466.889, 1200.005 464.982 C 1200.481 463.321, 1200.930 461.634, 1201.001 461.232 C 1201.073 460.829, 1201.777 460.632, 1202.566 460.794 C 1204.223 461.133, 1204.505 459.430, 1202.951 458.470 C 1202.235 458.027, 1202.273 457.376, 1203.074 456.411 C 1203.718 455.635, 1203.852 454.986, 1203.372 454.970 C 1202.893 454.953, 1203.287 454.481, 1204.250 453.920 C 1206.223 452.771, 1206.689 450.532, 1204.750 451.517 C 1204.063 451.867, 1204.562 451.218, 1205.861 450.076 C 1207.322 448.791, 1207.703 447.988, 1206.861 447.968 C 1205.978 447.948, 1206.203 447.401, 1207.500 446.412 C 1208.600 445.574, 1209.358 444.195, 1209.184 443.346 C 1209.010 442.498, 1209.510 441.061, 1210.296 440.152 C 1211.082 439.243, 1211.996 437.061, 1212.327 435.303 C 1212.884 432.343, 1214.276 430.104, 1217.945 426.265 C 1218.739 425.434, 1219.346 423.234, 1219.294 421.377 C 1219.241 419.520, 1219.630 418, 1220.158 418 C 1220.686 418, 1220.862 417.586, 1220.550 417.081 C 1220.237 416.575, 1220.554 415.562, 1221.254 414.831 C 1222.589 413.434, 1226.367 407.858, 1226.560 407 C 1226.622 406.725, 1227.034 405.675, 1227.476 404.666 C 1228.107 403.223, 1228.458 403.116, 1229.124 404.166 C 1229.771 405.188, 1229.973 405.090, 1229.985 403.750 C 1229.998 402.187, 1231.819 401.443, 1234.419 401.938 C 1234.925 402.034, 1234.700 401.339, 1233.919 400.393 C 1232.627 398.827, 1232.687 398.772, 1234.583 399.782 C 1236.238 400.663, 1236.701 400.594, 1236.833 399.446 C 1236.925 398.651, 1237.075 397.325, 1237.167 396.500 C 1237.258 395.675, 1237.694 395, 1238.135 395 C 1238.576 395, 1238.686 394.345, 1238.379 393.544 C 1238.068 392.734, 1238.967 390.942, 1240.406 389.504 C 1241.828 388.082, 1243.676 385.593, 1244.514 383.974 C 1245.351 382.354, 1247.144 380.751, 1248.498 380.411 C 1250.553 379.895, 1250.792 379.480, 1249.945 377.897 C 1249.269 376.635, 1249.266 376, 1249.933 376 C 1250.486 376, 1250.661 375.280, 1250.323 374.399 C 1249.985 373.519, 1250.305 372.430, 1251.034 371.979 C 1251.763 371.529, 1252.480 370.337, 1252.628 369.331 C 1252.775 368.326, 1253.854 366.727, 1255.024 365.779 C 1256.195 364.831, 1256.867 363.593, 1256.517 363.028 C 1256.168 362.463, 1256.284 362, 1256.774 362 C 1257.265 362, 1257.732 361.438, 1257.812 360.750 C 1259.011 350.430, 1258.974 349.204, 1257.448 348.618 C 1256.582 348.286, 1256.143 347.577, 1256.473 347.044 C 1256.803 346.510, 1256.173 345.173, 1255.073 344.073 C 1253.931 342.931, 1252.813 342.493, 1252.467 343.053 C 1252.134 343.592, 1251.330 343.691, 1250.681 343.273 C 1248.840 342.089, 1244.866 342.277, 1243.532 343.611" stroke="none" fill="#f4f4f4" fill-rule="evenodd"/></svg>