<svg xmlns="http://www.w3.org/2000/svg" width="2048" height="2048" viewBox="0 0 2048 2048" version="1.1"><path d="" stroke="none" fill="#f4f4ec" fill-rule="evenodd"/><path d="M 652.079 888.750 C 652.036 889.438, 651.118 890, 650.039 890 C 648.961 890, 647.499 890.716, 646.789 891.592 C 646.080 892.468, 643.813 894.978, 641.750 897.171 C 638.109 901.043, 637.028 902.719, 638.931 901.543 C 640.433 900.614, 641.280 902.958, 640 904.500 C 639.355 905.277, 639.075 906.312, 639.376 906.800 C 640.176 908.094, 638.085 915, 636.894 915 C 636.337 915, 636.165 915.457, 636.510 916.016 C 636.856 916.575, 637.580 916.759, 638.120 916.426 C 638.661 916.092, 638.394 917.514, 637.528 919.586 C 636.392 922.306, 636.268 923.548, 637.084 924.052 C 637.915 924.566, 637.904 924.942, 637.039 925.476 C 636.392 925.876, 636.114 926.855, 636.420 927.653 C 636.727 928.451, 636.579 928.858, 636.093 928.558 C 635.226 928.021, 634 930.156, 634 932.204 C 634 932.914, 634.408 932.907, 635.280 932.182 C 637.746 930.136, 636.465 935.789, 633.710 939.115 C 632.257 940.868, 631.380 942.797, 631.761 943.401 C 632.180 944.066, 632.614 943.711, 632.861 942.500 L 633.270 940.500 634.002 942.500 C 634.537 943.961, 634.164 944.856, 632.617 945.819 C 631.430 946.559, 631.222 946.920, 632.145 946.641 C 633.532 946.221, 633.709 946.753, 633.270 950.024 C 632.984 952.158, 633.099 954.714, 633.526 955.702 C 634.984 959.080, 634.744 964.064, 633.062 965.305 C 631.320 966.591, 631.097 967.819, 632.272 969.665 C 632.679 970.305, 632.447 971.057, 631.756 971.336 C 630.783 971.728, 630.794 971.860, 631.809 971.921 C 632.529 971.964, 632.828 972.470, 632.473 973.044 C 632.118 973.618, 632.355 974.723, 633 975.500 C 633.645 976.277, 633.870 977.402, 633.500 978 C 633.130 978.598, 633.372 979.743, 634.036 980.544 C 635.013 981.721, 634.922 982, 633.563 982 C 632.639 982, 632.160 982.450, 632.500 983 C 632.840 983.550, 632.641 984, 632.059 984 C 630.677 984, 630.684 987.687, 632.068 988.542 C 632.656 988.905, 632.886 989.855, 632.580 990.653 C 632.273 991.451, 632.421 991.858, 632.907 991.558 C 633.393 991.257, 634.057 991.707, 634.384 992.558 C 634.710 993.408, 634.598 993.870, 634.135 993.583 C 632.861 992.796, 631.056 997.473, 632.027 999.044 C 633.013 1000.639, 632.274 1002.287, 630.942 1001.464 C 630.434 1001.150, 630.317 1001.663, 630.681 1002.612 C 631.179 1003.910, 630.994 1004.119, 629.920 1003.472 C 628.759 1002.772, 628.724 1002.893, 629.726 1004.132 C 630.694 1005.329, 630.694 1005.926, 629.726 1006.970 C 628.756 1008.017, 628.761 1008.146, 629.750 1007.588 C 630.438 1007.200, 631.038 1007.246, 631.083 1007.691 C 631.129 1008.136, 631.280 1009.532, 631.419 1010.792 C 631.558 1012.053, 631.226 1013.360, 630.681 1013.697 C 630.137 1014.034, 629.971 1013.856, 630.313 1013.302 C 630.656 1012.748, 630.364 1011.513, 629.665 1010.557 C 628.464 1008.913, 628.316 1008.919, 626.947 1010.660 C 625.592 1012.383, 625.623 1012.404, 627.437 1011 C 629.175 1009.655, 629.313 1009.664, 628.780 1011.091 C 628.453 1011.966, 628.568 1013.300, 629.035 1014.057 C 629.523 1014.846, 629.463 1015.942, 628.894 1016.627 C 628.226 1017.433, 628.295 1018.064, 629.106 1018.565 C 629.779 1018.981, 630.049 1018.888, 629.719 1018.355 C 629.395 1017.830, 630.047 1016.827, 631.169 1016.126 C 632.838 1015.084, 633.062 1015.090, 632.402 1016.159 C 631.220 1018.071, 631.177 1021.009, 632.340 1020.290 C 632.946 1019.915, 633.072 1020.370, 632.660 1021.443 C 631.431 1024.645, 630.845 1032.661, 631.961 1031 C 632.785 1029.774, 632.972 1029.911, 632.985 1031.750 C 632.993 1032.987, 632.663 1034.001, 632.250 1034.003 C 631.837 1034.004, 631.453 1035.800, 631.397 1037.993 C 631.305 1041.531, 631.446 1041.785, 632.649 1040.241 C 633.936 1038.588, 633.974 1038.589, 633.395 1040.250 C 633.060 1041.213, 633.242 1042, 633.799 1042 C 634.357 1042, 634.577 1042.900, 634.290 1044 C 634.002 1045.100, 633.460 1046, 633.085 1046 C 632.710 1046, 632.425 1047.688, 632.452 1049.750 C 632.491 1052.778, 632.150 1053.471, 630.683 1053.350 C 629.684 1053.268, 629.118 1053.451, 629.425 1053.758 C 629.732 1054.065, 629.424 1055.006, 628.741 1055.850 C 627.724 1057.108, 627.754 1057.231, 628.908 1056.536 C 629.996 1055.880, 630.186 1056.179, 629.748 1057.857 C 629.364 1059.325, 629.755 1060.334, 630.959 1060.978 C 631.937 1061.501, 632.999 1061.667, 633.320 1061.347 C 634.173 1060.493, 635.314 1065.740, 634.650 1067.469 C 634.339 1068.279, 634.741 1069.598, 635.542 1070.400 C 637.527 1072.384, 637.373 1073.750, 635 1075.232 C 632.505 1076.790, 632.309 1079.189, 634.750 1078.299 C 636.417 1077.691, 636.417 1077.756, 634.750 1079.659 C 633.788 1080.758, 633.007 1082.072, 633.015 1082.579 C 633.024 1083.085, 633.475 1082.825, 634.018 1082 C 634.802 1080.810, 634.942 1080.959, 634.695 1082.724 C 634.525 1083.948, 634.073 1085.260, 633.692 1085.641 C 632.207 1087.127, 633.078 1090.971, 635.152 1092.081 C 636.984 1093.062, 637.211 1092.993, 636.683 1091.616 C 636.342 1090.727, 636.451 1090, 636.924 1090 C 637.398 1090, 638.045 1090.675, 638.362 1091.500 C 638.678 1092.325, 638.466 1093, 637.889 1093 C 637.245 1093, 637.095 1094.156, 637.500 1096 C 637.915 1097.887, 637.759 1099, 637.079 1099 C 636.486 1099, 636 1100.125, 636 1101.500 C 636 1102.875, 636.450 1104, 637 1104 C 637.550 1104, 638 1104.675, 638 1105.500 C 638 1107.245, 636.845 1107.445, 635.358 1105.958 C 634.634 1105.234, 633.884 1105.446, 632.908 1106.650 C 631.995 1107.774, 631.939 1108.120, 632.750 1107.633 C 633.452 1107.211, 634 1107.372, 634 1108 C 634 1108.615, 634.526 1108.793, 635.170 1108.395 C 635.961 1107.906, 636.123 1108.210, 635.670 1109.336 C 635.301 1110.251, 634.727 1111.675, 634.393 1112.500 C 634.059 1113.325, 634.311 1114, 634.952 1114 C 635.593 1114, 635.840 1114.450, 635.500 1115 C 634.937 1115.911, 636.177 1116.361, 637.570 1115.750 C 637.884 1115.612, 638.595 1116.311, 639.149 1117.302 C 639.858 1118.568, 639.795 1119.541, 638.941 1120.571 C 637.965 1121.747, 638.093 1122.480, 639.585 1124.269 C 640.609 1125.496, 640.873 1126.004, 640.172 1125.399 C 639.471 1124.793, 637.785 1124.510, 636.426 1124.769 C 634.323 1125.171, 634.145 1125.475, 635.228 1126.813 C 636.281 1128.113, 636.258 1128.238, 635.095 1127.537 C 634.142 1126.963, 633.920 1127.062, 634.405 1127.845 C 635.473 1129.574, 636.989 1129.237, 637.079 1127.250 C 637.127 1126.194, 637.359 1125.998, 637.664 1126.756 C 637.943 1127.447, 638.540 1127.784, 638.992 1127.505 C 639.444 1127.226, 639.298 1128.089, 638.668 1129.423 C 637.903 1131.046, 637.277 1131.460, 636.777 1130.674 C 636.367 1130.028, 636.024 1129.915, 636.015 1130.421 C 636.007 1130.928, 636.768 1132.191, 637.707 1133.228 C 639.345 1135.038, 639.301 1135.094, 636.627 1134.609 C 634.433 1134.211, 634.069 1134.378, 634.912 1135.394 C 635.501 1136.103, 635.649 1137.041, 635.241 1137.477 C 634.834 1137.914, 635.567 1137.715, 636.871 1137.036 C 638.399 1136.240, 639 1136.191, 638.562 1136.900 C 638.171 1137.532, 638.591 1138, 639.548 1138 C 640.660 1138, 641.011 1138.529, 640.604 1139.590 C 640.268 1140.465, 640.304 1141.683, 640.684 1142.298 C 641.740 1144.007, 641.972 1148, 641.015 1148 C 640.548 1148, 640.302 1149.688, 640.469 1151.750 C 640.635 1153.813, 640.260 1155.831, 639.636 1156.235 C 638.831 1156.755, 638.875 1156.974, 639.789 1156.985 C 640.842 1156.997, 640.842 1157.256, 639.789 1158.395 C 639.080 1159.162, 638.168 1159.589, 637.761 1159.343 C 637.355 1159.097, 637.280 1159.566, 637.594 1160.385 C 637.908 1161.204, 638.801 1161.630, 639.577 1161.332 C 640.353 1161.034, 640.697 1160.318, 640.340 1159.741 C 639.970 1159.142, 640.169 1158.986, 640.802 1159.378 C 642.028 1160.136, 641.310 1163, 639.893 1163 C 639.402 1163, 639 1163.675, 639 1164.500 C 639 1165.325, 639.450 1166, 640 1166 C 641.474 1166, 641.216 1168.576, 639.609 1169.910 C 638.844 1170.545, 638.028 1172.353, 637.797 1173.928 C 637.472 1176.142, 637.712 1176.664, 638.852 1176.226 C 639.929 1175.813, 640.088 1176.044, 639.442 1177.080 C 637.988 1179.411, 638.081 1181, 639.672 1181 C 640.494 1181, 640.965 1181.563, 640.718 1182.250 C 640.472 1182.938, 640.675 1184.287, 641.170 1185.250 C 641.830 1186.533, 641.676 1187, 640.594 1187 C 639.782 1187, 638.833 1187.461, 638.485 1188.025 C 638.136 1188.588, 638.222 1188.985, 638.676 1188.906 C 640.854 1188.528, 643.059 1189.096, 642.558 1189.906 C 642.250 1190.404, 641.028 1190.559, 639.843 1190.249 C 638.453 1189.885, 637.923 1190.066, 638.350 1190.757 C 638.714 1191.347, 638.479 1192.007, 637.826 1192.225 C 637.088 1192.471, 636.924 1193.352, 637.392 1194.560 C 638.103 1196.396, 638.212 1196.406, 639.440 1194.739 C 640.571 1193.202, 640.708 1193.484, 640.512 1196.959 C 640.388 1199.149, 640.672 1200.702, 641.144 1200.411 C 641.615 1200.120, 642 1200.359, 642 1200.941 C 642 1201.523, 641.438 1202.014, 640.750 1202.032 C 639.879 1202.054, 639.955 1202.433, 641 1203.282 C 641.825 1203.952, 642.546 1206.196, 642.602 1208.268 C 642.688 1211.429, 642.327 1212.131, 640.359 1212.625 C 639.069 1212.948, 638.250 1213.596, 638.539 1214.063 C 638.828 1214.530, 639.837 1214.665, 640.782 1214.362 C 642.192 1213.910, 642.240 1213.996, 641.048 1214.840 C 640.249 1215.405, 639.160 1215.599, 638.628 1215.270 C 638.061 1214.920, 637.938 1215.395, 638.330 1216.418 C 638.699 1217.378, 639 1218.338, 639 1218.550 C 639 1218.763, 639.675 1218.678, 640.500 1218.362 C 642.229 1217.698, 642.447 1219.296, 640.997 1222.005 C 640.323 1223.264, 640.329 1224.085, 641.014 1224.508 C 642.627 1225.505, 641.121 1226.982, 639.218 1226.269 C 637.663 1225.687, 637.643 1225.804, 639 1227.500 C 640.361 1229.200, 640.337 1229.313, 638.750 1228.719 C 637.788 1228.358, 637 1228.499, 637 1229.031 C 637 1229.564, 637.450 1230, 638 1230 C 638.550 1230, 639 1230.927, 639 1232.059 C 639 1233.191, 638.550 1233.840, 638 1233.500 C 637.450 1233.160, 637 1233.310, 637 1233.834 C 637 1234.358, 637.736 1235.069, 638.636 1235.414 C 640.115 1235.981, 640.091 1236.246, 638.386 1238.167 C 637.027 1239.699, 636.849 1240.414, 637.750 1240.729 C 638.438 1240.970, 639 1241.767, 639 1242.500 C 639 1243.233, 638.438 1244.060, 637.750 1244.338 C 636.750 1244.741, 636.750 1244.858, 637.750 1244.921 C 638.438 1244.964, 639 1245.477, 639 1246.059 C 639 1246.641, 638.479 1246.796, 637.842 1246.403 C 637.049 1245.912, 636.863 1246.366, 637.249 1247.845 C 637.560 1249.032, 637.453 1249.780, 637.012 1249.507 C 635.166 1248.366, 635.242 1252.056, 637.092 1253.352 C 638.877 1254.602, 638.933 1254.924, 637.597 1256.260 C 636.771 1257.086, 636.374 1258.040, 636.714 1258.381 C 637.055 1258.721, 636.487 1259, 635.452 1259 C 633.710 1259, 633.692 1259.121, 635.209 1260.637 C 636.452 1261.881, 636.589 1262.685, 635.777 1263.986 C 634.301 1266.349, 635.579 1271.099, 637.493 1270.364 C 638.730 1269.890, 638.793 1270.295, 637.885 1272.900 C 637.291 1274.605, 636.323 1276, 635.736 1276 C 635.148 1276, 634.963 1276.296, 635.325 1276.658 C 635.687 1277.020, 635.529 1277.863, 634.974 1278.531 C 633.855 1279.880, 634.744 1283.276, 636.012 1282.493 C 636.453 1282.220, 636.576 1282.905, 636.286 1284.014 C 635.996 1285.124, 635.293 1286.319, 634.725 1286.670 C 634.084 1287.066, 633.998 1286.812, 634.500 1286 C 634.968 1285.243, 634.914 1284.935, 634.373 1285.269 C 633.077 1286.071, 632.734 1292, 633.984 1292 C 634.543 1292, 635.007 1291.438, 635.015 1290.750 C 635.026 1289.917, 635.354 1290, 636 1291 C 636.533 1291.825, 636.969 1292.950, 636.969 1293.500 C 636.969 1294.050, 636.533 1293.825, 636 1293 C 635.172 1291.718, 635.028 1291.754, 635.015 1293.250 C 635.007 1294.213, 634.534 1295, 633.965 1295 C 633.268 1295, 633.284 1295.662, 634.015 1297.028 C 634.612 1298.143, 635.597 1298.749, 636.205 1298.373 C 636.941 1297.918, 637.020 1298.159, 636.441 1299.095 C 635.964 1299.867, 635.709 1301.787, 635.874 1303.362 C 636.070 1305.227, 635.795 1305.992, 635.087 1305.554 C 634.489 1305.184, 634 1305.359, 634 1305.941 C 634 1306.523, 634.477 1307, 635.059 1307 C 635.641 1307, 635.835 1307.457, 635.490 1308.016 C 635.144 1308.575, 634.443 1308.774, 633.931 1308.457 C 633.419 1308.141, 633 1308.359, 633 1308.941 C 633 1309.523, 633.450 1310, 634 1310 C 634.550 1310, 635 1310.498, 635 1311.107 C 635 1311.716, 634.344 1311.962, 633.543 1311.655 C 632.370 1311.205, 632.268 1311.574, 633.018 1313.548 C 633.575 1315.013, 633.583 1316, 633.037 1316 C 632.535 1316, 632.192 1316.900, 632.275 1318 C 632.358 1319.100, 632.828 1320, 633.320 1320 C 633.812 1320, 633.955 1319.325, 633.638 1318.500 C 633.322 1317.675, 633.499 1317, 634.031 1317 C 634.564 1317, 635 1318.405, 635 1320.122 C 635 1322.697, 635.248 1323.039, 636.411 1322.074 C 637.308 1321.329, 638.044 1321.262, 638.432 1321.890 C 638.768 1322.433, 638.427 1323.242, 637.675 1323.689 C 636.924 1324.135, 636.021 1325.985, 635.669 1327.800 C 635.192 1330.264, 635.343 1330.920, 636.265 1330.389 C 636.944 1329.999, 637.166 1330.048, 636.759 1330.498 C 636.351 1330.948, 636.576 1332.006, 637.259 1332.850 C 638.278 1334.110, 638.246 1334.231, 637.080 1333.528 C 636.025 1332.892, 635.819 1333.086, 636.279 1334.285 C 636.698 1335.377, 636.463 1335.731, 635.550 1335.381 C 634.809 1335.096, 633.898 1335.355, 633.527 1335.957 C 633.150 1336.567, 633.436 1336.928, 634.176 1336.775 C 635.734 1336.451, 636.036 1339.681, 634.701 1342.402 C 633.927 1343.979, 634.068 1344.188, 635.525 1343.629 C 637.002 1343.062, 637.082 1343.196, 636.028 1344.466 C 635.338 1345.298, 634.305 1345.688, 633.732 1345.334 C 633.122 1344.958, 632.991 1345.176, 633.415 1345.862 C 633.813 1346.506, 634.557 1346.774, 635.069 1346.457 C 636.752 1345.417, 636.040 1348.247, 634.250 1349.714 C 633.288 1350.503, 633.139 1350.816, 633.920 1350.410 C 634.969 1349.865, 635.168 1350.120, 634.681 1351.388 C 634.317 1352.337, 634.434 1352.850, 634.942 1352.536 C 636.435 1351.613, 637.197 1353.825, 636.493 1357.033 C 636.105 1358.797, 635.398 1359.746, 634.764 1359.354 C 634.070 1358.925, 633.988 1359.172, 634.533 1360.053 C 634.996 1360.802, 635.488 1362.481, 635.627 1363.783 C 635.766 1365.085, 636.461 1366.904, 637.173 1367.825 C 638.164 1369.109, 637.958 1369.068, 636.290 1367.647 C 634.143 1365.818, 634.118 1365.825, 634.370 1368.189 C 634.510 1369.507, 634.961 1371.128, 635.372 1371.792 C 635.848 1372.563, 635.464 1373.011, 634.309 1373.030 C 632.597 1373.059, 632.594 1373.115, 634.258 1374.085 C 635.225 1374.648, 636.462 1374.832, 637.008 1374.495 C 637.554 1374.158, 638 1374.584, 638 1375.441 C 638 1376.872, 636.793 1377.466, 634.656 1377.087 C 634.192 1377.005, 634.005 1377.514, 634.240 1378.219 C 634.474 1378.923, 635.304 1379.501, 636.083 1379.502 C 637.091 1379.503, 637.403 1380.473, 637.163 1382.865 C 636.939 1385.098, 637.190 1386, 637.913 1385.554 C 639.381 1384.647, 639.297 1386.303, 637.800 1387.800 C 636.867 1388.733, 636.871 1389, 637.819 1389 C 639.105 1389, 638.474 1393.539, 636.909 1395.546 C 636.460 1396.121, 636.170 1397.611, 636.264 1398.856 C 636.388 1400.499, 636.924 1400.992, 638.217 1400.653 C 639.329 1400.363, 640 1400.739, 640 1401.653 C 640 1402.535, 639.502 1402.837, 638.750 1402.412 C 637.750 1401.848, 637.750 1401.976, 638.750 1403.053 C 639.438 1403.794, 639.993 1405.098, 639.985 1405.950 C 639.971 1407.316, 639.854 1407.322, 639 1406 C 638.467 1405.175, 638.031 1404.950, 638.031 1405.500 C 638.031 1406.050, 638.474 1407.175, 639.015 1408 C 639.821 1409.228, 640.156 1409.258, 640.861 1408.166 C 641.569 1407.069, 641.819 1407.085, 642.268 1408.257 C 642.569 1409.040, 642.413 1410.316, 641.923 1411.091 C 640.788 1412.883, 640.733 1415.283, 641.842 1414.598 C 643.021 1413.869, 643.043 1423.241, 641.865 1424.661 C 641.234 1425.423, 641.316 1426.077, 642.106 1426.565 C 642.934 1427.077, 643.055 1426.871, 642.494 1425.905 C 642.012 1425.073, 642.051 1424.840, 642.590 1425.333 C 643.821 1426.461, 643.794 1428.339, 642.533 1429.235 C 641.868 1429.708, 641.946 1429.975, 642.750 1429.985 C 643.438 1429.993, 644 1430.702, 644 1431.559 C 644 1432.516, 644.483 1432.845, 645.250 1432.412 C 646.250 1431.848, 646.250 1431.976, 645.250 1433.053 C 643.894 1434.514, 643.532 1436.403, 644.750 1435.661 C 645.163 1435.410, 645.608 1437.041, 645.741 1439.287 C 645.873 1441.533, 646.548 1443.737, 647.241 1444.185 C 648.233 1444.827, 648.200 1445.193, 647.084 1445.911 C 645.947 1446.643, 646.328 1447.479, 649.020 1450.161 C 650.864 1451.998, 652.814 1453.362, 653.355 1453.194 C 653.896 1453.025, 653.801 1453.535, 653.144 1454.327 C 652.196 1455.468, 652.276 1455.892, 653.526 1456.372 C 654.563 1456.769, 654.858 1456.580, 654.388 1455.819 C 653.888 1455.010, 654.250 1454.892, 655.586 1455.427 C 656.639 1455.848, 657.950 1456.275, 658.500 1456.375 C 659.050 1456.475, 659.971 1456.851, 660.548 1457.212 C 661.124 1457.573, 662.208 1457.489, 662.957 1457.027 C 663.706 1456.564, 664.922 1456.417, 665.659 1456.700 C 666.397 1456.982, 667 1456.689, 667 1456.048 C 667 1455.407, 667.406 1455.133, 667.903 1455.440 C 668.399 1455.747, 669.276 1454.648, 669.851 1452.999 C 670.426 1451.349, 671.392 1450, 671.999 1450 C 672.606 1450, 673.747 1448.456, 674.536 1446.568 C 675.324 1444.681, 676.448 1442.841, 677.033 1442.479 C 677.772 1442.023, 677.739 1441.391, 676.926 1440.411 C 676.026 1439.326, 676.040 1439, 676.986 1439 C 677.788 1439, 678.006 1438.158, 677.610 1436.583 C 677.245 1435.128, 677.471 1434.010, 678.179 1433.774 C 678.938 1433.521, 679.036 1432.872, 678.455 1431.941 C 677.165 1429.873, 677.019 1428, 678.148 1428 C 678.681 1428, 678.840 1427.550, 678.500 1427 C 678.160 1426.450, 678.359 1426, 678.941 1426 C 679.523 1426, 679.947 1425.662, 679.882 1425.250 C 679.575 1423.307, 680.090 1421.937, 680.931 1422.457 C 681.443 1422.774, 682.124 1422.608, 682.445 1422.088 C 682.766 1421.569, 682.123 1420.856, 681.015 1420.505 C 678.552 1419.723, 678.431 1418.418, 680.704 1417.146 C 682.127 1416.349, 682.219 1415.776, 681.260 1413.672 C 680.342 1411.657, 680.401 1410.912, 681.556 1409.953 C 683.170 1408.614, 683.567 1405.532, 682 1406.500 C 680.576 1407.380, 680.760 1405.397, 682.250 1403.818 C 682.938 1403.089, 684.088 1401.742, 684.807 1400.825 C 685.960 1399.354, 685.843 1399.223, 683.807 1399.715 C 681.915 1400.172, 681.725 1400.032, 682.750 1398.936 C 683.438 1398.201, 684 1396.565, 684 1395.300 C 684 1394.035, 684.402 1393, 684.893 1393 C 685.384 1393, 686.054 1392.302, 686.382 1391.448 C 686.709 1390.594, 686.607 1390.125, 686.155 1390.404 C 685.703 1390.683, 685.333 1390.282, 685.333 1389.512 C 685.333 1388.741, 685.761 1388.199, 686.284 1388.306 C 686.807 1388.413, 687.372 1387.678, 687.540 1386.673 C 687.724 1385.572, 687.365 1385.030, 686.637 1385.309 C 685.952 1385.572, 685.429 1384.945, 685.429 1383.862 C 685.429 1382.810, 685.922 1382.140, 686.526 1382.372 C 687.221 1382.638, 687.468 1381.734, 687.200 1379.907 C 686.967 1378.319, 686.382 1377.264, 685.899 1377.562 C 685.417 1377.860, 685.291 1377.406, 685.618 1376.552 C 685.946 1375.698, 686.642 1375, 687.166 1375 C 687.690 1375, 687.859 1375.419, 687.543 1375.931 C 687.226 1376.443, 687.385 1377.120, 687.896 1377.436 C 689.003 1378.120, 688.802 1376.074, 687.567 1374.095 C 686.967 1373.134, 687.055 1372.916, 687.845 1373.405 C 688.560 1373.846, 689 1373.410, 689 1372.259 C 689 1371.237, 689.562 1369.794, 690.250 1369.053 C 691.270 1367.953, 691.179 1367.819, 689.750 1368.321 C 687.969 1368.948, 687.390 1367.943, 688.750 1366.583 C 689.163 1366.171, 689.539 1365.533, 689.586 1365.167 C 689.634 1364.800, 690.037 1363.667, 690.482 1362.649 C 691.010 1361.441, 690.829 1360.512, 689.960 1359.975 C 688.929 1359.338, 688.894 1358.832, 689.806 1357.734 C 690.453 1356.954, 690.663 1355.996, 690.272 1355.605 C 689.881 1355.214, 690.260 1355.162, 691.114 1355.490 C 692.092 1355.866, 692.667 1355.531, 692.667 1354.587 C 692.667 1353.763, 692.221 1353.364, 691.676 1353.700 C 691.085 1354.066, 690.907 1353.462, 691.236 1352.204 C 691.540 1351.045, 691.356 1349.952, 690.829 1349.776 C 690.301 1349.600, 690.825 1348.355, 691.993 1347.008 C 693.763 1344.968, 693.884 1344.387, 692.721 1343.529 C 690.734 1342.064, 691.001 1338.813, 693.155 1338.249 C 694.158 1337.987, 694.750 1337.405, 694.472 1336.955 C 694.195 1336.506, 694.425 1335.856, 694.984 1335.510 C 696.654 1334.478, 696.134 1331.999, 694.250 1332.015 C 692.743 1332.028, 692.708 1332.175, 694 1333.069 C 695.237 1333.926, 695.149 1334.052, 693.500 1333.789 C 691.969 1333.545, 691.541 1332.771, 691.673 1330.485 C 692.310 1319.479, 692.583 1317.256, 693.250 1317.662 C 694.526 1318.438, 694.079 1316.557, 692.426 1314.198 C 691.245 1312.511, 691.182 1312.019, 692.176 1312.225 C 692.908 1312.377, 693.439 1311.722, 693.363 1310.761 C 693.288 1309.804, 693.656 1309.287, 694.181 1309.612 C 694.706 1309.937, 694.897 1310.825, 694.605 1311.587 C 694.191 1312.667, 694.450 1312.735, 695.787 1311.898 C 697.670 1310.719, 698.453 1304.696, 696.605 1305.605 C 695.997 1305.904, 696.400 1305.405, 697.500 1304.497 C 698.837 1303.392, 699.003 1302.951, 698 1303.166 C 697.175 1303.342, 696.334 1303.039, 696.130 1302.493 C 695.927 1301.947, 695.375 1300.487, 694.905 1299.250 C 694.257 1297.547, 694.408 1297, 695.525 1297 C 696.336 1297, 697.007 1296.438, 697.015 1295.750 C 697.026 1294.900, 697.376 1294.980, 698.110 1296 C 699.007 1297.248, 699.089 1297.192, 698.594 1295.668 C 698.267 1294.661, 698 1293.423, 698 1292.918 C 698 1292.413, 697.494 1292.113, 696.875 1292.250 C 696.256 1292.388, 695.523 1291.875, 695.245 1291.111 C 694.894 1290.145, 695.161 1289.975, 696.120 1290.553 C 697.265 1291.242, 697.280 1291.112, 696.208 1289.789 C 695.238 1288.591, 695.212 1288.096, 696.102 1287.799 C 697.006 1287.498, 696.992 1286.854, 696.044 1285.082 C 695.252 1283.603, 695.200 1283.006, 695.900 1283.438 C 697.570 1284.470, 697.214 1281.751, 695.327 1279.057 C 694.407 1277.743, 694.177 1276.991, 694.816 1277.386 C 695.553 1277.842, 695.778 1277.585, 695.431 1276.681 C 695.131 1275.898, 695.561 1274.999, 696.388 1274.681 C 697.552 1274.235, 697.694 1273.421, 697.019 1271.066 C 696.136 1267.988, 697.070 1266.307, 699 1267.500 C 701.021 1268.749, 699.928 1266.190, 697.750 1264.576 C 696.513 1263.658, 696.133 1263.224, 696.908 1263.610 C 697.967 1264.139, 698.176 1263.780, 697.751 1262.157 C 697.441 1260.972, 697.664 1259.708, 698.245 1259.348 C 698.919 1258.932, 698.693 1258.248, 697.622 1257.466 C 696.283 1256.487, 696.220 1256.130, 697.310 1255.711 C 698.063 1255.422, 698.564 1254.131, 698.423 1252.843 C 698.282 1251.554, 698.129 1250.114, 698.083 1249.643 C 698.038 1249.172, 697.325 1249.045, 696.500 1249.362 C 694.837 1250, 694.595 1248.275, 695.625 1243.125 C 696.066 1240.918, 696.818 1240, 698.184 1240 C 699.273 1240, 699.836 1239.544, 699.473 1238.956 C 699.118 1238.382, 699.400 1237.223, 700.100 1236.380 C 701.128 1235.141, 701.128 1234.697, 700.100 1234.062 C 699.401 1233.630, 698.868 1232.989, 698.915 1232.638 C 698.962 1232.287, 698.944 1231.775, 698.875 1231.500 C 698.806 1231.225, 698.673 1229.987, 698.580 1228.750 C 698.486 1227.513, 697.949 1226.585, 697.386 1226.689 C 696.283 1226.894, 695.828 1221.455, 696.743 1219 C 697.831 1216.080, 697.809 1215, 696.662 1214.985 C 695.940 1214.975, 696.023 1214.638, 696.880 1214.095 C 698.258 1213.222, 698.100 1209.412, 696.534 1205.750 C 695.999 1204.499, 696.244 1204, 697.393 1204 C 698.277 1204, 699 1203.577, 699 1203.059 C 699 1201.630, 697.240 1200.847, 696.660 1202.019 C 696.380 1202.586, 696.275 1202.476, 696.429 1201.775 C 696.582 1201.074, 697.356 1200.611, 698.150 1200.747 C 699.139 1200.916, 699.664 1199.919, 699.822 1197.572 C 700.084 1193.683, 698.816 1192.312, 696.991 1194.511 C 695.553 1196.243, 694 1196.467, 694 1194.941 C 694 1194.359, 694.437 1194.152, 694.971 1194.482 C 695.505 1194.812, 696.221 1193.968, 696.562 1192.607 C 697.009 1190.827, 697.649 1190.307, 698.842 1190.754 C 700.281 1191.292, 700.320 1191.153, 699.137 1189.698 C 698.387 1188.776, 697.363 1188.276, 696.862 1188.585 C 695.608 1189.360, 696.230 1186.840, 697.679 1185.274 C 699.149 1183.684, 700.365 1183.600, 699.405 1185.155 C 698.952 1185.886, 699.131 1186.037, 699.894 1185.565 C 700.801 1185.005, 700.816 1184.483, 699.953 1183.443 C 699.323 1182.684, 698.446 1182.162, 698.004 1182.282 C 697.132 1182.518, 697 1182.078, 697 1178.941 C 697 1177.584, 697.426 1177.123, 698.250 1177.588 C 699.250 1178.152, 699.250 1178.024, 698.250 1176.947 C 697.563 1176.206, 697 1173.928, 697 1171.883 C 697 1169.839, 697.563 1167.940, 698.250 1167.662 C 698.997 1167.361, 698.795 1167.126, 697.750 1167.079 C 695.925 1166.997, 695.333 1164.530, 696.906 1163.558 C 697.404 1163.250, 697.565 1162.052, 697.263 1160.897 C 696.941 1159.666, 697.291 1158.430, 698.107 1157.913 C 699.189 1157.228, 699.208 1157.027, 698.191 1157.015 C 697.471 1157.007, 697.191 1156.500, 697.569 1155.888 C 697.947 1155.277, 697.743 1154.459, 697.116 1154.072 C 695.790 1153.252, 696.734 1147, 698.184 1147 C 698.698 1147, 698.797 1147.520, 698.405 1148.155 C 697.959 1148.876, 698.131 1149.037, 698.862 1148.585 C 700.698 1147.451, 699.012 1145.766, 696.637 1146.363 C 694.571 1146.883, 694.563 1146.853, 696.416 1145.469 C 698.463 1143.939, 699.300 1139.895, 697.776 1138.897 C 697.270 1138.565, 696.715 1137.004, 696.542 1135.428 C 696.228 1132.567, 696.230 1132.566, 697.951 1134.691 C 699.145 1136.165, 700.108 1136.545, 701.087 1135.925 C 702.311 1135.150, 701.769 1134.633, 699.930 1134.822 C 699.617 1134.854, 698.623 1133.632, 697.722 1132.107 C 696.373 1129.822, 696.333 1129.333, 697.498 1129.333 C 698.276 1129.333, 698.699 1129.677, 698.440 1130.098 C 698.180 1130.518, 698.380 1131.117, 698.884 1131.428 C 699.388 1131.740, 699.709 1130.674, 699.597 1129.060 C 699.485 1127.446, 699.755 1126.349, 700.197 1126.622 C 701.135 1127.202, 701.238 1123.489, 700.373 1120.261 C 700.043 1119.030, 699.366 1118.274, 698.870 1118.580 C 698.374 1118.887, 698.223 1119.552, 698.536 1120.058 C 698.848 1120.563, 698.406 1120.709, 697.552 1120.382 C 695.841 1119.725, 695.427 1118, 696.980 1118 C 697.520 1118, 697.793 1116.554, 697.587 1114.786 C 697.381 1113.018, 697.604 1110.543, 698.081 1109.286 C 698.743 1107.545, 698.599 1107, 697.475 1107 C 696.014 1107, 695.571 1105.367, 695.983 1101.500 C 696.250 1098.987, 696.907 1098.276, 697.804 1099.529 C 698.866 1101.011, 701.002 1101.159, 700.985 1099.750 C 700.962 1097.923, 699.754 1096.448, 697.637 1095.665 C 696.176 1095.125, 696.024 1094.676, 696.929 1093.585 C 697.753 1092.592, 697.769 1092.090, 696.985 1091.828 C 696.377 1091.626, 696.187 1090.677, 696.560 1089.705 C 697.090 1088.323, 697.533 1088.197, 698.641 1089.117 C 699.415 1089.759, 700.337 1089.996, 700.691 1089.643 C 701.044 1089.289, 700.753 1089, 700.044 1089 C 699.025 1089, 699.042 1088.646, 700.128 1087.308 C 701.296 1085.867, 701.292 1085.742, 700.095 1086.463 C 699.049 1087.094, 698.915 1086.951, 699.571 1085.905 C 700.787 1083.962, 700.125 1080.842, 698.151 1079.214 C 697.243 1078.465, 697.096 1078.157, 697.824 1078.530 C 698.922 1079.094, 698.922 1078.808, 697.824 1076.855 C 697.096 1075.560, 696.050 1074.169, 695.500 1073.765 C 694.940 1073.354, 695.296 1073.024, 696.309 1073.015 C 697.330 1073.007, 697.832 1072.537, 697.461 1071.937 C 697.100 1071.352, 697.567 1070.031, 698.500 1069 C 700.244 1067.073, 699.803 1064.939, 697.691 1065.079 C 696.832 1065.136, 696.849 1065.299, 697.750 1065.662 C 699.457 1066.351, 699.332 1068, 697.573 1068 C 696.789 1068, 695.981 1067.213, 695.778 1066.250 C 695.196 1063.493, 697.204 1057.864, 698.581 1058.393 C 699.253 1058.651, 700.028 1058.001, 700.303 1056.948 C 700.726 1055.333, 700.507 1055.193, 698.902 1056.053 C 697.856 1056.612, 696.944 1056.830, 696.875 1056.535 C 696.435 1054.649, 696.220 1053.971, 695.995 1053.750 C 695.855 1053.612, 695.671 1052.237, 695.586 1050.692 C 695.501 1049.148, 694.772 1047.418, 693.966 1046.848 C 692.760 1045.995, 692.811 1045.911, 694.250 1046.374 C 695.335 1046.723, 696 1046.420, 696 1045.576 C 696 1044.827, 695.212 1043.909, 694.250 1043.536 C 692.715 1042.940, 692.684 1042.713, 694 1041.679 C 694.951 1040.931, 695.460 1038.945, 695.392 1036.250 C 695.333 1033.912, 695.670 1032, 696.142 1032 C 696.614 1032, 696.964 1031.213, 696.921 1030.250 C 696.874 1029.205, 696.639 1029.003, 696.338 1029.750 C 696.060 1030.438, 695.394 1031, 694.858 1031 C 694.321 1031, 694.160 1030.550, 694.500 1030 C 694.840 1029.450, 694.694 1029, 694.176 1029 C 693.657 1029, 692.998 1028.100, 692.710 1027 C 692.423 1025.900, 692.499 1025, 692.881 1025 C 693.262 1025, 693.643 1024.090, 693.727 1022.978 C 693.810 1021.866, 693.461 1021.215, 692.951 1021.530 C 692.441 1021.846, 692.291 1021.406, 692.618 1020.552 C 692.946 1019.698, 694.178 1018.971, 695.357 1018.937 C 697.327 1018.878, 697.299 1018.795, 695 1017.899 C 691.923 1016.699, 689.966 1014.253, 690.651 1012.466 C 690.934 1011.729, 691.916 1011.365, 692.833 1011.657 C 694.105 1012.063, 694.184 1011.962, 693.165 1011.233 C 692.430 1010.707, 691.868 1009.989, 691.915 1009.638 C 692.167 1007.754, 691.914 1006.935, 691.214 1007.368 C 690.782 1007.635, 690.429 1007.054, 690.429 1006.076 C 690.429 1004.812, 691.016 1004.426, 692.464 1004.736 C 693.659 1004.993, 694.073 1004.828, 693.467 1004.337 C 692.898 1003.877, 692.479 1002.825, 692.536 1002 C 692.592 1001.175, 692.317 999.854, 691.925 999.064 C 691.079 997.359, 692.917 992.830, 694.146 993.590 C 694.616 993.881, 695 993.641, 695 993.059 C 695 992.477, 694.502 992, 693.893 992 C 693.284 992, 693.016 991.400, 693.298 990.667 C 693.788 989.388, 693.348 989.189, 689.106 988.762 C 687.643 988.615, 687.384 988.108, 687.968 986.536 C 688.384 985.416, 688.600 983.710, 688.450 982.745 C 688.299 981.780, 688.555 981.225, 689.019 981.512 C 689.482 981.798, 690.125 981.606, 690.447 981.085 C 690.769 980.564, 690.595 979.868, 690.060 979.537 C 689.525 979.206, 689.341 978.275, 689.651 977.468 C 690.002 976.553, 689.609 976, 688.607 976 C 687.723 976, 687 975.534, 687 974.965 C 687 974.263, 687.644 974.274, 689 975 C 690.356 975.726, 691 975.737, 691 975.035 C 691 974.466, 690.602 974, 690.117 974 C 688.722 974, 688.116 970.284, 689.316 969.084 C 690.095 968.305, 690.046 968, 689.141 968 C 688.449 968, 688.160 967.550, 688.500 967 C 688.840 966.450, 688.681 966, 688.148 966 C 687.614 966, 687.304 965.212, 687.460 964.250 C 687.616 963.288, 687.329 961.978, 686.823 961.339 C 686.255 960.622, 686.287 959.940, 686.908 959.557 C 688.112 958.813, 687.213 956, 685.771 956 C 685.185 956, 685.282 956.635, 686 957.500 C 687.020 958.729, 686.951 959, 685.619 959 C 683.573 959, 683.794 953.053, 685.901 951.403 C 686.934 950.594, 686.995 950.115, 686.135 949.584 C 685.493 949.187, 685.223 948.448, 685.536 947.942 C 685.848 947.437, 685.440 947.278, 684.629 947.589 C 683.610 947.980, 683.249 947.590, 683.460 946.327 C 683.628 945.322, 684.381 944.650, 685.133 944.833 C 685.885 945.017, 686.166 944.833, 685.759 944.425 C 685.351 944.018, 685.390 943.193, 685.846 942.592 C 686.304 941.988, 686.135 940.470, 685.466 939.192 C 684.502 937.350, 684.140 937.194, 683.671 938.416 C 683.334 939.294, 683.812 940.372, 684.792 940.943 C 685.731 941.491, 686.028 941.953, 685.450 941.970 C 683.686 942.021, 682.122 939.846, 682.748 938.214 C 683.104 937.287, 682.923 936.929, 682.295 937.318 C 681.689 937.692, 681.241 937.025, 681.228 935.732 C 681.192 932.152, 676.714 923.159, 674.706 922.633 C 672.990 922.185, 672.973 921.954, 674.435 919.126 C 676.350 915.422, 676.515 912.560, 674.750 913.663 C 672.148 915.289, 670.899 914.895, 671.594 912.668 C 671.965 911.475, 672.771 910.120, 673.385 909.656 C 674.055 909.148, 673.757 909.053, 672.639 909.417 C 671.080 909.924, 670.876 909.632, 671.382 907.616 C 671.805 905.930, 671.504 905.024, 670.379 904.592 C 669.362 904.202, 668.964 903.246, 669.294 901.985 C 669.614 900.761, 669.177 899.623, 668.157 899.028 C 667.246 898.496, 666.950 898.040, 667.500 898.015 C 668.050 897.990, 667.915 897.598, 667.200 897.145 C 666.485 896.691, 665.827 895.348, 665.737 894.160 C 665.578 892.045, 664 891.010, 664 893.020 C 664 893.582, 662.218 893.132, 660.040 892.020 C 657.862 890.909, 655.424 890, 654.623 890 C 653.822 890, 652.940 889.438, 652.662 888.750 C 652.259 887.750, 652.142 887.750, 652.079 888.750" stroke="none" fill="#f4f4f4" fill-rule="evenodd"/></svg>