<svg xmlns="http://www.w3.org/2000/svg" width="2048" height="2048" viewBox="0 0 2048 2048" version="1.1"><path d="M 1075.750 716.801 C 1074.237 718.297, 1073 720.042, 1073 720.677 C 1073 721.313, 1072.461 722.013, 1071.802 722.233 C 1070.887 722.538, 1070.916 723.382, 1071.924 725.816 C 1073.083 728.615, 1074.203 729.575, 1075.346 728.750 C 1075.537 728.612, 1076.358 729.052, 1077.171 729.727 C 1079.284 731.481, 1089.052 722.916, 1088.285 719.982 C 1088 718.892, 1087.369 718, 1086.883 718 C 1086.398 718, 1086.053 717.663, 1086.118 717.250 C 1086.471 715.019, 1085.646 714.376, 1082.250 714.236 C 1079.382 714.117, 1077.853 714.721, 1075.750 716.801" stroke="none" fill="#edece4" fill-rule="evenodd"/><path d="M 1080.032 699.750 C 1080.014 700.438, 1079.185 701, 1078.188 701 C 1077.191 701, 1075.369 702.363, 1074.138 704.028 C 1072.906 705.693, 1071.472 706.792, 1070.950 706.469 C 1070.427 706.146, 1070 706.561, 1070 707.391 C 1070 708.221, 1069.213 709.359, 1068.250 709.920 C 1067.086 710.598, 1066.955 710.949, 1067.858 710.970 C 1068.837 710.991, 1069.025 711.766, 1068.529 713.740 C 1067.781 716.720, 1066.147 718.209, 1064.643 717.280 C 1064.119 716.956, 1063.993 717.179, 1064.362 717.776 C 1064.731 718.373, 1064.575 719.144, 1064.016 719.490 C 1063.457 719.835, 1062.959 719.529, 1062.910 718.809 C 1062.860 718.089, 1062.385 719.009, 1061.855 720.852 C 1061.074 723.565, 1060.497 724.102, 1058.830 723.666 C 1055.760 722.863, 1053.247 724.840, 1053.782 727.638 C 1054.066 729.128, 1053.760 730, 1052.950 730 C 1052.244 730, 1051.971 730.304, 1052.342 730.676 C 1052.714 731.048, 1052.002 732.470, 1050.759 733.837 C 1049.517 735.204, 1049.175 735.992, 1050 735.587 C 1050.902 735.145, 1050.803 735.423, 1049.750 736.286 C 1047.926 737.781, 1047.250 741.582, 1049 740.500 C 1050.284 739.707, 1050.271 740.625, 1048.965 743.066 C 1048.395 744.130, 1047.154 745, 1046.205 745 C 1045.257 745, 1043.930 745.882, 1043.257 746.960 C 1042.238 748.591, 1042.323 749.088, 1043.767 749.929 C 1044.720 750.485, 1044.986 750.953, 1044.357 750.970 C 1043.728 750.986, 1042.946 751.698, 1042.618 752.552 C 1042.214 753.606, 1042.420 753.865, 1043.261 753.360 C 1044.082 752.867, 1044.036 753.188, 1043.128 754.308 C 1042.373 755.239, 1040.957 756, 1039.981 756 C 1038.617 756, 1038.242 756.750, 1038.354 759.250 C 1038.449 761.375, 1038.067 762.413, 1037.250 762.250 C 1036.563 762.112, 1035.944 762.675, 1035.875 763.500 C 1035.806 764.325, 1035.694 765.422, 1035.625 765.938 C 1035.556 766.453, 1033.956 768.253, 1032.070 769.938 C 1030.183 771.622, 1029.126 773, 1029.721 773 C 1030.316 773, 1029.520 774.373, 1027.952 776.051 C 1026.385 777.729, 1024.824 779.979, 1024.484 781.051 C 1024.144 782.123, 1023.466 783, 1022.978 783 C 1021.653 783, 1017.738 787.311, 1015.742 790.970 C 1014.774 792.742, 1013.191 794.399, 1012.222 794.652 C 1009.879 795.265, 1005.624 801.579, 1006.325 803.404 C 1006.652 804.257, 1005.867 805.513, 1004.408 806.468 C 1003.018 807.379, 1002.241 808.581, 1002.632 809.214 C 1003.085 809.946, 1002.758 810.121, 1001.696 809.714 C 1000.798 809.369, 999.755 809.587, 999.378 810.198 C 998.962 810.871, 999.146 811.028, 999.845 810.595 C 1002.151 809.170, 1000.982 814.029, 998.500 816.187 C 996.772 817.689, 996 819.386, 996 821.680 C 996 823.803, 995.549 824.910, 994.750 824.750 C 994.063 824.612, 993.612 825.063, 993.750 825.750 C 993.887 826.438, 993.550 827, 993 827 C 992.450 827, 992 827.900, 992 829 C 992 830.100, 991.663 830.947, 991.250 830.882 C 989.562 830.615, 988.007 831.046, 988.118 831.750 C 988.435 833.756, 987.822 834.588, 985.920 834.731 C 983.580 834.907, 981 836.742, 981 838.229 C 981 838.771, 981.675 838.955, 982.500 838.638 C 985.025 837.669, 984.168 839.744, 981.157 841.888 C 978.916 843.484, 978.037 843.657, 977.010 842.707 C 975.975 841.749, 975.874 841.793, 976.517 842.920 C 977.108 843.955, 976.904 844.177, 975.762 843.739 C 973.363 842.818, 972.773 844.153, 974.916 845.653 C 976.532 846.786, 976.644 847.364, 975.659 849.493 C 975.022 850.872, 974.027 851.824, 973.450 851.608 C 972.872 851.393, 971.297 851.826, 969.950 852.573 C 968.602 853.319, 968.089 853.945, 968.809 853.965 C 969.529 853.984, 969.824 854.476, 969.465 855.057 C 969.105 855.639, 968.685 857.265, 968.531 858.671 C 968.376 860.077, 967.705 861.564, 967.040 861.976 C 966.374 862.387, 965.801 863.123, 965.767 863.612 C 965.651 865.259, 963.528 868, 962.366 868 C 961.733 868, 960.931 868.739, 960.584 869.641 C 960.063 870.999, 960.212 871.069, 961.443 870.047 C 962.263 869.367, 963.414 868.971, 964.002 869.167 C 964.590 869.363, 963.192 871.478, 960.897 873.867 C 957.629 877.268, 957.024 878.402, 958.112 879.090 C 959.137 879.740, 959.169 879.973, 958.231 879.985 C 957.376 879.995, 957.168 880.821, 957.593 882.513 C 957.954 883.954, 957.697 885.660, 956.989 886.513 C 956.310 887.331, 956.148 888.014, 956.628 888.030 C 957.107 888.047, 956.729 888.510, 955.786 889.060 C 954.470 889.827, 954.279 890.604, 954.964 892.407 C 955.589 894.050, 955.503 894.744, 954.678 894.719 C 950.918 894.609, 950.468 895.059, 950.644 898.750 C 950.742 900.813, 950.402 903.009, 949.887 903.632 C 949.373 904.254, 949.150 906.363, 949.393 908.318 C 949.736 911.088, 949.521 911.753, 948.417 911.330 C 947.462 910.963, 947 911.495, 947 912.959 C 947 915.848, 945.140 919.205, 943.948 918.468 C 943.081 917.932, 940.877 922.090, 941.130 923.785 C 941.680 927.469, 940.813 930, 939 930 C 937.165 930, 936.618 931.119, 936.718 934.669 C 936.736 935.311, 935.982 935.689, 935.042 935.508 C 934.083 935.323, 933.333 935.797, 933.333 936.590 C 933.333 937.365, 933.708 938, 934.167 938 C 935.635 938, 935.053 941.401, 933.011 944.750 C 931.867 946.626, 930.206 948, 929.082 948 C 927.297 948, 925.654 950.585, 926.127 952.646 C 926.235 953.116, 925.797 954.775, 925.154 956.334 C 924.512 957.893, 924.203 959.520, 924.469 959.950 C 925.157 961.063, 921.513 964.141, 919.921 963.792 C 918.132 963.399, 918.019 965.978, 919.703 968.769 C 920.910 970.771, 920.861 971.124, 919.286 971.769 C 918.186 972.219, 917.446 973.653, 917.361 975.500 C 916.913 985.129, 914.693 991.613, 912.808 988.797 C 912.283 988.014, 912.204 988.689, 912.608 990.500 C 912.975 992.150, 913.656 993.986, 914.120 994.580 C 914.624 995.227, 913.994 996.975, 912.551 998.930 C 911.225 1000.728, 910.381 1002.830, 910.677 1003.600 C 911.175 1004.897, 909.851 1005.504, 907.528 1005.044 C 906.993 1004.939, 907.263 1005.673, 908.126 1006.676 C 910.778 1009.757, 911.090 1011.837, 909 1012.500 C 906.787 1013.202, 905.166 1017.222, 906.867 1017.789 C 908.365 1018.288, 908.334 1023, 906.833 1023 C 906.192 1023, 905.951 1023.284, 906.298 1023.631 C 906.645 1023.979, 906.400 1025.216, 905.752 1026.381 C 905.105 1027.547, 904.677 1028.857, 904.802 1029.292 C 904.926 1029.728, 903.559 1030.765, 901.764 1031.597 C 899.888 1032.467, 899.437 1032.919, 900.703 1032.661 C 902.800 1032.233, 902.880 1032.461, 902.358 1037.356 C 902.052 1040.223, 901.187 1042.854, 900.404 1043.300 C 899.632 1043.740, 899 1045.427, 899 1047.050 C 899 1048.672, 898.550 1050, 898 1050 C 897.450 1050, 897 1050.661, 897 1051.469 C 897 1052.316, 896.408 1052.710, 895.601 1052.400 C 894.832 1052.105, 893.862 1052.414, 893.447 1053.086 C 892.981 1053.839, 893.107 1054.052, 893.773 1053.640 C 894.369 1053.272, 895.144 1053.877, 895.495 1054.985 C 895.847 1056.093, 896.514 1057, 896.977 1057 C 898.058 1057, 894.390 1064.641, 892.853 1065.591 C 892.081 1066.068, 891.963 1065.869, 892.500 1065 C 893.046 1064.116, 892.919 1063.932, 892.108 1064.433 C 891.432 1064.851, 891.104 1066.424, 891.358 1068.036 C 891.614 1069.661, 891.310 1071.101, 890.655 1071.370 C 889.845 1071.701, 889.874 1071.866, 890.750 1071.921 C 891.438 1071.964, 892 1072.436, 892 1072.969 C 892 1073.501, 891.400 1073.707, 890.667 1073.426 C 889.921 1073.139, 889.333 1073.575, 889.333 1074.413 C 889.333 1075.237, 889.708 1075.680, 890.167 1075.397 C 890.625 1075.114, 891 1075.359, 891 1075.941 C 891 1076.523, 890.388 1077, 889.639 1077 C 888.430 1077, 887.133 1082.390, 886.687 1089.275 C 886.615 1090.379, 886.032 1090.843, 885.144 1090.502 C 883.991 1090.059, 883.952 1090.237, 884.941 1091.429 C 885.700 1092.344, 885.872 1093.777, 885.394 1095.202 C 884.219 1098.701, 884.107 1099.948, 884.922 1100.452 C 886.368 1101.346, 884.830 1106.999, 883.137 1107.015 C 882.004 1107.026, 881.869 1107.265, 882.697 1107.792 C 883.858 1108.529, 882.978 1111.265, 881.638 1111.085 C 879.166 1110.755, 878.615 1111.157, 880 1112.282 C 882.120 1114.003, 882.161 1119.814, 880.059 1120.481 C 878.418 1121.002, 877.900 1124.552, 879.177 1126.526 C 879.542 1127.090, 878.730 1128.620, 877.372 1129.927 C 875.590 1131.642, 875.206 1132.606, 875.993 1133.393 C 876.780 1134.180, 877.315 1134.108, 877.917 1133.135 C 878.595 1132.038, 878.899 1132.028, 879.552 1133.084 C 880.023 1133.846, 879.865 1134.545, 879.171 1134.776 C 878.520 1134.993, 878.244 1135.586, 878.558 1136.094 C 878.872 1136.602, 878.837 1137.938, 878.480 1139.062 C 877.927 1140.807, 877.589 1140.915, 876.166 1139.803 C 874.741 1138.688, 874.657 1138.717, 875.589 1140 C 876.188 1140.825, 876.562 1142.850, 876.420 1144.500 C 876.278 1146.150, 876.126 1148.093, 876.081 1148.817 C 876.029 1149.669, 875.295 1149.911, 874.006 1149.502 C 872.476 1149.016, 872.152 1149.233, 872.613 1150.435 C 872.944 1151.296, 873.520 1152, 873.894 1152 C 874.268 1152, 874.677 1153.350, 874.803 1155 C 874.929 1156.650, 874.559 1158, 873.981 1158 C 873.272 1158, 873.300 1158.691, 874.065 1160.121 C 874.862 1161.611, 874.873 1162.039, 874.100 1161.562 C 873.432 1161.149, 873 1161.715, 873 1163 C 873 1164.267, 873.436 1164.849, 874.084 1164.448 C 874.776 1164.020, 875.039 1164.631, 874.810 1166.139 C 874.614 1167.438, 873.971 1168.411, 873.383 1168.302 C 872.796 1168.194, 872.390 1169.319, 872.481 1170.802 C 872.595 1172.632, 873.177 1173.457, 874.289 1173.367 C 875.536 1173.266, 875.900 1174.047, 875.803 1176.617 C 875.724 1178.712, 875.167 1180, 874.338 1180 C 873.602 1180, 873 1180.527, 873 1181.171 C 873 1181.815, 872.343 1183.069, 871.539 1183.956 C 870.234 1185.399, 870.346 1185.592, 872.594 1185.778 C 874.352 1185.924, 874.894 1185.612, 874.395 1184.743 C 874.001 1184.060, 874.052 1183.838, 874.506 1184.250 C 875.595 1185.238, 875.774 1193, 874.708 1193 C 874.254 1193, 874.163 1193.454, 874.506 1194.009 C 875.589 1195.762, 873.950 1199.195, 872.326 1198.572 C 871.397 1198.215, 871.006 1198.471, 871.291 1199.249 C 871.544 1199.937, 872.243 1200.392, 872.847 1200.259 C 873.574 1200.100, 873.665 1200.773, 873.115 1202.259 C 872.240 1204.629, 872.701 1207.108, 874.201 1208.091 C 874.712 1208.425, 874.544 1209.908, 873.813 1211.511 C 872.791 1213.755, 872.781 1214.427, 873.768 1214.756 C 874.452 1214.984, 874.758 1215.582, 874.447 1216.085 C 874.136 1216.588, 874.302 1217, 874.816 1217 C 875.330 1217, 875.640 1218.882, 875.506 1221.182 C 875.339 1224.046, 875.814 1225.957, 877.011 1227.242 C 878.817 1229.180, 879.112 1233.473, 877.603 1235.862 C 877.100 1236.659, 877.156 1237.488, 877.737 1237.862 C 879.242 1238.829, 880.322 1243, 879.067 1243 C 878.480 1243, 878 1243.900, 878 1245 C 878 1246.100, 878.404 1247, 878.897 1247 C 879.391 1247, 879.723 1248.520, 879.636 1250.377 C 879.533 1252.570, 879.882 1253.599, 880.632 1253.311 C 881.268 1253.067, 882.459 1254.214, 883.280 1255.859 C 884.637 1258.580, 884.624 1258.803, 883.136 1258.332 C 882.214 1258.040, 882.592 1258.718, 884 1259.885 C 885.375 1261.024, 886.130 1261.966, 885.679 1261.978 C 885.227 1261.990, 885.568 1262.711, 886.438 1263.581 C 887.307 1264.450, 887.794 1265.524, 887.520 1265.967 C 887.246 1266.411, 887.665 1267.307, 888.452 1267.960 C 889.238 1268.612, 889.662 1269.716, 889.395 1270.413 C 889.128 1271.110, 889.595 1272.249, 890.433 1272.945 C 891.512 1273.840, 891.685 1274.720, 891.027 1275.950 C 889.974 1277.917, 892.474 1282.443, 894.068 1281.458 C 894.581 1281.141, 895 1281.385, 895 1282 C 895 1282.628, 895.548 1282.789, 896.250 1282.367 C 896.979 1281.929, 896.874 1282.402, 896 1283.500 C 895.126 1284.598, 895.021 1285.071, 895.750 1284.633 C 896.537 1284.160, 897 1284.460, 897 1285.441 C 897 1286.298, 897.702 1287, 898.559 1287 C 899.416 1287, 899.840 1287.450, 899.500 1288 C 899.160 1288.550, 899.809 1289, 900.941 1289 C 902.073 1289, 903 1289.450, 903 1290 C 903 1292.126, 903.186 1292.525, 904.529 1293.276 C 905.316 1293.717, 905.645 1294.762, 905.289 1295.690 C 904.844 1296.850, 905.033 1297.097, 905.937 1296.539 C 906.870 1295.962, 907.044 1296.285, 906.584 1297.735 C 906.187 1298.987, 906.682 1300.605, 907.925 1302.111 L 909.896 1304.500 909.379 1302 C 908.941 1299.878, 909.030 1299.761, 909.969 1301.229 C 910.578 1302.180, 910.948 1303.080, 910.792 1303.229 C 910.636 1303.378, 911.505 1304.901, 912.724 1306.613 C 913.943 1308.325, 914.654 1310.012, 914.304 1310.363 C 913.953 1310.713, 914.244 1311, 914.950 1311 C 915.708 1311, 916.034 1311.760, 915.747 1312.858 C 915.118 1315.263, 916.691 1318.056, 918.321 1317.430 C 919.609 1316.936, 924.661 1321.888, 924.241 1323.232 C 924.115 1323.635, 925.102 1324.238, 926.434 1324.573 C 927.765 1324.907, 929.103 1325.826, 929.406 1326.615 C 929.771 1327.566, 930.760 1327.847, 932.343 1327.450 C 934.035 1327.025, 934.916 1327.339, 935.373 1328.529 C 935.734 1329.471, 936.648 1329.965, 937.456 1329.655 C 938.248 1329.351, 940.832 1330.114, 943.198 1331.349 C 945.564 1332.584, 948.288 1333.428, 949.250 1333.224 C 950.212 1333.020, 951 1333.336, 951 1333.927 C 951 1334.517, 951.927 1335, 953.059 1335 C 954.191 1335, 954.840 1334.550, 954.500 1334 C 954.160 1333.450, 954.720 1333, 955.745 1333 C 958.937 1333, 967.658 1322.053, 965.136 1321.212 C 964.511 1321.004, 964 1319.719, 964 1318.358 C 964 1316.949, 964.434 1316.150, 965.008 1316.505 C 965.565 1316.849, 965.471 1315.932, 964.795 1314.450 C 964.125 1312.978, 963.396 1312.311, 963.177 1312.969 C 962.710 1314.370, 959 1308.631, 959 1306.507 C 959 1305.713, 958.437 1305.279, 957.749 1305.543 C 955.577 1306.376, 952.750 1298.190, 952.956 1291.662 C 953.020 1289.611, 952.484 1288.678, 951.023 1288.296 C 949.644 1287.935, 948.995 1286.928, 948.985 1285.133 C 948.973 1283.038, 948.764 1282.806, 947.963 1284 C 946.904 1285.578, 946.995 1284.583, 948.588 1277.092 C 949.257 1273.949, 949.146 1273.729, 947.157 1274.249 C 945.389 1274.711, 945 1274.379, 945 1272.406 C 945 1270.279, 944.075 1269.540, 941.814 1269.860 C 941.436 1269.914, 941.192 1269.098, 941.271 1268.048 C 941.350 1266.998, 941.772 1266.359, 942.208 1266.628 C 942.643 1266.898, 943 1266.454, 943 1265.642 C 943 1264.831, 942.525 1264.008, 941.946 1263.815 C 940.977 1263.492, 940.268 1261.382, 940.077 1258.250 C 940.034 1257.563, 939.325 1257, 938.500 1257 C 937.675 1257, 937.053 1256.662, 937.118 1256.250 C 937.184 1255.838, 937.177 1254.825, 937.103 1254 C 936.984 1252.667, 936.862 1252.667, 936 1254 C 935.165 1255.293, 935.029 1255.266, 935.015 1253.809 C 935.007 1252.879, 935.408 1251.866, 935.906 1251.558 C 937.211 1250.752, 936.013 1247, 934.451 1247 C 932.281 1247, 931.518 1241.207, 933.307 1238.312 C 933.712 1237.658, 932.955 1236.323, 931.555 1235.222 C 928.763 1233.026, 927.403 1227.998, 929.278 1226.807 C 930.215 1226.211, 930.195 1226.027, 929.191 1226.015 C 928.471 1226.007, 928.160 1225.550, 928.500 1225 C 928.840 1224.450, 928.641 1224, 928.059 1224 C 927.477 1224, 927 1223.523, 927 1222.941 C 927 1222.359, 927.487 1222.183, 928.083 1222.551 C 928.678 1222.919, 928.420 1221.780, 927.510 1220.020 C 926.553 1218.169, 926.166 1216.119, 926.591 1215.160 C 927.280 1213.607, 927.571 1212.103, 927.875 1208.531 C 927.949 1207.657, 928.607 1207.296, 929.500 1207.638 C 930.422 1207.992, 931 1207.636, 931 1206.714 C 931 1205.889, 930.296 1204.944, 929.436 1204.614 C 928.576 1204.284, 928.013 1203.180, 928.186 1202.160 C 928.359 1201.141, 927.899 1199.583, 927.164 1198.697 C 925.735 1196.975, 926.352 1194.990, 928.309 1195.015 C 929.025 1195.025, 928.901 1195.418, 928 1196 C 926.910 1196.704, 926.858 1196.974, 927.809 1196.985 C 928.529 1196.993, 928.871 1197.399, 928.570 1197.887 C 928.269 1198.374, 928.656 1199.299, 929.431 1199.943 C 930.563 1200.882, 930.772 1200.757, 930.496 1199.306 C 930.307 1198.313, 930.065 1197.275, 929.958 1197 C 929.851 1196.725, 929.833 1196.112, 929.919 1195.638 C 930.005 1195.163, 929.271 1194.114, 928.287 1193.306 C 926.622 1191.937, 926.620 1191.874, 928.250 1192.387 C 929.212 1192.690, 930 1192.501, 930 1191.969 C 930 1191.436, 929.339 1191, 928.531 1191 C 927.626 1191, 927.287 1190.415, 927.648 1189.474 C 928.131 1188.216, 928.519 1188.172, 929.867 1189.224 C 931.308 1190.350, 931.345 1190.302, 930.181 1188.814 C 929.150 1187.497, 929.117 1186.650, 930.030 1184.943 C 930.985 1183.160, 930.952 1182.913, 929.850 1183.601 C 927.067 1185.338, 925.498 1184.870, 927.794 1182.988 C 930.170 1181.041, 930.399 1180.200, 929.017 1178.500 C 928.569 1177.950, 928.371 1175.569, 928.577 1173.209 C 928.831 1170.290, 928.527 1168.756, 927.627 1168.410 C 925.536 1167.608, 927.878 1159.826, 930.007 1160.502 C 931.175 1160.873, 931.600 1160.339, 931.600 1158.504 C 931.600 1157.127, 931.254 1156, 930.831 1156 C 930.409 1156, 930.342 1155.273, 930.683 1154.385 C 931.176 1153.100, 930.862 1152.909, 929.151 1153.452 C 927.423 1154, 927 1153.728, 927 1152.067 C 927 1150.930, 927.498 1150, 928.107 1150 C 928.716 1150, 928.964 1150.652, 928.658 1151.449 C 928.287 1152.416, 928.582 1152.714, 929.545 1152.344 C 930.339 1152.040, 930.740 1151.388, 930.435 1150.895 C 930.131 1150.403, 930.385 1150, 931 1150 C 931.615 1150, 931.864 1149.588, 931.553 1149.085 C 931.242 1148.582, 931.515 1147.995, 932.161 1147.780 C 932.886 1147.538, 932.458 1146.573, 931.038 1145.250 C 929.680 1143.985, 928.987 1142.477, 929.340 1141.556 C 929.669 1140.700, 929.597 1140, 929.181 1140 C 927.408 1140, 928.296 1135.909, 930.312 1134.789 C 931.516 1134.122, 932.744 1133.640, 933.042 1133.718 C 934.335 1134.060, 933.750 1129.607, 932.313 1128.170 C 931.266 1127.123, 931.115 1126.462, 931.866 1126.211 C 932.490 1126.003, 933 1125.394, 933 1124.858 C 933 1124.321, 932.438 1124.211, 931.750 1124.613 C 931.063 1125.015, 931.288 1124.444, 932.250 1123.343 C 934.141 1121.182, 934.559 1119, 933.083 1119 C 932.579 1119, 931.940 1119.563, 931.662 1120.250 C 931.361 1120.997, 931.126 1120.795, 931.079 1119.750 C 931.036 1118.787, 931.702 1118, 932.559 1118 C 933.416 1118, 933.843 1117.555, 933.507 1117.011 C 933.157 1116.445, 933.558 1116.277, 934.448 1116.618 C 935.645 1117.078, 936 1116.504, 936 1114.107 C 936 1112.398, 936.525 1111, 937.167 1111 C 937.808 1111, 938.049 1110.716, 937.702 1110.369 C 937.355 1110.021, 937.536 1108.867, 938.105 1107.804 C 939.831 1104.579, 939.935 1102.189, 938.375 1101.591 C 937.434 1101.229, 937.153 1101.438, 937.603 1102.166 C 938.041 1102.876, 937.865 1103.035, 937.138 1102.585 C 936.494 1102.187, 936.207 1101.474, 936.500 1101 C 936.793 1100.526, 936.575 1099.856, 936.016 1099.510 C 933.987 1098.256, 935.076 1094.169, 938.408 1090.530 C 941.329 1087.342, 941.885 1087.073, 942.292 1088.655 C 942.694 1090.213, 942.786 1090.163, 942.884 1088.333 C 942.948 1087.142, 943.563 1085.908, 944.250 1085.593 C 944.938 1085.277, 944.375 1085.235, 943 1085.500 C 941.625 1085.765, 941.017 1085.738, 941.648 1085.441 C 942.358 1085.107, 942.601 1083.448, 942.286 1081.095 C 941.996 1078.933, 942.324 1076.264, 943.045 1074.916 C 944.264 1072.638, 944.345 1072.622, 945.113 1074.522 C 945.587 1075.696, 945.675 1074.776, 945.329 1072.255 C 944.683 1067.548, 946.264 1064.545, 948.910 1065.457 C 949.953 1065.816, 949.820 1065.479, 948.522 1064.476 C 946.727 1063.088, 946.480 1063.110, 945.838 1064.723 C 945.326 1066.010, 945.173 1065.741, 945.284 1063.748 C 945.376 1062.092, 946.138 1060.774, 947.198 1060.437 C 948.167 1060.130, 948.879 1059.568, 948.781 1059.189 C 948.683 1058.810, 948.939 1056.402, 949.350 1053.839 C 950.068 1049.353, 952.317 1046.827, 953.385 1049.306 C 953.668 1049.963, 953.691 1049.037, 953.436 1047.250 C 953.122 1045.057, 953.383 1043.995, 954.236 1043.985 C 955.098 1043.974, 955.022 1043.661, 954 1043 C 952.752 1042.193, 952.836 1042.015, 954.500 1041.936 C 955.600 1041.885, 955.935 1041.614, 955.244 1041.336 C 954.553 1041.057, 954.242 1040.418, 954.553 1039.915 C 954.864 1039.412, 954.586 1039, 953.937 1039 C 953.101 1039, 953.153 1038.521, 954.115 1037.361 C 954.864 1036.460, 955.330 1034.609, 955.152 1033.249 C 954.938 1031.620, 955.210 1031.012, 955.948 1031.468 C 956.688 1031.925, 956.929 1031.369, 956.657 1029.830 C 956.054 1026.412, 957.704 1022.673, 959.510 1023.365 C 960.781 1023.853, 960.764 1023.570, 959.395 1021.480 C 957.904 1019.205, 957.910 1018.972, 959.476 1018.371 C 960.839 1017.848, 960.908 1017.537, 959.834 1016.774 C 958.874 1016.092, 959.109 1015.959, 960.675 1016.300 C 962.231 1016.639, 962.699 1016.380, 962.320 1015.393 C 962.029 1014.633, 961.388 1014.260, 960.895 1014.565 C 959.114 1015.665, 960.052 1010.736, 962.197 1007.724 C 963.405 1006.027, 963.855 1004.972, 963.197 1005.378 C 962.463 1005.832, 962 1005.515, 962 1004.559 C 962 1003.702, 962.788 1002.964, 963.750 1002.921 C 964.782 1002.874, 964.990 1002.636, 964.258 1002.340 C 963.349 1001.973, 963.295 1001.318, 964.054 999.899 C 964.625 998.832, 964.839 997.549, 964.530 997.048 C 964.220 996.547, 964.849 995.518, 965.928 994.763 C 968.184 993.183, 969.517 988.019, 967.684 987.965 C 967.033 987.945, 967.527 987.359, 968.781 986.663 C 970.036 985.966, 970.749 985.082, 970.365 984.698 C 969.981 984.314, 970.192 984, 970.833 984 C 971.475 984, 971.947 983.663, 971.882 983.250 C 971.556 981.188, 972.282 976.692, 972.689 978.250 C 973.139 979.970, 974.927 980.719, 975.077 979.250 C 975.369 976.382, 976.026 974.602, 977.019 973.988 C 978.273 973.213, 978.258 972.351, 976.949 969.905 C 976.407 968.893, 976.613 967.569, 977.512 966.286 C 978.292 965.173, 978.682 964.015, 978.379 963.712 C 978.076 963.410, 978.750 962.669, 979.877 962.066 C 981.004 961.463, 981.705 960.394, 981.434 959.690 C 981.164 958.986, 982.081 957.421, 983.472 956.212 C 984.862 955.002, 986.056 953.335, 986.125 952.507 C 986.194 951.678, 986.362 950.550, 986.500 950 C 986.638 949.450, 986.806 948.100, 986.875 947 C 986.950 945.795, 987.708 945, 988.782 945 C 989.961 945, 990.634 944.154, 990.771 942.500 C 990.884 941.125, 990.533 940, 989.989 940 C 989.445 940, 989 940.477, 989 941.059 C 989 941.641, 988.521 941.822, 987.935 941.460 C 986.631 940.654, 989.670 937, 991.644 937 C 993.188 937, 997 933.953, 997 932.719 C 997 932.259, 996.663 932.086, 996.250 932.336 C 995.372 932.868, 993.627 931.004, 993.209 929.088 C 993.021 928.226, 993.492 927.975, 994.540 928.377 C 996.498 929.128, 1000.662 926.527, 999.073 925.545 C 998.483 925.181, 998 924.432, 998 923.882 C 998 923.332, 998.450 923.160, 999 923.500 C 999.550 923.840, 1000 923.641, 1000 923.059 C 1000 922.477, 999.438 921.993, 998.750 921.985 C 997.917 921.974, 998 921.646, 999 921 C 999.825 920.467, 1000.028 920.024, 999.450 920.015 C 998.873 920.007, 997.891 920.509, 997.269 921.131 C 996.428 921.972, 996.229 921.779, 996.493 920.381 C 996.688 919.346, 996.881 917.712, 996.923 916.750 C 996.968 915.743, 997.784 915, 998.845 915 C 1001.557 915, 1003.910 911.900, 1003.019 909.500 C 1002.180 907.239, 1002.797 904.757, 1004.012 905.507 C 1004.453 905.780, 1004.578 905.102, 1004.290 904.001 C 1003.927 902.613, 1004.259 902, 1005.372 902 C 1006.473 902, 1006.913 901.214, 1006.771 899.500 C 1006.550 896.827, 1005.490 896.199, 1004.662 898.250 C 1004.283 899.190, 1004.138 899.167, 1004.079 898.156 C 1004.036 897.417, 1004.900 896.577, 1006 896.290 C 1007.100 896.002, 1008 895.343, 1008 894.824 C 1008 894.306, 1007.550 894.160, 1007 894.500 C 1004.955 895.764, 1006.108 893.959, 1009.533 890.533 C 1011.477 888.590, 1012.692 887, 1012.233 887 C 1011.775 887, 1010.958 887.442, 1010.417 887.983 C 1009.772 888.628, 1009.365 888.145, 1009.236 886.583 C 1009.123 885.220, 1009.696 883.947, 1010.571 883.611 C 1011.436 883.279, 1011.841 883.449, 1011.500 884 C 1011.155 884.557, 1011.574 884.717, 1012.474 884.372 C 1013.706 883.899, 1013.796 883.459, 1012.884 882.360 C 1011.947 881.231, 1012.040 881.078, 1013.359 881.584 C 1014.590 882.057, 1015.008 881.626, 1015.032 879.857 C 1015.060 877.772, 1017.255 873.657, 1018.159 873.994 C 1018.347 874.063, 1019.625 873.672, 1021 873.124 C 1022.375 872.575, 1023.151 872.098, 1022.724 872.063 C 1022.298 872.029, 1022.654 870.635, 1023.517 868.967 C 1024.379 867.299, 1025.408 866.134, 1025.804 866.379 C 1026.199 866.623, 1027.415 866.170, 1028.506 865.372 C 1030.097 864.209, 1030.220 863.754, 1029.125 863.077 C 1027.972 862.365, 1027.973 862.099, 1029.130 861.367 C 1029.884 860.890, 1030.500 859.825, 1030.500 859 C 1030.500 858.175, 1030.969 857.581, 1031.542 857.681 C 1032.116 857.780, 1032.652 856.976, 1032.733 855.894 C 1032.953 852.974, 1038.259 846.239, 1039.902 846.794 C 1040.912 847.136, 1041.148 846.673, 1040.745 845.134 C 1040.414 843.867, 1040.657 842.994, 1041.344 842.985 C 1041.994 842.976, 1041.843 842.538, 1041 841.985 C 1039.742 841.159, 1039.722 840.857, 1040.878 840.112 C 1041.636 839.623, 1041.947 838.723, 1041.569 838.112 C 1041.191 837.500, 1041.359 837, 1041.941 837 C 1042.523 837, 1043 835.620, 1043 833.934 C 1043 830.429, 1044.281 827.688, 1047.585 824.125 C 1048.854 822.756, 1049.685 821.299, 1049.430 820.886 C 1049.175 820.474, 1049.768 819.544, 1050.749 818.818 C 1051.729 818.093, 1053.097 816.218, 1053.789 814.652 C 1054.648 812.706, 1055.541 811.993, 1056.607 812.403 C 1057.594 812.782, 1058.007 812.542, 1057.730 811.751 C 1057.490 811.063, 1058.240 809.906, 1059.397 809.181 C 1061.363 807.948, 1061.369 807.901, 1059.500 808.463 C 1058.054 808.898, 1058.324 808.396, 1060.472 806.649 C 1062.107 805.321, 1064.132 804.448, 1064.972 804.711 C 1065.908 805.004, 1066.100 804.862, 1065.467 804.344 C 1063.537 802.768, 1064.381 798.618, 1066.885 797.370 C 1069.775 795.929, 1070.991 794.139, 1070.300 792.341 C 1069.836 791.131, 1071.118 790.523, 1073.324 790.906 C 1073.778 790.985, 1073.861 790.584, 1073.510 790.016 C 1072.264 787.999, 1074.076 784.787, 1076.154 785.330 C 1077.340 785.640, 1077.966 785.399, 1077.740 784.719 C 1077.259 783.278, 1081.028 778.899, 1082.151 779.593 C 1083.345 780.331, 1083.207 778.256, 1081.900 775.814 C 1081.250 774.599, 1081.210 774.012, 1081.802 774.378 C 1082.353 774.718, 1083.748 773.397, 1084.902 771.441 C 1087.231 767.494, 1087.486 766.582, 1086.003 767.498 C 1085.021 768.105, 1086.226 764.046, 1087.752 761.606 C 1088.132 760.998, 1088.544 759.837, 1088.666 759.027 C 1088.788 758.217, 1089.596 757.037, 1090.462 756.404 C 1091.367 755.742, 1091.770 754.563, 1091.410 753.627 C 1091.005 752.570, 1091.311 752, 1092.286 752 C 1093.111 752, 1094.059 751.288, 1094.393 750.418 C 1095.297 748.062, 1095.152 747.728, 1093.497 748.363 C 1092.200 748.860, 1092.211 748.607, 1093.578 746.522 C 1094.976 744.388, 1095.671 742.365, 1095.923 739.691 C 1095.966 739.246, 1096.338 739.090, 1096.750 739.345 C 1097.162 739.600, 1097.565 738.729, 1097.644 737.411 C 1097.723 736.092, 1097.473 735.208, 1097.088 735.446 C 1096.195 735.998, 1096.414 725.757, 1097.328 724.279 C 1097.704 723.670, 1097.447 722.942, 1096.756 722.662 C 1095.780 722.266, 1095.807 721.938, 1096.878 721.188 C 1097.664 720.638, 1097.925 719.688, 1097.485 718.976 C 1097.061 718.290, 1096.641 717.002, 1096.552 716.114 C 1096.462 715.226, 1095.888 713.375, 1095.276 712 C 1094.664 710.625, 1093.904 708.684, 1093.588 707.687 C 1093.273 706.689, 1092.561 706.153, 1092.007 706.496 C 1091.453 706.838, 1091 706.615, 1091 706 C 1091 705.385, 1090.539 705.167, 1089.975 705.515 C 1089.412 705.864, 1089.074 705.563, 1089.225 704.848 C 1089.376 704.133, 1088.481 703.392, 1087.235 703.202 C 1085.990 703.012, 1085.204 702.479, 1085.490 702.016 C 1085.776 701.554, 1085.220 701.292, 1084.255 701.434 C 1083.290 701.576, 1081.952 700.974, 1081.282 700.096 C 1080.481 699.048, 1080.053 698.929, 1080.032 699.750 M 1075.750 716.801 C 1074.237 718.297, 1073 720.042, 1073 720.677 C 1073 721.313, 1072.461 722.013, 1071.802 722.233 C 1070.887 722.538, 1070.916 723.382, 1071.924 725.816 C 1073.083 728.615, 1074.203 729.575, 1075.346 728.750 C 1075.537 728.612, 1076.358 729.052, 1077.171 729.727 C 1079.284 731.481, 1089.052 722.916, 1088.285 719.982 C 1088 718.892, 1087.369 718, 1086.883 718 C 1086.398 718, 1086.053 717.663, 1086.118 717.250 C 1086.471 715.019, 1085.646 714.376, 1082.250 714.236 C 1079.382 714.117, 1077.853 714.721, 1075.750 716.801" stroke="none" fill="#f4f4f3" fill-rule="evenodd"/></svg>