<svg xmlns="http://www.w3.org/2000/svg" width="2048" height="2048" viewBox="0 0 2048 2048" version="1.1"><path d="" stroke="none" fill="#f4f4ec" fill-rule="evenodd"/><path d="M 984.913 1131.500 C 984.831 1132.600, 984.840 1133.909, 984.934 1134.408 C 985.290 1136.298, 982.460 1136.876, 980.177 1135.380 C 978.069 1133.999, 977.717 1134, 976.667 1135.389 C 976.025 1136.238, 974.600 1136.782, 973.500 1136.596 C 972.400 1136.411, 970.655 1136.698, 969.623 1137.233 C 968.285 1137.927, 967.513 1137.830, 966.937 1136.898 C 966.492 1136.178, 964.749 1135.431, 963.064 1135.239 C 960.674 1134.966, 959.978 1135.286, 959.900 1136.694 C 959.830 1137.969, 959.565 1137.765, 959 1136 C 958.310 1133.846, 958.169 1133.777, 957.981 1135.500 C 957.861 1136.600, 957.816 1137.838, 957.882 1138.250 C 957.947 1138.662, 957.212 1139.057, 956.250 1139.128 C 955.288 1139.198, 953.375 1139.368, 952 1139.505 C 950.625 1139.643, 948.503 1139.378, 947.285 1138.916 C 945.959 1138.413, 944.826 1138.472, 944.461 1139.063 C 944.126 1139.606, 944.222 1139.926, 944.676 1139.775 C 945.129 1139.624, 945.725 1139.950, 946 1140.500 C 946.287 1141.074, 944.716 1141.580, 942.310 1141.688 C 940.005 1141.791, 936.988 1142.617, 935.604 1143.524 C 934.220 1144.431, 932.618 1144.882, 932.044 1144.527 C 931.470 1144.172, 931 1144.445, 931 1145.132 C 931 1146.024, 930.642 1145.966, 929.750 1144.929 C 929.063 1144.130, 928.597 1143.653, 928.715 1143.870 C 929.181 1144.723, 926.863 1148, 925.794 1148 C 925.169 1148, 923.757 1148.787, 922.657 1149.750 C 921.556 1150.713, 920.985 1150.938, 921.387 1150.250 C 921.850 1149.458, 921.508 1149, 920.452 1149 C 919.357 1149, 918.990 1149.532, 919.382 1150.552 C 919.709 1151.406, 919.571 1151.853, 919.074 1151.546 C 918.577 1151.239, 918.020 1151.354, 917.835 1151.802 C 917.651 1152.250, 915.423 1154.033, 912.884 1155.764 C 909.566 1158.026, 908.054 1159.839, 907.509 1162.206 C 906.577 1166.248, 906.878 1170.296, 908.169 1171.100 C 908.699 1171.430, 909.225 1172.330, 909.338 1173.100 C 909.451 1173.870, 909.872 1174.612, 910.272 1174.750 C 910.672 1174.888, 911.900 1175.900, 913 1177 C 915.182 1179.182, 917 1179.610, 917 1177.941 C 917 1177.359, 917.528 1177.208, 918.173 1177.607 C 919.746 1178.579, 924.932 1178.699, 924.346 1177.750 C 924.091 1177.338, 924.321 1177, 924.858 1177 C 925.394 1177, 925.983 1177.417, 926.167 1177.926 C 926.715 1179.450, 932 1180.410, 932 1178.986 C 932 1178.018, 932.313 1178.015, 933.466 1178.972 C 934.273 1179.641, 935.501 1180, 936.196 1179.768 C 936.891 1179.536, 938.233 1180.281, 939.178 1181.423 C 940.890 1183.492, 940.894 1183.490, 940.275 1181 C 939.717 1178.757, 939.825 1178.641, 941.327 1179.872 C 942.247 1180.627, 943.014 1180.852, 943.030 1180.372 C 943.047 1179.893, 943.521 1180.290, 944.084 1181.257 C 944.892 1182.644, 945.520 1182.792, 947.074 1181.960 C 948.156 1181.381, 949.587 1181.245, 950.253 1181.656 C 952.267 1182.901, 954.964 1182.748, 956.148 1181.322 C 956.907 1180.407, 957.649 1180.294, 958.461 1180.968 C 959.119 1181.514, 960.747 1182.135, 962.078 1182.348 C 963.649 1182.599, 964.398 1183.303, 964.210 1184.352 C 964.013 1185.449, 964.414 1185.778, 965.460 1185.377 C 966.307 1185.052, 967 1184.207, 967 1183.498 C 967 1181.822, 972.546 1183.001, 976.334 1185.483 C 978.940 1187.191, 979.132 1187.191, 981.026 1185.477 C 983.192 1183.517, 983.750 1184.730, 981.750 1187.050 C 980.701 1188.267, 980.733 1188.299, 981.950 1187.250 C 984.014 1185.471, 986.349 1185.701, 988.928 1187.938 C 990.157 1189.003, 991.806 1189.628, 992.592 1189.326 C 993.552 1188.958, 993.836 1189.264, 993.455 1190.257 C 992.753 1192.085, 996.649 1193.314, 998.925 1191.982 C 999.907 1191.408, 1000.029 1191.049, 999.250 1191.030 C 997.821 1190.996, 997.509 1189, 998.933 1189 C 999.446 1189, 1000.151 1189.900, 1000.500 1191 C 1000.912 1192.297, 1002.013 1193, 1003.633 1193 C 1005.007 1193, 1007.089 1193.512, 1008.259 1194.139 C 1010.099 1195.123, 1012.245 1195.592, 1017.696 1196.200 C 1018.567 1196.297, 1018.610 1196.860, 1017.853 1198.274 C 1017.113 1199.657, 1017.149 1200.543, 1017.979 1201.357 C 1018.855 1202.218, 1019.063 1202.135, 1018.821 1201.024 C 1018.343 1198.825, 1022.448 1198.591, 1024.554 1200.697 C 1025.546 1201.689, 1026.502 1202.388, 1026.679 1202.250 C 1026.855 1202.112, 1028 1202, 1029.223 1202 L 1031.445 1202 1029.223 1203.557 C 1028 1204.413, 1027.036 1205.650, 1027.079 1206.307 C 1027.136 1207.165, 1027.300 1207.147, 1027.664 1206.244 C 1027.943 1205.553, 1028.652 1205.285, 1029.240 1205.648 C 1029.872 1206.039, 1030.017 1205.837, 1029.595 1205.155 C 1029.203 1204.520, 1029.359 1204, 1029.941 1204 C 1030.523 1204, 1031 1204.600, 1031 1205.333 C 1031 1206.067, 1031.563 1206.671, 1032.250 1206.676 C 1032.938 1206.681, 1034.524 1207.015, 1035.775 1207.418 C 1037.323 1207.917, 1037.962 1207.770, 1037.775 1206.958 C 1037.368 1205.193, 1040.864 1204.934, 1041.828 1206.658 C 1042.284 1207.472, 1043.910 1208.276, 1045.442 1208.444 C 1048.146 1208.741, 1050.302 1210.702, 1049.447 1212.086 C 1049.027 1212.766, 1054.974 1215.640, 1056.083 1215.293 C 1056.404 1215.193, 1056.667 1215.754, 1056.667 1216.540 C 1056.667 1217.617, 1056.339 1217.696, 1055.333 1216.862 C 1054.491 1216.162, 1054 1216.129, 1054 1216.771 C 1054 1218.398, 1057.261 1219.193, 1058.155 1217.784 C 1058.603 1217.078, 1058.976 1216.915, 1058.985 1217.421 C 1058.993 1217.928, 1058.213 1219.243, 1057.250 1220.343 C 1056.287 1221.444, 1056.063 1222.015, 1056.750 1221.613 C 1057.438 1221.211, 1058 1221.331, 1058 1221.879 C 1058 1222.427, 1058.851 1222.812, 1059.890 1222.733 C 1060.930 1222.655, 1061.579 1222.066, 1061.333 1221.425 C 1061.086 1220.783, 1061.685 1219.951, 1062.662 1219.576 C 1063.639 1219.201, 1064.123 1219.210, 1063.738 1219.596 C 1063.004 1220.329, 1066.684 1224, 1068.153 1224 C 1068.619 1224, 1069 1223.487, 1069 1222.860 C 1069 1222.232, 1070.566 1223.245, 1072.481 1225.110 C 1074.845 1227.412, 1075.810 1229.142, 1075.490 1230.500 C 1075.231 1231.600, 1075.277 1231.938, 1075.593 1231.250 C 1075.908 1230.563, 1077.442 1230, 1079 1230 C 1080.558 1230, 1082.060 1229.438, 1082.338 1228.750 C 1082.639 1228.003, 1082.874 1228.205, 1082.921 1229.250 C 1082.964 1230.213, 1083.787 1231.029, 1084.750 1231.063 C 1086.091 1231.112, 1085.974 1231.338, 1084.250 1232.031 C 1082.762 1232.629, 1082.046 1233.709, 1082.136 1235.218 L 1082.272 1237.500 1082.706 1235.250 C 1083.148 1232.953, 1085.391 1232.206, 1086.493 1233.989 C 1086.843 1234.555, 1086.442 1234.723, 1085.552 1234.382 C 1084.698 1234.054, 1084 1234.236, 1084 1234.786 C 1084 1235.792, 1086.285 1237, 1088.189 1237 C 1088.753 1237, 1088.960 1236.339, 1088.651 1235.532 C 1088.341 1234.725, 1088.529 1233.791, 1089.068 1233.458 C 1089.608 1233.124, 1089.985 1233.222, 1089.906 1233.676 C 1089.555 1235.697, 1090.113 1236.373, 1091 1235 C 1091.822 1233.728, 1091.972 1233.775, 1091.985 1235.309 C 1091.993 1236.304, 1092.450 1236.840, 1093 1236.500 C 1093.550 1236.160, 1094 1236.407, 1094 1237.048 C 1094 1237.689, 1093.325 1237.955, 1092.500 1237.638 C 1091.675 1237.322, 1091 1237.499, 1091 1238.031 C 1091 1238.877, 1093.108 1239.435, 1095.189 1239.139 C 1095.567 1239.085, 1095.706 1239.932, 1095.496 1241.020 C 1095.286 1242.109, 1095.566 1243, 1096.116 1243 C 1096.667 1243, 1096.840 1243.450, 1096.500 1244 C 1096.160 1244.550, 1096.359 1245, 1096.941 1245 C 1097.523 1245, 1098 1244.523, 1098 1243.941 C 1098 1243.359, 1098.446 1243.157, 1098.990 1243.494 C 1100.307 1244.308, 1097.841 1246.990, 1096.500 1246.203 C 1095.950 1245.880, 1096.101 1246.358, 1096.836 1247.264 C 1097.582 1248.185, 1097.829 1249.484, 1097.394 1250.206 C 1096.809 1251.178, 1097.034 1251.161, 1098.297 1250.137 C 1099.222 1249.387, 1099.688 1248.305, 1099.334 1247.732 C 1098.969 1247.140, 1099.173 1246.989, 1099.807 1247.381 C 1100.580 1247.859, 1100.626 1248.905, 1099.956 1250.785 L 1098.989 1253.500 1100.870 1251.293 C 1101.905 1250.078, 1103.034 1249.367, 1103.378 1249.711 C 1103.723 1250.056, 1103.259 1251.162, 1102.347 1252.169 C 1101.436 1253.176, 1101.048 1254, 1101.485 1254 C 1101.922 1254, 1102.855 1253.213, 1103.558 1252.252 C 1104.261 1251.290, 1105.198 1250.864, 1105.639 1251.306 C 1106.081 1251.747, 1105.780 1252.527, 1104.971 1253.039 C 1104.162 1253.551, 1103.973 1253.976, 1104.550 1253.985 C 1105.127 1253.993, 1106.167 1253.438, 1106.859 1252.750 C 1107.869 1251.747, 1107.974 1251.880, 1107.386 1253.424 C 1106.801 1254.959, 1106.995 1255.216, 1108.350 1254.696 C 1109.778 1254.148, 1109.879 1254.357, 1108.988 1256.023 C 1108.192 1257.510, 1108.248 1258.037, 1109.215 1258.148 C 1109.922 1258.229, 1111.175 1258.388, 1112 1258.500 C 1112.825 1258.612, 1114.111 1258.771, 1114.857 1258.852 C 1115.651 1258.939, 1115.967 1259.643, 1115.618 1260.552 C 1115.291 1261.406, 1115.419 1261.859, 1115.902 1261.561 C 1116.386 1261.262, 1117.552 1262.194, 1118.494 1263.632 C 1119.437 1265.070, 1119.711 1265.939, 1119.104 1265.564 C 1118.497 1265.189, 1118 1265.284, 1118 1265.774 C 1118 1267.513, 1119.336 1267.966, 1120.850 1266.741 C 1121.923 1265.873, 1122.171 1265.855, 1121.676 1266.681 C 1121.286 1267.330, 1121.425 1268.144, 1121.984 1268.490 C 1122.543 1268.835, 1123 1268.615, 1123 1268 C 1123 1267.385, 1123.457 1267.165, 1124.016 1267.510 C 1124.575 1267.856, 1124.714 1268.670, 1124.324 1269.319 C 1123.921 1269.992, 1124.344 1269.909, 1125.308 1269.128 C 1126.239 1268.373, 1127.037 1267.923, 1127.083 1268.128 C 1127.129 1268.332, 1127.284 1269.580, 1127.427 1270.899 C 1127.571 1272.219, 1128.433 1273.843, 1129.344 1274.509 C 1130.255 1275.176, 1131 1276.123, 1131 1276.616 C 1131 1277.108, 1132.575 1278.004, 1134.500 1278.606 C 1137.719 1279.614, 1139.615 1278.818, 1136.750 1277.662 C 1136.063 1277.385, 1136.470 1277.122, 1137.656 1277.079 C 1139.292 1277.019, 1139.694 1277.455, 1139.320 1278.883 C 1139.023 1280.019, 1139.583 1281.308, 1140.730 1282.133 C 1143.399 1284.052, 1144.439 1287.061, 1142.199 1286.385 C 1141.265 1286.103, 1141.737 1286.591, 1143.250 1287.468 C 1144.763 1288.346, 1146 1289.725, 1146 1290.532 C 1146 1291.904, 1147.268 1292.471, 1149.419 1292.062 C 1149.925 1291.966, 1149.787 1292.551, 1149.114 1293.363 C 1148.137 1294.540, 1148.176 1295.007, 1149.304 1295.669 C 1150.483 1296.362, 1150.409 1296.821, 1148.859 1298.425 C 1147.837 1299.484, 1147 1299.821, 1147 1299.175 C 1147 1298.529, 1146.454 1298, 1145.786 1298 C 1145.038 1298, 1145.243 1298.672, 1146.322 1299.750 C 1147.704 1301.132, 1148.242 1301.226, 1148.876 1300.200 C 1149.318 1299.485, 1150.652 1298.827, 1151.840 1298.737 C 1153.028 1298.648, 1154 1297.929, 1154 1297.141 C 1154 1295.747, 1159.427 1300.727, 1159.477 1302.167 C 1159.490 1302.533, 1159.910 1303.208, 1160.410 1303.667 C 1160.934 1304.146, 1161.033 1303.998, 1160.644 1303.319 C 1160.272 1302.670, 1160.378 1301.885, 1160.879 1301.575 C 1162.266 1300.718, 1163.001 1303.599, 1161.722 1304.878 C 1160.893 1305.707, 1161.186 1306, 1162.845 1306 C 1164.795 1306, 1165.037 1306.428, 1164.685 1309.250 C 1164.462 1311.037, 1164.473 1311.713, 1164.709 1310.750 C 1165.202 1308.744, 1166.552 1308.466, 1167.595 1310.155 C 1168.038 1310.870, 1167.870 1311.038, 1167.155 1310.595 C 1165.156 1309.360, 1165.903 1311.489, 1167.998 1312.998 C 1169.244 1313.897, 1169.783 1315.108, 1169.430 1316.219 C 1169.120 1317.199, 1169.346 1318, 1169.933 1318 C 1170.520 1318, 1171.052 1316.987, 1171.116 1315.750 C 1171.207 1313.983, 1171.332 1313.886, 1171.699 1315.298 C 1171.955 1316.287, 1171.674 1317.688, 1171.074 1318.411 C 1170.209 1319.453, 1170.504 1319.626, 1172.491 1319.246 C 1174.530 1318.857, 1175 1319.163, 1175 1320.883 C 1175 1322.048, 1175.486 1323, 1176.079 1323 C 1176.759 1323, 1176.915 1324.113, 1176.500 1326 C 1176.109 1327.782, 1176.250 1329, 1176.847 1329 C 1177.401 1329, 1178.011 1328.213, 1178.204 1327.250 C 1178.478 1325.886, 1178.976 1326.205, 1180.461 1328.696 C 1181.509 1330.453, 1182.683 1331.696, 1183.070 1331.457 C 1183.457 1331.218, 1184.329 1331.692, 1185.009 1332.511 C 1185.689 1333.330, 1185.852 1334.002, 1185.372 1334.004 C 1184.893 1334.007, 1186.525 1335.368, 1189 1337.029 C 1191.475 1338.691, 1194.287 1339.856, 1195.250 1339.619 C 1196.336 1339.351, 1197 1339.762, 1197 1340.701 C 1197 1341.551, 1196.416 1341.990, 1195.667 1341.702 C 1194.933 1341.421, 1194.333 1341.798, 1194.333 1342.541 C 1194.333 1343.579, 1194.794 1343.646, 1196.318 1342.830 C 1197.953 1341.955, 1198.197 1342.043, 1197.703 1343.333 C 1197.266 1344.471, 1197.542 1344.729, 1198.715 1344.279 C 1199.876 1343.834, 1200.099 1344.031, 1199.510 1344.985 C 1198.953 1345.885, 1199.076 1346.071, 1199.894 1345.565 C 1200.742 1345.041, 1200.789 1344.450, 1200.052 1343.563 C 1199.297 1342.653, 1199.526 1341.834, 1200.880 1340.609 C 1202.596 1339.055, 1202.805 1339.050, 1203.377 1340.540 C 1203.873 1341.833, 1205.017 1342.070, 1208.961 1341.700 C 1211.690 1341.444, 1213.886 1341.519, 1213.843 1341.867 C 1213.585 1343.924, 1214.345 1344.489, 1217.250 1344.400 C 1219.942 1344.317, 1220.504 1343.904, 1220.522 1341.992 C 1220.547 1339.382, 1223.786 1338.278, 1224.669 1340.579 C 1224.969 1341.361, 1226.116 1342, 1227.218 1342 C 1229.125 1342, 1229.112 1341.912, 1226.948 1340.159 C 1225.357 1338.871, 1225.032 1338.099, 1225.862 1337.585 C 1226.566 1337.150, 1226.938 1337.366, 1226.775 1338.116 C 1226.624 1338.812, 1227.400 1339.564, 1228.500 1339.788 C 1230.011 1340.095, 1230.224 1339.907, 1229.371 1339.018 C 1227.869 1337.453, 1232.288 1332.467, 1234.199 1333.570 C 1234.914 1333.983, 1235.156 1333.942, 1234.736 1333.480 C 1234.316 1333.017, 1235.178 1331.380, 1236.652 1329.842 C 1238.688 1327.716, 1239.951 1327.179, 1241.916 1327.603 C 1243.964 1328.046, 1244.189 1327.934, 1243 1327.062 C 1241.675 1326.090, 1241.688 1325.817, 1243.111 1324.722 C 1245.643 1322.775, 1243.751 1318.627, 1240.764 1319.575 C 1238.855 1320.181, 1238.702 1320.064, 1239.749 1318.802 C 1240.428 1317.985, 1240.649 1316.948, 1240.241 1316.498 C 1239.834 1316.048, 1240.063 1316.003, 1240.750 1316.399 C 1241.532 1316.849, 1242 1316.510, 1242 1315.493 C 1242 1314.600, 1242.535 1312.886, 1243.189 1311.684 C 1244.490 1309.293, 1245.006 1306.005, 1244.083 1305.992 C 1243.762 1305.988, 1242.980 1304.862, 1242.344 1303.491 C 1241.707 1302.120, 1241.564 1301.230, 1242.024 1301.515 C 1242.485 1301.800, 1243.144 1301.575, 1243.490 1301.016 C 1243.835 1300.457, 1243.615 1300, 1243 1300 C 1242.385 1300, 1242.154 1299.559, 1242.487 1299.021 C 1242.820 1298.482, 1242.625 1297.168, 1242.054 1296.101 C 1241.295 1294.682, 1241.349 1294.027, 1242.258 1293.660 C 1242.941 1293.384, 1242.600 1293.109, 1241.500 1293.049 C 1239.643 1292.947, 1239.626 1292.866, 1241.271 1291.908 C 1243.441 1290.645, 1242.620 1289, 1239.819 1289 C 1238.149 1289, 1237.980 1288.729, 1238.935 1287.579 C 1239.909 1286.405, 1239.727 1286.259, 1237.888 1286.739 C 1236.161 1287.191, 1235.796 1286.973, 1236.259 1285.767 C 1236.612 1284.847, 1235.908 1283.323, 1234.535 1282.033 C 1232.799 1280.402, 1232.082 1280.187, 1231.687 1281.177 C 1231.336 1282.055, 1231.131 1281.911, 1231.079 1280.750 C 1230.987 1278.719, 1234.551 1278.301, 1235.338 1280.250 C 1235.735 1281.236, 1235.859 1281.231, 1235.921 1280.229 C 1235.964 1279.529, 1234.763 1278.430, 1233.250 1277.786 C 1231.737 1277.142, 1229.701 1275.689, 1228.725 1274.557 C 1227.749 1273.426, 1227.014 1272.950, 1227.093 1273.500 C 1227.461 1276.064, 1226.809 1276.086, 1224.495 1273.589 C 1222.680 1271.631, 1222.157 1270.222, 1222.596 1268.473 C 1222.992 1266.896, 1222.622 1265.479, 1221.527 1264.384 C 1220.177 1263.034, 1220.109 1262.547, 1221.176 1261.870 C 1222.087 1261.293, 1222.128 1261.026, 1221.309 1261.015 C 1220.654 1261.007, 1219.840 1261.450, 1219.500 1262 C 1219.160 1262.550, 1217.953 1263, 1216.819 1263 C 1215.282 1263, 1215.020 1262.681, 1215.792 1261.750 C 1216.539 1260.849, 1216.184 1259.751, 1214.517 1257.814 C 1213.246 1256.336, 1211.906 1255.427, 1211.541 1255.793 C 1211.175 1256.159, 1211.329 1255.264, 1211.884 1253.805 C 1212.829 1251.320, 1212.733 1251.181, 1210.366 1251.610 C 1208.906 1251.875, 1208.090 1251.664, 1208.432 1251.111 C 1209.061 1250.092, 1203.963 1246, 1202.064 1246 C 1201.444 1246, 1200.715 1245.420, 1200.443 1244.711 C 1200.170 1244.002, 1199.009 1243.351, 1197.861 1243.264 C 1195.011 1243.050, 1194.491 1242.318, 1195.944 1240.568 C 1197.266 1238.975, 1196.468 1236.593, 1194.931 1237.543 C 1194.419 1237.859, 1194 1237.641, 1194 1237.059 C 1194 1235.112, 1192.428 1235.972, 1192.275 1238.002 C 1192.148 1239.685, 1192.433 1239.839, 1194.062 1238.967 C 1195.397 1238.253, 1196 1238.252, 1196 1238.965 C 1196 1239.534, 1195.325 1240.056, 1194.500 1240.125 C 1193.675 1240.194, 1192.438 1240.335, 1191.750 1240.438 C 1190.085 1240.689, 1186.905 1237.963, 1187.583 1236.866 C 1187.877 1236.390, 1187.641 1236, 1187.059 1236 C 1186.477 1236, 1186 1236.525, 1186 1237.167 C 1186 1237.808, 1185.734 1238.067, 1185.408 1237.742 C 1184.717 1237.051, 1186.367 1233.778, 1187.340 1233.910 C 1189.280 1234.174, 1190.255 1233.921, 1189.646 1233.313 C 1188.576 1232.243, 1185.091 1232.230, 1185.307 1233.296 C 1185.732 1235.397, 1183.428 1234.828, 1182.383 1232.574 C 1181.432 1230.523, 1181.506 1230.237, 1182.883 1230.650 C 1183.772 1230.917, 1182.588 1229.934, 1180.250 1228.466 C 1177.912 1226.998, 1176 1225.113, 1176 1224.276 C 1176 1222.978, 1175.759 1222.955, 1174.356 1224.120 C 1172.899 1225.329, 1172.789 1225.239, 1173.396 1223.326 C 1173.787 1222.096, 1173.608 1220.876, 1172.979 1220.487 C 1172.373 1220.112, 1171.455 1218.697, 1170.940 1217.343 C 1170.425 1215.988, 1169.665 1215.075, 1169.252 1215.315 C 1168.838 1215.554, 1167.600 1215.422, 1166.500 1215.020 C 1165.255 1214.566, 1163.574 1214.896, 1162.048 1215.893 C 1159.788 1217.369, 1159.646 1217.366, 1160.226 1215.854 C 1160.632 1214.795, 1159.916 1213.377, 1158.208 1211.856 C 1156.752 1210.560, 1156.165 1210.287, 1156.903 1211.250 C 1157.717 1212.311, 1157.827 1213, 1157.181 1213 C 1155.799 1213, 1154.584 1210.992, 1154.537 1208.629 C 1154.517 1207.598, 1153.407 1206.027, 1152.070 1205.136 C 1149.712 1203.565, 1149.658 1203.585, 1150.242 1205.816 C 1150.642 1207.345, 1150.451 1207.970, 1149.671 1207.682 C 1149.027 1207.444, 1148.613 1206.744, 1148.750 1206.125 C 1148.888 1205.506, 1148.438 1205.112, 1147.750 1205.250 C 1147.063 1205.387, 1146.645 1204.825, 1146.821 1204 C 1147.070 1202.839, 1146.870 1202.768, 1145.936 1203.686 C 1144.392 1205.202, 1142 1203.057, 1142 1200.155 C 1142 1199.061, 1141.438 1197.940, 1140.750 1197.662 C 1139.750 1197.259, 1139.750 1197.142, 1140.750 1197.079 C 1141.513 1197.031, 1141.186 1196.186, 1139.908 1194.908 C 1138.659 1193.659, 1137.040 1193.018, 1135.894 1193.317 C 1134.666 1193.639, 1133.606 1193.132, 1132.952 1191.910 C 1132.390 1190.859, 1131.501 1190, 1130.976 1190 C 1129.600 1190, 1126 1186.744, 1126 1185.499 C 1126 1184.917, 1125.141 1183.822, 1124.091 1183.066 C 1123.004 1182.282, 1122.431 1181.040, 1122.761 1180.181 C 1123.122 1179.241, 1122.925 1178.929, 1122.239 1179.352 C 1121.634 1179.726, 1120.851 1179.568, 1120.500 1179 C 1120.149 1178.432, 1119.443 1178.226, 1118.931 1178.543 C 1118.419 1178.859, 1118 1177.940, 1118 1176.500 C 1118 1175.009, 1117.569 1174.148, 1117 1174.500 C 1116.450 1174.840, 1116 1174.641, 1116 1174.059 C 1116 1172.365, 1113 1172.838, 1112.308 1174.640 C 1111.732 1176.139, 1111.569 1176.131, 1110.406 1174.540 C 1109.706 1173.583, 1108.677 1173.082, 1108.119 1173.427 C 1107.542 1173.783, 1107.252 1173.286, 1107.447 1172.277 C 1107.723 1170.841, 1107.089 1170.494, 1104.144 1170.467 C 1102.140 1170.448, 1100.169 1170.898, 1099.765 1171.467 C 1099.292 1172.132, 1099.025 1172.054, 1099.015 1171.250 C 1099.007 1170.563, 1097.827 1170, 1096.393 1170 C 1094.613 1170, 1093.951 1169.571, 1094.305 1168.647 C 1094.669 1167.698, 1094.088 1167.375, 1092.358 1167.565 C 1090.330 1167.788, 1090.101 1167.584, 1091.068 1166.418 C 1092.240 1165.006, 1091.279 1164.582, 1087.250 1164.731 C 1086.563 1164.757, 1086 1164.153, 1086 1163.389 C 1086 1162.625, 1085.531 1162, 1084.958 1162 C 1084.385 1162, 1083.372 1161.536, 1082.708 1160.968 C 1079.571 1158.289, 1066.053 1152.306, 1065.533 1153.366 C 1065.228 1153.990, 1065.153 1153.535, 1065.368 1152.355 C 1065.641 1150.853, 1065.056 1149.891, 1063.415 1149.143 C 1061.935 1148.469, 1060.852 1148.430, 1060.477 1149.038 C 1060.150 1149.567, 1058.784 1150, 1057.441 1150 C 1055.194 1150, 1054.549 1149.112, 1054.896 1146.500 C 1054.969 1145.950, 1054.362 1146.354, 1053.546 1147.398 C 1052.400 1148.865, 1051.750 1149.037, 1050.689 1148.157 C 1049.934 1147.530, 1048.959 1147.351, 1048.523 1147.759 C 1048.086 1148.166, 1048.240 1147.517, 1048.865 1146.316 C 1049.489 1145.114, 1050 1143.926, 1050 1143.674 C 1050 1142.764, 1044.878 1141.957, 1043.705 1142.683 C 1043.043 1143.092, 1041.213 1143.291, 1039.638 1143.126 C 1037.513 1142.903, 1036.951 1143.171, 1037.461 1144.163 C 1037.839 1144.898, 1037.440 1144.626, 1036.574 1143.559 C 1035.708 1142.491, 1035 1142.058, 1035 1142.596 C 1035 1143.134, 1034.090 1143.643, 1032.978 1143.727 C 1031.866 1143.810, 1031.179 1143.519, 1031.451 1143.079 C 1031.723 1142.639, 1030.168 1141.478, 1027.996 1140.498 C 1024.594 1138.964, 1023.808 1138.910, 1022.331 1140.108 C 1021.388 1140.874, 1020.898 1141.029, 1021.242 1140.452 C 1022.133 1138.960, 1020.838 1137.259, 1018.500 1136.850 C 1017.037 1136.594, 1016.581 1136.981, 1016.803 1138.292 C 1017.073 1139.882, 1016.847 1139.938, 1014.803 1138.792 C 1013.537 1138.081, 1012.169 1137.050, 1011.765 1136.500 C 1010.673 1135.013, 1010.847 1132.787, 1012 1133.500 C 1012.550 1133.840, 1013 1133.641, 1013 1133.059 C 1013 1131.655, 1011.889 1131.769, 1009.750 1133.392 C 1007.987 1134.730, 1007.358 1136.214, 1008.750 1135.750 C 1009.451 1135.516, 1010 1136.301, 1010 1137.535 C 1010 1137.830, 1009.100 1137.589, 1008 1137 C 1006.900 1136.411, 1006 1135.098, 1006 1134.081 C 1006 1133.065, 1005.212 1132.007, 1004.250 1131.730 C 1003.288 1131.453, 1001.600 1130.864, 1000.500 1130.419 C 998.594 1129.650, 998.582 1129.695, 1000.250 1131.377 C 1002.294 1133.440, 1002.610 1134.751, 1000.676 1133.146 C 999.840 1132.452, 999.002 1132.398, 998.402 1132.998 C 997.803 1133.597, 996.448 1133.426, 994.726 1132.533 C 993.227 1131.755, 992 1131.465, 992 1131.889 C 992 1133.246, 987.544 1132.554, 986.282 1131 C 985.228 1129.702, 985.043 1129.769, 984.913 1131.500" stroke="none" fill="#f4f4f4" fill-rule="evenodd"/></svg>