<svg xmlns="http://www.w3.org/2000/svg" width="2048" height="2048" viewBox="0 0 2048 2048" version="1.1"><path d="" stroke="none" fill="#fcf4f4" fill-rule="evenodd"/><path d="M 826.131 336.919 C 825.415 337.362, 824.868 338.011, 824.915 338.362 C 825.159 340.189, 824.934 341.268, 824.417 340.750 C 823.781 340.114, 820.002 343.533, 819.996 344.750 C 819.994 345.163, 819.008 347.075, 817.804 349 C 816.600 350.925, 815.448 353.614, 815.243 354.975 C 815.039 356.336, 814.454 357.953, 813.944 358.567 C 813.434 359.181, 813.313 359.980, 813.675 360.342 C 814.037 360.704, 813.921 361, 813.417 361 C 812.913 361, 812.500 363.061, 812.500 365.581 C 812.500 368.466, 811.945 370.594, 811 371.331 C 809.156 372.768, 808.587 375.626, 809.973 376.484 C 810.538 376.833, 811 377.822, 811 378.681 C 811 379.871, 810.681 379.980, 809.667 379.138 C 808.657 378.301, 808.333 378.392, 808.333 379.516 C 808.333 380.332, 808.708 381, 809.167 381 C 810.716 381, 809.969 385.483, 808 388 C 805.998 390.559, 805.277 393.565, 806.907 392.558 C 807.405 392.249, 807.560 392.968, 807.249 394.155 C 806.911 395.449, 807.081 396.068, 807.676 395.700 C 808.221 395.364, 808.667 395.723, 808.667 396.500 C 808.667 397.277, 808.233 397.644, 807.704 397.317 C 807.174 396.989, 806.962 397.347, 807.233 398.111 C 807.504 398.875, 807.075 400.787, 806.280 402.360 C 805.244 404.410, 805.190 405.001, 806.087 404.446 C 806.979 403.895, 807.147 404.174, 806.670 405.418 C 806.301 406.378, 806 408.027, 806 409.082 C 806 410.137, 805.373 411, 804.607 411 C 803.841 411, 803.007 411.563, 802.754 412.250 C 802.099 414.033, 802.996 416.120, 804.119 415.426 C 805.296 414.699, 804.575 419.056, 803.047 421.912 C 802.432 423.061, 801.570 424, 801.131 424 C 800.693 424, 800.333 425.615, 800.333 427.588 C 800.333 429.561, 799.762 431.529, 799.063 431.961 C 798.125 432.541, 798.069 433.260, 798.850 434.720 C 799.606 436.133, 799.583 437.017, 798.769 437.831 C 797.279 439.321, 797.030 442.996, 798.417 443.015 C 799.013 443.024, 798.880 443.423, 798.122 443.904 C 797.364 444.384, 797.053 445.277, 797.431 445.888 C 797.838 446.546, 797.379 447.006, 796.309 447.015 C 794.757 447.028, 794.713 447.181, 796 448.091 C 796.970 448.778, 797.110 449.314, 796.395 449.611 C 795.788 449.863, 795.502 451.174, 795.760 452.523 C 796.018 453.873, 796.637 454.724, 797.136 454.416 C 797.635 454.108, 797.937 455.238, 797.809 456.928 C 797.680 458.617, 797.043 460, 796.394 460 C 795.745 460, 794.941 460.712, 794.607 461.582 C 793.644 464.090, 793.896 465.181, 795.250 464.367 C 796.247 463.768, 796.249 463.926, 795.259 465.150 C 794.576 465.994, 794.303 466.969, 794.651 467.318 C 795 467.666, 794.832 468.525, 794.279 469.226 C 793.725 469.927, 793.221 471.175, 793.158 472 C 792.802 476.638, 790.867 484.035, 790.128 483.581 C 789.783 483.369, 789.399 484.580, 789.277 486.272 C 789.154 487.964, 788.479 489.714, 787.777 490.159 C 787.074 490.605, 786.893 490.976, 787.372 490.985 C 787.852 490.993, 787.689 491.669, 787.011 492.487 C 786.332 493.305, 786.037 494.655, 786.357 495.487 C 787.061 497.323, 785.892 497.456, 784.053 495.750 C 782.956 494.732, 782.814 494.810, 783.290 496.167 C 783.622 497.115, 783.279 498.063, 782.495 498.364 C 781.737 498.655, 781.122 499.704, 781.130 500.696 C 781.159 504.465, 780.282 505.998, 776.710 508.422 C 774.684 509.797, 773.133 510.433, 773.263 509.836 C 773.393 509.239, 772.984 508.559, 772.353 508.326 C 771.722 508.093, 771.272 508.701, 771.353 509.677 C 771.434 510.653, 770.825 511.473, 770 511.500 C 769.175 511.527, 768.562 512.325, 768.639 513.274 C 768.715 514.223, 768.351 515, 767.830 515 C 767.309 515, 767.179 515.480, 767.541 516.067 C 767.904 516.654, 767.593 517.033, 766.850 516.909 C 764.456 516.511, 762 518.160, 762 520.166 C 762 521.387, 762.432 521.851, 763.155 521.405 C 763.818 520.995, 764.039 521.127, 763.675 521.716 C 763.327 522.280, 761.634 523.023, 759.913 523.367 C 757.786 523.793, 756.955 524.441, 757.319 525.390 C 757.614 526.158, 756.763 527.813, 755.428 529.068 C 752.556 531.766, 752.350 532.976, 754.750 533.063 C 756.045 533.110, 755.891 533.371, 754.158 534.065 C 752.869 534.582, 751.458 534.783, 751.021 534.513 C 750.585 534.243, 749.982 534.963, 749.681 536.112 C 749.380 537.261, 748.767 537.978, 748.317 537.706 C 747.207 537.032, 745.437 539.152, 745.566 541 C 745.624 541.825, 744.507 543.562, 743.085 544.860 C 741.663 546.158, 741.175 546.912, 742 546.536 C 742.825 546.159, 742.624 546.562, 741.554 547.430 C 740.315 548.434, 739.260 548.660, 738.651 548.051 C 736.931 546.331, 733.908 548.785, 734.558 551.373 C 734.972 553.026, 734.700 553.667, 733.582 553.667 C 732.404 553.667, 732.297 553.347, 733.138 552.333 C 735.411 549.594, 732.685 551.123, 729.721 554.250 C 728.026 556.038, 726.972 556.938, 727.379 556.250 C 727.799 555.540, 727.610 555, 726.942 555 C 726.259 555, 725.986 555.838, 726.290 557 C 726.577 558.100, 726.405 559, 725.906 559 C 725.408 559, 725 558.527, 725 557.949 C 725 557.371, 723.495 558.046, 721.656 559.449 C 719.816 560.852, 717.869 562, 717.329 562 C 716.790 562, 715.035 563.575, 713.429 565.500 C 711.824 567.425, 709.946 569, 709.256 569 C 708.565 569, 708.112 569.563, 708.250 570.250 C 708.387 570.938, 707.744 571.506, 706.821 571.513 C 705.897 571.520, 704.772 571.929, 704.321 572.423 C 703.856 572.931, 704.013 573.027, 704.681 572.644 C 705.330 572.272, 706.087 572.331, 706.362 572.776 C 706.637 573.221, 706.001 573.650, 704.950 573.729 C 703.899 573.808, 702.774 573.444, 702.451 572.920 C 701.761 571.804, 700 572.665, 700 574.118 C 700 574.668, 700.450 574.840, 701 574.500 C 701.550 574.160, 702 574.310, 702 574.834 C 702 575.358, 701.302 576.054, 700.448 576.382 C 699.594 576.709, 699.152 576.563, 699.464 576.058 C 699.777 575.552, 699.575 574.856, 699.016 574.510 C 698.457 574.165, 697.993 574.696, 697.985 575.691 C 697.972 577.246, 697.818 577.289, 696.890 576 C 696 574.762, 695.918 574.828, 696.423 576.377 C 697.222 578.829, 695.350 581, 692.437 581 C 691.161 581, 689.810 581.498, 689.434 582.107 C 688.957 582.878, 688.490 582.803, 687.890 581.857 C 687.205 580.776, 687.028 580.766, 687.015 581.809 C 687.007 582.529, 686.550 582.840, 686 582.500 C 685.450 582.160, 685 582.286, 685 582.780 C 685 583.823, 680.274 586.313, 677.838 586.554 C 676.924 586.644, 675.362 587.031, 674.366 587.413 C 672.815 588.008, 672.766 588.255, 674.028 589.141 C 675.190 589.956, 675.040 590.073, 673.315 589.697 C 672.113 589.435, 670.238 589.846, 669.148 590.609 C 667.602 591.692, 667.068 591.723, 666.720 590.749 C 665.956 588.611, 664.702 590.647, 664.077 595.037 C 664.034 595.333, 663.158 595.638, 662.129 595.715 C 661.100 595.793, 659.013 597.010, 657.491 598.421 C 655.332 600.422, 653.962 600.890, 651.252 600.554 C 648.451 600.207, 647.683 600.498, 647.274 602.062 C 646.801 603.867, 644.167 604.603, 640.150 604.052 C 639.282 603.932, 639.082 604.337, 639.592 605.183 C 640.203 606.200, 640.055 606.248, 638.942 605.394 C 636.939 603.859, 633 602.996, 633 604.094 C 633 604.592, 632.325 605, 631.500 605 C 630.675 605, 630 605.477, 630 606.059 C 630 606.641, 630.520 606.797, 631.155 606.405 C 631.822 605.992, 632.039 606.127, 631.669 606.726 C 630.824 608.093, 626.097 608.967, 625.426 607.880 C 624.742 606.773, 620.704 607.389, 620.278 608.665 C 620.098 609.205, 618.562 609.443, 616.865 609.193 C 615.167 608.944, 613.491 609.147, 613.139 609.643 C 611.752 611.602, 607.087 613.950, 606.493 612.989 C 606.157 612.445, 604.532 612, 602.882 612 C 601.232 612, 600.136 611.590, 600.446 611.088 C 600.756 610.586, 600.220 610.303, 599.255 610.459 C 598.290 610.615, 596.973 610.325, 596.329 609.814 C 595.487 609.147, 595.309 609.465, 595.695 610.943 C 596.013 612.158, 595.752 613, 595.058 613 C 594.383 613, 594.202 613.533, 594.633 614.250 C 595.102 615.031, 594.721 614.962, 593.616 614.064 C 592.158 612.881, 591.703 612.862, 591.026 613.958 C 590.445 614.899, 589.020 615.099, 586.162 614.642 C 583.778 614.261, 581.863 614.413, 581.491 615.014 C 581.145 615.574, 580.474 615.793, 580 615.500 C 579.526 615.207, 578.916 615.326, 578.645 615.765 C 578.374 616.204, 576.663 616.676, 574.842 616.815 C 573.022 616.954, 571.098 617.502, 570.566 618.034 C 569.170 619.430, 567.749 619.222, 568.633 617.750 C 569.232 616.753, 569.073 616.751, 567.850 617.741 C 566.460 618.866, 562.365 619.755, 557.750 619.933 C 556.788 619.970, 556 620.715, 556 621.588 C 556 622.879, 555.273 623.053, 552.106 622.518 C 548.813 621.962, 547.976 622.196, 546.686 624.038 C 545.846 625.237, 544.712 625.940, 544.165 625.602 C 543.618 625.264, 542.907 625.553, 542.585 626.244 C 542.123 627.236, 541.873 627.224, 541.396 626.189 C 540.552 624.356, 536.934 627.665, 537.674 629.594 C 538.008 630.463, 537.563 631, 536.508 631 C 533.701 631, 527.964 634.133, 528.673 635.280 C 529.076 635.932, 528.716 636.105, 527.737 635.729 C 526.056 635.084, 523.554 637.220, 524.675 638.342 C 525.910 639.577, 522.404 639.004, 521.053 637.750 C 520.240 636.995, 519.960 636.953, 520.348 637.645 C 520.700 638.275, 520.312 639.050, 519.485 639.367 C 518.658 639.685, 518.098 640.519, 518.241 641.222 C 518.383 641.925, 517.890 642.372, 517.145 642.215 C 516.399 642.058, 515.162 642.451, 514.395 643.087 C 513.628 643.724, 513 643.910, 513 643.500 C 513 643.090, 512.330 643.311, 511.511 643.991 C 510.692 644.671, 510.271 645.629, 510.574 646.120 C 510.878 646.612, 510.426 647.283, 509.569 647.612 C 508.712 647.941, 508.260 648.612, 508.565 649.105 C 508.869 649.597, 507.993 650, 506.618 650 C 503.306 650, 502.350 651.767, 504.650 653.641 C 505.667 654.470, 505.934 654.861, 505.242 654.510 C 503.894 653.827, 501 656.158, 501 657.929 C 501 658.518, 500.325 659, 499.500 659 C 498.675 659, 498 659.450, 498 660 C 498 660.550, 498.460 661, 499.023 661 C 499.586 661, 499.312 662.121, 498.414 663.491 C 497.516 664.862, 496.380 665.735, 495.891 665.432 C 495.086 664.935, 494.527 667.186, 494.917 669.355 C 495.212 671.001, 492.854 672.857, 490.936 672.488 C 488.868 672.089, 488.295 673.446, 490.068 674.542 C 491.229 675.260, 488.023 679.042, 486.831 678.363 C 486.462 678.153, 485.642 679.554, 485.008 681.475 C 484.374 683.397, 482.754 685.835, 481.407 686.894 C 479.737 688.208, 479.363 688.983, 480.230 689.334 C 481.177 689.717, 481.205 690.059, 480.341 690.677 C 479.703 691.133, 478.418 693.414, 477.485 695.746 C 476.552 698.079, 475.342 699.712, 474.798 699.375 C 474.239 699.030, 473.974 699.577, 474.190 700.632 C 474.401 701.659, 473.969 702.962, 473.231 703.527 C 472.492 704.092, 471.756 705.217, 471.595 706.027 C 470.742 710.312, 466.426 719.093, 465.586 718.253 C 465.206 717.872, 465.209 718.380, 465.593 719.381 C 466.023 720.504, 465.756 721.533, 464.896 722.064 C 464.128 722.539, 463.500 723.374, 463.500 723.920 C 463.500 724.467, 462.600 725.594, 461.500 726.425 C 460.292 727.338, 460.018 727.949, 460.809 727.968 C 461.529 727.986, 461.835 728.457, 461.490 729.016 C 461.144 729.575, 460.398 729.746, 459.831 729.396 C 459.203 729.007, 459.244 729.587, 459.935 730.879 C 460.997 732.864, 460.715 733.229, 458.362 732.915 C 457.141 732.751, 456.120 735.440, 457 736.500 C 457.487 737.087, 457.516 738.164, 457.065 738.894 C 456.614 739.624, 456.467 741.072, 456.739 742.111 C 457.011 743.150, 456.751 744, 456.162 744 C 455.573 744, 454.796 745.571, 454.436 747.491 C 454.075 749.411, 453.493 750.804, 453.140 750.587 C 452.788 750.369, 452.410 751.795, 452.299 753.756 C 452.189 755.717, 451.514 757.692, 450.799 758.145 C 450.085 758.599, 449.790 758.976, 450.145 758.985 C 450.499 758.993, 450.439 760.555, 450.010 762.455 C 449.495 764.739, 449.607 766.036, 450.340 766.280 C 450.949 766.483, 450.447 766.911, 449.223 767.231 C 447.709 767.627, 447.204 767.444, 447.645 766.657 C 448.018 765.992, 447.703 766.050, 446.905 766.792 C 446.034 767.602, 445.886 768.347, 446.508 768.792 C 447.996 769.854, 448.314 773.188, 447.005 773.997 C 445.604 774.863, 444.910 780, 446.194 780 C 446.700 780, 446.413 781, 445.557 782.223 C 444.701 783.445, 444 785.245, 444 786.223 C 444 787.200, 443.502 788, 442.893 788 C 442.284 788, 442.045 788.675, 442.362 789.500 C 442.678 790.325, 442.501 791, 441.969 791 C 441.436 791, 441 791.585, 441 792.300 C 441 793.015, 440.465 794.135, 439.810 794.790 C 438.376 796.224, 437.791 799.247, 439.104 798.436 C 439.615 798.120, 439.731 797.373, 439.362 796.776 C 438.971 796.144, 439.154 795.977, 439.801 796.377 C 441.237 797.264, 439.643 801.606, 438.022 801.225 C 437.378 801.074, 437.117 801.381, 437.442 801.906 C 437.767 802.432, 437.575 803.144, 437.016 803.490 C 436.457 803.835, 436 804.961, 436 805.992 C 436 807.026, 435.045 808.168, 433.868 808.542 C 432.397 809.009, 432.113 809.452, 432.953 809.971 C 434.412 810.872, 434.304 811.984, 432.562 814 C 431.849 814.825, 431.281 817.677, 431.299 820.338 C 431.320 823.332, 430.823 825.491, 429.995 826.003 C 429.258 826.458, 428.596 828.120, 428.522 829.697 C 428.448 831.273, 428.049 833.112, 427.635 833.782 C 427.221 834.452, 427.359 835, 427.941 835 C 428.523 835, 429 835.594, 429 836.320 C 429 837.046, 430.238 839.015, 431.750 840.695 C 434.020 843.217, 435.065 843.665, 437.740 843.263 C 439.522 842.995, 440.733 842.376, 440.431 841.888 C 439.874 840.988, 441.949 840.604, 445.390 840.971 C 446.735 841.115, 447.107 840.720, 446.677 839.602 C 446.305 838.630, 446.820 837.632, 448.027 836.985 C 449.101 836.411, 449.931 835.616, 449.872 835.220 C 449.494 832.714, 450.168 830.851, 451.295 831.283 C 452.083 831.585, 452.654 830.946, 452.751 829.655 C 452.839 828.486, 453.381 827.373, 453.956 827.181 C 454.530 826.990, 455 826.196, 455 825.417 C 455 824.638, 455.364 824, 455.809 824 C 456.254 824, 457.491 823.292, 458.559 822.426 C 459.626 821.560, 459.825 821.131, 459 821.472 C 458.175 821.813, 458.522 821.336, 459.770 820.411 C 464.969 816.560, 470.006 811.169, 468.785 810.762 C 467.853 810.451, 467.978 809.879, 469.259 808.598 C 470.217 807.641, 471 805.764, 471 804.429 C 471 803.093, 471.563 801.993, 472.250 801.985 C 473.186 801.973, 473.165 801.757, 472.166 801.124 C 471.100 800.448, 471.163 800.151, 472.480 799.646 C 473.386 799.299, 473.844 798.557, 473.499 797.998 C 472.627 796.587, 473.938 792.843, 475.061 793.537 C 475.565 793.849, 475.727 793.451, 475.420 792.653 C 475.114 791.855, 475.344 790.905, 475.932 790.542 C 476.519 790.179, 477 788.810, 477 787.500 C 477 786.190, 477.489 784.816, 478.087 784.446 C 478.685 784.077, 478.969 782.989, 478.718 782.029 C 478.467 781.069, 478.749 779.433, 479.344 778.392 C 479.939 777.351, 480.468 776.050, 480.520 775.500 C 480.572 774.950, 480.992 773.667, 481.453 772.649 C 482.002 771.438, 481.851 770.526, 481.018 770.011 C 480.317 769.578, 480.058 768.716, 480.441 768.095 C 480.824 767.475, 481.670 767.286, 482.319 767.676 C 482.969 768.065, 482.861 767.597, 482.081 766.636 C 481.300 765.674, 481.075 764.966, 481.581 765.062 C 483.637 765.453, 484.017 764.901, 483 763 C 482.274 761.644, 482.263 761, 482.965 761 C 483.534 761, 484 760.523, 484 759.941 C 484 759.359, 483.550 759.160, 483 759.500 C 481.687 760.312, 481.722 756.862, 483.062 753.336 C 483.792 751.417, 483.800 750.433, 483.088 750.196 C 482.444 749.981, 482.611 748.997, 483.529 747.595 C 484.342 746.355, 484.705 745.039, 484.337 744.670 C 483.968 744.302, 484.150 744, 484.740 744 C 485.330 744, 485.577 743.100, 485.290 742 C 484.926 740.609, 485.259 740, 486.383 740 C 488.187 740, 488.483 738.891, 487.065 737.450 C 485.668 736.030, 488.402 725.598, 490.799 723.201 C 491.918 722.082, 493.120 721.453, 493.470 721.803 C 493.819 722.153, 493.807 721.660, 493.441 720.707 C 493.075 719.754, 493.315 718.325, 493.974 717.531 C 494.633 716.737, 494.839 715.548, 494.432 714.889 C 494.024 714.230, 494.113 713.952, 494.629 714.271 C 495.146 714.590, 498.028 712.571, 501.034 709.784 C 504.040 706.996, 505.861 705.079, 505.080 705.522 C 504.012 706.128, 503.826 705.896, 504.330 704.582 C 504.699 703.622, 505.007 702.536, 505.015 702.168 C 505.024 701.801, 505.467 702.175, 506 703 C 506.849 704.313, 506.971 704.302, 506.985 702.911 C 507 701.289, 512.002 696.217, 515.538 694.239 C 516.615 693.636, 518.635 691.031, 520.026 688.451 C 521.417 685.871, 522.993 683.782, 523.528 683.809 C 525.182 683.892, 527.892 680.882, 527.375 679.535 C 527.106 678.833, 527.609 677.980, 528.494 677.640 C 529.601 677.216, 529.871 677.410, 529.360 678.261 C 528.631 679.474, 531.941 677.244, 533.039 675.782 C 533.336 675.387, 534.992 674.956, 536.720 674.825 C 538.448 674.693, 539.697 674.319, 539.495 673.993 C 539.294 673.667, 540.047 672.827, 541.169 672.126 C 542.844 671.080, 543.088 671.089, 542.530 672.176 C 542.157 672.904, 542.528 672.670, 543.355 671.655 C 544.840 669.834, 551.395 668.552, 550.319 670.293 C 550.013 670.788, 550.604 671.010, 551.632 670.787 C 552.659 670.564, 553.369 669.790, 553.209 669.068 C 553.019 668.209, 553.500 667.978, 554.600 668.400 C 555.525 668.755, 557.343 668.350, 558.641 667.500 C 559.938 666.649, 561 666.414, 561 666.977 C 561 668.433, 563.733 668.247, 564.338 666.750 C 564.615 666.063, 564.908 666.625, 564.989 668 L 565.135 670.500 566.220 668.250 C 566.817 667.013, 567.717 666, 568.220 666 C 568.723 666, 568.884 667.013, 568.577 668.250 C 568.270 669.487, 568.277 669.938, 568.593 669.250 C 568.908 668.563, 569.859 668, 570.706 668 C 571.955 668, 572.012 667.720, 571.010 666.512 C 570.009 665.306, 570.084 664.905, 571.404 664.398 C 572.300 664.055, 574.151 663.987, 575.517 664.248 C 576.883 664.509, 578 664.283, 578 663.745 C 578 663.207, 579.125 662.982, 580.500 663.245 C 581.875 663.508, 583 663.283, 583 662.745 C 583 662.207, 583.825 661.982, 584.833 662.246 C 585.949 662.538, 586.667 662.192, 586.667 661.363 C 586.667 660.613, 586.217 660, 585.667 660 C 585.117 660, 584.964 659.703, 585.327 659.339 C 585.690 658.976, 586.862 659.470, 587.931 660.437 C 589.790 662.120, 589.970 662.106, 592.127 660.096 C 593.827 658.512, 594.575 658.304, 595.175 659.249 C 595.896 660.384, 596.404 659.599, 596.127 657.775 C 596.066 657.377, 597.155 657.569, 598.545 658.203 C 600.658 659.165, 601.356 659.055, 602.787 657.536 C 603.795 656.467, 603.922 656.046, 603.095 656.514 C 602.156 657.046, 601.927 656.927, 602.405 656.155 C 603.320 654.674, 606 654.650, 606 656.122 C 606 656.854, 606.589 656.767, 607.692 655.872 C 608.803 654.971, 609.129 654.924, 608.642 655.735 C 608.087 656.659, 608.730 656.813, 611.200 656.344 C 613.015 656, 615.019 655.313, 615.653 654.818 C 616.381 654.249, 616.963 654.388, 617.232 655.197 C 617.569 656.206, 618.205 656.228, 620.245 655.298 C 622.434 654.301, 622.937 654.379, 623.516 655.810 C 624.118 657.297, 624.298 657.247, 625.015 655.392 C 625.890 653.130, 630.794 651.600, 633.653 652.697 C 634.698 653.098, 635.083 652.943, 634.676 652.284 C 634.304 651.683, 635.099 651.023, 636.520 650.751 C 638.400 650.392, 638.768 650.575, 638.008 651.491 C 636.701 653.065, 645.301 650.930, 649.952 648.525 C 652.392 647.263, 653.470 647.145, 654.528 648.023 C 656.010 649.254, 658.387 648.435, 657.500 647 C 657.207 646.526, 657.494 645.813, 658.138 645.415 C 658.869 644.963, 659.041 645.124, 658.595 645.845 C 658.203 646.480, 658.359 647, 658.941 647 C 659.523 647, 660 646.498, 660 645.883 C 660 645.269, 660.848 644.988, 661.884 645.259 C 663.704 645.735, 667.398 642.731, 666.319 641.652 C 665.436 640.770, 670.430 642.234, 671.710 643.233 C 672.589 643.920, 672.810 643.609, 672.518 642.093 C 672.262 640.765, 672.821 639.631, 674.058 638.969 C 675.126 638.397, 676.014 638.283, 676.032 638.715 C 676.049 639.147, 676.636 638.748, 677.335 637.828 C 678.034 636.909, 679.482 636.234, 680.553 636.328 C 681.624 636.423, 682.412 636.012, 682.306 635.417 C 682.111 634.335, 683.403 633.974, 687.869 633.862 C 689.325 633.826, 690.430 633.070, 690.736 631.902 C 691.184 630.187, 692.212 629.580, 694.189 629.861 C 694.568 629.915, 695.130 629.167, 695.437 628.198 C 695.753 627.204, 697.125 626.343, 698.589 626.222 C 700.014 626.104, 702.378 625.170, 703.840 624.146 C 705.303 623.123, 707.850 621.846, 709.500 621.309 C 711.150 620.772, 712.500 619.696, 712.500 618.917 C 712.500 617.615, 713.110 617.432, 716.059 617.850 C 716.641 617.933, 716.843 618.445, 716.507 618.989 C 716.155 619.559, 716.564 619.721, 717.474 619.372 C 718.638 618.925, 718.770 618.428, 717.977 617.472 C 716.494 615.685, 718.623 614.442, 720.500 616 C 721.307 616.670, 722.467 616.821, 723.206 616.351 C 723.918 615.900, 724.725 615.485, 725 615.429 C 726.800 615.063, 729 613.636, 729 612.834 C 729 612.310, 728.438 612.207, 727.750 612.605 C 727.063 613.002, 727.761 612.129, 729.302 610.664 C 730.842 609.199, 732.545 608, 733.085 608 C 733.625 608, 735.357 606.680, 736.934 605.067 C 738.511 603.454, 740.065 602.398, 740.387 602.720 C 740.709 603.042, 741.911 602.112, 743.059 600.653 C 744.206 599.194, 745.865 598, 746.744 598 C 749.079 598, 751.956 595.050, 751.297 593.331 C 750.898 592.293, 751.292 591.947, 752.614 592.175 C 753.766 592.373, 754.393 591.984, 754.225 591.176 C 754.074 590.447, 754.431 590.149, 755.019 590.512 C 755.607 590.875, 756.743 590.628, 757.544 589.964 C 758.648 589.047, 759 589.040, 759 589.937 C 759 590.586, 759.563 590.833, 760.250 590.485 C 760.938 590.137, 760.600 590.621, 759.500 591.560 C 757.723 593.078, 757.705 593.198, 759.332 592.635 C 760.339 592.286, 761.352 592, 761.582 592 C 761.812 592, 762 590.847, 762 589.437 C 762 587.595, 762.492 586.924, 763.750 587.052 C 766.940 587.377, 767.402 587.015, 765.540 585.653 C 764.101 584.601, 763.983 584.128, 765.003 583.498 C 765.866 582.965, 766.067 583.082, 765.595 583.845 C 765.203 584.480, 765.310 585, 765.834 585 C 766.358 585, 767.045 584.325, 767.362 583.500 C 767.678 582.675, 768.578 582, 769.362 582 C 770.145 582, 771.049 581.314, 771.371 580.475 C 771.776 579.421, 772.713 579.141, 774.411 579.567 C 776.526 580.098, 777.155 579.617, 778.953 576.092 C 780.101 573.841, 781.473 572, 782.001 572 C 782.530 572, 783.256 570.763, 783.615 569.250 C 784.504 565.509, 786.864 563, 789.494 563 C 792.004 563, 794.455 558.855, 792.877 557.277 C 791.834 556.234, 796.322 550.750, 799 549.796 C 800.223 549.360, 800.278 548.885, 799.301 547.226 C 798.248 545.438, 798.399 545.117, 800.551 544.577 C 801.898 544.238, 803 543.465, 803 542.859 C 803 542.162, 802.388 542.261, 801.339 543.128 C 799.823 544.381, 799.798 544.309, 801.051 542.295 C 801.807 541.083, 802.613 540.280, 802.844 540.510 C 803.678 541.345, 807 538.893, 807 537.443 C 807 536.626, 808.125 535.445, 809.500 534.818 C 810.875 534.192, 812 533.034, 812 532.246 C 812 531.458, 812.900 530.577, 814 530.290 C 815.100 530.002, 816 529.339, 816 528.816 C 816 528.293, 814.987 528.116, 813.750 528.423 C 812.513 528.730, 812.065 528.722, 812.756 528.405 C 813.447 528.088, 813.772 527.440, 813.478 526.965 C 813.184 526.489, 813.969 525.603, 815.222 524.995 C 817.404 523.936, 817.418 523.955, 815.559 525.445 C 814.491 526.300, 814.099 527, 814.686 527 C 815.274 527, 816.285 526.361, 816.933 525.581 C 817.863 524.461, 817.730 523.918, 816.305 523.005 C 815.046 522.199, 814.976 521.993, 816.072 522.325 C 818.099 522.938, 820.276 519.676, 818.815 518.215 C 817.717 517.117, 818.628 514.652, 819.853 515.409 C 820.246 515.652, 820.517 514.330, 820.455 512.472 C 820.393 510.614, 820.616 509.263, 820.949 509.469 C 821.283 509.675, 822.668 508.937, 824.028 507.829 C 825.647 506.509, 825.896 506.008, 824.750 506.376 C 823.788 506.684, 823 506.501, 823 505.969 C 823 505.436, 823.360 505, 823.800 505 C 824.240 505, 824.656 503.988, 824.725 502.750 C 824.924 499.140, 825.494 497.314, 826.980 495.525 C 828.171 494.089, 828.165 493.719, 826.936 492.952 C 825.756 492.216, 825.902 491.773, 827.750 490.471 C 828.987 489.600, 830 488.097, 830 487.132 C 830 486.167, 830.945 484.363, 832.100 483.123 C 833.343 481.788, 833.993 480.081, 833.693 478.935 C 833.415 477.871, 833.558 477, 834.012 477 C 834.465 477, 835.661 476.738, 836.668 476.418 C 838.344 475.886, 838.335 475.971, 836.559 477.418 C 834.990 478.697, 834.918 479, 836.186 479 C 837.049 479, 838.315 478.325, 839 477.500 C 839.860 476.464, 839.898 476, 839.122 476 C 838.505 476, 838 475.325, 838 474.500 C 838 473.675, 838.360 473, 838.799 473 C 839.526 473, 842.526 466.181, 842.318 465 C 842.270 464.725, 841.905 463.431, 841.508 462.125 C 841.043 460.594, 841.151 459.975, 841.811 460.383 C 842.387 460.739, 843.127 459.699, 843.497 458.015 C 844.092 455.305, 844.367 455.124, 846.328 456.152 C 848.483 457.282, 848.486 457.275, 846.595 455.146 C 844.943 453.285, 844.905 453, 846.310 453 C 847.201 453, 848.411 452.100, 849 451 C 849.862 449.389, 849.760 449, 848.476 449 C 847.526 449, 847.170 449.466, 847.595 450.155 C 848.038 450.870, 847.870 451.038, 847.155 450.595 C 845.537 449.596, 845.718 447.425, 847.571 445.571 C 848.440 444.703, 848.648 444, 848.036 444 C 847.233 444, 847.238 443.423, 848.055 441.898 C 848.674 440.742, 848.956 438.942, 848.684 437.898 C 848.310 436.470, 848.721 435.996, 850.344 435.985 C 851.935 435.973, 852.144 435.744, 851.143 435.110 C 850.197 434.510, 850.122 434.043, 850.893 433.566 C 851.502 433.190, 852 431.982, 852 430.882 C 852 429.782, 851.550 429.160, 851 429.500 C 850.435 429.849, 850 429.030, 850 427.618 C 850 426.243, 850.385 424.880, 850.855 424.590 C 851.325 424.299, 851.632 422.496, 851.537 420.584 C 851.442 418.671, 851.762 417.353, 852.250 417.654 C 852.737 417.956, 852.895 418.832, 852.600 419.601 C 851.621 422.150, 852.923 421.050, 854.505 417.991 C 855.623 415.829, 855.781 414.459, 855.066 413.122 C 854.518 412.100, 854.312 411.021, 854.608 410.726 C 854.903 410.430, 855.358 408.684, 855.620 406.844 C 855.881 405.005, 856.353 402.825, 856.669 402 C 857.970 398.604, 857.575 393.575, 855.875 391.875 C 854.912 390.912, 854.526 389.984, 855.017 389.813 C 855.530 389.633, 855.486 387.624, 854.912 385.082 C 854.363 382.653, 854.230 379.953, 854.615 379.082 C 855.660 376.721, 855.090 374.899, 852.671 372.879 C 851.477 371.882, 851.063 371.052, 851.750 371.033 C 853.522 370.986, 853.298 368.385, 851.253 365.263 C 849.785 363.023, 849.752 362.691, 851.048 363.188 C 852.761 363.846, 853.566 360.468, 851.936 359.461 C 851.421 359.142, 850.980 359.471, 850.955 360.191 C 850.930 360.911, 850.318 360.150, 849.594 358.500 C 848.870 356.850, 848.469 355.159, 848.703 354.743 C 848.936 354.327, 848.490 353.742, 847.712 353.443 C 846.824 353.102, 846.471 351.987, 846.765 350.450 C 847.036 349.033, 846.762 348, 846.117 348 C 845.502 348, 845.049 347.663, 845.108 347.250 C 845.401 345.221, 843.577 342.111, 841.416 340.955 C 840.087 340.244, 839 339.202, 839 338.640 C 839 338.078, 838.339 338.491, 837.532 339.559 C 836.724 340.626, 836.049 340.968, 836.032 340.317 C 836 339.130, 832.244 337.401, 830.645 337.837 C 830.174 337.965, 829.259 337.630, 828.611 337.092 C 827.963 336.554, 826.847 336.476, 826.131 336.919" stroke="none" fill="#f4f4f4" fill-rule="evenodd"/></svg>