<svg width="122" height="36" viewBox="0 0 122 36" fill="none" xmlns="http://www.w3.org/2000/svg">
<path d="M10.07 31.996C9.63799 31.996 9.18799 31.942 8.71999 31.834C8.28799 31.762 7.83799 31.618 7.36999 31.402C7.11799 31.042 6.77599 30.862 6.34399 30.862C6.09199 30.574 5.82199 30.376 5.53399 30.268C5.31799 30.124 5.08399 29.908 4.83199 29.62C4.61599 29.332 4.41799 29.17 4.23799 29.134C3.84199 28.666 3.46399 28.18 3.10399 27.676C2.74399 27.172 2.41999 26.65 2.13199 26.11V26.002C2.13199 25.75 2.04199 25.552 1.86199 25.408C1.71799 25.264 1.57399 25.084 1.42999 24.868C1.28599 24.616 1.24999 24.364 1.32199 24.112C1.39399 23.824 1.28599 23.572 0.997992 23.356C0.889992 23.032 0.817992 22.672 0.781992 22.276C0.781992 21.88 0.691992 21.556 0.511992 21.304C0.439992 21.16 0.403992 21.07 0.403992 21.034C0.403992 20.89 0.439992 20.764 0.511992 20.656C0.583992 20.548 0.637992 20.422 0.673992 20.278C0.493992 20.242 0.403992 20.098 0.403992 19.846V19.684C0.403992 19.288 0.565992 18.982 0.889992 18.766C1.21399 18.55 1.55599 18.442 1.91599 18.442C2.49199 18.442 2.83399 18.658 2.94199 19.09L3.10399 19.684C2.95999 19.864 2.88799 20.008 2.88799 20.116C2.88799 20.224 3.01399 20.404 3.26599 20.656C3.30199 20.8 3.31999 20.998 3.31999 21.25C4.11199 22.474 5.17399 23.572 6.50599 24.544L6.55999 24.652C6.70399 24.76 6.82999 24.85 6.93799 24.922C7.04599 24.958 7.17199 25.012 7.31599 25.084C7.71199 25.336 7.92799 25.534 7.96399 25.678C8.03599 25.822 8.34199 25.894 8.88199 25.894C8.98999 25.894 9.06199 25.984 9.09799 26.164C9.16999 26.344 9.25999 26.47 9.36799 26.542C9.47599 26.578 9.60199 26.578 9.74599 26.542C9.88999 26.47 10.016 26.47 10.124 26.542C10.196 26.578 10.25 26.632 10.286 26.704C10.358 26.74 10.412 26.776 10.448 26.812C10.52 26.848 10.844 26.974 11.42 27.19C11.996 27.37 12.572 27.568 13.148 27.784C13.76 27.964 14.138 28.072 14.282 28.108C14.57 27.784 14.876 27.514 15.2 27.298C15.524 27.046 15.812 26.74 16.064 26.38C16.316 26.308 16.46 26.2 16.496 26.056C16.532 25.876 16.568 25.678 16.604 25.462C16.784 25.21 16.946 24.922 17.09 24.598C17.234 24.274 17.396 24.004 17.576 23.788C17.972 23.32 18.206 22.816 18.278 22.276C18.386 21.736 18.584 21.286 18.872 20.926C18.944 20.854 19.052 20.782 19.196 20.71C19.376 20.638 19.466 20.566 19.466 20.494V20.44C19.466 20.08 19.538 19.72 19.682 19.36C19.862 18.964 20.024 18.586 20.168 18.226C20.312 18.082 20.402 17.92 20.438 17.74C20.51 17.524 20.6 17.344 20.708 17.2C20.852 17.056 20.96 16.93 21.032 16.822C21.14 16.714 21.176 16.552 21.14 16.336L21.248 15.58C21.248 15.4 21.284 15.184 21.356 14.932C21.464 14.644 21.536 14.41 21.572 14.23C21.644 13.87 21.752 13.438 21.896 12.934C22.04 12.394 22.184 11.98 22.328 11.692C22.58 11.224 22.76 10.738 22.868 10.234C22.976 9.69401 23.102 9.19001 23.246 8.72201C23.498 8.57801 23.624 8.34401 23.624 8.02001C23.696 7.87601 23.786 7.53401 23.894 6.99401C24.002 6.45401 24.056 6.11201 24.056 5.96801C23.948 5.96801 23.822 5.93201 23.678 5.86001C23.57 5.50001 23.606 5.08601 23.786 4.61801C23.966 4.11401 24.2 3.62801 24.488 3.16001C24.776 2.69201 24.992 2.31401 25.136 2.02601C25.388 1.63001 25.694 1.28801 26.054 1.00001C26.414 0.676008 26.846 0.514008 27.35 0.514008C27.53 0.514008 27.728 0.532007 27.944 0.568007C28.16 0.568007 28.322 0.640007 28.43 0.784007C28.898 0.964007 29.132 1.23401 29.132 1.59401C29.132 1.84601 29.042 2.15201 28.862 2.51201C28.682 2.83601 28.556 3.16001 28.484 3.48401C28.052 3.66401 27.8 4.11401 27.728 4.83401C27.692 5.51801 27.62 6.05801 27.512 6.45401C27.476 6.63401 27.404 6.77801 27.296 6.88601C27.188 6.99401 27.224 7.15601 27.404 7.37201V7.69601L27.242 7.80401L27.458 8.18201C27.458 8.29001 27.458 8.52401 27.458 8.88401C27.494 9.20801 27.53 9.53201 27.566 9.85601C27.602 10.144 27.602 10.306 27.566 10.342C27.53 10.414 27.458 10.45 27.35 10.45C27.134 10.45 26.99 10.36 26.918 10.18C26.81 9.89201 26.756 9.56801 26.756 9.20801C26.792 8.84801 26.702 8.52401 26.486 8.23601C26.45 8.12801 26.432 8.02001 26.432 7.91201C26.432 7.80401 26.432 7.73201 26.432 7.69601C26.432 7.55201 26.432 7.44401 26.432 7.37201C26.468 7.30001 26.486 7.24601 26.486 7.21001C26.486 7.13801 26.342 6.88601 26.054 6.45401V5.91401C25.658 6.41801 25.37 6.92201 25.19 7.42601C25.01 7.57001 24.902 7.75001 24.866 7.96601C24.83 8.18201 24.776 8.38001 24.704 8.56001C24.344 9.49601 23.984 10.432 23.624 11.368C23.3 12.304 22.976 13.24 22.652 14.176C22.4 14.32 22.274 14.518 22.274 14.77C22.274 14.986 22.238 15.202 22.166 15.418L21.14 18.226C20.888 18.298 20.762 18.424 20.762 18.604C20.798 18.748 20.816 18.91 20.816 19.09C20.816 19.342 20.744 19.576 20.6 19.792C20.492 19.972 20.402 20.17 20.33 20.386C19.826 21.79 19.214 23.212 18.494 24.652C17.81 26.092 17 27.406 16.064 28.594C16.568 28.702 17.054 28.792 17.522 28.864C17.99 28.972 18.458 29.062 18.926 29.134C19.394 29.206 19.97 29.278 20.654 29.35C21.374 29.422 21.914 29.494 22.274 29.566C22.67 29.638 23.102 29.692 23.57 29.728C24.038 29.764 24.47 29.782 24.866 29.782H25.244C25.388 29.782 25.496 29.782 25.568 29.782C25.676 29.818 25.82 29.872 26 29.944C26.072 29.98 26.144 29.962 26.216 29.89C26.288 29.854 26.36 29.836 26.432 29.836C26.612 29.8 26.792 29.782 26.972 29.782C27.152 29.818 27.314 29.836 27.458 29.836C27.53 29.8 27.62 29.782 27.728 29.782C27.872 29.782 27.998 29.8 28.106 29.836C28.25 29.908 28.376 29.944 28.484 29.944C28.664 29.944 28.808 29.908 28.916 29.836C29.024 29.8 29.15 29.782 29.294 29.782C29.474 29.926 29.636 29.998 29.78 29.998C29.924 29.998 30.068 29.908 30.212 29.728C30.608 29.692 31.076 29.62 31.616 29.512C32.192 29.404 32.426 29.044 32.318 28.432C32.282 28.144 32.228 27.964 32.156 27.892C32.084 27.82 31.958 27.694 31.778 27.514C31.634 27.406 31.508 27.262 31.4 27.082C31.292 26.902 31.148 26.794 30.968 26.758C30.896 26.686 30.86 26.578 30.86 26.434C30.86 26.218 30.986 26.11 31.238 26.11C31.382 26.11 31.526 26.182 31.67 26.326C31.814 26.398 31.904 26.506 31.94 26.65C32.012 26.794 32.12 26.92 32.264 27.028C32.336 27.172 32.462 27.28 32.642 27.352C32.822 27.424 32.984 27.532 33.128 27.676C33.524 28.252 33.722 28.774 33.722 29.242C33.722 29.926 33.416 30.502 32.804 30.97C32.192 31.438 31.472 31.69 30.644 31.726C30.572 31.654 30.464 31.618 30.32 31.618C30.176 31.618 30.05 31.636 29.942 31.672C29.87 31.708 29.762 31.726 29.618 31.726C28.934 31.69 28.232 31.618 27.512 31.51C26.792 31.402 26.09 31.312 25.406 31.24C25.334 31.24 25.262 31.222 25.19 31.186C25.118 31.186 25.046 31.186 24.974 31.186C24.722 31.006 24.398 30.916 24.002 30.916C23.642 30.916 23.318 30.88 23.03 30.808C22.922 30.772 22.67 30.718 22.274 30.646C21.914 30.574 21.554 30.502 21.194 30.43C20.87 30.358 20.672 30.34 20.6 30.376C20.204 30.304 19.79 30.196 19.358 30.052C18.962 29.944 18.566 29.872 18.17 29.836C17.738 29.764 17.288 29.656 16.82 29.512C16.388 29.404 15.956 29.296 15.524 29.188C14.732 30.052 13.886 30.736 12.986 31.24C12.086 31.744 11.114 31.996 10.07 31.996ZM9.69199 31.078C10.592 31.078 11.348 30.844 11.96 30.376C12.608 29.908 13.22 29.35 13.796 28.702C13.436 28.63 13.076 28.54 12.716 28.432C12.356 28.324 11.996 28.198 11.636 28.054C11.312 27.91 11.024 27.802 10.772 27.73C10.556 27.622 10.268 27.532 9.90799 27.46C9.76399 27.424 9.60199 27.37 9.42199 27.298C9.24199 27.226 9.06199 27.172 8.88199 27.136C8.62999 27.028 8.39599 26.884 8.17999 26.704C7.96399 26.488 7.71199 26.416 7.42399 26.488C7.24399 26.416 7.04599 26.344 6.82999 26.272C6.64999 26.2 6.46999 26.11 6.28999 26.002C6.10999 25.858 5.98399 25.732 5.91199 25.624C5.83999 25.48 5.65999 25.444 5.37199 25.516L4.93999 25.3C4.79599 25.156 4.66999 25.012 4.56199 24.868C4.48999 24.724 4.32799 24.652 4.07599 24.652C3.78799 24.652 3.46399 24.49 3.10399 24.166C2.74399 23.806 2.47399 23.5 2.29399 23.248C2.47399 23.716 2.65399 24.166 2.83399 24.598C3.01399 25.03 3.19399 25.462 3.37399 25.894C3.44599 26.146 3.53599 26.362 3.64399 26.542C3.78799 26.686 3.82399 26.884 3.75199 27.136C3.75199 27.208 3.84199 27.298 4.02199 27.406C4.20199 27.478 4.36399 27.622 4.50799 27.838C4.57999 28.126 4.66999 28.288 4.77799 28.324C4.88599 28.36 4.99399 28.468 5.10199 28.648C5.38999 28.972 5.55199 29.224 5.58799 29.404C5.62399 29.584 5.94799 29.71 6.55999 29.782L7.04599 30.106C7.18999 30.358 7.35199 30.484 7.53199 30.484C7.71199 30.52 7.90999 30.574 8.12599 30.646C8.41399 30.718 8.66599 30.808 8.88199 30.916C9.13399 31.024 9.40399 31.078 9.69199 31.078Z" fill="white" fill-opacity="0.8"/>
<path d="M37.6813 28.486C36.8893 28.486 36.1873 28.27 35.5753 27.838C34.9993 27.37 34.7113 26.578 34.7113 25.462C34.7113 25.066 34.7833 24.508 34.9273 23.788C35.0713 23.068 35.3053 22.312 35.6293 21.52C35.8093 21.088 36.0073 20.674 36.2233 20.278C36.4753 19.882 36.7093 19.504 36.9253 19.144C36.9613 19.108 37.0693 19.144 37.2493 19.252C37.4653 19.36 37.5913 19.396 37.6273 19.36C37.6633 19.288 37.6093 19.216 37.4653 19.144C37.3573 19.036 37.3213 18.964 37.3573 18.928C37.4293 18.856 37.4833 18.82 37.5193 18.82C37.5913 18.784 37.6453 18.73 37.6813 18.658C37.7173 18.586 37.7353 18.514 37.7353 18.442C37.7353 18.334 37.6813 18.244 37.5733 18.172C37.5013 18.1 37.5373 17.992 37.6813 17.848C37.8613 17.596 38.0593 17.362 38.2753 17.146C38.5273 16.894 38.7433 16.678 38.9233 16.498C38.9953 16.426 39.0853 16.318 39.1933 16.174C39.3013 15.994 39.3733 15.886 39.4093 15.85L39.5173 15.742C39.5533 15.706 39.5893 15.67 39.6253 15.634C39.6253 15.598 39.6253 15.58 39.6253 15.58C39.6613 15.58 39.6793 15.562 39.6793 15.526C39.6793 15.418 39.5713 15.31 39.3553 15.202C39.1393 15.094 39.0313 15.022 39.0313 14.986C39.0313 14.95 39.0133 14.914 38.9773 14.878C38.9413 14.842 38.9053 14.788 38.8693 14.716C38.9053 14.716 38.9413 14.68 38.9773 14.608C39.0493 14.5 39.1033 14.446 39.1393 14.446C39.1753 14.446 39.2473 14.482 39.3553 14.554C39.4633 14.59 39.5353 14.608 39.5713 14.608C39.6073 14.608 39.6253 14.59 39.6253 14.554C39.6613 14.518 39.6973 14.5 39.7333 14.5C39.8053 14.5 39.9673 14.554 40.2193 14.662C40.4713 14.734 40.6153 14.77 40.6513 14.77C40.6873 14.77 40.7953 14.68 40.9753 14.5C41.1553 14.32 41.2633 14.212 41.2993 14.176C41.3713 14.104 41.4253 14.032 41.4613 13.96C41.4973 13.852 41.5873 13.726 41.7313 13.582H41.7853C41.8213 13.546 41.8393 13.51 41.8393 13.474C41.8393 13.438 41.8393 13.42 41.8393 13.42C41.9113 13.348 41.9653 13.294 42.0013 13.258C42.0733 13.186 42.1273 13.132 42.1633 13.096C42.1993 13.06 42.2173 13.042 42.2173 13.042C42.2533 13.042 42.2713 13.042 42.2713 13.042C42.3073 12.97 42.3433 12.916 42.3793 12.88C42.4513 12.844 42.5053 12.808 42.5413 12.772L42.6493 12.556C42.7213 12.484 42.9733 12.322 43.4053 12.07C43.8373 11.818 44.1613 11.692 44.3773 11.692H44.6473C44.6473 11.692 44.6473 11.71 44.6473 11.746C44.6473 11.746 44.6653 11.746 44.7013 11.746C44.7373 11.746 44.7733 11.746 44.8093 11.746C44.8453 11.71 44.8813 11.692 44.9173 11.692C44.9173 11.692 44.9713 11.746 45.0793 11.854C45.1153 11.89 45.1513 11.908 45.1873 11.908C45.2233 11.872 45.2593 11.854 45.2953 11.854C45.3313 11.89 45.3493 11.926 45.3493 11.962C45.3493 11.998 45.3673 12.016 45.4033 12.016C45.4753 12.016 45.4933 12.016 45.4573 12.016C45.4573 11.98 45.4753 11.962 45.5113 11.962C45.5473 11.962 45.5653 11.998 45.5653 12.07C45.5653 12.142 45.5833 12.214 45.6193 12.286C45.5833 12.394 45.5473 12.52 45.5113 12.664C45.5113 12.772 45.4933 12.862 45.4573 12.934C45.1333 13.366 44.8813 13.582 44.7013 13.582C44.7013 13.618 44.6473 13.69 44.5393 13.798C44.4313 13.798 44.3053 13.834 44.1613 13.906C44.0173 13.978 43.8733 14.05 43.7293 14.122V14.284C43.7293 14.428 43.6753 14.5 43.5673 14.5C43.4953 14.464 43.4233 14.518 43.3513 14.662V14.716C43.4233 14.824 43.5493 14.878 43.7293 14.878L44.1073 14.932C44.1793 14.932 44.2153 14.914 44.2153 14.878C44.2513 14.842 44.2873 14.824 44.3233 14.824C44.3593 14.824 44.3773 14.842 44.3773 14.878C44.3773 14.878 44.3953 14.878 44.4313 14.878C44.5033 14.878 44.5573 14.86 44.5933 14.824C44.6293 14.788 44.6653 14.77 44.7013 14.77L45.1873 14.824C45.0793 14.644 45.0253 14.5 45.0253 14.392C45.0253 14.212 45.1873 14.104 45.5113 14.068C46.0153 14.068 46.4473 14.248 46.8073 14.608C46.8793 14.572 46.9693 14.572 47.0773 14.608C47.1853 14.644 47.2933 14.644 47.4013 14.608L47.6713 14.446L47.7253 14.5C47.8693 14.428 47.9593 14.392 47.9953 14.392C48.0673 14.392 48.0853 14.41 48.0493 14.446C48.0493 14.446 48.0673 14.446 48.1033 14.446C48.1033 14.446 48.1393 14.41 48.2113 14.338C48.2473 14.338 48.2833 14.356 48.3193 14.392C48.3913 14.392 48.4453 14.374 48.4813 14.338L48.6433 14.176H49.2913L49.3453 14.122C49.4173 14.086 49.5073 14.05 49.6153 14.014C49.7593 13.942 49.8853 13.906 49.9933 13.906C49.9933 13.87 50.0293 13.852 50.1013 13.852C50.1733 13.816 50.2273 13.798 50.2633 13.798H50.3713C50.5513 13.798 50.6413 13.852 50.6413 13.96C50.6413 14.068 50.5873 14.158 50.4793 14.23C50.4433 14.266 50.3893 14.284 50.3173 14.284C50.2453 14.248 50.1733 14.248 50.1013 14.284C49.9573 14.428 49.8493 14.5 49.7773 14.5C49.7413 14.5 49.7233 14.5 49.7233 14.5C49.7233 14.464 49.7053 14.446 49.6693 14.446C49.6333 14.446 49.5613 14.5 49.4533 14.608L49.0753 14.662H49.0213C48.9493 14.662 48.9133 14.698 48.9133 14.77C48.7693 14.77 48.6253 14.788 48.4813 14.824C48.3373 14.824 48.1933 14.842 48.0493 14.878L47.9953 14.932C47.9593 14.932 47.9233 14.95 47.8873 14.986C47.8513 14.986 47.7973 14.986 47.7253 14.986C47.6533 15.022 47.4553 15.04 47.1313 15.04C47.3473 15.328 47.4913 15.598 47.5633 15.85C47.6353 16.03 47.6893 16.318 47.7253 16.714C47.7973 17.074 47.8153 17.344 47.7793 17.524C47.7793 17.632 47.7433 17.668 47.6713 17.632C47.5993 17.56 47.5633 17.56 47.5633 17.632C47.5633 17.74 47.5993 17.812 47.6713 17.848C47.7793 17.848 47.8333 17.938 47.8333 18.118C47.8333 18.226 47.8153 18.37 47.7793 18.55C47.7433 18.694 47.7073 18.856 47.6713 19.036C47.6353 19.252 47.5813 19.486 47.5093 19.738C47.4733 19.954 47.3833 20.17 47.2393 20.386L47.0773 20.656V20.98C47.0773 21.268 46.9873 21.466 46.8073 21.574C46.6633 21.682 46.5553 21.808 46.4833 21.952C46.4113 22.168 46.3573 22.312 46.3213 22.384C46.3213 22.456 46.2493 22.6 46.1053 22.816C45.6373 23.536 45.0793 24.22 44.4313 24.868C43.7833 25.516 43.1533 26.11 42.5413 26.65C42.0013 27.118 41.2633 27.55 40.3273 27.946C39.4273 28.306 38.5453 28.486 37.6813 28.486ZM38.2213 27.514C38.3293 27.514 38.5453 27.496 38.8693 27.46C39.1933 27.388 39.5353 27.226 39.8953 26.974C39.9673 26.938 40.0393 26.956 40.1113 27.028C40.1833 27.1 40.2553 27.118 40.3273 27.082C40.5073 27.01 40.5793 26.956 40.5433 26.92C40.5073 26.884 40.5613 26.848 40.7053 26.812H40.7593C40.9753 26.812 41.0653 26.794 41.0293 26.758C41.0293 26.686 41.0473 26.596 41.0833 26.488C41.0833 26.38 41.1373 26.29 41.2453 26.218C41.3533 26.146 41.4433 26.092 41.5153 26.056C41.9113 25.732 42.3973 25.192 42.9733 24.436C43.5493 23.644 44.1253 22.852 44.7013 22.06C44.7373 21.988 44.7913 21.97 44.8633 22.006C44.9353 22.042 44.9893 22.042 45.0253 22.006C45.0613 21.97 45.0793 21.862 45.0793 21.682C45.0793 21.574 45.1333 21.412 45.2413 21.196C45.3493 20.944 45.4573 20.746 45.5653 20.602C45.6013 20.494 45.6733 20.296 45.7813 20.008C45.8893 19.684 45.9793 19.396 46.0513 19.144C46.1593 18.856 46.1773 18.712 46.1053 18.712C46.0333 18.676 45.9973 18.64 45.9973 18.604C45.9973 18.532 46.1053 18.46 46.3213 18.388C46.5373 18.316 46.5193 18.262 46.2673 18.226C46.1953 18.19 46.2133 18.118 46.3213 18.01C46.4293 17.902 46.3753 17.83 46.1593 17.794C45.9793 17.758 45.9073 17.704 45.9433 17.632C46.0153 17.56 46.0693 17.506 46.1053 17.47C46.2133 17.362 46.2673 17.254 46.2673 17.146C46.2673 16.822 46.1773 16.498 45.9973 16.174C45.8533 15.85 45.6913 15.562 45.5113 15.31C45.2953 15.454 45.1873 15.526 45.1873 15.526C45.1513 15.526 45.1333 15.526 45.1333 15.526C45.1333 15.49 45.0973 15.472 45.0253 15.472C44.9893 15.472 44.9713 15.472 44.9713 15.472C44.9713 15.436 44.9533 15.418 44.9173 15.418C44.8813 15.418 44.8453 15.436 44.8093 15.472C44.7733 15.508 44.7553 15.526 44.7553 15.526C44.7193 15.562 44.6473 15.58 44.5393 15.58C44.4673 15.58 44.4133 15.58 44.3773 15.58C44.3413 15.58 44.3053 15.562 44.2693 15.526C44.2693 15.49 44.2513 15.472 44.2153 15.472C44.1793 15.472 44.1253 15.508 44.0533 15.58C44.0173 15.652 43.9633 15.688 43.8913 15.688C43.8553 15.688 43.8373 15.67 43.8373 15.634C43.8373 15.598 43.8013 15.58 43.7293 15.58C43.6933 15.58 43.6573 15.598 43.6213 15.634C43.6213 15.67 43.6033 15.688 43.5673 15.688C43.5313 15.688 43.4593 15.634 43.3513 15.526H43.2973C43.2973 15.742 43.2433 15.85 43.1353 15.85C43.0993 15.85 43.0453 15.814 42.9733 15.742C42.5773 15.994 41.9113 16.588 40.9753 17.524C40.0393 18.424 39.2113 19.468 38.4913 20.656C38.3473 20.944 38.1673 21.286 37.9513 21.682C37.7713 22.078 37.6093 22.528 37.4653 23.032C37.4293 23.248 37.3213 23.41 37.1413 23.518C36.9973 23.626 36.8893 23.752 36.8173 23.896C36.7813 24.04 36.7993 24.13 36.8713 24.166C36.9433 24.202 36.9973 24.256 37.0333 24.328C37.0333 24.472 36.9973 24.67 36.9253 24.922C36.8893 25.174 36.8713 25.408 36.8713 25.624C36.8713 26.308 36.9973 26.794 37.2493 27.082C37.5373 27.37 37.8613 27.514 38.2213 27.514Z" fill="white" fill-opacity="0.8"/>
<path d="M57.8959 11.152C57.7879 11.152 57.6799 11.116 57.5719 11.044C57.4999 10.972 57.3919 10.882 57.2479 10.774C57.1759 10.738 57.0859 10.702 56.9779 10.666C56.9059 10.594 56.8699 10.486 56.8699 10.342C56.8339 10.306 56.7619 10.288 56.6539 10.288C56.4739 10.288 56.3839 10.162 56.3839 9.91001C56.3839 9.62201 56.5278 9.42401 56.8158 9.31601L57.0858 9.10001V9.15401L57.3018 8.88401H57.4099C57.6259 8.88401 57.7699 8.77601 57.8419 8.56001C57.9498 8.34401 58.1659 8.20001 58.4899 8.12801C58.7059 8.05601 58.8858 8.07401 59.0299 8.18201C59.1738 8.29001 59.3539 8.34401 59.5699 8.34401C59.7859 8.34401 60.0199 8.27201 60.2719 8.12801L61.0819 7.96601C61.1899 7.96601 61.2439 8.00201 61.2439 8.07401C61.2439 8.14601 61.1359 8.23601 60.9199 8.34401C60.7399 8.45201 60.6139 8.54201 60.5419 8.61401L60.4879 8.66801L60.4339 8.77601L60.2178 9.04601C60.0018 9.29801 59.7499 9.60401 59.4619 9.96401C59.2099 10.288 58.9399 10.558 58.6519 10.774C58.3279 11.026 58.0759 11.152 57.8959 11.152ZM49.6879 28.162C49.4719 28.162 49.3638 28.036 49.3638 27.784C49.3638 27.604 49.4179 27.388 49.5259 27.136C49.8139 26.524 50.1379 25.66 50.4979 24.544C50.8939 23.428 51.3799 22.474 51.9559 21.682C52.3519 20.89 52.7119 20.116 53.0359 19.36C53.3959 18.568 53.7379 17.776 54.0619 16.984C54.0619 16.984 54.0258 16.966 53.9538 16.93C53.9178 16.858 53.8999 16.786 53.8999 16.714C53.6839 16.57 53.4499 16.372 53.1979 16.12C52.9819 15.832 52.9639 15.544 53.1439 15.256C53.2159 15.184 53.2699 15.148 53.3059 15.148C53.3419 15.148 53.3599 15.148 53.3599 15.148C53.3599 15.112 53.3419 15.094 53.3059 15.094C53.3059 15.058 53.3059 15.04 53.3059 15.04C53.3059 14.896 53.3779 14.806 53.5219 14.77C53.6659 14.734 53.7379 14.68 53.7379 14.608C53.8099 14.104 54.2419 13.726 55.0339 13.474C55.8259 13.222 56.5279 13.096 57.1399 13.096C57.7519 13.096 58.0578 13.186 58.0578 13.366C58.0578 13.438 57.9499 13.564 57.7339 13.744C57.6259 13.816 57.4459 13.978 57.1939 14.23C56.9419 14.482 56.7079 14.788 56.4919 15.148L56.0599 15.796C56.0239 15.868 55.9698 15.958 55.8979 16.066C55.8619 16.138 55.8079 16.21 55.7359 16.282C55.1599 17.326 54.6919 18.208 54.3319 18.928C53.9719 19.648 53.5399 20.566 53.0359 21.682C52.9639 21.898 52.9279 22.042 52.9279 22.114C52.9279 22.366 53.0719 22.492 53.3599 22.492C53.5759 22.492 53.7919 22.438 54.0079 22.33L54.5479 22.114C55.4119 21.322 56.3119 20.656 57.2479 20.116C57.2839 20.116 57.3018 20.116 57.3018 20.116C57.3378 20.08 57.3739 20.062 57.4099 20.062C57.5179 20.062 57.5899 20.134 57.6259 20.278C57.6619 20.386 57.6259 20.476 57.5179 20.548C56.4739 21.124 55.5019 21.862 54.6019 22.762C54.5659 22.834 54.5299 22.906 54.4939 22.978C54.4579 23.05 54.4039 23.122 54.3319 23.194C54.2599 23.266 54.1519 23.392 54.0079 23.572C53.8999 23.752 53.8459 23.86 53.8459 23.896C53.8099 24.004 53.7558 24.04 53.6838 24.004C53.6478 23.968 53.5399 24.022 53.3599 24.166C53.3239 24.202 53.2879 24.274 53.2519 24.382C53.2519 24.49 53.2339 24.58 53.1979 24.652C53.1619 24.76 53.0898 24.85 52.9818 24.922C52.9098 24.958 52.8739 24.994 52.8739 25.03C52.8379 25.174 52.7659 25.264 52.6579 25.3C52.5859 25.3 52.5139 25.336 52.4419 25.408C52.4059 25.444 52.4059 25.498 52.4419 25.57C52.4779 25.642 52.4599 25.714 52.3879 25.786C52.3519 25.894 52.3159 25.948 52.2799 25.948C52.2439 25.912 52.1899 25.93 52.1179 26.002C51.9739 26.146 51.8658 26.218 51.7938 26.218C51.5778 26.29 51.4878 26.344 51.5238 26.38C51.5958 26.416 51.6499 26.452 51.6859 26.488C51.7579 26.488 51.7038 26.542 51.5238 26.65C51.4518 26.686 51.3798 26.794 51.3078 26.974C51.2358 27.118 51.1639 27.226 51.0919 27.298C50.9839 27.37 50.8759 27.424 50.7679 27.46C50.6959 27.496 50.6059 27.568 50.4979 27.676C50.1739 28 49.9039 28.162 49.6879 28.162Z" fill="white" fill-opacity="0.8"/>
<path d="M63.2954 28.216C63.2594 28.216 63.2054 28.18 63.1334 28.108C63.0614 28.072 63.0074 28.054 62.9714 28.054C62.8274 28.09 62.7014 28.108 62.5934 28.108C62.4854 28.108 62.3774 28.108 62.2694 28.108C62.2334 28.108 62.1974 28.09 62.1614 28.054C62.1614 28.018 62.1434 28 62.1074 28C62.0714 28 62.0534 28 62.0534 28C62.0894 28.036 62.0894 28.054 62.0534 28.054C62.0534 28.054 62.0174 28.036 61.9454 28C61.8734 27.964 61.8194 27.946 61.7834 27.946L61.7294 27.892C61.6574 27.892 61.6034 27.874 61.5674 27.838C61.5674 27.802 61.5494 27.784 61.5134 27.784L61.4594 27.838L61.4054 27.784C61.3334 27.748 61.2254 27.712 61.0814 27.676C60.9734 27.604 60.8834 27.55 60.8114 27.514C60.7394 27.514 60.6494 27.46 60.5414 27.352H60.4334C60.3614 27.244 60.2354 27.172 60.0554 27.136C60.0554 27.1 60.0374 27.064 60.0014 27.028H59.9474C59.8754 26.92 59.8214 26.884 59.7854 26.92C59.7494 26.848 59.6954 26.794 59.6234 26.758C59.5874 26.686 59.5334 26.632 59.4614 26.596C59.4614 26.452 59.4254 26.38 59.3534 26.38C59.3534 26.308 59.2814 26.2 59.1374 26.056C59.0294 25.912 58.9574 25.786 58.9214 25.678L58.8674 25.624C58.7234 25.48 58.6154 25.246 58.5434 24.922C58.5074 24.778 58.4714 24.724 58.4354 24.76C58.4354 24.796 58.4174 24.706 58.3814 24.49C58.3814 24.454 58.3814 24.4 58.3814 24.328C58.4174 24.22 58.4174 24.148 58.3814 24.112C58.3814 24.076 58.3634 24.058 58.3274 24.058C58.3274 24.022 58.3274 23.986 58.3274 23.95C58.2914 23.914 58.2734 23.896 58.2734 23.896C58.3094 23.86 58.3274 23.842 58.3274 23.842C58.3274 23.77 58.3094 23.734 58.2734 23.734C58.2734 23.698 58.2734 23.662 58.2734 23.626V23.518C58.2734 23.338 58.3094 23.212 58.3814 23.14C58.3814 23.068 58.3994 23.014 58.4354 22.978C58.4714 22.942 58.4894 22.906 58.4894 22.87C58.4894 22.798 58.5254 22.762 58.5974 22.762C58.6694 22.762 58.7054 22.744 58.7054 22.708C58.7054 22.636 58.7234 22.6 58.7594 22.6C58.8314 22.564 58.8854 22.528 58.9214 22.492C58.9214 22.456 58.9394 22.42 58.9754 22.384C59.0474 22.348 59.0834 22.312 59.0834 22.276C59.2634 22.168 59.4614 22.114 59.6774 22.114C60.1094 22.114 60.3254 22.222 60.3254 22.438C60.3254 22.51 60.2174 22.636 60.0014 22.816C59.9654 22.924 59.9474 22.996 59.9474 23.032C59.9834 23.032 59.9654 23.068 59.8934 23.14C59.9294 23.248 59.9474 23.392 59.9474 23.572C59.9114 23.572 59.8934 23.626 59.8934 23.734C59.9294 23.806 59.9474 23.842 59.9474 23.842C59.9474 23.878 59.9654 23.986 60.0014 24.166C60.0734 24.346 60.1274 24.454 60.1634 24.49C60.1634 24.49 60.1994 24.58 60.2714 24.76C60.3434 24.904 60.3794 24.994 60.3794 25.03V25.138C60.4514 25.246 60.4874 25.318 60.4874 25.354C60.5234 25.354 60.6674 25.426 60.9194 25.57C60.9554 25.606 61.0274 25.624 61.1354 25.624C61.3154 25.732 61.4414 25.822 61.5134 25.894C61.6214 25.966 61.8734 26.038 62.2694 26.11C62.4134 26.146 62.4674 26.182 62.4314 26.218C62.4314 26.218 62.5034 26.218 62.6474 26.218C62.6474 26.218 62.6474 26.236 62.6474 26.272C62.6474 26.272 62.6654 26.272 62.7014 26.272C62.7734 26.236 62.8454 26.236 62.9174 26.272C62.9894 26.272 63.0614 26.254 63.1334 26.218H63.3494C63.6014 26.218 63.8714 26.182 64.1594 26.11L64.9694 25.894C65.2214 25.858 65.4554 25.786 65.6714 25.678C65.8874 25.57 66.0854 25.462 66.2654 25.354C66.3014 25.354 66.4094 25.3 66.5894 25.192C66.7694 25.048 66.9854 24.904 67.2374 24.76C67.2014 24.652 67.1834 24.508 67.1834 24.328C67.1834 24.22 67.2374 24.166 67.3454 24.166C67.4534 24.13 67.5254 24.076 67.5614 24.004C67.4534 23.932 67.3094 23.896 67.1294 23.896C66.9854 23.896 66.9314 23.842 66.9674 23.734C66.8234 22.942 66.6074 22.222 66.3194 21.574C66.0674 20.926 65.7614 20.206 65.4014 19.414C65.3654 19.306 65.2934 19.126 65.1854 18.874C65.0774 18.622 65.0054 18.424 64.9694 18.28C64.9694 18.244 65.0054 18.244 65.0774 18.28C65.1494 18.28 65.1674 18.262 65.1314 18.226C65.0954 18.046 65.0594 17.866 65.0234 17.686C65.0234 17.506 65.0054 17.344 64.9694 17.2C64.9334 17.128 64.9694 17.074 65.0774 17.038C65.1854 17.002 65.2214 16.948 65.1854 16.876C65.1494 16.804 65.0774 16.786 64.9694 16.822C64.8614 16.858 64.7894 16.84 64.7534 16.768L64.5914 16.12C64.5914 15.94 64.5554 15.832 64.4834 15.796C64.4474 15.76 64.4834 15.688 64.5914 15.58C64.6634 15.544 64.6994 15.49 64.6994 15.418C64.6994 15.31 64.7174 15.238 64.7534 15.202C64.9334 15.094 65.0054 14.968 64.9694 14.824C64.9334 14.644 64.9694 14.482 65.0774 14.338C65.1854 14.194 65.2754 14.068 65.3474 13.96C65.4194 13.816 65.5274 13.726 65.6714 13.69C65.7794 13.618 65.8154 13.636 65.7794 13.744C65.7434 13.852 65.7434 13.906 65.7794 13.906C65.9594 13.906 66.0314 13.816 65.9954 13.636C65.9594 13.456 66.0134 13.294 66.1574 13.15C66.4094 12.934 66.7874 12.754 67.2914 12.61C67.7954 12.466 68.1734 12.376 68.4254 12.34C68.4974 12.34 68.5514 12.34 68.5874 12.34C68.6594 12.304 68.7134 12.286 68.7494 12.286C68.9294 12.286 69.1094 12.304 69.2894 12.34C69.5054 12.376 69.7034 12.412 69.8834 12.448C70.0274 12.484 70.2434 12.628 70.5314 12.88C70.8194 13.096 71.0354 13.15 71.1794 13.042C71.5034 12.754 71.8454 12.502 72.2054 12.286C72.6014 12.07 72.8534 11.98 72.9614 12.016C73.2494 12.052 73.5014 12.142 73.7174 12.286C73.9334 12.394 74.0054 12.754 73.9334 13.366C73.8974 13.582 73.8074 13.762 73.6634 13.906C73.5554 14.014 73.4474 14.158 73.3394 14.338L72.9614 14.878C72.8174 15.13 72.6374 15.382 72.4214 15.634C72.2414 15.886 72.0794 16.048 71.9354 16.12C71.7914 16.192 71.6474 16.318 71.5034 16.498C71.3954 16.642 71.2514 16.786 71.0714 16.93C70.8914 17.074 70.6934 17.182 70.4774 17.254C70.2974 17.29 70.1714 17.326 70.0994 17.362C69.9914 17.398 69.8294 17.416 69.6134 17.416C69.4334 17.38 69.3794 17.308 69.4514 17.2C69.5234 17.164 69.5414 17.128 69.5054 17.092C69.4694 17.02 69.4514 16.966 69.4514 16.93C69.4514 16.858 69.4874 16.804 69.5594 16.768C69.6674 16.732 69.7394 16.678 69.7754 16.606C69.8114 16.57 69.9014 16.444 70.0454 16.228C70.2254 16.012 70.2974 15.886 70.2614 15.85C70.2614 15.742 70.2974 15.652 70.3694 15.58C70.3694 15.508 70.3694 15.454 70.3694 15.418C70.3694 15.346 70.4054 15.292 70.4774 15.256C70.6214 15.22 70.6934 15.166 70.6934 15.094V14.446C70.6934 14.302 70.6754 14.158 70.6394 14.014C70.6394 13.87 70.6034 13.744 70.5314 13.636C70.2434 13.276 69.7754 13.096 69.1274 13.096C68.6594 13.096 68.2094 13.204 67.7774 13.42C67.3094 13.636 66.9134 13.996 66.5894 14.5C66.3374 14.86 66.2114 15.238 66.2114 15.634C66.2114 15.922 66.2654 16.21 66.3734 16.498C66.5174 16.786 66.6434 17.056 66.7514 17.308C66.8594 17.56 67.0034 17.866 67.1834 18.226C67.3994 18.586 67.5614 18.874 67.6694 19.09C67.8494 19.378 68.0474 19.72 68.2634 20.116C68.4794 20.476 68.6414 20.818 68.7494 21.142C68.7854 21.178 68.7494 21.214 68.6414 21.25C68.5694 21.25 68.5514 21.286 68.5874 21.358C68.6234 21.43 68.6774 21.466 68.7494 21.466C68.8214 21.466 68.8754 21.502 68.9114 21.574C68.9834 21.682 68.9834 21.772 68.9114 21.844C68.8754 21.916 68.8754 22.024 68.9114 22.168C68.9114 22.204 68.9474 22.24 69.0194 22.276C69.0914 22.312 69.1274 22.348 69.1274 22.384C69.3074 22.852 69.3974 23.23 69.3974 23.518C69.7214 23.338 70.0814 23.122 70.4774 22.87C70.8734 22.618 71.0894 22.384 71.1254 22.168C71.1614 22.096 71.2154 22.078 71.2874 22.114C71.3954 22.114 71.4494 22.15 71.4494 22.222C71.4134 22.474 71.1074 22.816 70.5314 23.248C69.9914 23.68 69.5774 23.986 69.2894 24.166C69.3254 24.202 69.3074 24.292 69.2354 24.436C69.1634 24.58 69.1454 24.688 69.1814 24.76C69.1814 24.796 69.1634 24.85 69.1274 24.922C69.0914 24.958 69.0554 25.012 69.0194 25.084C69.0194 25.228 68.9834 25.336 68.9114 25.408V25.516L68.7494 25.624C68.7134 25.66 68.6594 25.75 68.5874 25.894C68.5514 26.002 68.4974 26.092 68.4254 26.164H68.2634C68.1914 26.236 68.1554 26.326 68.1554 26.434C68.0834 26.542 67.9214 26.668 67.6694 26.812C67.4174 26.92 67.2554 27.028 67.1834 27.136C67.1834 27.136 67.1654 27.136 67.1294 27.136C67.0934 27.136 67.0394 27.172 66.9674 27.244H66.8054C66.7694 27.244 66.7334 27.28 66.6974 27.352C66.6614 27.388 66.6254 27.424 66.5894 27.46C66.4814 27.46 66.4274 27.496 66.4274 27.568C66.2834 27.568 66.1754 27.586 66.1034 27.622L65.5634 27.73C65.4194 27.874 65.2934 27.946 65.1854 27.946L65.1314 27.892C65.0594 27.964 65.0054 28 64.9694 28H64.7534C64.7174 28 64.6814 28.018 64.6454 28.054C64.6094 28.09 64.5734 28.108 64.5374 28.108H64.4294C64.3934 28.108 64.3574 28.108 64.3214 28.108C64.3214 28.144 64.2854 28.162 64.2134 28.162C64.1054 28.162 63.9434 28.162 63.7274 28.162C63.5474 28.162 63.4034 28.18 63.2954 28.216ZM62.7554 27.73C62.7554 27.73 62.7914 27.73 62.8634 27.73C62.9714 27.694 63.0434 27.676 63.0794 27.676C63.2594 27.676 63.4214 27.694 63.5654 27.73C63.7094 27.73 63.8534 27.73 63.9974 27.73C64.0694 27.73 64.1054 27.694 64.1054 27.622H64.2134C64.3214 27.514 64.3754 27.496 64.3754 27.568C64.4114 27.64 64.4654 27.64 64.5374 27.568C64.6094 27.568 64.6454 27.55 64.6454 27.514L64.8614 27.406C64.8974 27.406 64.9154 27.406 64.9154 27.406C64.9154 27.37 64.9334 27.352 64.9694 27.352H65.0774C65.1494 27.352 65.2214 27.316 65.2934 27.244C65.3654 27.172 65.4014 27.136 65.4014 27.136C65.4014 27.136 65.4554 27.082 65.5634 26.974C65.5634 26.974 65.5814 26.974 65.6174 26.974C65.6534 26.938 65.6894 26.92 65.7254 26.92C65.7974 26.848 65.8694 26.812 65.9414 26.812C65.9414 26.776 65.9774 26.74 66.0494 26.704C66.1214 26.632 66.1574 26.596 66.1574 26.596C66.1934 26.56 66.2294 26.542 66.2654 26.542C66.3374 26.506 66.3734 26.47 66.3734 26.434C66.4454 26.434 66.5894 26.308 66.8054 26.056C67.0214 25.804 67.1654 25.498 67.2374 25.138C67.2374 25.066 67.1294 25.12 66.9134 25.3C66.6974 25.444 66.5894 25.516 66.5894 25.516C66.4814 25.552 66.3734 25.624 66.2654 25.732C66.1574 25.804 66.0674 25.84 65.9954 25.84C65.9594 25.84 65.9054 25.876 65.8334 25.948C65.7974 25.984 65.7614 26.002 65.7254 26.002C65.6894 26.002 65.6714 26.02 65.6714 26.056C65.6714 26.056 65.6354 26.038 65.5634 26.002C65.5274 26.074 65.4194 26.146 65.2394 26.218C65.0594 26.29 64.9334 26.326 64.8614 26.326H64.6994L64.6454 26.38C64.6454 26.38 64.6274 26.398 64.5914 26.434C64.5554 26.434 64.5194 26.434 64.4834 26.434L64.1054 26.488H64.0514C64.0154 26.488 63.9794 26.506 63.9434 26.542C63.7994 26.542 63.6374 26.56 63.4574 26.596C63.2774 26.632 63.1694 26.65 63.1334 26.65H63.0794C63.0794 26.614 63.0614 26.596 63.0254 26.596V26.65H62.7554C62.6474 26.65 62.5214 26.632 62.3774 26.596C62.2694 26.524 62.1794 26.488 62.1074 26.488C62.0714 26.488 62.0534 26.506 62.0534 26.542C62.0534 26.542 62.0354 26.542 61.9994 26.542H61.8914C61.8554 26.542 61.8374 26.524 61.8374 26.488H61.5674C61.5674 26.38 61.5314 26.362 61.4594 26.434H61.4054C61.2614 26.434 61.1354 26.38 61.0274 26.272C60.9554 26.164 60.8294 26.11 60.6494 26.11L60.4874 25.948C60.4874 25.984 60.4694 26.02 60.4334 26.056C60.4334 26.056 60.4334 26.074 60.4334 26.11C60.4334 26.11 60.4514 26.146 60.4874 26.218C60.5594 26.254 60.5954 26.29 60.5954 26.326L60.7034 26.542L60.9194 26.812L61.0274 26.92C61.0634 26.956 61.0814 26.974 61.0814 26.974C61.1174 26.974 61.1534 27.01 61.1894 27.082C61.2614 27.082 61.2974 27.136 61.2974 27.244C61.9094 27.568 62.3954 27.73 62.7554 27.73Z" fill="white" fill-opacity="0.8"/>
<path d="M113.951 35.166C113.951 35.166 113.897 35.112 113.897 35.004C113.897 34.86 113.951 34.752 114.059 34.68C114.203 34.644 114.275 34.5 114.275 34.248V34.032C114.275 33.924 114.257 33.798 114.221 33.654C114.221 33.51 114.221 33.366 114.221 33.222C113.753 32.214 111.756 28.6832 111 28.4672C110.244 28.2152 109.398 28.1252 108.462 28.1972C107.13 28.2692 107.183 26.956 105.851 27.028C104.555 27.1 103.223 27.136 101.855 27.136H99.8032C98.5792 27.136 97.3552 27.154 96.1312 27.19C94.9432 27.226 93.8272 27.316 92.7832 27.46C91.9912 27.568 91.1812 27.676 90.3532 27.784C89.5252 27.856 88.6972 27.892 87.8692 27.892C87.3292 28.54 86.8792 29.008 86.5192 29.296C86.1592 29.62 85.6552 30.034 85.0072 30.538C84.9712 30.574 84.8992 30.592 84.7912 30.592C84.7192 30.592 84.6652 30.556 84.6292 30.484C84.5572 30.412 84.5572 30.304 84.6292 30.16C84.9172 29.764 85.2592 29.368 85.6552 28.972C86.0872 28.612 86.5372 28.252 87.0052 27.892C86.6452 27.856 86.3032 27.784 85.9792 27.676C85.6912 27.532 85.5652 27.334 85.6012 27.082C85.6732 26.542 85.9072 26.164 86.3032 25.948C86.7352 25.696 87.2032 25.534 87.7072 25.462C88.2112 25.39 88.6612 25.336 89.0572 25.3C90.1732 24.256 91.3252 23.23 92.5132 22.222C93.7012 21.178 94.9072 20.17 96.1312 19.198L99.0472 16.822C99.4792 16.57 99.8932 16.264 100.289 15.904C100.469 15.76 100.631 15.58 100.775 15.364C100.955 15.112 101.063 14.914 101.099 14.77L101.369 14.5C101.477 14.464 101.657 14.41 101.909 14.338C102.161 14.23 102.341 14.14 102.449 14.068C102.557 13.78 102.701 13.51 102.881 13.258C103.097 12.97 103.367 12.826 103.691 12.826C103.799 12.826 103.925 12.862 104.069 12.934V12.61L104.177 12.502L104.663 12.394L104.555 12.556L105.041 12.394L105.257 11.962C105.617 11.782 106.103 11.458 106.715 10.99C107.363 10.486 107.813 10.09 108.065 9.80201C108.821 9.47801 109.505 9.06401 110.117 8.56001C110.477 8.23601 110.837 7.84001 111.197 7.37201C111.593 6.90401 112.025 6.63401 112.493 6.56201L113.897 5.26601C113.609 5.19401 113.213 5.15801 112.709 5.15801C112.205 5.12201 111.683 5.10401 111.143 5.10401H108.983C108.767 5.10401 108.551 5.08601 108.335 5.05001C108.119 5.01401 107.903 4.99601 107.687 4.99601C107.075 4.99601 106.445 5.05001 105.797 5.15801C105.185 5.23001 104.555 5.30201 103.907 5.37401C103.655 5.41001 103.385 5.42801 103.097 5.42801C102.845 5.42801 102.575 5.42801 102.287 5.42801C101.315 5.46401 100.703 5.55401 100.451 5.69801C100.199 5.84201 100.037 5.98601 99.9652 6.13001C99.9292 6.27401 99.7312 6.40001 99.3712 6.50801C98.5792 6.68801 97.8952 7.04801 97.3192 7.58801C96.7432 8.12801 96.2392 8.72201 95.8072 9.37001C95.4112 9.98201 95.0692 10.54 94.7812 11.044C94.5292 11.512 94.2952 11.782 94.0792 11.854C94.0432 11.89 94.0072 11.908 93.9712 11.908C93.7912 11.908 93.7012 11.8 93.7012 11.584C93.7372 11.44 93.8092 11.35 93.9172 11.314C94.0612 11.278 94.1692 11.224 94.2412 11.152C94.5652 10.504 94.8352 10.018 95.0512 9.69401C95.3032 9.37001 95.6632 8.92001 96.1312 8.34401H96.1852C96.2572 8.12801 96.4012 7.78601 96.6172 7.31801C96.8332 6.81401 97.0132 6.49001 97.1572 6.34601C97.4092 5.91401 97.6432 5.59001 97.8592 5.37401C98.1112 5.12201 98.3272 4.76201 98.5072 4.29401C98.5792 4.15001 98.6332 4.00601 98.6692 3.86201C98.7412 3.68201 98.8132 3.52001 98.8852 3.37601C98.9572 3.19601 99.0652 3.10601 99.2092 3.10601C99.3532 3.10601 99.4252 3.17801 99.4252 3.32201C99.4252 3.53801 99.3892 3.75401 99.3172 3.97001C99.2812 4.18601 99.2272 4.38401 99.1552 4.56401C100.091 4.27601 101.171 4.07801 102.395 3.97001C103.619 3.82601 104.861 3.75401 106.121 3.75401C107.381 3.71801 108.479 3.70001 109.415 3.70001C109.811 3.70001 110.189 3.71801 110.549 3.75401C110.945 3.79001 111.323 3.84401 111.683 3.91601L112.547 3.48401C112.727 3.48401 112.889 3.50201 113.033 3.53801C113.213 3.57401 113.393 3.61001 113.573 3.64601C113.717 3.64601 113.987 3.66401 114.383 3.70001C114.779 3.73601 115.157 3.79001 115.517 3.86201C115.877 3.89801 116.057 3.98801 116.057 4.13201C116.381 3.84401 116.813 3.46601 117.353 2.99801C117.893 2.49401 118.343 2.17001 118.703 2.02601L119.621 1.70201C119.765 1.63001 119.963 1.52201 120.215 1.37801C120.467 1.19801 120.665 1.10801 120.809 1.10801C121.061 1.10801 121.169 1.18001 121.133 1.32401C121.133 1.50401 120.953 1.66601 120.593 1.81001C120.269 1.95401 120.017 2.06201 119.837 2.13401C119.693 2.24201 119.513 2.36801 119.297 2.51201C119.117 2.62001 118.955 2.74601 118.811 2.89001C118.703 3.03401 118.397 3.28601 117.893 3.64601C117.425 4.00601 117.101 4.27601 116.921 4.45601C116.561 4.74401 116.327 4.96001 116.219 5.10401C116.111 5.24801 116.021 5.41001 115.949 5.59001C115.913 5.73401 115.787 5.96801 115.571 6.29201C115.355 6.61601 115.175 6.77801 115.031 6.77801C114.923 6.77801 114.725 6.88601 114.437 7.10201C114.365 7.13801 114.167 7.31801 113.843 7.64201C113.555 7.93001 113.375 8.05601 113.303 8.02001C113.015 8.16401 112.727 8.41601 112.439 8.77601C112.187 9.10001 111.953 9.37001 111.737 9.58601C111.521 9.83801 111.287 10.054 111.035 10.234C110.819 10.378 110.585 10.54 110.333 10.72C110.189 10.828 109.973 11.026 109.685 11.314C109.433 11.602 109.235 11.782 109.091 11.854C108.875 11.998 108.497 12.268 107.957 12.664C107.417 13.024 106.823 13.42 106.175 13.852C105.563 14.284 104.987 14.662 104.447 14.986C103.943 15.274 103.583 15.418 103.367 15.418L101.963 16.444L101.315 16.552L100.991 16.93L101.261 17.092L101.207 17.308C100.883 17.56 100.433 17.794 99.8572 18.01C99.3172 18.19 98.8132 18.442 98.3452 18.766C97.9132 19.09 97.3372 19.522 96.6172 20.062C95.8972 20.602 95.1412 21.196 94.3492 21.844C93.5932 22.492 92.9092 23.122 92.2972 23.734C91.6852 24.346 91.2712 24.868 91.0552 25.3C91.2352 25.264 91.4152 25.246 91.5952 25.246C91.8112 25.246 92.0092 25.246 92.1892 25.246C92.6572 25.246 93.1252 25.264 93.5932 25.3C94.0972 25.3 94.6012 25.3 95.1052 25.3C96.4012 25.3 97.7152 25.264 99.0472 25.192C100.379 25.084 101.567 25.03 102.611 25.03C102.755 25.03 102.917 25.012 103.097 24.976C103.277 24.904 103.439 24.868 103.583 24.868C103.871 24.868 104.339 24.886 104.987 24.922C105.671 24.922 106.121 25.012 106.337 25.192C106.157 25.3 106.067 25.408 106.067 25.516C106.067 25.624 106.139 25.714 106.283 25.786C106.427 25.822 106.553 25.84 106.661 25.84C106.841 25.84 106.931 25.75 106.931 25.57C106.931 25.39 107.039 25.3 107.255 25.3C107.363 25.336 107.417 25.408 107.417 25.516C107.417 25.588 107.417 25.624 107.417 25.624H108.011C108.119 25.624 108.227 25.624 108.335 25.624C108.443 25.588 108.569 25.57 108.713 25.57C108.857 25.57 109.037 25.606 109.253 25.678C109.469 25.714 109.595 25.822 109.631 26.002C109.739 26.074 109.847 26.092 109.955 26.056C110.099 26.02 110.207 26.002 110.279 26.002C110.639 26.002 110.999 26.038 111.359 26.11C111.719 26.182 112.133 26.218 112.601 26.218C112.817 26.218 113.033 26.164 113.249 26.056C113.645 26.02 114.005 26.182 114.329 26.542C114.653 26.902 114.905 27.316 115.085 27.784C115.301 32.556 115.373 32.97 115.301 33.33C115.265 33.582 115.103 33.942 114.815 34.41C114.527 34.914 114.239 35.166 113.951 35.166Z" fill="white" fill-opacity="0.8"/>
<path d="M118.961 27.46C118.709 27.46 118.313 27.244 117.773 26.812C117.269 26.38 117.017 26.038 117.017 25.786C117.017 25.678 117.251 25.534 117.719 25.354C118.223 25.138 118.745 24.922 119.285 24.706C119.825 24.49 120.167 24.328 120.311 24.22V24.274C120.311 24.418 120.239 24.598 120.095 24.814C119.951 25.03 119.843 25.174 119.771 25.246L119.825 25.624L119.771 26.056C119.663 26.2 119.573 26.47 119.501 26.866C119.429 27.262 119.249 27.46 118.961 27.46Z" fill="white" fill-opacity="0.8"/>
</svg>
